<svg xmlns="http://www.w3.org/2000/svg" xmlns:xlink="http://www.w3.org/1999/xlink" fill="none" version="1.1" width="161" height="60" viewBox="0 0 161 60"><g transform="matrix(-1,0,0,1,322,0)"><path d="M164.12276,15.0673C160.094441,15.0673,159.82589,22.87,164.12276,22.87L184.5329,22.87C188.0241,22.87,188.0241,30.6726,184.5329,30.6726L177.819,30.6726Q177.819,33.9013,181.0417,33.9013L217.8337,33.9013Q219.6995,33.9013,220.4915,32.9792Q221.1813,32.1758,221.0563,30.6726L198.49779999999998,30.6726C193.9324,30.6726,194.2009,22.87,198.49779999999998,22.87L318.273,22.87C323.376,22.87,323.10699999999997,15.0673,318.273,15.0673L255.1628,15.0673C250.5974,15.0673,251.40300000000002,7.80269,255.1628,7.80269L285.241,7.80269C290.34299999999996,7.80269,288.73199999999997,0,285.241,0L247.9118,0L219.1765,0C214.8796,0,214.0739,7.80269,219.1765,7.80269L239.0495,7.80269C244.15210000000002,7.80269,243.8835,15.0673,239.0495,15.0673L164.12276,15.0673ZM177.819,52.1973C172.448,52.1973,172.9851,60,177.819,60L221.0563,60C225.35320000000002,60,225.35320000000002,52.1973,221.0563,52.1973L177.819,52.1973Z" fill="#E7D194" fill-opacity="1"/></g></svg>