<svg xmlns="http://www.w3.org/2000/svg" xmlns:xlink="http://www.w3.org/1999/xlink" fill="none" version="1.1" width="22" height="22" viewBox="0 0 22 22"><defs><clipPath id="master_svg0_3626_83717"><rect x="0" y="0" width="22" height="22" rx="0"/></clipPath></defs><g clip-path="url(#master_svg0_3626_83717)"><g><path d="M19.95708515625,8.787039423828125C19.78088515625,8.288609423828124,19.33398515625,7.929819423828125,18.79258515625,7.848179423828125L14.28088515625,7.188609423828125L12.31938515625,3.175323423828125C12.08298515625,2.687628423828125,11.56524515625,2.369659423828125,11.00020515625,2.369659423828125C10.43731515625,2.369659423828125,9.92168515625,2.685479423828125,9.68536515625,3.173175423828125L7.72383515625,7.186459423828125L3.20567515625,7.848179423828125C2.66426715625,7.927669423828125,2.21954015625,8.286459423828125,2.04336835625,8.787039423828125C1.86934495625,9.294079423828125,1.99825125625,9.841929423828125,2.38497015625,10.220049423828126L5.69786515625,13.474959423828125L4.92872515625,17.990959423828123C4.834185156249999,18.525959423828127,5.06407515625,19.054459423828124,5.530285156250001,19.372359423828126C5.77520515625,19.537859423828124,6.06309515625,19.625959423828125,6.36602515625,19.625959423828125C6.61094515625,19.625959423828125,6.85157515625,19.567859423828125,7.06856515625,19.454059423828124L10.99805515625,17.365759423828123L14.94478515625,19.460459423828127C15.41958515625,19.705359423828124,16.02538515625,19.671059423828126,16.478685156250002,19.372359423828126C16.93848515625,19.058759423828125,17.166185156250002,18.528059423828125,17.07388515625,17.993059423828125L16.304685156250002,13.477059423828125L19.61978515625,10.215749423828125C20.00218515625,9.841929423828125,20.13108515625,9.294079423828125,19.95708515625,8.787039423828125Z" fill="#B4A094" fill-opacity="1"/><path d="M19.72458515625,10.323019423828125L19.72488515625,10.322679423828125Q20.41208515625,9.650689423828126,20.09888515625,8.738349423828126Q19.78348515625,7.845909423828125,18.81498515625,7.699849423828125L14.38088515625,7.051629423828125L12.45408515625,3.1094564238281253Q12.02298515625,2.219659423828125,11.00020515625,2.219659423828125Q9.98073515625,2.219659423828125,9.55037515625,3.107763423828125L7.62381515625,7.049509423828125L3.18393515625,7.699759423828125Q2.21703815625,7.841719423828125,1.90187505625,8.737249423828125Q1.58829715625,9.650869423828125,2.28010215625,10.327299423828125L5.53683515625,13.526959423828124L4.78084515625,17.965759423828125Q4.6109951562500004,18.926959423828126,5.445765156249999,19.496359423828125Q5.8597051562499995,19.775859423828123,6.36602515625,19.775859423828123Q6.77799515625,19.775859423828123,7.13826515625,19.586859423828123L10.99810515625,17.535559423828126L14.87438515625,19.592959423828123Q15.73928515625,20.039159423828124,16.56128515625,19.497659423828125Q17.38838515625,18.933359423828126,17.22168515625,17.967559423828124L16.46568515625,13.529059423828125L19.72458515625,10.323019423828125ZM19.81518515625,8.835739423828125Q20.06678515625,9.568949423828126,19.51488515625,10.108489423828125L19.51458515625,10.108829423828125L16.14368515625,13.425059423828126L16.92598515625,18.018659423828126Q17.05998515625,18.794259423828127,16.39618515625,19.247159423828126Q15.72078515625,19.692059423828123,15.01508515625,19.327959423828126L10.99801515625,17.195959423828125L6.99886515625,19.321259423828124Q6.70405515625,19.475959423828126,6.36602515625,19.475959423828126Q5.951535156249999,19.475859423828126,5.61480515625,19.248459423828123Q4.94014515625,18.788359423828126,5.07659515625,18.016159423828125L5.85888515625,13.422859423828125L2.48983715625,10.112799423828125Q1.93360035625,9.568919423828124,2.18486215625,8.836839423828124Q2.43987815625,8.112219423828126,3.2274051562499997,7.996589423828125L7.82385515625,7.323409423828125L9.82034515625,3.238587423828125Q10.16872515625,2.519659423828125,11.00020515625,2.519659423828125Q11.83493515625,2.519659423828125,12.18458515625,3.241190423828125L14.18088515625,7.325579423828125L18.77018515625,7.996499423828125Q19.56068515625,8.115689423828126,19.81518515625,8.835739423828125ZM19.00718515625,9.117769423828125Q18.92688515625,8.888199423828125,18.64918515625,8.847059423828124L18.60518515625,9.143819423828125Q18.70038515625,9.157919423828126,18.72258515625,9.213079423828125Q18.73288515625,9.255459423828125,18.69938515625,9.288979423828124L15.17048515625,12.757759423828125Q14.89768515625,13.026259423828124,14.96238515625,13.401559423828125L15.78088515625,18.218059423828123Q15.78768515625,18.257259423828124,15.74218515625,18.288859423828125Q15.65048515625,18.351359423828125,15.55018515625,18.300059423828124L11.34121515625,16.066659423828124Q11.00433515625,15.887559423828124,10.65679515625,16.065659423828123L6.45673515625,18.298959423828123Q6.35326515625,18.352859423828125,6.26648515625,18.292859423828126L6.26395515625,18.291159423828127L6.26135515625,18.289559423828123Q6.21210515625,18.258459423828125,6.21943515625,18.216659423828126L7.04026515625,13.399159423828126Q7.10553515625,13.020559423828125,6.83133515625,12.754859423828124L3.30219515625,9.288039423828124Q3.26897515625,9.254819423828124,3.2796851562500002,9.225989423828125Q3.30264515625,9.160269423828126,3.3977851562500003,9.145909423828126L8.21611515625,8.439169423828126Q8.592785156249999,8.383519423828126,8.76644515625,8.040549423828125L10.86425515625,3.7503994238281253Q10.89847515625,3.681969423828125,11.00235515625,3.681969423828125Q11.11074515625,3.681969423828125,11.14134515625,3.747759423828125L13.23948515625,8.038679423828125L13.50898515625,7.906889423828125L11.41336515625,3.6212394238281247Q11.30207515625,3.3819694238281253,11.00235515625,3.3819694238281253Q10.71306515625,3.3819694238281253,10.59474515625,3.618609423828125L8.49880515625,7.905029423828125Q8.39530515625,8.109439423828125,8.17257515625,8.142339423828126L3.3530151562499997,8.849269423828126Q3.0789751562500003,8.890639423828125,2.99845515625,9.121529423828125Q2.92072115625,9.330819423828125,3.0919651562499997,9.502059423828126L6.62259515625,12.970359423828125Q6.78297515625,13.125759423828125,6.74452515625,13.348759423828126L5.923945156249999,18.164859423828126Q5.88211515625,18.403259423828125,6.09857515625,18.541559423828126Q6.33297515625,18.701659423828126,6.59757515625,18.563859423828124L10.79361515625,16.332659423828126Q11.00178515625,16.225959423828122,11.20059515625,16.331659423828125L15.41348515625,18.567059423828123Q15.67228515625,18.699559423828124,15.91328515625,18.535259423828126Q16.11628515625,18.394359423828124,16.076585156249998,18.167759423828123L15.25798515625,13.350659423828125Q15.21998515625,13.129959423828126,15.38078515625,12.971759423828125L18.91158515625,9.501119423828126Q19.07198515625,9.340679423828124,19.00968515625,9.125609423828125L19.00858515625,9.121649423828124L19.00718515625,9.117769423828125Z" fill-rule="evenodd" fill="#B4A094" fill-opacity="1"/></g></g></svg>