<svg xmlns="http://www.w3.org/2000/svg" xmlns:xlink="http://www.w3.org/1999/xlink" fill="none" version="1.1" width="22" height="22" viewBox="0 0 22 22"><defs><clipPath id="master_svg0_3626_83337"><rect x="0" y="0" width="22" height="22" rx="0"/></clipPath></defs><g clip-path="url(#master_svg0_3626_83337)"><g><path d="M11.366689609375,2.2001953125C16.024049609375,2.2001953125,19.800049609375,5.9761253125,19.800049609375,10.6335253125C19.800049609375,15.2908953125,16.024049609375,19.0668953125,11.366689609375,19.0668953125C10.420689609375,19.0668953125,9.493759609375001,18.9106953125,8.616689609375001,18.6077953125C8.246719609374999,18.4669953125,8.055319609375001,18.0578953125,8.184239609375,17.6835953125C8.313159609374999,17.309295312499998,8.715869609375,17.1048953125,9.094089609375,17.2217953125C9.818619609375,17.471095312499997,10.582759609375,17.6001953125,11.366689609375,17.6001953125C15.214249609375,17.6001953125,18.333349609375,14.4810953125,18.333349609375,10.6335253125C18.333349609375,6.7859453125,15.214249609375,3.6668653124999997,11.366689609375,3.6668653124999997C7.519109609375,3.6668653124999997,4.400019609375,6.7859453125,4.400019609375,10.6335253125C4.400019609375,11.6242653125,4.606819609375,12.5841953125,5.001359609375,13.4685953125C5.166689609375,13.8385953125,5.000599609375,14.2725953125,4.630469609375,14.4376953125C4.260339609375,14.6027953125,3.8264446093749998,14.4364953125,3.661555609375,14.0662953125C3.180015609375,12.9859953125,2.931876359375,11.8162653125,2.933356165885,10.6335253125C2.933356165885,5.9761253125,6.709289609375,2.2001953125,11.366689609375,2.2001953125Z" fill="#2B2B36" fill-opacity="1"/></g><g><path d="M18.3083013625,14.666777265625C18.2943674325,14.685847265625,18.2943674325,13.720047265625,18.3083013625,11.767917265625C18.3633012625,11.261177265625,18.3633012625,10.516114265625,18.3083013625,9.533447265625C19.7258315625,9.533447265625,20.8749715625,10.682587265625,20.8749715625,12.100117265625C20.8749715625,13.517647265625,19.7258315625,14.666777265625,18.3083013625,14.666777265625Z" fill="#2B2B36" fill-opacity="1"/></g><g><path d="M9.899980390625,16.13330078125L11.366650390625,16.13330078125Q13.199980390625,16.13330078125,13.199980390625,17.96663078125Q13.199980390625,19.79997078125,11.366650390625,19.79997078125L9.899980390625,19.79997078125Q8.066650390625,19.79997078125,8.066650390625,17.96663078125Q8.066650390625,16.13330078125,9.899980390625,16.13330078125Z" fill="#2B2B36" fill-opacity="1"/></g><g><path d="M4.033222734375,14.666777265625C4.9784827343749996,14.666777265625,4.9784827343749996,13.700247265625,4.033222734375,11.767917265625C3.978952734375,11.261177265625,3.978952734375,10.516114265625,4.033222734375,9.533447265625C2.615692734375,9.533447265625,1.466552734375,10.682587265625,1.466552734375,12.100117265625C1.466552734375,13.517647265625,2.615692734375,14.666777265625,4.033222734375,14.666777265625Z" fill="#2B2B36" fill-opacity="1"/></g><g><path d="M6.587670453125,11.83140521875C6.882870453125,11.55383751875,7.347232453125,11.56828811875,7.6245994531250005,11.86367221875C8.593509453125,12.89915421875,9.948709453125,13.48606421875,11.366799453125001,13.48434421875C12.730799453125,13.48434421875,14.008999453125,12.95047421875,14.963069453125,12.01327321875C15.252039453125,11.72936191875,15.716459453125,11.73346621875,16.000369453125,12.02243921875C16.284279453125002,12.31141321875,16.280179453125,12.77582421875,15.991199453125,13.05974421875C14.758249453125,14.27340421875,13.096879453125,14.95259421875,11.366799453125001,14.95027421875C9.543799453125,14.952264218749999,7.801609453125,14.198134218749999,6.555404453125,12.86760421875C6.278329353125,12.57249921875,6.292771353125,12.10870221875,6.587670453125,11.83140521875Z" fill="#2B2B36" fill-opacity="1"/></g></g></svg>