<svg xmlns="http://www.w3.org/2000/svg" xmlns:xlink="http://www.w3.org/1999/xlink" fill="none" version="1.1" width="78" height="66" viewBox="0 0 78 66"><defs><mask id="master_svg0_4577_78984"><g><rect x="0" y="0" width="78" height="66" rx="0" fill="#FFFFFF" fill-opacity="1"/></g></mask></defs><g mask="url(#master_svg0_4577_78984)"><g style="opacity:0.800000011920929;"><ellipse cx="46.5" cy="47.5" rx="45.5" ry="45.5" fill-opacity="0" stroke-opacity="0.800000011920929" stroke="#E5E6EB" fill="none" stroke-width="2"/></g><g style="opacity:0.800000011920929;"><ellipse cx="47" cy="48" rx="38.5" ry="38.5" fill-opacity="0" stroke-opacity="0.800000011920929" stroke="#E5E6EB" fill="none" stroke-width="3"/></g><g transform="matrix(0.8221921920776367,-0.5692099332809448,0.5692099332809448,0.8221921920776367,-29.331141230184585,20.407911758869886)" style="opacity:0.800000011920929;"><path d="M30.64,58.25234375Q30.759999999999998,58.15234375,30.9,57.95234375Q31.02,57.79234375,31.15,57.62234375Q31.28,57.45234375,31.439999999999998,57.33234375Q31.58,57.19234375,31.82,57.19234375Q31.939999999999998,57.19234375,32.03,57.21234415Q32.12,57.23234365,32.28,57.33234375Q32.32,57.35234475,32.38,57.38234375Q32.44,57.41234375,32.54,57.47234475Q32.64,57.51234475,32.76,57.58234375Q32.88,57.65234375,33,57.71234375Q33.26,57.87234375,33.49,57.99234375Q33.72,58.11234375,33.84,58.17234375L34.22,58.41234375Q34.44,58.53234375,34.64,58.67234375Q34.84,58.81234375,34.96,59.01234375Q35.1,59.21234375,35.1,59.45234375Q35.1,59.63234375,34.97,59.71234375Q34.84,59.79234375,34.68,59.85234375Q34.519999999999996,59.91234375,34.370000000000005,59.99234375Q34.22,60.07234375,34.2,60.23234375Q34.14,60.75234375,34.129999999999995,61.34234375Q34.120000000000005,61.93234375,34.120000000000005,62.47234375Q34.120000000000005,62.79234375,34.129999999999995,63.09234375Q34.14,63.39234375,34.16,63.672343749999996Q34.18,63.97234375,34.19,64.27234375Q34.2,64.57234375,34.2,64.85234375Q34.2,65.19234374999999,33.89,65.34234375Q33.58,65.49234375,33.18,65.59234375Q32.76,65.67234375,32.35,65.68234375Q31.939999999999998,65.69234374999999,31.740000000000002,65.69234374999999L31.16,65.69234374999999L30.92,65.63234375L30.86,65.55234375L30.86,64.57234375L24.08,64.57234375L24.08,68.37234375Q24.08,69.11234375000001,24.18,69.47234375Q24.28,69.85234375,24.55,70.00234375Q24.82,70.15234375,25.28,70.15234375L26.46,70.19234374999999L26.78,70.19234374999999L27.28,70.23234375Q27.439999999999998,70.25234375,27.57,70.25234375Q27.7,70.25234375,27.82,70.25234375Q27.880000000000003,70.25234375,28.380000000000003,70.26234375Q28.880000000000003,70.27234375,29.47,70.27234375Q30.060000000000002,70.27234375,30.54,70.26234375Q31.02,70.25234375,31.060000000000002,70.25234375Q31.22,70.25234375,31.3,70.23234375Q31.5,70.21234375,31.72,70.19234374999999Q31.9,70.17234375,32.08,70.15234375Q32.26,70.13234375,32.4,70.11234375000001L33.019999999999996,69.99234375Q33.24,69.83234375,33.37,69.59234375Q33.5,69.35234375,33.62,69.07234375Q33.64,69.01234375,33.72,68.78234375Q33.8,68.55234375,33.92,68.27234375Q33.96,68.13234375,34,68.01234375Q34.04,67.89234375,34.08,67.77234375L34.2,67.45234375L34.2,67.39234375Q34.239999999999995,67.29234375,34.260000000000005,67.22234375Q34.28,67.15234375,34.3,67.05234375Q34.4,66.67234375,34.58,66.49234375Q34.68,66.39234375,34.86,66.39234375Q35.120000000000005,66.39234375,35.239999999999995,66.83234375Q35.28,67.05234375,35.31,67.29234375Q35.34,67.53234375,35.36,67.81234375Q35.4,68.39234375,35.42,68.95234375Q35.44,69.51234375,35.56,69.79234375Q35.64,70.01234375,35.84,70.21234375Q36.04,70.41234375,36.239999999999995,70.63234375Q36.44,70.83234375,36.59,71.02234375Q36.739999999999995,71.21234375,36.739999999999995,71.33234375Q36.739999999999995,71.79234375,36.260000000000005,72.06234375Q35.78,72.33234375,35.120000000000005,72.47234375Q34.46,72.63234375,33.8,72.70234375Q33.14,72.77234375,32.8,72.79234375L30.1,72.79234375Q29.619999999999997,72.79234375,29.119999999999997,72.79234375Q28.619999999999997,72.79234375,28.1,72.81234375Q27.08,72.83234375,26.05,72.78234375Q25.02,72.73234375,24,72.57234375Q23.48,72.49234375,23,72.38234375Q22.52,72.27234375,22.06,72.11234375000001Q21.84,72.03234375,21.68,71.87234375Q21.52,71.71234375,21.38,71.51234375Q21.259999999999998,71.29234375,21.15,71.08234375Q21.04,70.87234375,20.96,70.69234374999999Q20.86,70.59234375,20.86,70.43234375Q20.82,70.31234375,20.82,70.27234375L20.82,60.57234375Q20.82,60.57234375,21.12,60.63234375Q21.32,60.71234375,21.72,60.77234375L22.5,60.95234375L23.28,61.13234375L23.86,61.25234375Q24.08,61.33234375,24.08,61.33234375L24.08,63.25234375L24.3,63.29234375Q24.34,63.31234375,24.39,63.31234375Q24.44,63.31234375,24.48,63.31234375L25.72,63.31234375Q26.36,63.31234375,27.009999999999998,63.30234375Q27.66,63.29234375,28.3,63.27234375Q28.939999999999998,63.25234375,29.58,63.25234375Q30.22,63.25234375,30.86,63.25234375Q30.86,63.15234375,30.86,62.91234375Q30.86,62.672343749999996,30.880000000000003,62.39234375Q30.9,62.11234375,30.91,61.882343750000004Q30.92,61.65234375,30.92,61.55234375L30.92,59.51234375L26.439999999999998,59.57234375Q25.3,59.59234375,24.19,59.60234375Q23.08,59.61234375,21.94,59.65234375L21.7,59.65234375L21.4,59.71234375L21.2,59.71234375L20.58,58.45234375L20.58,58.25234375Q20.7,58.25234375,20.81,58.26234375Q20.92,58.27234375,21.04,58.31234375L23.86,58.31234375Q25.52,58.31234375,27.259999999999998,58.25234375Q28.96,58.19234375,30.64,58.25234375ZM38.78,65.01234375Q38.78,64.97234375,38.79,64.91234375Q38.8,64.85234375,38.86,64.75234375Q38.879999999999995,64.71234375,38.9,64.64234375Q38.92,64.57234375,38.980000000000004,64.47234375Q39.08,64.23234375,39.22,64.01234375L39.46,63.53234375Q39.5,63.43234375,39.54,63.37234375Q39.58,63.31234375,39.6,63.27234375Q39.72,62.99234375,39.91,62.57234375Q40.1,62.15234375,40.3,61.69234375L41.06,59.87234375Q41.14,59.67234375,41.21,59.51234375Q41.28,59.35234375,41.32,59.21234375L41.44,58.89234375L42.04,57.01234475Q42.08,56.85234475,42.19,56.78234375Q42.3,56.71234375,42.42,56.71234375Q42.7,56.71234375,42.86,56.77234375Q43.019999999999996,56.83234375,43.3,56.93234475L43.78,57.13234425Q43.94,57.19234375,44.120000000000005,57.27234375Q44.3,57.35234475,44.5,57.41234375Q44.68,57.51234475,44.86,57.58234375Q45.04,57.65234375,45.22,57.73234375L45.7,57.93234475L45.760000000000005,57.99234375L45.7,58.11234375L44.8,58.97234375L44.8,59.03234375L44.879999999999995,59.11234375Q44.94,59.17234375,45.19,59.28234375Q45.44,59.39234375,45.72,59.49234375Q46,59.61234375,46.239999999999995,59.72234375Q46.480000000000004,59.83234375,46.58,59.89234375Q46.66,59.89234375,46.78,59.99234375Q46.879999999999995,60.09234375,46.94,60.09234375Q47.120000000000005,60.21234375,47.22,60.37234375Q47.32,60.57234375,47.480000000000004,60.65234375Q47.84,60.75234375,48.17,60.85234375Q48.5,60.95234375,48.82,61.11234375Q49.44,61.41234375,50.14,61.57234375L50.22,61.57234375L50.26,61.172343749999996Q50.28,61.03234375,50.29,60.94234375Q50.3,60.85234375,50.3,60.81234375L50.3,59.47234375Q49.96,59.47234375,49.629999999999995,59.47234375Q49.3,59.47234375,48.96,59.49234375Q48.620000000000005,59.51234375,48.29,59.52234375Q47.96,59.53234375,47.620000000000005,59.53234375L47.260000000000005,59.53234375Q47.06,59.27234375,46.92,58.87234375Q46.84,58.67234375,46.769999999999996,58.52234375Q46.7,58.37234375,46.66,58.27234375L46.8,58.19234375Q47.2,58.25234375,47.620000000000005,58.26234375Q48.04,58.27234375,48.44,58.27234375L49.480000000000004,58.27234375Q49.519999999999996,58.27234375,49.59,58.27234375Q49.66,58.27234375,49.760000000000005,58.25234375Q49.879999999999995,58.25234375,50.01,58.25234375Q50.14,58.25234375,50.26,58.23234375L50.76,58.19234375L51.04,58.19234375Q51.72,58.19234375,52.42,58.17234375Q53.12,58.15234375,53.8,58.05234475Q54,58.03234375,54.15,57.88234375Q54.3,57.73234375,54.44,57.57234375Q54.56,57.41234375,54.72,57.28234375Q54.88,57.15234375,55.06,57.15234375Q55.24,57.15234375,55.55,57.40234375Q55.86,57.65234375,56.2,57.97234475Q56.54,58.31234375,56.77,58.66234375Q57,59.01234375,57,59.19234375Q57,59.29234375,56.87,59.34234375Q56.74,59.39234375,56.62,59.39234375L53.34,59.39234375Q53.34,59.53234375,53.5,59.53234375Q53.66,59.57234375,53.66,59.67234375Q53.66,59.83234375,53.57,59.94234375Q53.48,60.05234375,53.38,60.15234375Q53.32,60.19234375,53.27,60.23234375Q53.22,60.27234375,53.16,60.31234375Q53.04,60.41234375,52.98,60.50234375Q52.92,60.59234375,52.86,60.73234375Q52.82,60.79234375,52.78,60.87234375Q52.74,60.95234375,52.7,61.01234375L52.52,61.35234375L52.52,61.51234375L53.2,61.51234375L53.34,61.43234375L53.48,61.23234375L53.88,60.63234375L54.02,60.45234375L54.1,60.37234375L54.16,60.37234375Q54.22,60.37234375,54.46,60.49234375Q54.68,60.61234375,54.95,60.80234375Q55.22,60.99234375,55.56,61.23234375Q55.9,61.47234375,56.16,61.71234375Q56.42,61.95234375,56.6,62.15234375Q56.78,62.37234375,56.78,62.49234375Q56.78,62.55234375,56.62,62.672343749999996Q56.54,62.73234375,56.48,62.77234375Q56.32,62.85234375,56.28,62.85234375L56.18,62.91234375Q56.04,62.91234375,56.04,63.05234375L56.04,68.67234375Q56.04,68.81234375,55.74,68.93234375Q55.44,69.07234375,55.05,69.18234375Q54.66,69.29234375,54.3,69.33234375Q54.14,69.37234375,54.02,69.38234375Q53.9,69.39234375,53.82,69.39234375Q53.86,69.41234375,53.93,69.44234374999999Q54,69.47234375,54.1,69.49234375L54.58,69.69234374999999Q54.72,69.77234375,54.83,69.82234375Q54.94,69.87234375,55.06,69.91234375Q55.28,70.01234375,55.42,70.09234375Q55.56,70.17234375,55.82,70.33234375Q56.08,70.49234375,56.31,70.68234375Q56.54,70.87234375,56.7,71.09234375Q56.86,71.35234375,56.86,71.55234375Q56.86,71.83234375,56.67,72.19234374999999Q56.48,72.55234375,56.2,72.89234375Q55.92,73.23234375,55.61,73.48234375Q55.3,73.73234375,55.06,73.73234375Q54.66,73.73234375,54.4,73.37234375L54.18,73.03234375L53.84,72.51234375Q53.74,72.37234375,53.66,72.25234375Q53.58,72.13234375,53.5,72.03234375Q53.3,71.77234375,53.28,71.69234374999999Q53.28,71.65234375,53.2,71.56234375Q53.12,71.47234375,53.06,71.43234375Q53.02,71.37234375,52.96,71.31234375Q52.9,71.25234375,52.84,71.15234375L52.16,70.43234375L52.1,70.43234375Q51.64,71.09234375,51.02,71.56234375Q50.4,72.03234375,49.7,72.37234375Q48.980000000000004,72.73234375,48.2,73.01234375Q47.42,73.29234375,46.66,73.51234375L46.44,73.51234375Q46,73.51234375,46,73.07234375L46,73.01234375L46.980000000000004,72.27234375Q47.32,72.05234375,47.6,71.83234375L48,71.55234375Q48.739999999999995,70.95234375,49.230000000000004,70.37234375Q49.72,69.79234375,50,69.13234375Q50.28,68.49234375,50.38,67.77234375Q50.48,67.05234375,50.52,66.15234375L50.52,62.97234375Q50.92,62.97234375,51.28,63.03234375Q51.64,63.09234375,52,63.172343749999996Q52.36,63.27234375,52.71,63.33234375Q53.06,63.39234375,53.42,63.39234375L53.42,62.69234375L51.42,62.69234375Q51.32,62.69234375,51.15,62.70234375Q50.98,62.71234375,50.76,62.73234375L50.08,62.77234375L50.08,63.87234375Q50.06,64.07234375,50.06,64.28234375Q50.06,64.49234375,50.06,64.73234375Q50.06,64.97234375,50.06,65.22234375Q50.06,65.47234375,50.04,65.75234375Q50.02,66.03234375,50.02,66.29234375Q50.02,66.55234375,50.02,66.77234375L50.02,67.63234375Q50,67.79234375,50,67.92234375Q50,68.05234375,50,68.11234375000001Q50,68.19234374999999,50.02,68.25234375L50.02,68.51234375Q50.02,68.67234375,50.01,68.79234375Q50,68.91234375,49.94,68.95234375Q49.78,69.17234375,49.519999999999996,69.30234375Q49.260000000000005,69.43234375,48.94,69.51234375Q48.620000000000005,69.61234375000001,48.31,69.63234375Q48,69.65234375,47.760000000000005,69.65234375L47.56,69.65234375Q47.4,69.69234374999999,47.4,69.51234375L47.4,66.77234375Q47.239999999999995,66.77234375,47.03,66.79234375Q46.82,66.81234375,46.66,66.93234375L43.980000000000004,69.25234375L43.980000000000004,69.29234375Q44.22,69.41234375,44.55,69.56234375Q44.879999999999995,69.71234375,45.16,69.93234375Q45.44,70.15234375,45.64,70.40234375Q45.84,70.65234375,45.84,70.99234375Q45.84,71.37234375,45.67,71.75234375Q45.5,72.13234375,45.22,72.43234375Q44.92,72.77234375,44.53,72.96234375Q44.14,73.15234375,43.68,73.15234375Q43.519999999999996,73.15234375,43.43,73.06234375Q43.34,72.97234375,43.239999999999995,72.81234375Q42.72,71.59234375,42.04,70.42234375Q41.36,69.25234375,40.54,68.11234375000001Q40.44,68.11234375000001,40.480000000000004,67.99234375L40.480000000000004,67.83234375L40.620000000000005,67.83234375L40.620000000000005,67.77234375L40.92,67.83234375L41.239999999999995,67.99234375L41.68,68.21234375Q41.9,68.33234375,42.11,68.42234375Q42.32,68.51234375,42.42,68.53234375Q42.42,68.53234375,42.54,68.57234375Q42.6,68.57234375,42.64,68.59234375Q42.68,68.59234375,42.82,68.31234375Q42.980000000000004,68.03234375,43.14,67.70234375Q43.3,67.37234375,43.44,67.03234375L43.620000000000005,66.63234375L42.5,66.63234375Q42.239999999999995,66.63234375,41.989999999999995,66.64234375Q41.739999999999995,66.65234375,41.5,66.67234375Q41.239999999999995,66.69234374999999,40.989999999999995,66.70234375Q40.739999999999995,66.71234375,40.480000000000004,66.71234375L40.34,66.71234375L39.72,65.57234375L39.72,65.45234375L41.16,65.45234375Q41.46,65.45234375,41.94,65.44234374999999Q42.42,65.43234375,42.879999999999995,65.41234375L43.980000000000004,65.37234375L44.2,65.31234375Q44.32,65.17234375,44.489999999999995,65.02234375Q44.66,64.87234375,44.83,64.75234375Q45,64.63234375,45.129999999999995,64.56234375Q45.260000000000005,64.49234375,45.3,64.53234375Q45.82,64.89234375,46.379999999999995,65.28234375Q46.94,65.67234375,47.4,66.15234375L47.4,61.91234375L47.32,61.43234375Q47.28,61.65234375,47.09,61.89234375Q46.9,62.132343750000004,46.66,62.33234375Q46.42,62.55234375,46.14,62.71234375Q45.86,62.87234375,45.620000000000005,62.97234375Q45.5,62.87234375,45.39,62.76234375Q45.28,62.65234375,45.239999999999995,62.55234375L44.06,60.29234375L43.980000000000004,60.25234375L43.9,60.25234375Q43.68,60.61234375,43.41,60.96234375Q43.14,61.31234375,42.86,61.65234375L42.86,61.71234375Q42.86,61.79234375,43.2,61.91234375Q43.54,62.05234375,43.94,62.28234375Q44.34,62.51234375,44.68,62.79234375Q45.019999999999996,63.07234375,45.019999999999996,63.47234375Q45.019999999999996,63.81234375,44.83,64.10234375Q44.64,64.39234375,44.36,64.61234375Q43.72,65.09234375,43,65.09234375Q42.64,65.09234375,42.489999999999995,64.73234375Q42.34,64.37234375,42.28,63.91234375Q42.239999999999995,63.69234375,42.230000000000004,63.49234375Q42.22,63.29234375,42.2,63.132343750000004Q42.16,62.77234375,42.1,62.77234375L42.04,62.77234375Q42,62.81234375,41.93,62.87234375Q41.86,62.93234375,41.760000000000005,63.01234375Q41.66,63.11234375,41.56,63.20234375Q41.46,63.29234375,41.36,63.39234375L40.7,64.03234375Q40.6,64.07234375,40.5,64.21234375Q40.32,64.33234375,40.260000000000005,64.37234375Q40.2,64.41234375,40.04,64.57234375L39.260000000000005,65.19234374999999Q39.06,65.33234375,38.92,65.26234375Q38.78,65.19234374999999,38.78,65.01234375ZM52.68,69.11234375000001Q52.8,69.11234375000001,52.89,69.12234375Q52.98,69.13234375,53.06,69.17234375Q53.2,69.25234375,53.42,69.25234375L53.42,63.89234375L53.34,63.83234375L53.2,64.09234375L53.16,64.53234375Q53.14,64.63234375,53.14,64.71234375Q53.14,64.79234375,53.14,64.87234375L53.14,65.15234375Q53.08,66.15234375,52.96,67.11234375000001Q52.84,68.07234375,52.68,69.03234375L52.68,69.11234375000001ZM58.9,58.21234375Q60.22,58.21234375,61.48,58.17234375Q62.74,58.13234375,64.06,58.07234375Q64.66,58.07234375,65.27000000000001,58.05234475Q65.88,58.03234375,66.5,57.87234375Q66.8,57.79234375,67.1,57.59234475Q67.22,57.49234375,67.35,57.42234375Q67.47999999999999,57.35234475,67.62,57.29234375L67.68,57.29234375Q67.88,57.41234375,68.17,57.59234475Q68.46000000000001,57.77234375,68.72,57.99234375Q68.97999999999999,58.21234375,69.15,58.46234375Q69.32,58.71234375,69.32,58.99234375L69.25999999999999,59.07234375L69.12,59.13234375L67.56,59.13234375Q67.46000000000001,59.13234375,67.46000000000001,59.39234375Q67.46000000000001,59.43234375,67.46000000000001,59.48234375Q67.46000000000001,59.53234375,67.47999999999999,59.57234375L67.47999999999999,59.69234375Q68.74000000000001,59.69234375,69.9,59.64234375Q71.06,59.59234375,72.32,59.55234375Q72.42,59.45234375,72.5,59.27234375L73,58.57234375Q73.14,58.43234375,73.2,58.43234375L73.25999999999999,58.43234375L73.42,58.51234375L73.82,58.71234375L74.32,59.01234375Q74.44,59.09234375,74.55,59.16234375Q74.66,59.23234375,74.75999999999999,59.27234375Q74.86,59.35234375,74.91,59.38234375Q74.96000000000001,59.41234375,74.97999999999999,59.43234375Q75,59.47234375,75.12,59.54234375Q75.24000000000001,59.61234375,75.38,59.71234375L75.66,59.89234375Q75.72,59.95234375,75.78,59.98234375Q75.84,60.01234375,75.88,60.05234375Q75.94,60.11234375,76.00999999999999,60.16234375Q76.08,60.21234375,76.16,60.25234375Q76.32,60.37234375,76.32,60.47234375Q76.32,60.85234375,76.06,60.99234375Q75.8,61.13234375,75.52000000000001,61.23234375L73.5,67.85234375Q73.46000000000001,67.93234375,73.66,68.09234375Q73.88,68.27234375,74.16,68.48234375Q74.44,68.69234374999999,74.72,68.87234375Q75,69.05234375,75.17,69.14234375Q75.34,69.23234375,75.64,69.33234375Q75.92,69.45234375,76.19,69.59234375Q76.46000000000001,69.73234375,76.66,69.91234375Q76.86,70.11234375000001,76.86,70.39234375Q76.86,70.65234375,76.52000000000001,70.93234375Q76.46000000000001,70.99234375,76.38,71.05234375Q76.3,71.11234375000001,76.22,71.15234375L75.96000000000001,71.37234375Q75.5,71.85234375,75.2,72.37234375Q74.9,72.89234375,74.9,73.53234375Q74.74000000000001,73.47234375,74.58,73.38234375Q74.42,73.29234375,74.25999999999999,73.17234375L73.72,72.75234375L73.58,72.63234375L73.3,72.37234375Q73.14,72.23234375,73.00999999999999,72.13234375Q72.88,72.03234375,72.84,71.93234375Q72.8,71.89234375,72.72999999999999,71.82234375Q72.66,71.75234375,72.56,71.63234375Q72.38,71.39234375,72.18,71.14234375Q71.97999999999999,70.89234375,71.82,70.71234375Q71.64,70.53234375,71.64,70.53234375L71.56,70.53234375L71.25999999999999,70.77234375L70.75999999999999,71.13234375Q70.62,71.23234375,70.5,71.32234375Q70.38,71.41234375,70.25999999999999,71.49234375L69.94,71.71234375Q69.75999999999999,71.81234375,69.59,71.94234374999999Q69.42,72.07234375,69.25999999999999,72.17234375Q68.9,72.43234375,68.53,72.64234375Q68.16,72.85234375,67.75999999999999,73.05234375Q67.56,73.15234375,67.36,73.21234375Q67.16,73.27234375,66.94,73.31234375Q66.94,73.27234375,66.89,73.18234375Q66.84,73.09234375,66.8,73.09234375L66.74000000000001,73.09234375Q66.22,73.31234375,65.87,73.46234375Q65.52000000000001,73.61234375000001,65.02000000000001,73.61234375000001L64.64,73.61234375000001Q64.47999999999999,73.55234375,64.45,73.37234375Q64.42,73.19234374999999,64.42,73.03234375Q64.42,72.19234374999999,64.47999999999999,71.35234375Q64.52000000000001,70.93234375,64.53999999999999,70.51234375Q64.56,70.09234375,64.56,69.69234374999999L64.47999999999999,69.69234374999999L61.16,71.31234375Q60.98,71.47234375,60.72,71.59234375Q60.46,71.71234375,60.18,71.71234375Q60.02,71.71234375,59.82,71.31234375Q59.6,70.91234375,59.38,70.41234375Q59.16,69.91234375,59,69.47234375Q58.86,69.03234375,58.86,68.91234375Q58.86,68.79234375,58.98,68.77234375Q59.14,68.73234375,59.22,68.69234374999999Q59.32,68.65234375,59.5,68.61234375000001Q59.68,68.57234375,59.84,68.53234375Q59.94,68.49234375,60.05,68.47234375Q60.16,68.45234375,60.26,68.43234375L60.34,68.35234375L60.34,59.49234375L59.44,59.49234375L58.9,58.43234375L58.9,58.21234375ZM67.47999999999999,67.15234375L68.96000000000001,66.87234375Q69.08,66.87234375,69.1,66.98234375Q69.12,67.09234375,69.12,67.15234375Q69.12,67.31234375,68.92,67.46234375Q68.72,67.61234375000001,68.44,67.77234375Q68.16,67.93234375,67.89,68.10234375Q67.62,68.27234375,67.47999999999999,68.43234375Q67.42,69.17234375,67.41,69.72234375Q67.4,70.27234375,67.4,71.01234375L67.4,72.19234374999999Q68.14,71.63234375,68.61,70.81234375Q69.08,69.99234375,69.47999999999999,69.19234374999999L69.62,68.93234375Q69.66,68.85234375,69.69,68.78234375Q69.72,68.71234375,69.75999999999999,68.63234375L69.94,68.27234375L69.94,68.07234375Q69.9,67.95234375,69.82,67.66234375Q69.74000000000001,67.37234375,69.64,67.03234375L69.44,66.39234375L69.32,65.95234375Q69.2,65.39234375,69.1,64.84234375Q69,64.29234375,68.96000000000001,63.73234375L68.74000000000001,61.45234375Q68.74000000000001,61.41234375,68.72999999999999,61.382343750000004Q68.72,61.35234375,68.7,61.27234375Q68.66,61.11234375,68.66,61.09234375L68.58,61.05234375L67.92,61.05234375Q67.82,61.05234375,67.75999999999999,60.94234375Q67.7,60.83234375,67.66,60.69234375L67.58,60.47234375Q67.53999999999999,60.33234375,67.47999999999999,60.33234375L67.47999999999999,67.15234375ZM69.56,60.97234375Q69.56,61.172343749999996,69.66,61.53234375Q69.75999999999999,61.89234375,69.94,62.31234375Q70.1,62.77234375,70.31,63.22234375Q70.52000000000001,63.672343749999996,70.7,64.05234375L71.03999999999999,64.65234375Q71.18,64.89234375,71.25999999999999,64.89234375L72.16,60.89234375L72.16,60.75234375L70.14,60.75234375L69.86,60.79234375Q69.72,60.81234375,69.66,60.82234375Q69.6,60.83234375,69.56,60.83234375L69.56,60.97234375ZM63.24,64.63234375L63.66,64.63234375Q63.76,64.63234375,63.9,64.62234375Q64.03999999999999,64.61234375,64.16,64.59234375L64.47999999999999,64.55234375L64.56,64.47234375L64.56,62.51234375L63.24,62.51234375L63.24,64.63234375ZM63.24,61.31234375L64.56,61.31234375L64.56,59.27234375Q64.22,59.27234375,63.87,59.28234375Q63.52,59.29234375,63.24,59.35234375L63.24,61.31234375ZM63.24,67.79234375L63.46,67.79234375Q63.5,67.77234375,63.57,67.75234375Q63.64,67.73234375,63.74,67.71234375Q63.92,67.69234374999999,64.11,67.66234375Q64.3,67.63234375,64.47999999999999,67.57234375L64.56,67.51234375L64.56,65.81234375L64.47999999999999,65.73234375L63.9,65.73234375Q63.8,65.73234375,63.69,65.74234375Q63.58,65.75234375,63.48,65.77234375L63.24,65.81234375L63.24,67.79234375Z" fill="#E5E6EB" fill-opacity="1"/></g></g></svg>