<svg xmlns="http://www.w3.org/2000/svg" xmlns:xlink="http://www.w3.org/1999/xlink" fill="none" version="1.1" width="78" height="66" viewBox="0 0 78 66"><defs><mask id="master_svg0_4577_80323"><g><rect x="0" y="0" width="78" height="66" rx="0" fill="#FFFFFF" fill-opacity="1"/></g></mask><clipPath id="master_svg1_4577_80324"><rect x="24.072265625" y="25.072265625" width="16" height="16" rx="0"/></clipPath></defs><g mask="url(#master_svg0_4577_80323)"><g style="opacity:0.800000011920929;"><ellipse cx="46.5" cy="47.5" rx="45.5" ry="45.5" fill-opacity="0" stroke-opacity="0.800000011920929" stroke="#E5E6EB" fill="none" stroke-width="2"/></g><g style="opacity:0.800000011920929;"><ellipse cx="47" cy="48" rx="38.5" ry="38.5" fill-opacity="0" stroke-opacity="0.800000011920929" stroke="#E5E6EB" fill="none" stroke-width="3"/></g><g transform="matrix(0.8292582631111145,-0.5588655471801758,0.5588655471801758,0.8292583227157593,-26.546439366560662,19.10916162887588)"><line x1="18.00048828125" y1="52.5" x2="73.47174453735352" y2="52.5" fill-opacity="0" stroke-opacity="1" stroke="#E5E6EB" fill="none" stroke-width="1"/></g><g transform="matrix(0.8292582631111145,-0.5588655471801758,0.5588655471801758,0.8292583227157593,-34.945871320553124,29.618399466970004)"><line x1="31" y1="71.5009765625" x2="86.47125625610352" y2="71.5009765625" fill-opacity="0" stroke-opacity="1" stroke="#E5E6EB" fill="none" stroke-width="1"/></g><g transform="matrix(0.8221921920776367,-0.5692099332809448,0.5692099332809448,0.8221921920776367,-29.331141230184585,20.407911758869886)" style="opacity:0.800000011920929;"><path d="M30.64,57.90234475Q30.759999999999998,57.80234475,30.9,57.60234475Q31.02,57.44234475,31.15,57.27234475Q31.28,57.10234455,31.439999999999998,56.98234475Q31.58,56.84234475,31.82,56.84234475Q31.939999999999998,56.84234475,32.03,56.86234475Q32.12,56.88234375,32.28,56.98234475Q32.32,57.00234475,32.38,57.03234475Q32.44,57.06234455,32.54,57.12234495Q32.64,57.16234495,32.76,57.23234465Q32.88,57.30234475,33,57.36234475Q33.26,57.52234475,33.49,57.64234475Q33.72,57.76234475,33.84,57.82234475L34.22,58.06234475Q34.44,58.18234375,34.64,58.32234375Q34.84,58.46234375,34.96,58.66234375Q35.1,58.86234375,35.1,59.10234375Q35.1,59.28234375,34.97,59.36234375Q34.84,59.44234375,34.68,59.50234375Q34.519999999999996,59.56234375,34.370000000000005,59.64234375Q34.22,59.72234375,34.2,59.88234375Q34.14,60.40234375,34.129999999999995,60.99234375Q34.120000000000005,61.58234375,34.120000000000005,62.12234375Q34.120000000000005,62.44234375,34.129999999999995,62.74234375Q34.14,63.04234375,34.16,63.32234375Q34.18,63.62234375,34.19,63.922343749999996Q34.2,64.22234375,34.2,64.50234375Q34.2,64.84234375,33.89,64.99234375Q33.58,65.14234375,33.18,65.24234375Q32.76,65.32234375,32.35,65.33234375Q31.939999999999998,65.34234375,31.740000000000002,65.34234375L31.16,65.34234375L30.92,65.28234375L30.86,65.20234375L30.86,64.22234375L24.08,64.22234375L24.08,68.02234375Q24.08,68.76234375,24.18,69.12234375Q24.28,69.50234375,24.55,69.65234375Q24.82,69.80234375,25.28,69.80234375L26.46,69.84234375L26.78,69.84234375L27.28,69.88234375Q27.439999999999998,69.90234375,27.57,69.90234375Q27.7,69.90234375,27.82,69.90234375Q27.880000000000003,69.90234375,28.380000000000003,69.91234375Q28.880000000000003,69.92234375,29.47,69.92234375Q30.060000000000002,69.92234375,30.54,69.91234375Q31.02,69.90234375,31.060000000000002,69.90234375Q31.22,69.90234375,31.3,69.88234375Q31.5,69.86234375000001,31.72,69.84234375Q31.9,69.82234375,32.08,69.80234375Q32.26,69.78234375,32.4,69.76234375L33.019999999999996,69.64234375Q33.24,69.48234375,33.37,69.24234375Q33.5,69.00234375,33.62,68.72234375Q33.64,68.66234375,33.72,68.43234375Q33.8,68.20234375,33.92,67.92234375Q33.96,67.78234375,34,67.66234375Q34.04,67.54234375,34.08,67.42234375L34.2,67.10234375L34.2,67.04234375Q34.239999999999995,66.94234374999999,34.260000000000005,66.87234375Q34.28,66.80234375,34.3,66.70234375Q34.4,66.32234375,34.58,66.14234375Q34.68,66.04234375,34.86,66.04234375Q35.120000000000005,66.04234375,35.239999999999995,66.48234375Q35.28,66.70234375,35.31,66.94234374999999Q35.34,67.18234375,35.36,67.46234375Q35.4,68.04234375,35.42,68.60234375Q35.44,69.16234375,35.56,69.44234374999999Q35.64,69.66234375,35.84,69.86234375000001Q36.04,70.06234375,36.239999999999995,70.28234375Q36.44,70.48234375,36.59,70.67234375Q36.739999999999995,70.86234375000001,36.739999999999995,70.98234375Q36.739999999999995,71.44234374999999,36.260000000000005,71.71234375Q35.78,71.98234375,35.120000000000005,72.12234375Q34.46,72.28234375,33.8,72.35234375Q33.14,72.42234375,32.8,72.44234374999999L30.1,72.44234374999999Q29.619999999999997,72.44234374999999,29.119999999999997,72.44234374999999Q28.619999999999997,72.44234374999999,28.1,72.46234375Q27.08,72.48234375,26.05,72.43234375Q25.02,72.38234375,24,72.22234375Q23.48,72.14234375,23,72.03234375Q22.52,71.92234375,22.06,71.76234375Q21.84,71.68234375,21.68,71.52234375Q21.52,71.36234375000001,21.38,71.16234375Q21.259999999999998,70.94234374999999,21.15,70.73234375Q21.04,70.52234375,20.96,70.34234375Q20.86,70.24234375,20.86,70.08234375Q20.82,69.96234375,20.82,69.92234375L20.82,60.22234375Q20.82,60.22234375,21.12,60.28234375Q21.32,60.36234375,21.72,60.42234375L22.5,60.60234375L23.28,60.78234375L23.86,60.90234375Q24.08,60.98234375,24.08,60.98234375L24.08,62.90234375L24.3,62.94234375Q24.34,62.96234375,24.39,62.96234375Q24.44,62.96234375,24.48,62.96234375L25.72,62.96234375Q26.36,62.96234375,27.009999999999998,62.95234375Q27.66,62.94234375,28.3,62.922343749999996Q28.939999999999998,62.90234375,29.58,62.90234375Q30.22,62.90234375,30.86,62.90234375Q30.86,62.80234375,30.86,62.56234375Q30.86,62.32234375,30.880000000000003,62.04234375Q30.9,61.76234375,30.91,61.53234375Q30.92,61.30234375,30.92,61.20234375L30.92,59.16234375L26.439999999999998,59.22234375Q25.3,59.24234375,24.19,59.25234375Q23.08,59.26234375,21.94,59.30234375L21.7,59.30234375L21.4,59.36234375L21.2,59.36234375L20.58,58.10234475L20.58,57.90234475Q20.7,57.90234475,20.81,57.91234475Q20.92,57.92234375,21.04,57.96234375L23.86,57.96234375Q25.52,57.96234375,27.259999999999998,57.90234475Q28.96,57.84234475,30.64,57.90234475ZM41.739999999999995,56.64234475Q41.739999999999995,56.56234475,41.9,56.44234475Q42.64,56.54234475,43.42,56.76234475Q44.2,56.98234475,44.879999999999995,57.20234485Q45.16,57.34234475,45.42,57.40234475Q45.68,57.48234475,45.92,57.70234475L46,57.84234475Q45.9,58.04234475,45.75,58.13234375Q45.6,58.22234375,45.379999999999995,58.32234375Q45.18,58.42234375,44.980000000000004,58.61234375Q44.78,58.80234375,44.64,59.16234375L44.64,59.24234375L47.32,59.24234375L48,59.20234375Q48.22,59.18234375,48.39,59.17234375Q48.56,59.16234375,48.66,59.16234375L48.66,56.58234475L48.739999999999995,56.50234475L48.96,56.50234475Q49.7,56.50234475,50.48,56.69234475Q51.26,56.88234375,51.94,57.14234447Q52.1,57.26234475,52.1,57.36234475Q52.1,57.48234475,51.98,57.56234475Q51.9,57.62234475,51.86,57.67234375Q51.82,57.72234475,51.78,57.76234475Q51.78,57.82234475,51.77,57.96234375Q51.76,58.10234475,51.74,58.26234375Q51.72,58.42234375,51.71,58.56234375Q51.7,58.70234375,51.7,58.76234375L51.7,58.90234375Q51.7,58.96234375,51.71,59.04234375Q51.72,59.12234375,51.78,59.12234375Q51.9,59.12234375,52.17,59.11234375Q52.44,59.10234375,52.72,59.08234375Q53,59.06234375,53.27,59.05234375Q53.54,59.04234375,53.66,59.04234375Q53.94,59.04234375,54.12,58.92234375Q54.3,58.80234375,54.46,58.64234375Q54.6,58.48234375,54.74,58.37234375Q54.88,58.26234375,55.06,58.26234375Q55.16,58.26234375,55.48,58.48234375Q55.76,58.72234375,56.07,59.02234375Q56.38,59.32234375,56.62,59.62234375Q56.86,59.92234375,56.86,60.08234375L56.62,60.16234375Q55.48,60.16234375,54.19,60.18234375Q52.9,60.20234375,51.7,60.30234375L51.7,61.56234375L52.52,61.50234375Q52.54,61.46234375,52.59,61.422343749999996Q52.64,61.382343750000004,52.68,61.34234375Q52.72,61.32234375,52.75,61.30234375Q52.78,61.28234375,52.86,61.16234375L53.02,60.94234375Q53.06,60.88234375,53.1,60.82234375Q53.14,60.76234375,53.18,60.72234375Q53.26,60.60234375,53.28,60.60234375L53.34,60.52234375Q53.34,60.52234375,53.38,60.56234375Q53.42,60.60234375,53.5,60.60234375Q54.24,60.96234375,54.97,61.36234375Q55.7,61.76234375,56.32,62.34234375L56.32,62.48234375Q56.32,62.70234375,56.2,62.79234375Q56.08,62.882343750000004,55.92,62.94234375Q55.76,63.02234375,55.64,63.132343750000004Q55.52,63.24234375,55.52,63.48234375L55.52,66.00234375Q55.52,66.16234375,55.2,66.30234375Q54.88,66.44234374999999,54.48,66.54234375Q54.06,66.64234375,53.66,66.70234375Q53.26,66.76234375,53.14,66.76234375Q52.86,66.76234375,52.77,66.65234375Q52.68,66.54234375,52.64,66.38234375Q52.62,66.30234375,52.61,66.24234375Q52.6,66.18234375,52.6,66.10234375Q52.6,66.00234375,52.52,66.00234375L51.56,66.00234375L51.52,66.12234375Q51.5,66.18234375,51.5,66.28234375Q51.5,66.38234375,51.46,66.64234375Q51.42,66.90234375,51.38,67.22234375L51.2,68.18234375Q51.18,68.20234375,51.18,68.22234375Q51.18,68.24234375,51.17,68.26234375Q51.16,68.28234375,51.16,68.32234375L51.04,68.58234375Q51,68.68234375,50.98,68.74234375Q50.96,68.80234375,50.94,68.88234375Q50.9,68.96234375,50.9,69.02234375L50.9,69.24234375Q51.6,69.52234375,52.35,69.65234375Q53.1,69.78234375,53.88,69.82234375Q54.28,69.86234375000001,54.66,69.87234375Q55.04,69.88234375,55.44,69.86234375000001L56.92,69.86234375000001Q56.92,70.20234375,56.62,70.57234375Q56.32,70.94234374999999,55.92,71.36234375000001Q55.52,71.78234375,55.21,72.23234375Q54.9,72.68234375,54.9,73.16234375L54.62,73.16234375Q54,73.16234375,53.31,73.01234375Q52.62,72.86234375000001,51.92,72.60234375Q51.22,72.34234375,50.57,72.03234375Q49.92,71.72234375,49.4,71.42234375L49.120000000000005,71.20234375L48.96,71.20234375Q48.3,71.72234375,47.53,72.02234375Q46.760000000000005,72.32234375,45.92,72.60234375L44.96,72.84234375Q44.42,73.02234375,43.980000000000004,73.02234375Q43.68,73.02234375,43.68,72.72234375Q43.379999999999995,72.72234375,43.08,72.80234375Q42.78,72.88234375,42.5,72.98234375Q42.2,73.08234375,41.9,73.15234375Q41.6,73.22234375,41.3,73.22234375Q40.86,73.22234375,40.78,72.94234374999999L40.78,72.38234375Q40.78,71.74234375,40.79,71.09234375Q40.8,70.44234374999999,40.82,69.80234375Q40.84,69.16234375,40.85,68.51234375Q40.86,67.86234375000001,40.86,67.20234375L40.86,64.52234375L39.22,66.06234375L39.14,66.06234375Q38.86,66.06234375,38.86,65.86234375000001L38.9,65.72234375L38.9,65.58234375Q38.96,65.46234375,39.120000000000005,65.08234375Q39.28,64.70234375,39.44,64.30234375Q39.519999999999996,64.08234375,39.6,63.90234375Q39.68,63.72234375,39.739999999999995,63.54234375L39.96,63.04234375L40.04,62.922343749999996Q40.06,62.84234375,40.120000000000005,62.672343749999996Q40.18,62.50234375,40.260000000000005,62.32234375L40.379999999999995,62.02234375L40.42,61.86234375Q40.46,61.70234375,40.53,61.422343749999996Q40.6,61.14234375,40.72,60.76234375L41.14,59.20234375Q41.18,59.04234375,41.230000000000004,58.88234375Q41.28,58.72234375,41.32,58.56234375L41.44,58.12234475L41.44,58.06234475L41.519999999999996,57.76234475Q41.519999999999996,57.72234475,41.53,57.68234475Q41.54,57.64234475,41.56,57.54234475Q41.58,57.48234475,41.6,57.39234475Q41.620000000000005,57.30234475,41.64,57.20234485Q41.66,57.10234455,41.68,57.03234475Q41.7,56.96234475,41.7,56.86234475Q41.739999999999995,56.66234475,41.739999999999995,56.64234475ZM44.06,61.30234375L44.06,61.36234375L43.980000000000004,61.64234375L43.980000000000004,62.16234375L43.94,62.94234375Q43.92,63.16234375,43.92,63.35234375Q43.92,63.54234375,43.92,63.72234375Q43.9,63.922343749999996,43.9,64.03234375Q43.9,64.14234375,43.9,64.18234375L43.9,72.38234375Q44.9,72.02234375,45.69,71.27234375Q46.480000000000004,70.52234375,47.1,69.72234375Q47.16,69.64234375,47.22,69.60234375Q47.260000000000005,69.56234375,47.260000000000005,69.44234374999999L47.260000000000005,69.38234375Q46.980000000000004,68.90234375,46.64,68.30234375Q46.3,67.70234375,46.120000000000005,67.12234375L46.08,66.88234375Q46.08,66.84234375,45.92,66.84234375Q45.7,66.84234375,45.44,66.90234375Q45.18,66.96234375,45.019999999999996,67.06234375L44.94,66.92234375Q44.94,66.86234375000001,44.93,66.74234375Q44.92,66.62234375,44.9,66.50234375Q44.9,66.38234375,44.89,66.28234375Q44.879999999999995,66.18234375,44.879999999999995,66.14234375L44.879999999999995,60.94234375Q44.879999999999995,60.90234375,44.980000000000004,60.88234375Q45.06,60.88234375,45.1,60.86234375Q45.3,60.86234375,45.39,60.88234375Q45.480000000000004,60.90234375,45.760000000000005,61.00234375L46.1,61.12234375L46.620000000000005,61.28234375Q46.9,61.382343750000004,47.14,61.46234375Q47.379999999999995,61.54234375,47.480000000000004,61.56234375L48.58,61.56234375L48.58,60.38234375Q47.620000000000005,60.38234375,46.66,60.44234375Q46.18,60.48234375,45.69,60.50234375Q45.2,60.52234375,44.72,60.52234375Q44.5,60.52234375,44.44,60.38234375L44.28,60.02234375Q44.22,60.02234375,44.14,60.16234375L43.760000000000005,60.84234375Q43.68,61.00234375,43.68,61.08234375L44.06,61.30234375ZM51.64,62.76234375Q51.64,63.04234375,51.63,63.29234375Q51.62,63.54234375,51.6,63.78234375Q51.58,64.04234375,51.57,64.29234375Q51.56,64.54234375,51.56,64.80234375L52.68,64.80234375L52.68,62.70234375L51.7,62.70234375L51.64,62.76234375ZM48.5,64.88234375Q48.56,64.40234375,48.57,63.82234375Q48.58,63.24234375,48.58,62.76234375L47.7,62.76234375Q47.64,63.30234375,47.629999999999995,63.83234375Q47.620000000000005,64.36234375,47.620000000000005,64.88234375L48.5,64.88234375ZM46.879999999999995,66.64234375Q47.16,66.96234375,47.480000000000004,67.23234375Q47.8,67.50234375,48.14,67.76234375L48.22,67.62234375L48.3,67.10234375L48.379999999999995,66.70234375L48.44,66.36234375000001L48.44,66.06234375L47.56,66.06234375Q47.3,66.52234375,46.879999999999995,66.64234375ZM72.52000000000001,56.94234475Q72.52000000000001,56.90234475,72.56,56.86234475L72.6,56.82234475Q72.94,56.92234375,73.24000000000001,57.00234475Q73.5,57.08234505,73.72,57.14234447Q73.94,57.20234485,74,57.24234485Q74.06,57.28234475,74.22,57.36234475Q74.38,57.44234475,74.58,57.54234475Q74.66,57.60234475,74.74000000000001,57.65234475Q74.82,57.70234475,74.92,57.74234475Q75,57.80234475,75.03999999999999,57.82234475Q75.08,57.84234475,75.12,57.86234475Q75.16,57.90234475,75.22,57.93234475Q75.28,57.96234375,75.36,58.00234475Q75.52000000000001,58.10234475,75.67,58.22234375Q75.82,58.34234375,75.92,58.46234375Q76.02000000000001,58.60234375,76.02000000000001,58.72234375Q76.02000000000001,58.88234375,75.92,58.99234375Q75.82,59.10234375,75.66,59.14234375Q75.5,59.20234375,75.39,59.25234375Q75.28,59.30234375,75.28,59.42234375L75.2,60.18234375L75.2,67.44234374999999L75.16,69.16234375Q75.14,69.74234375,75.13,70.25234375Q75.12,70.76234375,75.12,70.88234375Q75.08,71.58234375,74.78999999999999,71.97234375Q74.5,72.36234375000001,74.03999999999999,72.62234375Q73.82,72.74234375,73.56,72.85234375Q73.3,72.96234375,73.02000000000001,73.04234375L71.86,73.40234375L71.78,73.40234375Q71.66,73.40234375,71.53999999999999,73.34234375Q71.42,73.28234375,71.42,73.18234375L71.42,71.98234375Q71.42,71.76234375,71.16,71.60234375Q70.9,71.44234374999999,70.6,71.32234375Q70.3,71.20234375,70.03999999999999,71.06234375Q69.78,70.92234375,69.78,70.74234375Q69.78,70.58234375,69.83,70.47234375Q69.88,70.36234375000001,69.92,70.26234375L70.14,70.26234375Q70.34,70.26234375,70.55,70.27234375Q70.75999999999999,70.28234375,70.97999999999999,70.32234375Q71.36,70.40234375,71.78,70.40234375Q71.88,70.40234375,71.94,70.31234375Q72,70.22234375,72,70.10234375L72.02000000000001,69.96234375Q72.02000000000001,69.92234375,72.02000000000001,69.85234375Q72.02000000000001,69.78234375,72.03999999999999,69.72234375L72.08,69.34234375L72.08,66.72234375L69.62,66.72234375L69.62,71.92234375Q69.62,72.20234375,69.25999999999999,72.36234375000001Q68.9,72.52234375,68.4,72.62234375Q67.92,72.72234375,67.44,72.77234375Q66.96000000000001,72.82234375,66.72,72.82234375L66.58,72.82234375L66.5,72.62234375L66.5,71.80234375Q66.5,71.22234375,66.50999999999999,70.65234375Q66.52000000000001,70.08234375,66.53999999999999,69.52234375Q66.56,68.96234375,66.57,68.41234375Q66.58,67.86234375000001,66.58,67.30234375Q66.58,67.24234375,66.57,67.02234375Q66.56,66.80234375,66.5,66.80234375L63.96,66.80234375Q63.92,66.84234375,63.92,66.84234375Q63.88,66.96234375,63.88,66.94234374999999L63.88,67.02234375Q63.88,67.06234375,63.88,67.11234375000001Q63.88,67.16234375,63.86,67.22234375Q63.84,67.34234375,63.81,67.48234375Q63.78,67.62234375,63.76,67.74234375Q63.74,67.80234375,63.74,67.86234375000001Q63.74,67.92234375,63.72,67.98234375Q63.7,68.08234375,63.66,68.21234375Q63.62,68.34234375,63.58,68.48234375L63.52,68.70234375Q63.3,69.40234375,62.94,70.01234375Q62.58,70.62234375,62.12,71.14234375Q61.64,71.66234375,61.08,72.10234375Q60.52,72.54234375,59.94,72.96234375L59.72,73.10234375Q59.52,73.18234375,59.44,73.18234375Q59.32,73.18234375,59.3,73.06234375Q59.28,72.94234374999999,59.28,72.90234375Q59.28,72.70234375,59.38,72.56234375Q59.46,72.42234375,59.51,72.28234375Q59.56,72.14234375,59.7,71.82234375L60.2,70.52234375L60.32,70.10234375Q60.32,70.04234375,60.4,69.82234375Q60.46,69.62234375,60.46,69.54234375L60.54,69.10234375Q60.6,68.76234375,60.65,68.41234375Q60.7,68.06234375,60.76,67.74234375Q60.78,67.58234375,60.8,67.47234375Q60.82,67.36234375000001,60.84,67.30234375Q60.8,67.12234375,60.84,66.88234375L60.9,66.40234375L60.96,65.94234374999999Q60.98,65.82234375,60.99,65.73234375Q61,65.64234375,61,65.54234375Q61.1,64.06234375,61.12,62.58234375Q61.14,61.10234375,61.14,59.56234375Q61.14,59.24234375,61.13,58.91234375Q61.12,58.58234375,61.1,58.24234375Q61.08,57.90234475,61.07,57.57234475Q61.06,57.24234485,61.06,56.90234475L61.44,56.90234475L63.02,57.46234375L63.6,57.66234475Q63.62,57.66234475,63.82,57.76234475Q63.98,57.86234475,64.03999999999999,57.86234475Q64.16,57.92234375,64.22,58.00234475Q64.25999999999999,58.08234475,64.4,58.08234475Q66.32,58.08234475,68.2,58.02234475Q70.08,57.96234375,72,57.86234475L72.16,57.72234475L72.24000000000001,57.62234475L72.34,57.40234475Q72.38,57.30234475,72.43,57.19234465Q72.47999999999999,57.08234505,72.52000000000001,57.02234475L72.52000000000001,56.94234475ZM66.5,65.54234375L66.53999999999999,64.48234375Q66.56,64.16234375,66.57,63.85234375Q66.58,63.54234375,66.58,63.422343749999996L66.58,63.28234375Q66.58,63.24234375,66.57,63.12234375Q66.56,63.00234375,66.5,63.00234375L64.25999999999999,63.00234375L64.2,63.06234375L64.16,63.54234375Q64.14,63.74234375,64.13,63.93234375Q64.12,64.12234375,64.12,64.28234375L64.12,64.62234375L64.08,65.06234375Q64.06,65.22234375,64.05,65.35234375Q64.03999999999999,65.48234375,64.03999999999999,65.54234375L66.5,65.54234375ZM69.7,59.26234375L69.7,61.66234375L72.08,61.66234375L72.08,59.14234375L71.34,59.14234375Q71.16,59.14234375,70.89,59.15234375Q70.62,59.16234375,70.38,59.18234375Q70.22,59.20234375,70.08,59.20234375Q69.94,59.20234375,69.78,59.20234375L69.7,59.26234375ZM69.7,62.94234375L69.7,65.46234375L70.06,65.46234375Q70.28,65.46234375,70.6,65.45234375Q70.92,65.44234374999999,71.25999999999999,65.42234375Q71.42,65.40234375,71.61,65.40234375Q71.8,65.40234375,72,65.40234375L72.08,65.32234375L72.08,62.94234375L69.7,62.94234375ZM64.25999999999999,61.74234375L66.58,61.74234375L66.58,59.56234375L66.5,59.26234375L66.03999999999999,59.26234375Q65.53999999999999,59.26234375,65.16,59.27234375Q64.78,59.28234375,64.25999999999999,59.34234375L64.25999999999999,61.74234375Z" fill="#E5E6EB" fill-opacity="1"/></g><g transform="matrix(0.8660253882408142,-0.5,0.5,0.8660253882408142,-9.311060371226631,15.395179865532555)" clip-path="url(#master_svg1_4577_80324)"><g><path d="M39.91465234375,31.217591249999998C39.79915234375,30.86073125,39.49085234375,30.60116125,39.12015234375,30.54722125L34.86015234375,29.92792125L32.95577234375,26.06859825C32.78955234375,25.73242625,32.447212343749996,25.5195311903954,32.072282343750004,25.51953125C31.697142343750002,25.51953125,31.354802343750002,25.73242625,31.18901234375,26.06859825L29.28424234375,29.92792125L25.02422634375,30.54722125C24.65347034375,30.60116125,24.34502434375,30.86071125,24.22945504375,31.217591249999998C24.11342194375,31.57426125,24.21031604375,31.96524125,24.47843734375,32.22700125L27.56040234375,35.23125125L26.83323234375,39.47323125C26.76950234375,39.84263125,26.92140234375,40.21623125,27.22487234375,40.43643125C27.39682234375,40.56123125,27.59959234375,40.62483125,27.80366234375,40.62483125C27.96348234375,40.62493125,28.12089234375,40.58603125,28.26226234375,40.51143125L32.07226234375,38.50893125L35.882052343750004,40.51143125C36.02345234375,40.58603125,36.180852343750004,40.62493125,36.34065234375,40.62483125C36.54475234375,40.62483125,36.74745234375,40.56123125,36.91945234375,40.43643125C37.22285234375,40.21603125,37.37475234375,39.84283125,37.31105234375,39.47323125L36.58365234375,35.23125125L39.66565234375,32.22700125C39.93405234375,31.96524125,40.03095234375,31.57426125,39.91465234375,31.217591249999998ZM35.52525234375,34.887381250000004L36.34065234375,39.63983125L32.072282343750004,37.39623125L27.80368234375,39.63983125L28.61914234375,34.887381250000004L25.16621034375,31.521641250000002L29.93831234375,30.82814125L32.072282343750004,26.50428525L34.20605234375,30.82814125L38.97795234375,31.521641250000002L35.52525234375,34.887381250000004Z" fill="#E5E6EB" fill-opacity="1"/></g><g><path d="M33.84871875,31.322829375L32.07225875,27.724609375L30.29604875,31.322829375L26.32421875,31.900089375L29.19858875,34.700909375L28.92734875,36.281189375C28.91918875,36.310039375,28.91390875,36.339739375,28.91390875,36.370999375C28.91390875,36.553289375,29.06118875,36.700809375,29.24326875,36.700809375C29.40663875,36.700809375,29.54092875,36.582139375,29.56735875,36.426039375L29.56888875,36.426709375L29.90354875,34.471699375L27.73586875,32.358439375L30.73195875,31.923399375L32.07225875,29.207999375L33.41235875,31.923399375L34.48297875,32.078609375C34.48869875,32.080139375,34.49550875,32.080369375000004,34.50169875,32.081259375L34.521958749999996,32.084559375L34.521958749999996,32.083449375C34.53250875,32.084779375,34.54221875,32.086539375,34.55319875,32.086539375C34.735718750000004,32.086539375,34.88322875,31.939019375,34.88322875,31.756969375C34.88322875,31.587019375,34.754658750000004,31.448969375,34.58929875,31.430699375L33.84871875,31.322829375ZM36.17729875,32.324749374999996L36.408418749999996,32.358209375L34.24012875,34.471699375L34.75221875,37.456359375L32.07225875,36.047589375L28.83046875,37.751609375C28.71070875,37.800909375,28.62637875,37.918709375,28.62637875,38.056309375C28.62637875,38.238609374999996,28.77365875,38.386109375000004,28.95616875,38.386109375000004C29.01165875,38.386109375000004,29.06316875,38.370909375,29.10896875,38.347109375L32.07225875,36.789279375L35.62381875,38.656209375L34.94574875,34.700889375L37.819618750000004,31.900069375L36.29485875,31.678159375C36.27128875,31.672869375,36.24708875,31.669579375,36.22197875,31.669579375C36.04013875,31.669579375,35.89218875,31.817079375,35.89218875,31.999369375C35.89218875,32.166019375,36.01635875,32.302299375,36.17729875,32.324749374999996Z" fill="#E5E6EB" fill-opacity="1"/></g></g></g></svg>