<svg xmlns="http://www.w3.org/2000/svg" xmlns:xlink="http://www.w3.org/1999/xlink" fill="none" version="1.1" width="78" height="66" viewBox="0 0 78 66"><defs><mask id="master_svg0_4577_80398"><g><rect x="0" y="0" width="78" height="66" rx="0" fill="#FFFFFF" fill-opacity="1"/></g></mask><clipPath id="master_svg1_4577_80395"><rect x="24.072265625" y="25.072265625" width="16" height="16" rx="0"/></clipPath></defs><g mask="url(#master_svg0_4577_80398)"><g style="opacity:0.800000011920929;"><ellipse cx="46.5" cy="47.5" rx="45.5" ry="45.5" fill-opacity="0" stroke-opacity="0.800000011920929" stroke="#E5E6EB" fill="none" stroke-width="2"/></g><g style="opacity:0.800000011920929;"><ellipse cx="47" cy="48" rx="38.5" ry="38.5" fill-opacity="0" stroke-opacity="0.800000011920929" stroke="#E5E6EB" fill="none" stroke-width="3"/></g><g transform="matrix(0.8292582631111145,-0.5588655471801758,0.5588655471801758,0.8292583227157593,-26.546439366560662,19.10916162887588)"><line x1="18.00048828125" y1="52.5" x2="73.47174453735352" y2="52.5" fill-opacity="0" stroke-opacity="1" stroke="#E5E6EB" fill="none" stroke-width="1"/></g><g transform="matrix(0.8292582631111145,-0.5588655471801758,0.5588655471801758,0.8292583227157593,-34.945871320553124,29.618399466970004)"><line x1="31" y1="71.5009765625" x2="86.47125625610352" y2="71.5009765625" fill-opacity="0" stroke-opacity="1" stroke="#E5E6EB" fill="none" stroke-width="1"/></g><g transform="matrix(0.8221921920776367,-0.5692099332809448,0.5692099332809448,0.8221921920776367,-29.331141230184585,20.407911758869886)" style="opacity:0.800000011920929;"><path d="M30.64,57.90234475Q30.759999999999998,57.80234475,30.9,57.60234475Q31.02,57.44234475,31.15,57.27234475Q31.28,57.10234455,31.439999999999998,56.98234475Q31.58,56.84234475,31.82,56.84234475Q31.939999999999998,56.84234475,32.03,56.86234475Q32.12,56.88234375,32.28,56.98234475Q32.32,57.00234475,32.38,57.03234475Q32.44,57.06234455,32.54,57.12234495Q32.64,57.16234495,32.76,57.23234465Q32.88,57.30234475,33,57.36234475Q33.26,57.52234475,33.49,57.64234475Q33.72,57.76234475,33.84,57.82234475L34.22,58.06234475Q34.44,58.18234375,34.64,58.32234375Q34.84,58.46234375,34.96,58.66234375Q35.1,58.86234375,35.1,59.10234375Q35.1,59.28234375,34.97,59.36234375Q34.84,59.44234375,34.68,59.50234375Q34.519999999999996,59.56234375,34.370000000000005,59.64234375Q34.22,59.72234375,34.2,59.88234375Q34.14,60.40234375,34.129999999999995,60.99234375Q34.120000000000005,61.58234375,34.120000000000005,62.12234375Q34.120000000000005,62.44234375,34.129999999999995,62.74234375Q34.14,63.04234375,34.16,63.32234375Q34.18,63.62234375,34.19,63.922343749999996Q34.2,64.22234375,34.2,64.50234375Q34.2,64.84234375,33.89,64.99234375Q33.58,65.14234375,33.18,65.24234375Q32.76,65.32234375,32.35,65.33234375Q31.939999999999998,65.34234375,31.740000000000002,65.34234375L31.16,65.34234375L30.92,65.28234375L30.86,65.20234375L30.86,64.22234375L24.08,64.22234375L24.08,68.02234375Q24.08,68.76234375,24.18,69.12234375Q24.28,69.50234375,24.55,69.65234375Q24.82,69.80234375,25.28,69.80234375L26.46,69.84234375L26.78,69.84234375L27.28,69.88234375Q27.439999999999998,69.90234375,27.57,69.90234375Q27.7,69.90234375,27.82,69.90234375Q27.880000000000003,69.90234375,28.380000000000003,69.91234375Q28.880000000000003,69.92234375,29.47,69.92234375Q30.060000000000002,69.92234375,30.54,69.91234375Q31.02,69.90234375,31.060000000000002,69.90234375Q31.22,69.90234375,31.3,69.88234375Q31.5,69.86234375000001,31.72,69.84234375Q31.9,69.82234375,32.08,69.80234375Q32.26,69.78234375,32.4,69.76234375L33.019999999999996,69.64234375Q33.24,69.48234375,33.37,69.24234375Q33.5,69.00234375,33.62,68.72234375Q33.64,68.66234375,33.72,68.43234375Q33.8,68.20234375,33.92,67.92234375Q33.96,67.78234375,34,67.66234375Q34.04,67.54234375,34.08,67.42234375L34.2,67.10234375L34.2,67.04234375Q34.239999999999995,66.94234374999999,34.260000000000005,66.87234375Q34.28,66.80234375,34.3,66.70234375Q34.4,66.32234375,34.58,66.14234375Q34.68,66.04234375,34.86,66.04234375Q35.120000000000005,66.04234375,35.239999999999995,66.48234375Q35.28,66.70234375,35.31,66.94234374999999Q35.34,67.18234375,35.36,67.46234375Q35.4,68.04234375,35.42,68.60234375Q35.44,69.16234375,35.56,69.44234374999999Q35.64,69.66234375,35.84,69.86234375000001Q36.04,70.06234375,36.239999999999995,70.28234375Q36.44,70.48234375,36.59,70.67234375Q36.739999999999995,70.86234375000001,36.739999999999995,70.98234375Q36.739999999999995,71.44234374999999,36.260000000000005,71.71234375Q35.78,71.98234375,35.120000000000005,72.12234375Q34.46,72.28234375,33.8,72.35234375Q33.14,72.42234375,32.8,72.44234374999999L30.1,72.44234374999999Q29.619999999999997,72.44234374999999,29.119999999999997,72.44234374999999Q28.619999999999997,72.44234374999999,28.1,72.46234375Q27.08,72.48234375,26.05,72.43234375Q25.02,72.38234375,24,72.22234375Q23.48,72.14234375,23,72.03234375Q22.52,71.92234375,22.06,71.76234375Q21.84,71.68234375,21.68,71.52234375Q21.52,71.36234375000001,21.38,71.16234375Q21.259999999999998,70.94234374999999,21.15,70.73234375Q21.04,70.52234375,20.96,70.34234375Q20.86,70.24234375,20.86,70.08234375Q20.82,69.96234375,20.82,69.92234375L20.82,60.22234375Q20.82,60.22234375,21.12,60.28234375Q21.32,60.36234375,21.72,60.42234375L22.5,60.60234375L23.28,60.78234375L23.86,60.90234375Q24.08,60.98234375,24.08,60.98234375L24.08,62.90234375L24.3,62.94234375Q24.34,62.96234375,24.39,62.96234375Q24.44,62.96234375,24.48,62.96234375L25.72,62.96234375Q26.36,62.96234375,27.009999999999998,62.95234375Q27.66,62.94234375,28.3,62.922343749999996Q28.939999999999998,62.90234375,29.58,62.90234375Q30.22,62.90234375,30.86,62.90234375Q30.86,62.80234375,30.86,62.56234375Q30.86,62.32234375,30.880000000000003,62.04234375Q30.9,61.76234375,30.91,61.53234375Q30.92,61.30234375,30.92,61.20234375L30.92,59.16234375L26.439999999999998,59.22234375Q25.3,59.24234375,24.19,59.25234375Q23.08,59.26234375,21.94,59.30234375L21.7,59.30234375L21.4,59.36234375L21.2,59.36234375L20.58,58.10234475L20.58,57.90234475Q20.7,57.90234475,20.81,57.91234475Q20.92,57.92234375,21.04,57.96234375L23.86,57.96234375Q25.52,57.96234375,27.259999999999998,57.90234475Q28.96,57.84234475,30.64,57.90234475ZM50.68,56.58234475L50.76,56.52234475L50.96,56.52234475Q51,56.52234475,51.15,56.54234475Q51.3,56.56234475,51.54,56.60234475Q52.04,56.70234475,52.58,56.83234475Q53.12,56.96234475,53.58,57.12234495Q54.02,57.24234485,54.02,57.36234475L54.02,57.44234475Q54.02,57.48234475,53.92,57.64234475Q53.8,57.80234475,53.78,57.89234475Q53.76,57.98234475,53.76,58.20234375Q53.74,58.42234375,53.73,58.65234375Q53.72,58.88234375,53.72,59.10234375L53.72,60.18234375Q53.98,60.16234375,54.17,60.04234375Q54.36,59.92234375,54.52,59.76234375Q54.7,59.60234375,54.86,59.50234375Q55.02,59.40234375,55.22,59.40234375Q55.38,59.40234375,55.45,59.47234375Q55.52,59.54234375,55.68,59.76234375L56.08,60.20234375L56.44,60.66234375Q56.58,60.86234375,56.7,60.94234375Q56.82,61.04234375,56.84,61.08234375Q56.86,61.12234375,56.86,61.24234375Q56.86,61.382343750000004,56.78,61.382343750000004Q56.04,61.382343750000004,55.29,61.39234375Q54.54,61.40234375,53.8,61.50234375Q53.7,62.20234375,53.68,62.91234375Q53.66,63.62234375,53.68,64.32234375Q53.68,65.04234375,53.68,65.77234375Q53.68,66.50234375,53.66,67.22234375Q53.66,67.44234374999999,53.64,67.72234375Q53.62,68.00234375,53.54,68.26234375Q53.46,68.54234375,53.31,68.76234375Q53.16,68.98234375,52.9,69.10234375L50.96,70.02234375Q50.86,70.08234375,50.88,70.10234375L50.88,70.16234375Q51.56,70.16234375,52.23,70.13234375Q52.9,70.10234375,53.54,70.06234375Q54.82,69.94234374999999,56.1,69.94234374999999L56.62,69.94234374999999Q56.74,70.00234375,56.76,70.10234375Q56.78,70.20234375,56.78,70.30234375L56.78,70.44234374999999Q56.26,70.92234375,55.89,71.51234375Q55.52,72.10234375,55.52,72.80234375Q55.42,72.96234375,55.26,73.00234375Q55.1,73.04234375,54.88,73.04234375Q54.66,73.08234375,54.48,73.04234375Q54.38,73.02234375,54.3,73.02234375Q54.22,73.02234375,54.16,73.02234375Q53.2,73.02234375,51.94,72.98234375Q50.68,72.94234374999999,49.36,72.78234375Q48.04,72.62234375,46.870000000000005,72.31234375Q45.7,72.00234375,44.94,71.42234375Q44.9,71.40234375,44.86,71.37234375Q44.82,71.34234375,44.72,71.24234375Q44.620000000000005,71.18234375,44.519999999999996,71.10234375Q44.42,71.02234375,44.32,70.92234375Q44.2,70.84234375,44.11,70.76234375Q44.019999999999996,70.68234375,43.92,70.62234375L43.68,70.44234374999999L43.5,70.32234375Q43.480000000000004,70.30234375,43.3,70.30234375Q43.019999999999996,70.30234375,42.879999999999995,70.40234375Q42.739999999999995,70.50234375,42.56,70.72234375Q42.5,70.82234375,42.39,71.00234375Q42.28,71.18234375,42.120000000000005,71.38234375Q42.06,71.50234375,41.989999999999995,71.59234375Q41.92,71.68234375,41.86,71.78234375Q41.72,71.92234375,41.68,72.04234375L41.56,72.24234375L41.379999999999995,72.60234375Q41.28,72.78234375,41.19,72.95234375Q41.1,73.12234375,41.08,73.16234375Q41.08,73.22234375,40.989999999999995,73.30234375Q40.9,73.38234375,40.86,73.38234375Q40.66,73.38234375,40.33,73.04234375Q40,72.70234375,39.68,72.24234375Q39.379999999999995,71.84234375,39.14,71.40234375Q38.9,70.96234375,38.9,70.80234375Q38.9,70.58234375,39.239999999999995,70.34234375Q39.58,70.10234375,40,69.88234375Q40.2,69.76234375,40.39,69.65234375Q40.58,69.54234375,40.78,69.44234374999999Q41.14,69.26234375,41.239999999999995,69.10234375Q41.28,68.20234375,41.28,67.35234375Q41.28,66.50234375,41.28,65.60234375L41.28,64.32234375L41.239999999999995,64.04234375L39.72,64.04234375L39.480000000000004,63.64234375Q39.379999999999995,63.48234375,39.269999999999996,63.31234375Q39.16,63.14234375,39.06,62.98234375Q39.06,62.922343749999996,39.019999999999996,62.882343750000004L38.980000000000004,62.86234375L39.06,62.78234375Q39.519999999999996,62.78234375,40,62.77234375Q40.480000000000004,62.76234375,40.92,62.70234375L41.08,62.64234375Q41.2,62.52234375,41.28,62.34234375Q41.32,62.18234375,41.4,62.00234375Q41.480000000000004,61.82234375,41.6,61.70234375Q41.68,61.58234375,41.9,61.58234375Q42.06,61.58234375,42.489999999999995,61.80234375Q42.92,62.02234375,43.379999999999995,62.32234375Q43.620000000000005,62.48234375,43.85,62.61234375Q44.08,62.74234375,44.3,62.90234375Q44.519999999999996,63.06234375,44.68,63.16234375Q44.84,63.26234375,44.94,63.34234375Q45.06,63.40234375,45.08,63.50234375L45.08,63.66234375Q45.08,63.72234375,45.1,63.76234375L45.019999999999996,63.82234375Q44.96,63.86234375,44.86,63.922343749999996Q44.760000000000005,63.98234375,44.66,64.05234375Q44.56,64.12234375,44.489999999999995,64.19234375Q44.42,64.26234375,44.42,64.32234375L44.42,69.02234375Q44.42,69.24234375,44.6,69.35234375Q44.78,69.46234375,44.94,69.46234375L49.480000000000004,70.10234375L50,70.10234375L50.08,70.02234375L50.08,69.94234374999999L50.04,69.38234375Q50.02,69.18234375,50.01,69.03234375Q50,68.88234375,50,68.84234375Q49.54,68.44234374999999,49.08,68.21234375Q48.620000000000005,67.98234375,48,67.70234375L47.84,67.56234375L47.84,67.06234375Q47.84,67.04234375,47.879999999999995,67.04234375Q47.92,67.00234375,48,67.00234375L48.08,67.00234375Q48.3,67.00234375,48.53,67.03234375Q48.760000000000005,67.06234375,49.04,67.10234375Q49.58,67.22234375,50.08,67.22234375Q50.12,67.22234375,50.32,67.20234375Q50.52,67.18234375,50.52,67.06234375L50.6,66.50234375L50.6,61.50234375Q50.02,61.50234375,49.43,61.52234375Q48.84,61.54234375,48.260000000000005,61.58234375Q47.08,61.64234375,45.92,61.64234375Q45.760000000000005,61.64234375,45.6,61.50234375Q45.44,61.36234375,45.28,61.14234375Q45.120000000000005,60.94234375,45.03,60.72234375Q44.94,60.50234375,44.94,60.38234375Q45.64,60.38234375,46.33,60.37234375Q47.019999999999996,60.36234375,47.72,60.36234375Q48.42,60.34234375,49.120000000000005,60.33234375Q49.82,60.32234375,50.52,60.32234375L50.6,60.24234375L50.64,59.44234375Q50.66,59.10234375,50.67,58.75234375Q50.68,58.40234375,50.68,58.14234475L50.68,56.58234475ZM40.54,57.30234475Q40.6,57.18234445,40.71,57.06234455Q40.82,56.94234475,40.92,56.94234475L41,56.94234475Q41.239999999999995,56.98234475,41.67,57.07234475Q42.1,57.16234495,42.58,57.32234475Q43.08,57.48234475,43.57,57.67234375Q44.06,57.86234475,44.480000000000004,58.08234475Q44.879999999999995,58.30234375,45.129999999999995,58.58234375Q45.379999999999995,58.86234375,45.379999999999995,59.18234375Q45.379999999999995,59.40234375,45.11,59.78234375Q44.84,60.16234375,44.5,60.56234375Q44.16,60.96234375,43.79,61.27234375Q43.42,61.58234375,43.239999999999995,61.58234375Q43.18,61.58234375,43,61.49234375Q42.82,61.40234375,42.86,61.30234375L42.28,60.14234375Q42.08,59.76234375,41.9,59.43234375Q41.72,59.10234375,41.68,58.98234375Q41.64,58.94234375,41.59,58.84234375Q41.54,58.74234375,41.44,58.62234375Q41.260000000000005,58.38234375,41.06,58.11234475Q40.86,57.84234475,40.7,57.62234475Q40.54,57.36234475,40.54,57.30234475ZM45.54,62.34234375Q45.54,62.24234375,45.66,62.20234375Q45.78,62.16234375,45.84,62.16234375L46.04,62.16234375Q46.06,62.16234375,46.09,62.172343749999996Q46.120000000000005,62.18234375,46.2,62.20234375Q46.66,62.36234375,47.129999999999995,62.56234375Q47.6,62.76234375,48,62.98234375Q48.22,63.08234375,48.46,63.23234375Q48.7,63.382343750000004,48.92,63.58234375Q49.4,63.96234375,49.4,64.46234375Q49.4,64.74234375,49.370000000000005,64.98234375Q49.34,65.22234375,49.18,65.38234375Q49,65.58234375,48.769999999999996,65.79234375Q48.54,66.00234375,48.260000000000005,66.20234375Q47.980000000000004,66.42234375,47.68,66.54234375Q47.379999999999995,66.66234375,47.1,66.66234375Q46.96,66.66234375,47,66.62234375Q47,66.60234375,46.94,66.44234374999999Q46.66,65.32234375,46.379999999999995,64.34234375Q46.1,63.36234375,45.54,62.34234375ZM75.88,57.92234375Q76.1,58.08234475,76.36,58.29234375Q76.62,58.50234375,76.62,58.76234375L76.62,58.90234375L76.46000000000001,58.84234375Q76.18,58.88234375,76.03,59.13234375Q75.88,59.38234375,75.88,59.60234375L75.88,69.94234374999999Q75.88,70.50234375,75.82,70.93234375Q75.75999999999999,71.36234375000001,75.6,71.70234375Q75.22,72.36234375000001,74.16,72.88234375Q74.03999999999999,72.92234375,73.86,73.00234375Q73.68,73.08234375,73.5,73.14234375Q73.25999999999999,73.24234375,73.16,73.24234375Q73,73.30234375,72.97999999999999,73.30234375L72.52000000000001,73.30234375L72.52000000000001,71.90234375Q72.52000000000001,71.64234375,72.27000000000001,71.49234375Q72.02000000000001,71.34234375,71.74000000000001,71.24234375Q71.6,71.20234375,71.47,71.15234375Q71.34,71.10234375,71.2,71.06234375Q70.96000000000001,70.98234375,70.96000000000001,70.86234375000001Q70.96000000000001,70.70234375,71.11,70.53234375Q71.25999999999999,70.36234375000001,71.42,70.30234375Q71.75999999999999,70.36234375000001,71.96000000000001,70.37234375Q72.16,70.38234375,72.44,70.38234375L72.82,70.38234375Q73.06,70.26234375,73.06,70.02234375L73.06,66.58234375L71.56,66.64234375L71.52000000000001,66.68234375Q71.5,66.70234375,71.5,66.78234375L71.2,68.18234375Q71.06,68.88234375,70.83,69.53234375Q70.6,70.18234375,70.22,70.76234375Q69.88,71.36234375000001,69.24000000000001,71.90234375L68.82,72.28234375Q68.58,72.50234375,68.33,72.69234374999999Q68.08,72.88234375,67.8,73.02234375Q67.66,73.08234375,67.53,73.12234375Q67.4,73.16234375,67.24000000000001,73.16234375L67.08,73.16234375Q67.16,73.10234375,67.2,72.98234375L67.2,72.80234375Q67.2,72.74234375,67.24000000000001,72.66234375Q67.82,71.54234375,68.24000000000001,70.33234375Q68.66,69.12234375,68.66,67.84234375Q67.78,67.88234375,67.1,67.90234375Q66.8,67.92234375,66.52000000000001,67.93234375Q66.24000000000001,67.94234374999999,66.00999999999999,67.95234375Q65.78,67.96234375,65.64,67.96234375Q65.5,67.96234375,65.47999999999999,67.96234375Q65.38,67.98234375,65.3,67.98234375L62.02,67.98234375L62.1,68.04234375L64.12,69.02234375L64.12,69.60234375Q64.06,69.66234375,64.06,69.66234375Q64,69.72234375,63.98,69.72234375Q63.92,69.78234375,63.75,69.86234375000001Q63.58,69.94234374999999,63.54,69.94234374999999Q63.08,70.40234375,62.59,70.87234375Q62.1,71.34234375,61.56,71.78234375Q61,72.20234375,60.41,72.57234375Q59.82,72.94234374999999,59.2,73.16234375L59.06,73.16234375Q59.06,73.10234375,59.02,73.02234375L58.98,72.88234375L58.98,72.72234375Q58.98,72.66234375,59.06,72.52234375Q59.14,72.38234375,59.14,72.32234375Q59.18,72.20234375,59.39,71.80234375Q59.6,71.40234375,59.82,70.92234375Q60.04,70.44234374999999,60.23,70.03234375Q60.42,69.62234375,60.46,69.52234375Q60.5,69.48234375,60.53,69.39234375Q60.56,69.30234375,60.6,69.20234375L60.76,68.76234375L60.88,68.38234375Q60.9,68.28234375,60.91,68.24234375Q60.92,68.20234375,60.92,68.18234375L60.92,68.04234375Q60.78,68.04234375,60.64,68.05234375Q60.5,68.06234375,60.38,68.08234375Q60.22,68.10234375,60.09,68.11234375000001Q59.96,68.12234375,59.8,68.12234375Q59.64,68.12234375,59.49,67.98234375Q59.34,67.84234375,59.22,67.66234375Q59.12,67.46234375,59.05,67.28234375Q58.98,67.10234375,58.98,66.98234375Q58.98,66.94234374999999,59,66.89234375Q59.02,66.84234375,59.14,66.84234375L60.62,66.84234375L60.62,60.72234375Q60.62,60.62234375,60.57,60.61234375Q60.52,60.60234375,60.46,60.60234375L60.4,60.60234375L60,60.64234375Q59.84,60.64234375,59.76,60.65234375Q59.68,60.66234375,59.64,60.66234375Q59.5,60.66234375,59.5,60.58234375Q59.5,60.50234375,59.44,60.38234375L59.34,60.20234375L59.08,59.70234375L58.98,59.54234375L58.98,59.46234375Q58.98,59.32234375,59.06,59.32234375Q59.28,59.36234375,59.39,59.37234375Q59.5,59.38234375,59.72,59.38234375L59.96,59.38234375Q60,59.38234375,60.1,59.38234375Q60.2,59.38234375,60.3,59.36234375L60.54,59.32234375L60.54,56.58234475L60.84,56.58234475Q61.3,56.68234475,61.71,56.78234475Q62.12,56.88234375,62.5,56.94234475Q62.88,57.04234475,63.16,57.06234455Q63.2,57.06234455,63.37,57.12234495Q63.54,57.18234445,63.54,57.28234475L63.54,57.36234475L63.5,57.50234475Q63.46,57.66234475,63.46,57.70234475L63.46,59.18234375L64.72,59.18234375L64.72,56.58234475L64.86,56.44234475L65.7,56.58234475L66.25999999999999,56.68234475L66.88,56.86234475L67.1,56.92234375Q67.16,56.92234375,67.36,57.01234475Q67.56,57.10234455,67.56,57.22234435Q67.56,57.42234375,67.55,57.62234475Q67.53999999999999,57.82234475,67.52000000000001,58.02234475Q67.5,58.24234375,67.49000000000001,58.43234375Q67.47999999999999,58.62234375,67.47999999999999,58.84234375L67.56,58.84234375Q67.6,58.78234375,67.74000000000001,58.70234375Q67.88,58.62234375,68,58.62234375L68.88,59.46234375L68.88,57.22234435Q68.88,57.16234495,68.94,56.94234475Q69,56.72234475,69.12,56.72234475Q69.16,56.72234475,69.25999999999999,56.77234475Q69.36,56.82234475,69.46000000000001,56.86234475Q69.58,56.96234475,69.7,57.00234475L71.34,57.76234475Q71.38,57.76234475,71.53999999999999,57.88234375Q71.64,57.98234475,71.7,57.98234475L72,57.98234475Q72.06,57.98234475,72.19,57.97234475Q72.32,57.96234375,72.46000000000001,57.94234475Q72.62,57.94234475,72.72999999999999,57.93234475Q72.84,57.92234375,72.9,57.92234375Q73.03999999999999,57.84234475,73.12,57.69234475Q73.2,57.54234475,73.25999999999999,57.38234375Q73.34,57.22234435,73.41,57.06234455Q73.47999999999999,56.90234475,73.64,56.80234475L73.72,56.80234475Q73.74000000000001,56.80234475,73.86,56.84234475L73.94,56.86234475L75.88,57.92234375ZM68.8,66.70234375Q68.97999999999999,65.44234374999999,68.97999999999999,64.18234375Q68.96000000000001,63.54234375,68.96000000000001,62.91234375Q68.96000000000001,62.28234375,68.96000000000001,61.64234375L68.96000000000001,60.30234375L68.8,60.16234375L67.47999999999999,60.24234375L67.47999999999999,66.50234375Q67.64,66.50234375,67.82,66.42234375Q68,66.36234375000001,68.22,66.36234375000001L68.38,66.36234375000001Q68.4,66.38234375,68.58,66.54234375Q68.74000000000001,66.66234375,68.74000000000001,66.70234375L68.8,66.70234375ZM68,70.02234375Q68,70.34234375,67.82,70.67234375Q67.64,71.00234375,67.36,71.28234375Q67.08,71.56234375,66.72999999999999,71.73234375Q66.38,71.90234375,66.03999999999999,71.90234375Q65.82,71.90234375,65.68,71.64234375Q65.53999999999999,71.38234375,65.42,71.04234375Q65.36,70.86234375000001,65.31,70.68234375Q65.25999999999999,70.50234375,65.22,70.34234375Q65.16,70.02234375,65.02000000000001,69.80234375Q64.96000000000001,69.72234375,64.85,69.55234375Q64.74000000000001,69.38234375,64.62,69.16234375Q64.46000000000001,68.96234375,64.38,68.78234375L64.2,68.54234375Q64.25999999999999,68.38234375,64.28999999999999,68.31234375Q64.32,68.24234375,64.47999999999999,68.24234375Q64.84,68.24234375,65.43,68.37234375Q66.02000000000001,68.50234375,66.6,68.74234375Q67.18,68.96234375,67.59,69.29234375Q68,69.62234375,68,70.02234375ZM73.06,59.18234375L71.78,59.18234375Q71.78,59.46234375,71.77000000000001,59.74234375Q71.75999999999999,60.02234375,71.74000000000001,60.30234375Q71.72,60.62234375,71.71000000000001,60.92234375Q71.7,61.22234375,71.7,61.50234375Q71.7,61.54234375,71.7,61.58234375Q71.7,61.62234375,71.68,61.72234375Q71.66,61.882343750000004,71.75,61.90234375Q71.84,61.922343749999996,71.97999999999999,61.90234375L72.28,61.90234375Q72.44,61.882343750000004,72.57,61.87234375Q72.7,61.86234375,72.75999999999999,61.86234375L72.96000000000001,61.86234375Q73.06,61.90234375,73.06,61.72234375L73.06,59.18234375ZM73.06,65.30234375L72.97999999999999,63.04234375L71.78,63.12234375L71.74000000000001,63.382343750000004Q71.72,63.48234375,71.71000000000001,63.61234375Q71.7,63.74234375,71.7,63.82234375Q71.64,64.26234375,71.63,64.67234375Q71.62,65.08234375,71.62,65.44234374999999L72.32,65.44234374999999Q72.38,65.44234374999999,72.50999999999999,65.43234375Q72.64,65.42234375,72.74000000000001,65.40234375L72.97999999999999,65.36234375000001L73.06,65.30234375ZM64.64,66.42234375Q64.64,66.10234375,64.63,65.82234375Q64.62,65.54234375,64.56,65.16234375L63.38,65.16234375L63.38,66.78234375L64.56,66.70234375L64.64,66.64234375L64.64,66.42234375ZM64.72,60.60234375Q64.72,60.44234375,64.65,60.41234375Q64.58,60.38234375,64.4,60.38234375Q64.18,60.38234375,63.96,60.39234375Q63.74,60.40234375,63.46,60.46234375L63.46,61.72234375L63.66,61.72234375Q63.72,61.72234375,63.86,61.71234375Q64,61.70234375,64.16,61.68234375Q64.32,61.66234375,64.45,61.65234375Q64.58,61.64234375,64.64,61.64234375Q64.64,61.58234375,64.65,61.46234375Q64.66,61.34234375,64.68,61.18234375Q64.7,61.02234375,64.71000000000001,60.90234375Q64.72,60.78234375,64.72,60.72234375L64.72,60.60234375ZM64.64,62.922343749999996L64.47999999999999,62.84234375L63.46,62.922343749999996Q63.44,63.08234375,63.42,63.22234375Q63.4,63.36234375,63.4,63.52234375Q63.38,63.58234375,63.38,63.64234375Q63.38,63.70234375,63.38,63.74234375L63.38,63.882343750000004Q63.38,64.00234375,63.44,64.02234375Q63.5,64.04234375,63.6,64.04234375Q63.88,64.04234375,64.12,64.03234375Q64.36,64.02234375,64.64,63.96234375L64.64,62.922343749999996Z" fill="#E5E6EB" fill-opacity="1"/></g><g transform="matrix(0.8660253882408142,-0.5,0.5,0.8660253882408142,-9.311060371226631,15.395179865532555)" clip-path="url(#master_svg1_4577_80395)"><g><path d="M39.91465234375,31.217591249999998C39.79915234375,30.86073125,39.49085234375,30.60116125,39.12015234375,30.54722125L34.86015234375,29.92792125L32.95577234375,26.06859825C32.78955234375,25.73242625,32.447212343749996,25.5195311903954,32.072282343750004,25.51953125C31.697142343750002,25.51953125,31.354802343750002,25.73242625,31.18901234375,26.06859825L29.28424234375,29.92792125L25.02422634375,30.54722125C24.65347034375,30.60116125,24.34502434375,30.86071125,24.22945504375,31.217591249999998C24.11342194375,31.57426125,24.21031604375,31.96524125,24.47843734375,32.22700125L27.56040234375,35.23125125L26.83323234375,39.47323125C26.76950234375,39.84263125,26.92140234375,40.21623125,27.22487234375,40.43643125C27.39682234375,40.56123125,27.59959234375,40.62483125,27.80366234375,40.62483125C27.96348234375,40.62493125,28.12089234375,40.58603125,28.26226234375,40.51143125L32.07226234375,38.50893125L35.882052343750004,40.51143125C36.02345234375,40.58603125,36.180852343750004,40.62493125,36.34065234375,40.62483125C36.54475234375,40.62483125,36.74745234375,40.56123125,36.91945234375,40.43643125C37.22285234375,40.21603125,37.37475234375,39.84283125,37.31105234375,39.47323125L36.58365234375,35.23125125L39.66565234375,32.22700125C39.93405234375,31.96524125,40.03095234375,31.57426125,39.91465234375,31.217591249999998ZM35.52525234375,34.887381250000004L36.34065234375,39.63983125L32.072282343750004,37.39623125L27.80368234375,39.63983125L28.61914234375,34.887381250000004L25.16621034375,31.521641250000002L29.93831234375,30.82814125L32.072282343750004,26.50428525L34.20605234375,30.82814125L38.97795234375,31.521641250000002L35.52525234375,34.887381250000004Z" fill="#E5E6EB" fill-opacity="1"/></g><g><path d="M33.84871875,31.322829375L32.07225875,27.724609375L30.29604875,31.322829375L26.32421875,31.900089375L29.19858875,34.700909375L28.92734875,36.281189375C28.91918875,36.310039375,28.91390875,36.339739375,28.91390875,36.370999375C28.91390875,36.553289375,29.06118875,36.700809375,29.24326875,36.700809375C29.40663875,36.700809375,29.54092875,36.582139375,29.56735875,36.426039375L29.56888875,36.426709375L29.90354875,34.471699375L27.73586875,32.358439375L30.73195875,31.923399375L32.07225875,29.207999375L33.41235875,31.923399375L34.48297875,32.078609375C34.48869875,32.080139375,34.49550875,32.080369375000004,34.50169875,32.081259375L34.521958749999996,32.084559375L34.521958749999996,32.083449375C34.53250875,32.084779375,34.54221875,32.086539375,34.55319875,32.086539375C34.735718750000004,32.086539375,34.88322875,31.939019375,34.88322875,31.756969375C34.88322875,31.587019375,34.754658750000004,31.448969375,34.58929875,31.430699375L33.84871875,31.322829375ZM36.17729875,32.324749374999996L36.408418749999996,32.358209375L34.24012875,34.471699375L34.75221875,37.456359375L32.07225875,36.047589375L28.83046875,37.751609375C28.71070875,37.800909375,28.62637875,37.918709375,28.62637875,38.056309375C28.62637875,38.238609374999996,28.77365875,38.386109375000004,28.95616875,38.386109375000004C29.01165875,38.386109375000004,29.06316875,38.370909375,29.10896875,38.347109375L32.07225875,36.789279375L35.62381875,38.656209375L34.94574875,34.700889375L37.819618750000004,31.900069375L36.29485875,31.678159375C36.27128875,31.672869375,36.24708875,31.669579375,36.22197875,31.669579375C36.04013875,31.669579375,35.89218875,31.817079375,35.89218875,31.999369375C35.89218875,32.166019375,36.01635875,32.302299375,36.17729875,32.324749374999996Z" fill="#E5E6EB" fill-opacity="1"/></g></g></g></svg>