<svg xmlns="http://www.w3.org/2000/svg" xmlns:xlink="http://www.w3.org/1999/xlink" fill="none" version="1.1" width="16" height="16" viewBox="0 0 16 16"><defs><clipPath id="master_svg0_5125_58467"><rect x="0" y="0" width="16" height="16" rx="0"/></clipPath></defs><g clip-path="url(#master_svg0_5125_58467)"><g><path d="M8.26664078125,1.600006103515625C11.65384078125,1.600006103515625,14.40000078125,4.346136103515625,14.40000078125,7.733336103515625C14.40000078125,11.120536103515626,11.65384078125,13.866706103515625,8.26664078125,13.866706103515625C7.57864078125,13.866706103515625,6.90450078125,13.753106103515625,6.26664078125,13.532806103515625C5.997570781249999,13.430406103515624,5.8583707812500005,13.132906103515625,5.95213078125,12.860706103515625C6.04589078125,12.588506103515625,6.33877078125,12.439806103515625,6.61384078125,12.524806103515624C7.14077078125,12.706106103515625,7.69650078125,12.800006103515624,8.26664078125,12.800006103515624C11.06488078125,12.800006103515624,13.33330078125,10.531576103515626,13.33330078125,7.733336103515625C13.33330078125,4.935096103515625,11.06488078125,2.6666761035156252,8.26664078125,2.6666761035156252C5.468400781250001,2.6666761035156252,3.1999707812500002,4.935096103515625,3.1999707812500002,7.733336103515625C3.1999707812500002,8.453876103515626,3.35037078125,9.152006103515625,3.63730078125,9.795206103515625C3.75755078125,10.064326103515626,3.63675078125,10.379946103515625,3.36757078125,10.500026103515625C3.09838178125,10.620116103515626,2.78282478125,10.499136103515625,2.66290578125,10.229876103515625C2.31269478125,9.444226103515625,2.13222933125,8.593506103515626,2.13330554962,7.733336103515625C2.13330554962,4.346136103515625,4.8794407812500005,1.600006103515625,8.26664078125,1.600006103515625Z" fill="#2B2B36" fill-opacity="1"/></g><g><path d="M13.3152170175,10.666649091796875C13.3050832775,10.680519091796874,13.3050832775,9.978119091796875,13.3152170175,8.558389091796876C13.3552169875,8.189849091796875,13.3552169875,7.647986091796875,13.3152170175,6.933319091796875C14.3461471875,6.933319091796875,15.1818871875,7.769054091796875,15.1818871875,8.799989091796874C15.1818871875,9.830919091796876,14.3461471875,10.666649091796875,13.3152170175,10.666649091796875Z" fill="#2B2B36" fill-opacity="1"/></g><g><path d="M7.20002921875,11.73333740234375L8.26669921875,11.73333740234375Q9.60002921875,11.73333740234375,9.60002921875,13.06666740234375Q9.60002921875,14.40000740234375,8.26669921875,14.40000740234375L7.20002921875,14.40000740234375Q5.86669921875,14.40000740234375,5.86669921875,13.06666740234375Q5.86669921875,11.73333740234375,7.20002921875,11.73333740234375Z" fill="#2B2B36" fill-opacity="1"/></g><g><path d="M2.933320390625,10.666649091796875C3.620780390625,10.666649091796875,3.620780390625,9.963719091796875,2.933320390625,8.558389091796876C2.893850390625,8.189849091796875,2.893850390625,7.647986091796875,2.933320390625,6.933319091796875C1.9023853906250001,6.933319091796875,1.066650390625,7.769054091796875,1.066650390625,8.799989091796874C1.066650390625,9.830919091796876,1.9023853906250001,10.666649091796875,2.933320390625,10.666649091796875Z" fill="#2B2B36" fill-opacity="1"/></g><g><path d="M4.791032875,8.60480797265625C5.005723875,8.40294077265625,5.343441875,8.41345027265625,5.545166875,8.62827497265625C6.249826875,9.38135097265625,7.235426875,9.80819197265625,8.266766875,9.80694197265625C9.258766875,9.80694197265625,10.188366875,9.41867497265625,10.882236875,8.73707597265625C11.092396875,8.53059487265625,11.430156875,8.53357987265625,11.636636875,8.74374197265625C11.843116875,8.95390497265625,11.840126875,9.29166097265625,11.629966875000001,9.49814197265625C10.733276875,10.38080197265625,9.525006874999999,10.87477197265625,8.266766875,10.87307197265625C6.940946875,10.87452197265625,5.6738968750000005,10.32607197265625,4.767566875,9.35840897265625C4.566057675,9.14378597265625,4.576560975,8.806478972656251,4.791032875,8.60480797265625Z" fill="#2B2B36" fill-opacity="1"/></g></g></svg>