<svg xmlns="http://www.w3.org/2000/svg" xmlns:xlink="http://www.w3.org/1999/xlink" fill="none" version="1.1" width="16" height="16" viewBox="0 0 16 16"><defs><clipPath id="master_svg0_3575_58042"><rect x="0" y="0" width="16" height="16" rx="0"/></clipPath></defs><g clip-path="url(#master_svg0_3575_58042)"><g><path d="M13.550271875,6.4541825C13.399071875,6.4541825,13.247771875,6.3974625,13.131271875,6.2835625C12.893871875,6.0519925,12.889171875,5.6719925,13.120571875,5.4348125C13.852471875,4.6844925,13.837671875,3.4788725,13.087471875,2.7469925C12.723871875,2.3923125,12.241671875,2.2012125,11.736571875,2.2069925C11.228871875,2.2132425,10.754211875,2.4168425,10.399671875,2.7802724999999997C10.167961875,3.0176225,9.787961875,3.0219925,9.550921875,2.7909025C9.313581875,2.5594925,9.308891875,2.1794925000000003,9.540301875,1.9421525C10.734361875,0.7177775,12.701571875,0.6937154999999999,13.925571875,1.8877774999999999C15.149471875,3.0818425,15.173871875,5.0490325,13.979871875,6.2730925C13.862371875,6.3935625,13.706271875,6.4541825,13.550271875,6.4541825ZM12.798271875,7.2188725C12.646971875,7.2188725,12.495771875,7.1621525,12.379171875,7.0482425L8.798891874999999,3.5554325C8.561551875,3.3238725,8.556861875,2.9438725,8.788271875,2.7066825000000003C9.019831875000001,2.4691825,9.399991875,2.4649625,9.637021875,2.6960625L13.217471875,6.1890325C13.454871875,6.4205925,13.459471875,6.8005925,13.228071875,7.0377825C13.110271875,7.1584025,12.954371875,7.2188725,12.798271875,7.2188725ZM2.570461875,10.5418425C2.4192118750000002,10.5418425,2.267961875,10.4851225,2.151391875,10.3712125C1.914051875,10.1396525,1.909363875,9.7596525,2.140771875,9.5224625L9.542961875,1.9349655000000001C9.774521875,1.6974654999999998,10.154681875,1.6932464999999999,10.391861875,1.9244965C10.629051875,2.1560625,10.633741875,2.5360625,10.402331875,2.7734025L3.0001418749999997,10.3607425C2.882491875,10.4813725,2.726391875,10.5418425,2.570461875,10.5418425ZM1.739676875,14.9784125C1.703582875,14.9784125,1.667020875,14.9751125,1.630145875,14.9684125C1.304207875,14.9082125,1.088582975,14.5953125,1.148739175,14.2693125L1.9565518750000002,9.8871525C2.016707875,9.5612125,2.329361875,9.3449625,2.655611875,9.4057425C2.981551875,9.4659025,3.197181875,9.7788725,3.1370218750000003,10.1048125L2.329211875,14.4870125C2.275921875,14.7760125,2.023582875,14.9784125,1.739676875,14.9784125ZM6.154051875,14.0381125C6.002801875,14.0381125,5.851551875,13.9814125,5.734991875,13.8675125C5.497641875,13.6359125,5.492961875,13.2559125,5.724361875,13.0187125L13.126571875,5.4312125C13.358071875,5.1938725,13.738071875,5.1891825,13.975271875,5.4205925C14.212671875,5.6521525,14.217371875,6.0319925,13.985971875,6.2693425L6.583741875,13.8568125C6.466081875,13.9775125,6.310141875,14.0381125,6.154051875,14.0381125ZM1.739051875,14.9790125C1.461082875,14.9790125,1.211551875,14.7850125,1.152176875,14.5021125C1.084051875,14.1778125,1.291707875,13.8595125,1.616238875,13.7914125L5.977171875,12.8754125C6.302171875,12.8075125,6.619831875,13.0150125,6.687961875,13.3395125C6.756081875,13.6639125,6.548421875,13.9821125,6.223891875,14.0503125L1.862957875,14.9662125C1.821394875,14.9748125,1.779988875,14.9790125,1.739051875,14.9790125ZM14.261071875,14.9921125L9.259211875,14.9921125C8.927801875,14.9921125,8.659051875,14.7234125,8.659051875,14.3920125C8.659051875,14.0606125,8.927801875,13.7918125,9.259211875,13.7918125L14.261071875,13.7918125C14.592471875,13.7918125,14.861271875,14.0606125,14.861271875,14.3920125C14.861271875,14.7234125,14.592471875,14.9921125,14.261071875,14.9921125Z" fill="#555555" fill-opacity="1"/></g></g></svg>