<svg xmlns="http://www.w3.org/2000/svg" xmlns:xlink="http://www.w3.org/1999/xlink" fill="none" version="1.1" width="121" height="79" viewBox="0 0 121 79"><defs><clipPath id="master_svg0_3681_50754"><rect x="0" y="0" width="121" height="79" rx="0"/></clipPath></defs><g clip-path="url(#master_svg0_3681_50754)"><g><path d="M12.0971,53.9853L13.7262,53.9853C14.1652,53.9939,14.5165,54.3521,14.5165,54.791C14.5165,55.2358,14.1697,55.5967,13.7262,55.5967L12.0971,55.5967L12.0971,57.2244C12.0884,57.663,11.7299,58.014,11.2906,58.014C10.8486,58.0212,10.4859,57.6661,10.4841,57.2244L10.4841,55.5967L8.85507,55.5967C8.41606,55.5881,8.06473,55.2299,8.06472,54.791C8.06472,54.3462,8.41151,53.9853,8.85507,53.9853L10.4841,53.9853L10.4841,52.3576C10.4928,51.919,10.8513,51.568,11.2906,51.568C11.7358,51.568,12.0971,51.9145,12.0971,52.3576L12.0971,53.9853ZM118.551,47.5392L118.551,45.9116C118.55,45.4699,118.187,45.1148,117.745,45.122C117.306,45.1219,116.947,45.4729,116.939,45.9116L116.939,47.5392L115.309,47.5392C114.867,47.541,114.512,47.9033,114.519,48.345C114.519,48.7769,114.874,49.1507,115.309,49.1507L116.939,49.1507L116.939,50.7784C116.939,51.2215,117.3,51.568,117.745,51.568C118.184,51.5681,118.543,51.2171,118.551,50.7784L118.551,49.1507L120.181,49.1507C120.624,49.1507,120.971,48.7898,120.971,48.345C120.971,47.9062,120.62,47.548,120.181,47.5392L118.551,47.5392ZM59.9564,74.129L19.3505,74.129C18.4601,74.1299,17.7388,73.4071,17.7424,72.5175C17.7424,71.628,18.4731,70.906,19.3505,70.906L26.6652,70.906C26.1007,69.9286,25.8046,68.8195,25.8071,67.6911L25.8071,20.9414C25.8089,17.3809,28.7017,14.4973,32.2654,14.5035L37.0977,14.5035L37.0977,12.8839C37.0995,9.32343,39.9923,6.43976,43.556,6.446L82.2538,6.446C85.8182,6.43797,88.712,9.32269,88.712,12.8839L88.712,59.6336C88.712,60.8051,88.3991,61.9025,87.8523,62.8485L96.7751,62.8485C97.6671,62.8485,98.3896,63.564,98.3896,64.46C98.3896,65.3495,97.6719,66.0715,96.7767,66.0715L77.4214,66.0715L77.4214,67.6911C77.4214,68.8626,77.1084,69.9601,76.5617,70.906L77.4262,70.906C78.3133,70.906,79.0343,71.6215,79.0343,72.5175C79.0343,73.4071,78.3036,74.129,77.4262,74.129L68.9405,74.129C69.6776,75.3634,69.5179,76.9814,68.4453,78.053C67.1875,79.3157,65.1418,79.3157,63.8839,78.053L59.9564,74.129ZM65.8533,70.906L70.9825,70.906C72.7567,70.906,74.1955,69.4718,74.1955,67.6749L74.1955,20.8657C74.1955,19.1253,72.8019,17.7265,71.0825,17.7265L32.146,17.7265C30.4266,17.7265,29.033,19.1317,29.033,20.8657L29.033,67.6749C29.033,69.4589,30.4847,70.906,32.2444,70.906L56.7289,70.906L55.8998,70.0761C55.0817,69.263,54.7617,68.0745,55.0611,66.961L53.5385,65.4382C48.7944,68.9665,42.1294,68.2406,38.2575,63.774C34.3857,59.3074,34.6185,52.6129,38.7913,48.4256C42.9768,44.2289,49.6984,43.9822,54.1808,47.8608C58.6632,51.7393,59.3788,58.4213,55.8192,63.1595L57.3434,64.6824C58.4576,64.3818,59.6476,64.701,60.4612,65.5187L65.8533,70.906ZM77.4214,62.8485L82.2747,62.8485C84.0503,62.8396,85.4852,61.3995,85.4861,59.6255L85.4861,12.892C85.4861,11.1065,84.0473,9.669,82.2747,9.669L43.5334,9.669C41.7584,9.67875,40.3245,11.1186,40.3236,12.892L40.3236,14.5035L70.9631,14.5035C74.5275,14.4955,77.4214,17.3802,77.4214,20.9414L77.4214,62.8485ZM20.565,3.62587L22.9683,3.62587C23.6458,3.62587,24.1942,4.1625,24.1942,4.8345C24.1942,5.50166,23.6458,6.04312,22.9683,6.04312L20.565,6.04312L20.565,8.44426C20.565,9.12109,20.0279,9.669,19.3553,9.669C18.6828,9.66456,18.1412,9.11622,18.1456,8.44426L18.1456,6.04312L15.7423,6.04312C15.069,6.04939,14.5192,5.50721,14.5165,4.8345C14.5165,4.16734,15.0649,3.62587,15.7423,3.62587L18.1456,3.62587L18.1456,1.22474C18.1456,0.54791,18.6827,0,19.3553,0C20.0231,0,20.565,0.54791,20.565,1.22474L20.565,3.62587ZM1.61295,72.5175C1.61295,71.628,2.34361,70.906,3.22105,70.906L12.9084,70.906C13.7955,70.906,14.5165,71.6215,14.5165,72.5175C14.5165,73.4071,13.7858,74.129,12.9084,74.129L3.22105,74.129C2.33065,74.1299,1.60937,73.4071,1.61295,72.5175ZM52.4788,62.1008C55.6313,58.9542,55.6325,53.8496,52.4816,50.7015C49.3306,47.5533,44.2215,47.5546,41.072,50.7042C37.9221,53.8513,37.9221,58.9537,41.072,62.1008C44.2219,65.2478,49.3289,65.2478,52.4788,62.1008ZM35.4848,24.1725C35.4848,23.2831,36.2059,22.5619,37.0961,22.561L54.8401,22.561C55.7309,22.561,56.4531,23.2825,56.4531,24.1725C56.4531,25.0625,55.7309,25.784,54.8401,25.784L37.0977,25.784C36.2058,25.7867,35.4821,25.0636,35.4848,24.1725ZM35.4848,32.23C35.4848,31.3405,36.2026,30.6185,37.0864,30.6185L62.9161,30.6185C63.8,30.6185,64.5178,31.334,64.5178,32.23C64.5178,33.1195,63.8,33.8415,62.9161,33.8415L37.0864,33.8415C36.1978,33.8406,35.4794,33.1178,35.4848,32.23ZM35.4848,40.2875C35.4848,39.398,36.2042,38.676,37.0945,38.676L48.3916,38.676C49.2803,38.676,50.0013,39.3915,50.0013,40.2875C50.0013,41.177,49.2819,41.899,48.3916,41.899L37.0945,41.899C36.2035,41.9008,35.4812,41.1777,35.4848,40.2875ZM4.83883,30.6185C2.16642,30.6185,-2.88417e-7,28.454,-2.88417e-7,25.784C-2.88417e-7,23.114,2.16642,20.9495,4.83883,20.9495C7.51125,20.9495,9.67767,23.114,9.67767,25.784C9.67767,28.454,7.51125,30.6185,4.83883,30.6185ZM4.83883,28.2012C6.17504,28.2013,7.25825,27.119,7.25825,25.784C7.25825,24.449,6.17504,23.3668,4.83883,23.3668C3.50263,23.3668,2.41942,24.449,2.41942,25.784C2.41942,27.119,3.50263,28.2013,4.83883,28.2012ZM104.841,20.9495C102.168,20.9508,100,18.7859,100,16.115C100,13.4441,102.168,11.2792,104.841,11.2805C107.513,11.2818,109.678,13.4459,109.678,16.115C109.678,18.7841,107.513,20.9482,104.841,20.9495ZM104.841,18.5322C106.178,18.5322,107.261,17.45,107.261,16.115C107.261,14.78,106.178,13.6977,104.841,13.6977C103.505,13.6977,102.422,14.78,102.422,16.115C102.422,17.45,103.505,18.5322,104.841,18.5322Z" fill="#D5CDC8" fill-opacity="1"/></g></g></svg>