<svg xmlns="http://www.w3.org/2000/svg" xmlns:xlink="http://www.w3.org/1999/xlink" fill="none" version="1.1" width="14" height="14" viewBox="0 0 14 14"><defs><clipPath id="master_svg0_3626_81417"><rect x="0" y="0" width="14" height="14" rx="0"/></clipPath></defs><g clip-path="url(#master_svg0_3626_81417)"><g><path d="M12.6605375,2.893153701171875C12.6493375,2.908543701171875,12.6227375,2.923933701171875,12.6087375,2.936523701171875L9.2287075,6.288583701171875L9.2287075,11.793743701171875C9.2287075,12.427443701171875,8.743247499999999,12.942343701171875,8.1080875,12.942343701171875C7.8142975,12.942343701171875,7.5652675,12.830443701171875,7.3512175,12.628943701171876C7.3358275,12.619143701171875,7.3204375,12.606543701171875,7.3078475,12.593943701171876L6.3677075,11.665043701171875C6.2515875,11.550343701171874,6.2501875,11.364243701171874,6.3649075,11.246743701171875L6.7650275,10.843793701171874C6.8783475,10.733273701171875,7.0602275,10.731873701171875,7.1749475,10.842393701171876L8.0339375,11.732143701171875C8.0465375,11.743343701171876,8.052127500000001,11.754543701171874,8.067517500000001,11.768543701171875C8.059127499999999,9.405593701171876,8.0563275,6.592163701171875,8.0563275,6.029763701171875L8.0563275,5.930433701171875C8.0563275,5.852083701171875,8.1262775,5.772343701171875,8.1822375,5.717783701171875L11.7945375,2.136283701171875C11.8043375,2.123693701171875,11.8155375,2.088723701171875,11.8266375,2.088723701171875L2.1874374999999997,2.088723701171875C2.1986274999999997,2.088723701171875,2.1972275,2.122293701171875,2.2056275000000003,2.134883701171875L5.7661275,5.723373701171875C5.8220875,5.779333701171875,5.8276875,5.853483701171875,5.8276875,5.931833701171875L5.8276875,8.286383701171875C5.8276875,8.289183701171876,5.8360775,8.293373701171875,5.8360775,8.296173701171874C5.8290875,8.615153701171874,5.5800575,8.868373701171876,5.2666775,8.868373701171876C4.9477075,8.868373701171876,4.6539075,8.608153701171876,4.6539075,8.289183701171876L4.6539075,6.288583701171875L1.3396284999999999,2.930933701171875C1.3270374999999999,2.918343701171875,1.3480225,2.897353701171875,1.3382295,2.883363701171875C1.1353715,2.666513701171875,1.02205124,2.3811137011718753,1.0234503299,2.084523701171875C1.0234503299,1.4507677011718751,1.5382894999999999,0.913543701171875,2.1706475000000003,0.913543701171875L11.8448375,0.913543701171875C12.1512375,0.913543701171875,12.4394375,1.054844701171875,12.6563375,1.271692701171875C12.8731375,1.488540701171875,12.9850375,1.7879317011718752,12.9850375,2.094313701171875C12.9822375,2.3895137011718752,12.8633375,2.679103701171875,12.6605375,2.893153701171875ZM5.3086475,9.103413701171876C5.6612075,9.116003701171875,5.9368075,9.411193701171875,5.9242175,9.763753701171876C5.9130275,10.099513701171874,5.6430175,10.368123701171875,5.3086475,10.379313701171874C4.9560975,10.366723701171875,4.6804875,10.071533701171875,4.693077499999999,9.718983701171876C4.7042775,9.384613701171874,4.972887500000001,9.114603701171875,5.3086475,9.103413701171876Z" fill="#000000" fill-opacity="1"/></g></g></svg>