<svg xmlns="http://www.w3.org/2000/svg" xmlns:xlink="http://www.w3.org/1999/xlink" fill="none" version="1.1" width="24" height="24" viewBox="0 0 24 24"><defs><clipPath id="master_svg0_5339_56628"><rect x="0" y="0" width="24" height="24" rx="0"/></clipPath></defs><g clip-path="url(#master_svg0_5339_56628)"><g><path d="M16.6,20.1L7.4,20.1C5.5,20.1,4,18.6,4,16.7L4,7.4C4,5.6,5.5,4.000000357628,7.4,4.000000357628L12.1,4.000000357628C12.5,4.000000357628,12.8,4.3,12.8,4.7C12.8,5.1,12.5,5.4,12.1,5.4L7.4,5.4C6.2,5.4,5.3,6.3,5.3,7.5L5.3,16.8C5.3,18,6.2,18.9,7.4,18.9L16.7,18.9C17.9,18.9,18.8,18,18.8,16.8L18.8,12.4C18.8,12,19.1,11.7,19.5,11.7C19.9,11.7,20.2,12,20.2,12.4L20.2,16.8C20,18.6,18.5,20.1,16.6,20.1ZM19.2,5.4L16.3,5.4C15.9,5.4,15.6,5.1,15.6,4.7C15.6,4.3,15.9,4,16.3,4L19.2,4C19.6,4,19.9,4.3,19.9,4.7C19.9,5.1,19.7,5.4,19.2,5.4Z" fill="#000000" fill-opacity="1"/></g><g><path d="M19.30009665625,8.4002146875C18.90009765625,8.4002146875,18.60009765625,8.1002146875,18.60009765625,7.7002146875L18.60009765625,4.8002146875000005C18.60009765625,4.4002146875,18.90009765625,4.1002149875,19.30009665625,4.1002149875C19.70009765625,4.0002150875,20.00009765625,4.3002146875,20.00009765625,4.8002146875000005L20.00009765625,7.7002146875C20.00009765625,8.1002146875,19.80009765625,8.4002146875,19.30009665625,8.4002146875Z" fill="#4D4D4D" fill-opacity="1"/></g><g><path d="M11.300048828125,13.4994140625C11.100048828125,13.4994140625,10.900047828125,13.3994140625,10.900047828125,13.2994140625C10.600048528125,12.9994140625,10.600048528125,12.5994140625,10.900047828125,12.2994140625L18.500048828125,4.4994140625C18.800048828125,4.1994141625,19.200048828125,4.1994141625,19.500048828125,4.4994140625C19.800048828125,4.7994140625,19.800048828125,5.1994140625,19.500048828125,5.4994140625L11.900048828125,13.2994140625C11.600048828125,13.4994140625,11.500048828125,13.4994140625,11.300048828125,13.4994140625Z" fill="#000000" fill-opacity="1"/></g></g></svg>