<svg xmlns="http://www.w3.org/2000/svg" xmlns:xlink="http://www.w3.org/1999/xlink" fill="none" version="1.1" width="108" height="16" viewBox="0 0 108 16"><g><g><path d="M28.688,0.967999Q28.688,0.872,28.752,0.712Q28.816,0.551999,28.864,0.455999L28.912,0.455999Q28.976,0.455999,29.088,0.52Q29.216,0.584,29.256,0.599999Q29.296,0.615999,29.472,0.648L30.224,0.84Q30.304000000000002,0.872,30.36,0.879999Q30.416,0.888,30.448,0.903999Q30.528,0.967999,30.688000000000002,0.983999L31.439999999999998,1.256L31.695999999999998,1.336L31.695999999999998,1.4Q31.695999999999998,1.416,31.584,1.576Q31.456,1.736,31.288,1.912Q31.119999999999997,2.088,30.976,2.248L30.784,2.456Q30.784,2.568,30.880000000000003,2.536Q30.928,2.52,31.008,2.52Q32.064,2.52,33.152,2.424Q33.68,2.392,34.208,2.368Q34.736000000000004,2.344,35.263999999999996,2.344L35.568,2.344Q35.696,2.568,35.736000000000004,2.848Q35.775999999999996,3.128,35.775999999999996,3.4L32.544,3.4L32.544,3.464Q32.672,3.56,32.792,3.664Q32.912,3.768,33.007999999999996,3.896Q32.704,4.264,32.416,4.648Q32.128,5.032,31.872,5.4L32.256,5.4L33.007999999999996,5.4Q33.36,5.416,33.744,5.272Q33.792,5.272,33.888,5.176Q33.984,5.08,34.016,5.08Q34.016,5.096,34.032,5.096Q34.048,5.096,34.048,5.104Q34.048,5.112,34.08,5.112Q34.112,5.128,34.135999999999996,5.136Q34.16,5.144,34.192,5.144L34.368,5.24L34.624,5.368Q34.752,5.448,34.88,5.512Q35.007999999999996,5.576,35.056,5.592L35.104,5.656L35.104,5.72Q35.104,5.752,35.024,5.864Q34.944,5.976,34.944,6.024L34.88,6.152Q34.8,7.032,34.784,7.888Q34.768,8.744,34.784,9.608Q34.784,10.472,34.784,11.312Q34.784,12.152,34.768,13.016L34.768,13.4Q34.768,13.88,34.576,14.136Q34.448,14.28,34.256,14.28Q33.984,14.28,33.768,14.2Q33.552,14.12,33.328,14.008Q33.104,13.912,32.88,13.824Q32.656,13.736,32.432,13.704L32.256,13.704Q32.176,13.672,32.048,13.552Q31.92,13.432,31.92,13.336Q31.92,13.24,31.928,13.144Q31.936,13.048,31.984,13L32.144,13Q32.272,13,32.416,13Q32.56,13,32.704,13.032Q32.96,13.08,33.232,13.08Q33.504,13.08,33.552,12.68Q33.568,12.584,33.568,12.488Q33.568,12.392,33.568,12.296L33.568,12.024L33.568,6.52L33.504,6.28L33.232,6.28Q31.728,6.28,30.28,6.352Q28.832,6.424,27.376,6.52Q27.328,6.52,27.192,6.52Q27.056,6.52,26.912,6.552L26.64,6.6Q26.528,6.616,26.528,6.648L26.528,8.712Q26.752,8.616,27.088,8.312Q27.424,8.008,27.759999999999998,7.672L28.384,7.096Q28.624,6.84,28.736,6.84Q28.8,6.84,28.936,6.92Q29.072,7,29.2,7.112Q29.328,7.224,29.432000000000002,7.344Q29.536,7.464,29.536,7.528Q29.536,7.608,29.28,7.848Q29.008,8.088,28.656,8.368Q28.304000000000002,8.648,27.984,8.872L27.552,9.144Q27.552,9.224,27.664,9.208L27.776,9.208Q27.792,9.208,27.832,9.2Q27.872,9.192,27.951999999999998,9.176Q28.016,9.16,28.048000000000002,9.152Q28.08,9.144,28.112000000000002,9.144L28.352,9.208L28.512,9.208Q28.896,9.208,29.288,9.176Q29.68,9.144,30.08,9.08Q30.48,9.016,30.864,8.992Q31.247999999999998,8.968,31.631999999999998,8.968Q31.695999999999998,8.968,31.84,8.992Q31.984,9.016,32.128,9.048Q32.272,9.096,32.384,9.168Q32.496,9.24,32.496,9.336Q32.496,9.528,32.432,9.64Q32.368,9.768,32.328,9.872Q32.288,9.976,32.256,10.168Q32.224000000000004,10.28,32.216,10.384Q32.208,10.488,32.192,10.616L32.048,11.336L32.048,11.528Q32.048,11.72,32.16,11.832Q32.256,11.96,32.256,12.152Q32.256,12.28,32.208,12.28Q31.536,12.28,30.904,12.288Q30.272,12.296,29.6,12.344Q29.52,12.344,29.448,12.352Q29.376,12.36,29.296,12.376Q29.248,12.392,29.136,12.392L29.136,12.904L29.024,12.904L28.992,12.904Q28.928,12.904,28.912,12.888Q28.864,12.888,28.808,12.888Q28.752,12.888,28.704,12.872L28.464,12.84L28.352,12.84Q28.224,12.824,28.152,12.808Q28.08,12.792,28.048000000000002,12.776Q27.951999999999998,12.744,27.928,12.672Q27.904,12.6,27.904,12.456Q27.904,12.328,27.887999999999998,12.136Q27.872,11.944,27.84,11.688Q27.808,11.56,27.792,11.44Q27.776,11.32,27.759999999999998,11.192Q27.744,11.064,27.728,10.952Q27.712,10.84,27.695999999999998,10.744L27.664,10.52Q27.648,10.488,27.631999999999998,10.424Q27.616,10.36,27.6,10.28L27.424,9.528L27.376,9.272Q27.264,9.304,27.072,9.416Q26.912,9.528,26.752,9.528Q26.656,9.528,26.528,9.4Q26.432000000000002,9.496,26.464,9.64L26.464,9.896Q26.464,10.36,26.464,10.856Q26.464,11.352,26.48,11.864Q26.48,12.376,26.456,12.872Q26.432000000000002,13.368,26.352,13.832Q26.352,13.88,26.288,13.888Q26.224,13.896,26.176000000000002,13.896Q26.128,13.896,25.944,13.88Q25.759999999999998,13.864,25.552,13.816Q25.36,13.768,25.2,13.688Q25.04,13.608,25.04,13.464Q25.04,13.176,25.08,12.896Q25.12,12.616,25.168,12.344Q25.2,11.976,25.224,11.6Q25.248,11.224,25.232,10.808Q25.216,10.408,25.216,10.04Q25.216,9.672,25.216,9.336L25.216,7.272Q25.184,6.904,25.144,6.464Q25.104,6.024,25.104,5.656Q25.248,5.656,25.4,5.664Q25.552,5.672,25.696,5.688Q25.856,5.704,26.008,5.712Q26.16,5.72,26.304000000000002,5.72Q26.72,5.72,27.176000000000002,5.704Q27.631999999999998,5.688,28.064,5.592Q27.823999999999998,5.256,27.567999999999998,4.824L27.104,4.088Q27.056,4.04,27.048000000000002,3.992Q27.04,3.944,27.04,3.896Q27.04,3.912,27.072,3.784Q27.104,3.688,27.104,3.656Q26.768,3.656,26.456,3.68Q26.144,3.704,25.84,3.736Q25.264,3.832,24.656,3.832L24.416,3.832L24.368,3.768L24.288,3.608L24.096,3.176L24.032,3.032L24.032,2.968Q24.032,2.84,24.08,2.84Q24.688,2.792,25.272,2.76Q25.856,2.728,26.448,2.712Q27.024,2.696,27.608,2.688Q28.192,2.68,28.8,2.648Q28.896,2.648,29,2.64Q29.104,2.632,29.232,2.616Q29.712,2.552,30.192,2.52Q30.4,2.504,30.624000000000002,2.52L30.560000000000002,2.456Q30.528,2.44,30.472,2.408Q30.416,2.376,30.352,2.344Q30.272,2.312,30.2,2.264Q30.128,2.216,30.048000000000002,2.168Q29.872,2.072,29.736,1.976Q29.6,1.88,29.536,1.832Q29.456,1.784,29.32,1.688Q29.184,1.592,29.04,1.464Q28.912,1.336,28.8,1.208Q28.688,1.08,28.688,0.967999ZM28.176000000000002,3.656Q28.176000000000002,3.752,28.336,3.912Q28.496000000000002,4.072,28.704,4.248L29.088,4.552L29.248,4.712Q29.248,4.952,29.088,5.112Q29.024,5.208,28.968,5.312Q28.912,5.416,28.912,5.528L30.560000000000002,5.528Q30.64,5.528,30.752000000000002,5.48Q30.864,5.432,30.896,5.336L31.631999999999998,3.528L31.631999999999998,3.4Q30.768,3.4,29.904,3.424Q29.04,3.448,28.176000000000002,3.592L28.176000000000002,3.656ZM32.608000000000004,9.208Q32.56,9.176,32.456,9.112Q32.352000000000004,9.048,32.224000000000004,8.936L31.68,8.52Q31.36,8.296,31.096,8.08Q30.832,7.864,30.736,7.768L30.624000000000002,7.672L30.48,7.544Q30.464,7.512,30.32,7.4L30.32,7.272L30.464,7.144L30.672,6.968L30.848,6.904L30.976,6.952L31.152,7.016Q31.247999999999998,7.064,31.344,7.096L31.472,7.144Q31.536,7.176,31.624000000000002,7.216Q31.712,7.256,31.84,7.32Q31.968,7.384,32.104,7.448Q32.24,7.512,32.384,7.576L32.928,7.848Q33.056,7.912,33.144,7.952Q33.232,7.992,33.296,8.024L33.344,8.088Q33.344,8.152,33.248,8.312Q33.168,8.504,33.056,8.696Q32.944,8.888,32.832,9.048Q32.72,9.208,32.672,9.208L32.608000000000004,9.208ZM28.736,10.024Q28.736,10.056,28.744,10.096Q28.752,10.136,28.768,10.216L28.8,10.392Q28.816,10.456,28.832,10.536Q28.848,10.616,28.864,10.712L29.024,11.528L29.072,11.592L29.312,11.56Q29.408,11.544,29.456,11.536Q29.503999999999998,11.528,29.536,11.528L29.695999999999998,11.528Q29.823999999999998,11.528,30.008,11.52Q30.192,11.512,30.368000000000002,11.496L30.784,11.464L30.896,11.4Q30.928,11.16,30.968,10.968Q31.008,10.776,31.055999999999997,10.584Q31.088,10.504,31.096,10.424Q31.104,10.344,31.119999999999997,10.28Q31.119999999999997,10.248,31.128,10.208Q31.136,10.168,31.152,10.088Q31.168,10.008,31.176000000000002,9.968Q31.183999999999997,9.928,31.183999999999997,9.896L31.183999999999997,9.832L30.112000000000002,9.832L29.792,9.832Q29.472,9.832,29.024,9.912Q28.832,9.96,28.736,10.024ZM42.592,2.088Q43.056,2.12,43.519999999999996,2.104Q43.984,2.088,44.448,2.024L46.288,1.832Q46.512,1.8,46.744,1.792Q46.976,1.784,47.2,1.768L48.111999999999995,1.72L48.144,1.72Q48.192,1.72,48.288,1.624Q48.4,1.528,48.448,1.528L48.72,1.528L48.879999999999995,1.608Q49.007999999999996,1.656,49.120000000000005,1.712Q49.232,1.768,49.36,1.816Q49.424,1.864,49.519999999999996,1.896Q49.552,1.896,49.616,1.96L49.696,2.024Q49.696,2.104,49.632000000000005,2.168Q49.6,2.216,49.576,2.264Q49.552,2.312,49.519999999999996,2.376L49.391999999999996,2.616Q49.312,2.744,49.296,2.84Q49.296,2.856,49.296,2.896Q49.296,2.936,49.28,3.016Q49.263999999999996,3.096,49.256,3.176Q49.248000000000005,3.256,49.248000000000005,3.336L49.184,3.688Q49.152,3.768,49.144,3.84Q49.135999999999996,3.912,49.120000000000005,3.96L49.120000000000005,4.024L48.832,5.528Q48.8,5.624,48.848,5.696Q48.896,5.768,48.96,5.848Q49.120000000000005,6.008,49.120000000000005,6.152Q49.120000000000005,6.248,49.08,6.32Q49.04,6.392,48.944,6.392L46.448,6.392Q46.32,6.392,46.184,6.4Q46.048,6.408,45.903999999999996,6.424Q45.632000000000005,6.472,45.328,6.512Q45.024,6.552,44.751999999999995,6.584Q44.480000000000004,6.616,44.239999999999995,6.584Q44.239999999999995,6.824,44.208,6.896Q44.176,6.968,43.952,6.968Q43.728,6.968,43.512,6.96Q43.296,6.952,43.04,6.904Q43.056,6.568,43.024,6.224Q42.992000000000004,5.88,42.928,5.528Q42.864000000000004,5.192,42.824,4.856Q42.784,4.52,42.816,4.216L42.528,2.152L42.592,2.088ZM44,3.336Q44,3.896,44.08,4.464Q44.16,5.032,44.239999999999995,5.592L44.688,5.592Q44.832,5.592,45.248000000000005,5.584Q45.664,5.576,46.111999999999995,5.544Q46.336,5.528,46.544,5.52Q46.751999999999995,5.512,46.96,5.48Q47.152,5.464,47.248000000000005,5.456Q47.344,5.448,47.391999999999996,5.416Q47.44,5.384,47.456,5.296Q47.472,5.208,47.504000000000005,5.016Q47.584,4.648,47.647999999999996,4.2Q47.712,3.752,47.775999999999996,3.336Q47.808,3.128,47.808,2.992Q47.808,2.856,47.808,2.776L46.8,2.776L46.656,2.776L46.4,2.808Q46.32,2.824,46.256,2.824Q46.192,2.824,46.144,2.824Q46.064,2.84,46.04,2.84Q46.016,2.84,46,2.84L45.584,2.84Q45.312,2.84,44.992000000000004,2.864Q44.672,2.888,44.4,2.936Q44.111999999999995,2.984,44,3.08L44,3.336ZM47.519999999999996,8.216Q47.84,8.216,48.135999999999996,8.192Q48.432,8.168,48.736000000000004,8.136Q49.024,8.104,49.32,8.08Q49.616,8.056,49.92,8.024L49.968,8.024L50.208,7.864Q50.352000000000004,7.768,50.432,7.768L50.495999999999995,7.768Q50.448,7.768,50.576,7.8L50.896,7.976Q50.96,8.024,51.007999999999996,8.024Q51.056,8.072,51.328,8.152Q51.568,8.232,51.632000000000005,8.28L51.632000000000005,8.344Q51.6,8.408,51.568,8.456Q51.536,8.504,51.504000000000005,8.536L51.376000000000005,8.792L51.328,9.032Q51.2,9.704,51.16,10.44Q51.120000000000005,11.176,51.120000000000005,11.896Q51.120000000000005,12.072,51.168,12.192Q51.216,12.312,51.296,12.44Q51.36,12.568,51.408,12.68Q51.456,12.792,51.456,12.904L51.391999999999996,12.968Q51.007999999999996,12.968,50.623999999999995,12.968Q50.239999999999995,12.968,49.84,12.952Q49.04,12.92,48.272,13L48.128,13L47.968,13Q47.952,13.016,47.808,13.016L47.808,13.592L47.696,13.656L47.647999999999996,13.656L47.519999999999996,13.592L47.408,13.576Q47.312,13.56,47.184,13.536Q47.056,13.512,46.928,13.48Q46.879999999999995,13.464,46.736000000000004,13.464L46.688,13.464L46.56,13.4L46.528,12.024Q46.528,11.56,46.519999999999996,11.16Q46.512,10.76,46.512,10.584L46.512,10.344Q46.480000000000004,10.072,46.456,9.776Q46.432,9.48,46.4,9.176Q46.367999999999995,8.872,46.352000000000004,8.584Q46.336,8.296,46.336,8.024Q46.623999999999995,8.024,46.944,8.12Q47.232,8.216,47.519999999999996,8.216ZM41.68,8.52Q41.984,8.52,42.36,8.504Q42.736000000000004,8.488,43.135999999999996,8.44Q43.519999999999996,8.392,43.879999999999995,8.312Q44.239999999999995,8.232,44.512,8.088Q44.592,8.088,44.792,8.152Q44.992000000000004,8.216,45.2,8.296Q45.408,8.392,45.56,8.504Q45.712,8.616,45.712,8.712Q45.712,8.824,45.568,8.936Q45.488,9.016,45.448,9.08Q45.408,9.144,45.376000000000005,9.208Q45.28,9.512,45.224000000000004,9.888Q45.168,10.264,45.135999999999996,10.648Q45.104,11.032,45.096000000000004,11.408Q45.088,11.784,45.088,12.088Q45.088,12.2,45.096000000000004,12.304Q45.104,12.408,45.135999999999996,12.52Q45.2,12.696,45.2,12.968L45.2,13L44.928,13.016Q44.592,13.016,44.256,13.016Q43.92,13.016,43.552,13Q43.184,13,42.832,13.032Q42.480000000000004,13.064,42.128,13.144L42.128,13.768L42.064,13.896Q41.856,13.896,41.456,13.816Q41.296,13.784,41.152,13.76Q41.007999999999996,13.736,40.879999999999995,13.704Q40.864000000000004,13.08,40.848,12.432Q40.832,11.784,40.775999999999996,11.136Q40.72,10.488,40.608000000000004,9.832Q40.495999999999995,9.176,40.304,8.52L40.304,8.456L40.367999999999995,8.392Q40.4,8.392,40.448,8.392Q40.495999999999995,8.392,40.576,8.408Q40.72,8.44,40.888000000000005,8.464Q41.056,8.488,41.2,8.504Q41.263999999999996,8.52,41.32,8.52Q41.376000000000005,8.52,41.408,8.52L41.68,8.52ZM47.760000000000005,10.344Q47.760000000000005,10.712,47.768,11.192Q47.775999999999996,11.672,47.808,12.088L47.936,12.088Q48.4,12.088,48.872,12.048Q49.344,12.008,49.808,11.96Q49.888000000000005,11.192,49.96,10.472Q50.032,9.752,50.032,9.032Q49.472,9.032,48.896,9.056Q48.32,9.08,47.760000000000005,9.208L47.760000000000005,10.344ZM41.903999999999996,9.528L41.903999999999996,9.592L41.936,9.928L41.968,10.152L41.968,10.28L41.968,10.696Q41.968,10.984,41.984,11.28Q42,11.576,42.048,11.848Q42.048,12.088,42.128,12.216L42.480000000000004,12.216Q42.623999999999995,12.216,42.775999999999996,12.208Q42.928,12.2,43.104,12.184Q43.28,12.168,43.448,12.16Q43.616,12.152,43.792,12.152Q43.84,12.104,43.888000000000005,11.888Q43.936,11.672,43.968,11.416Q43.984,11.16,43.992000000000004,10.92Q44,10.68,44,10.584Q44,10.52,44.016,10.352Q44.032,10.184,44.064,9.992L44.111999999999995,9.64Q44.128,9.56,44.128,9.496Q44.128,9.432,44.128,9.4L44.064,9.336L43.728,9.336Q43.312,9.336,42.848,9.376Q42.384,9.416,41.968,9.464L41.903999999999996,9.528ZM64.368,3.768Q64.832,3.096,65.152,2.312Q65.47200000000001,1.528,65.744,0.712L65.792,0.712Q65.856,0.712,66.064,0.823999Q66.27199999999999,0.952,66.50399999999999,1.112Q66.73599999999999,1.272,66.912,1.432Q67.104,1.576,67.104,1.656L67.104,1.72L66.75200000000001,2.024L66.368,2.504Q66.144,2.792,65.896,3.088Q65.648,3.384,65.328,3.72L65.328,3.768L67.50399999999999,3.768Q67.55199999999999,3.768,67.592,3.88Q67.632,3.992,67.664,4.136Q67.68,4.216,67.68,4.28Q67.68,4.344,67.68,4.424L67.68,4.648Q67.68,4.744,67.696,4.824Q67.696,4.968,67.55199999999999,4.968Q67.28,4.968,67,4.952Q66.72,4.936,66.416,4.904Q66.128,4.872,65.848,4.856Q65.568,4.84,65.29599999999999,4.84L64.70400000000001,4.84L64.544,4.904L64.544,6.648L66.99199999999999,6.648L67.056,6.712Q67.136,6.808,67.144,6.944Q67.152,7.08,67.152,7.208L67.152,7.768Q66.928,7.768,66.688,7.76Q66.44800000000001,7.752,66.22399999999999,7.736Q65.98400000000001,7.72,65.73599999999999,7.72Q65.488,7.72,65.232,7.72L64.544,7.72L64.49600000000001,7.768L64.49600000000001,9.528L64.544,9.592L67.152,9.592L67.616,9.624Q67.77600000000001,9.64,67.904,9.648Q68.032,9.656,68.064,9.656Q68.144,9.704,68.16,9.848Q68.176,9.992,68.176,10.088Q68.176,10.312,68.168,10.456Q68.16,10.6,68.128,10.84L68.064,10.904Q67.792,10.904,67.584,10.84Q67.344,10.776,67.104,10.776Q66.49600000000001,10.728,65.904,10.688Q65.312,10.648,64.70400000000001,10.648Q64.672,10.648,64.584,10.656Q64.49600000000001,10.664,64.49600000000001,10.712L64.49600000000001,13.656L64.432,14.024L63.296,13.832L63.296,10.712Q62.496,10.712,61.84,10.872Q61.184,11.032,60.4,11.032L60.176,11.032L60.112,10.968L59.984,10.648Q59.92,10.52,59.864,10.392Q59.808,10.264,59.776,10.152L59.744,10.04Q59.728,10.04,59.712,9.96Q59.712,9.944,60,9.896Q60.128,9.88,60.272,9.864Q60.416,9.848,60.592,9.832L61.232,9.784Q61.376,9.768,61.472,9.768Q61.568,9.768,61.6,9.768Q61.68,9.768,61.728,9.752Q61.776,9.752,61.84,9.752Q61.904,9.752,61.968,9.736Q62.16,9.736,62.208,9.72L62.32,9.72L62.784,9.72Q62.848,9.72,62.936,9.712Q63.024,9.704,63.104,9.688L63.296,9.656L63.36,7.832L63.008,7.832Q62.544,7.832,62.048,7.928Q61.536,8.024,61.072,8.024L60.8,8.024L60.656,7.688Q60.544,7.448,60.496,7.4Q60.464,7.352,60.4,7.24Q60.336,7.128,60.336,7.08L60.336,7.032Q61.04,6.84,61.68,6.856Q62,6.872,62.328,6.848Q62.656,6.824,63.008,6.776Q63.024,6.776,63.072,6.768Q63.12,6.76,63.2,6.744L63.296,6.712L63.296,4.968L63.184,4.904Q62.848,4.952,62.512,4.984Q62.176,5.016,61.856,5.048L60.496,5.208L60.4,5.144L60,4.28Q60,4.168,60.352,4.12Q60.544,4.088,60.744,4.072Q60.944,4.056,61.168,4.04L61.984,3.992Q62.368,3.96,62.384,3.896L62.352,3.832Q62.32,3.704,62.32,3.72L61.184,2.024Q61.104,1.928,60.976,1.736Q60.848,1.544,60.848,1.4Q60.848,1.352,60.912,1.304Q60.976,1.256,61.056,1.224Q61.248,1.144,61.296,1.144L61.408,1.112Q61.456,1.096,61.496,1.08Q61.536,1.064,61.568,1.048Q61.76,0.967999,61.808,0.967999Q62,1.224,62.192,1.496Q62.384,1.768,62.576,2.04Q62.752,2.312,62.96,2.576Q63.168,2.84,63.408,3.08L62.784,3.832L62.848,3.896L63.008,3.896Q63.168,3.896,63.328,3.896Q63.488,3.896,63.664,3.912Q63.968,3.928,64.256,3.832L64.368,3.768ZM56.928,2.152Q56.928,2.008,57.024,1.816Q57.088,1.704,57.112,1.632Q57.136,1.56,57.152,1.528Q57.216,1.528,57.28,1.592Q57.328,1.656,57.392,1.656L57.552,1.704Q57.664,1.768,57.728,1.768L58.736,2.344Q58.864,2.408,58.968,2.472Q59.072,2.536,59.2,2.616Q59.312,2.696,59.44,2.784Q59.568,2.872,59.712,2.968Q59.76,3.016,59.856,3.064Q59.936,3.112,59.936,3.208Q59.936,3.256,59.928,3.272Q59.92,3.288,59.872,3.336Q59.584,3.496,59.504,3.688Q59.408,3.896,59.216,4.088Q58.784,3.72,58.256,3.544Q57.728,3.368,57.216,3.272Q57.088,3.224,57.008,3.192Q56.928,3.16,56.928,3.032L56.928,2.904L56.976,2.648Q56.976,2.616,56.976,2.56Q56.976,2.504,56.96,2.424Q56.944,2.344,56.936,2.296Q56.928,2.248,56.928,2.216L56.928,2.152ZM65.29599999999999,3.768Q65.26400000000001,3.768,65.288,3.816Q65.312,3.864,65.312,3.832Q65.312,3.816,65.304,3.808Q65.29599999999999,3.8,65.29599999999999,3.784L65.29599999999999,3.768ZM55.52,5.96Q56.16,5.816,56.832,5.768Q57.504,5.72,58.176,5.72Q58.256,5.72,58.4,5.736Q58.544,5.752,58.672,5.784Q58.976,5.864,58.976,6.088Q58.976,6.248,58.912,6.36Q58.864,6.504,58.864,6.648Q58.72,7.544,58.752,8.712Q58.768,9.256,58.768,9.792Q58.768,10.328,58.736,10.84L58.8,10.904L58.864,10.904L59.216,10.696Q59.376,10.584,59.6,10.584Q59.792,10.584,59.952,10.888Q59.984,10.952,60.008,11.016Q60.032,11.08,60.064,11.144L60.176,11.336L60.112,11.464Q59.792,11.672,59.504,11.896Q59.216,12.12,58.912,12.344Q58.624,12.568,58.336,12.792Q58.048,13.016,57.776,13.208L57.728,13.208Q57.648,13.208,57.504,13.088Q57.36,12.968,57.184,12.792Q57.008,12.616,56.888,12.432Q56.768,12.248,56.768,12.152L56.816,12.088Q57.088,11.88,57.24,11.768Q57.392,11.656,57.456,11.528Q57.52,11.416,57.536,11.224Q57.552,11.128,57.552,10.984Q57.552,10.84,57.552,10.648Q57.552,10.616,57.552,10.552Q57.552,10.488,57.568,10.376Q57.568,10.264,57.568,10.144Q57.568,10.024,57.584,9.896L57.616,9.416L57.616,9.144L57.616,6.84L56.928,6.84Q56.688,6.84,56.448,6.936Q56.208,7.032,55.968,7.032Q55.84,7.032,55.768,6.904Q55.696,6.776,55.664,6.584Q55.6,6.408,55.568,6.232Q55.536,6.056,55.52,5.96ZM58.736,11.032Q58.784,11.032,58.784,10.968Q58.784,10.904,58.736,10.904Q58.704,10.904,58.704,10.968Q58.704,11.032,58.736,11.032ZM79.29599999999999,0.84L79.36,0.648L80.544,1.032L80.544,1.144Q80.544,1.288,80.536,1.432Q80.52799999999999,1.576,80.512,1.704Q80.512,1.848,80.50399999999999,1.992Q80.49600000000001,2.136,80.49600000000001,2.28L83.104,2.28Q83.104,2.296,83.12,2.312Q83.152,2.344,83.152,2.392L83.184,2.504Q83.2,2.552,83.21600000000001,2.6Q83.232,2.648,83.232,2.712Q83.24799999999999,2.776,83.26400000000001,2.824Q83.28,2.872,83.29599999999999,2.92Q83.312,2.984,83.32,3.016Q83.328,3.048,83.328,3.08L83.328,3.144L83.21600000000001,3.208L80.832,3.208Q80.832,3.208,80.672,3.24L80.49600000000001,3.272L80.432,3.336L80.432,4.088L82.592,4.088Q82.592,4.152,82.656,4.216L82.70400000000001,4.28Q82.78399999999999,4.408,82.864,4.616Q82.944,4.824,82.99199999999999,4.968L82.88,5.032L80.432,5.032L80.432,5.896Q80.848,5.896,81.256,5.88Q81.664,5.864,82.08,5.832Q82.49600000000001,5.8,82.904,5.784Q83.312,5.768,83.72800000000001,5.768L84.01599999999999,5.768Q84.064,5.816,84.136,5.968Q84.208,6.12,84.24000000000001,6.296Q84.27199999999999,6.376,84.288,6.456Q84.304,6.536,84.32,6.616L84.352,6.776L84.304,6.84Q83.616,6.792,83.08,6.784Q82.544,6.776,81.92,6.776Q80.864,6.776,79.864,6.792Q78.864,6.808,77.80799999999999,6.904Q77.55199999999999,6.936,77.312,6.96Q77.072,6.984,76.832,7.016Q76.592,7.048,76.344,7.064Q76.096,7.08,75.84,7.08Q75.712,7.08,75.712,7.032L75.424,6.216L75.424,6.152Q76.24000000000001,6.008,77.088,6.008Q77.92,6.008,78.73599999999999,5.96Q78.78399999999999,5.96,78.88,5.952Q78.976,5.944,79.056,5.928L79.232,5.896L79.232,5.144Q79.232,5.128,79.152,5.096Q79.088,5.096,79.072,5.08Q78.544,5.08,78.048,5.176Q77.536,5.272,77.024,5.272Q76.944,5.272,76.888,5.16Q76.832,5.048,76.8,4.904Q76.672,4.568,76.672,4.392L76.672,4.344Q76.73599999999999,4.344,76.88,4.336Q77.024,4.328,77.184,4.312L77.696,4.28L78.048,4.28Q78.288,4.28,78.536,4.264Q78.78399999999999,4.248,78.99199999999999,4.216Q79.184,4.2,79.232,4.152Q79.28,3.96,79.288,3.832Q79.29599999999999,3.704,79.29599999999999,3.528Q79.28,3.512,79.28,3.432Q79.24799999999999,3.336,79.232,3.336L79.072,3.336Q78.464,3.336,77.888,3.432Q77.28,3.528,76.672,3.528L76.464,3.528Q76.464,3.464,76.44800000000001,3.432L76.4,3.272L76.288,3.032Q76.288,2.984,76.19200000000001,2.84Q76.112,2.648,76.112,2.648L76.112,2.584Q76.656,2.44,77.376,2.472Q77.696,2.488,78.024,2.488Q78.352,2.488,78.672,2.456Q78.75200000000001,2.456,78.848,2.448Q78.944,2.44,79.024,2.424L79.232,2.392L79.29599999999999,2.344L79.29599999999999,0.84ZM73.392,0.712L73.488,0.712Q73.664,0.743999,73.872,0.823999Q74.08,0.903999,74.288,0.983999Q74.416,1.032,74.544,1.088Q74.672,1.144,74.8,1.208L74.64,2.024L74.64,4.024L74.688,4.024Q74.73599999999999,4.024,74.864,3.952Q74.99199999999999,3.88,75.03999999999999,3.832Q75.21600000000001,3.976,75.392,4.144Q75.568,4.312,75.712,4.488Q76.01599999999999,4.904,76.4,5.144L76.4,5.208Q76.4,5.352,76.27199999999999,5.488Q76.144,5.624,75.968,5.72Q75.792,5.832,75.6,5.896Q75.408,5.96,75.312,5.96Q75.26400000000001,5.96,75.168,5.784Q75.104,5.704,75.064,5.616Q75.024,5.528,74.976,5.416Q74.88,5.208,74.77600000000001,5.016Q74.672,4.824,74.592,4.776Q74.544,7.112,74.536,9.432Q74.52799999999999,11.752,74.52799999999999,14.024L74.464,14.088L74.416,14.088Q74.208,14.088,73.968,14.024L73.744,13.976Q73.696,13.96,73.616,13.96Q73.52000000000001,13.96,73.416,13.912Q73.312,13.864,73.28,13.768L73.28,13.464Q73.28,12.504,73.312,11.52Q73.344,10.536,73.392,9.528L73.392,0.712ZM71.392,7.416L72.19200000000001,3.72Q72.19200000000001,3.672,72.256,3.664Q72.32,3.656,72.352,3.656Q72.52799999999999,3.656,72.72,3.752Q72.912,3.848,72.99199999999999,4.04L72.99199999999999,4.536Q72.99199999999999,5.4,72.904,6.288Q72.816,7.176,72.592,8.04L72.52799999999999,8.168L72.112,7.976Q72.032,7.944,71.968,7.92Q71.904,7.896,71.856,7.864L71.68,7.784Q71.392,7.672,71.392,7.544L71.392,7.416ZM78.112,7.72Q79.072,7.72,80.064,7.624Q81.03999999999999,7.528,82.08,7.528L82.288,7.528Q82.672,7.528,82.96000000000001,7.624Q83.104,7.672,83.104,7.768L83.104,7.832Q83.056,7.88,82.99199999999999,8.088Q82.912,8.312,82.88,8.344L82.88,13.768Q82.88,13.912,82.77600000000001,14.008Q82.672,14.104,82.592,14.152L82.256,14.152Q81.648,14.152,81.024,13.96Q80.72,13.88,80.432,13.8Q80.144,13.72,79.872,13.656L79.872,13.464L79.872,13.128Q79.872,12.968,80.032,12.968Q80.208,12.968,80.376,12.976Q80.544,12.984,80.72,13Q80.896,13,81.056,13.008Q81.21600000000001,13.016,81.392,13.016L81.568,13.016L81.68,12.968L81.68,12.088L79.072,12.088Q79.024,12.088,78.92,12.096Q78.816,12.104,78.688,12.12Q78.56,12.136,78.44800000000001,12.144Q78.336,12.152,78.27199999999999,12.152L78.128,12.184Q77.968,12.216,77.98400000000001,12.216Q77.952,12.44,77.952,12.672Q77.952,12.904,77.968,13.128Q78,13.608,77.872,14.024L77.648,14.024L77.47200000000001,14.024Q77.2,14.024,76.88,13.944Q76.75200000000001,13.912,76.73599999999999,13.832L76.73599999999999,13.464Q76.73599999999999,13,76.77600000000001,12.56Q76.816,12.12,76.848,11.656Q76.896,10.6,76.904,9.624Q76.912,8.648,76.912,7.592Q77.056,7.592,77.208,7.608Q77.36,7.624,77.50399999999999,7.656Q77.744,7.72,78.112,7.72ZM78.22399999999999,9.592Q78.864,9.592,79.488,9.496Q80.112,9.4,80.70400000000001,9.4L81.168,9.4L81.232,9.464Q81.24799999999999,9.544,81.26400000000001,9.608Q81.28,9.672,81.29599999999999,9.736Q81.312,9.976,81.392,10.152L81.392,10.216L81.232,10.28L79.744,10.28L79.26400000000001,10.312Q79.104,10.328,78.968,10.336Q78.832,10.344,78.78399999999999,10.344Q78.608,10.344,78.424,10.36Q78.24000000000001,10.376,78.112,10.456Q78.064,10.648,78.056,10.776Q78.048,10.904,78.048,11.08L78.048,11.272Q78.048,11.336,78.16,11.336Q78.96000000000001,11.336,79.77600000000001,11.24Q80.592,11.144,81.392,11.144Q81.52000000000001,11.144,81.568,11.304L81.6,11.448Q81.616,11.512,81.68,11.528L81.68,8.584L81.632,8.52Q81.632,8.52,81.50399999999999,8.488Q81.408,8.456,81.392,8.456L80.19200000000001,8.456L80.048,8.456L79.77600000000001,8.488Q79.696,8.504,79.632,8.504Q79.568,8.504,79.50399999999999,8.504Q79.424,8.52,79.4,8.52Q79.376,8.52,79.36,8.52Q79.28,8.52,79.08,8.52Q78.88,8.52,78.656,8.552L78.27199999999999,8.6Q78.112,8.616,78.112,8.648L78.112,9.528Q78.112,9.608,78.22399999999999,9.592Z" fill="#3D3D3D" fill-opacity="1"/></g><g><line x1="0" y1="7.5" x2="18" y2="7.5" fill-opacity="0" stroke-opacity="1" stroke="#D8D8D8" fill="none" stroke-width="1"/></g><g><line x1="90" y1="7.5" x2="108" y2="7.5" fill-opacity="0" stroke-opacity="1" stroke="#D8D8D8" fill="none" stroke-width="1"/></g></g></svg>