<?xml version="1.0" encoding="utf-8"?>
<!-- Generator: Adobe Illustrator 26.2.1, SVG Export Plug-In . SVG Version: 6.00 Build 0)  -->
<svg version="1.1" id="图层_1" xmlns="http://www.w3.org/2000/svg" xmlns:xlink="http://www.w3.org/1999/xlink" x="0px" y="0px"
	 viewBox="0 0 69.9 15.6" style="enable-background:new 0 0 69.9 15.6;" xml:space="preserve">
<style type="text/css">
	.st0{fill:#938253;}
</style>
<g>
	<path class="st0" d="M15.2,4.5c0,0.1-0.1,0.3-0.2,0.4c-0.1,0.1-0.3,0.1-0.4,0.1c-0.3-0.1-0.8-0.1-1.5-0.1c-1.4,0-3,0.1-4.8,0.4
		c0.2,0.1,0.3,0.2,0.5,0.2c0,0,0.1,0.1,0.1,0.1c0,0.1-0.1,0.2-0.2,0.3c-0.3,0.3-0.6,0.6-1,0.9c1.3-0.2,2.1-0.4,2.4-0.6
		c0,0,0.1-0.1,0.2-0.1C10.2,6,10.3,6,10.4,6s0.1,0,0.2,0c0.2,0,0.6,0.1,1.1,0.3s0.8,0.4,1.1,0.6c0.1,0,0.1,0.1,0.1,0.2
		c0,0.1-0.1,0.2-0.2,0.2c-0.1,0.1-0.2,0.1-0.2,0.2c0,0.1-0.1,0.3-0.1,0.7c0,0.4-0.1,1.4-0.1,3v1.4c0,0.4-0.1,1-0.2,1.6
		c0,0.2-0.2,0.5-0.4,0.7c-0.2,0.3-0.5,0.4-0.8,0.4c-0.2,0-0.4-0.1-0.6-0.4c-0.1-0.1-0.2-0.3-0.2-0.3c-0.1-0.2-0.3-0.4-0.4-0.6
		c-0.4,0-0.8,0-1,0L8,14c-1.1,0-1.8,0.1-2,0.1l0,1c0,0.1,0,0.2-0.1,0.2s-0.1,0.1-0.2,0.1c-0.1,0-0.2,0-0.5-0.1S4.7,15,4.5,14.9
		c-0.2-0.1-0.3-0.2-0.4-0.3c-0.1-0.1-0.1-0.2-0.1-0.3l0-2.2L3,12.1l-0.1-0.4c0.3-0.1,0.7-0.2,1.2-0.3c0-0.3,0-0.7,0-1.2v-0.1
		l-0.9,0.1L3,10c0.3-0.1,0.5-0.1,0.6-0.2C3.8,9.7,4,9.7,4.1,9.7c0-0.4,0-0.9-0.1-1.5c0-0.3-0.1-0.5-0.3-0.7c-0.2-0.2-0.5-0.4-1-0.6
		l0.1-0.2c0.3,0,0.7,0.1,1.3,0.2C4.6,7,5,7.1,5.3,7.1L6,7c0.4-0.6,0.6-1.1,0.7-1.4l0.1-0.2c-1,0.2-2,0.4-3,0.5s-1.6,0.3-2,0.4
		c-0.2,0-0.3,0.1-0.3,0.1c-0.1,0-0.2-0.1-0.2-0.2C1.2,6,1,5.8,0.8,5.5C0.6,5.2,0.4,4.9,0.2,4.7l0.1-0.1c0.1,0.1,0.3,0.1,0.5,0.2
		C1,4.8,1.2,4.8,1.3,4.8c1,0,2.4-0.2,4.4-0.5c-0.1,0-0.1-0.1-0.2-0.2C5.4,3.8,5.2,3.5,4.9,3.1c-0.5-0.5-1.1-1-1.8-1.5c0,0,0,0,0-0.1
		c0,0,0-0.1,0.1-0.2c1,0.2,1.8,0.3,2.3,0.4c0.5,0.1,0.9,0.4,1.3,0.8c0,0.6,0,1.2-0.2,1.5c0,0.1-0.1,0.2-0.1,0.2
		c0.6-0.1,1.2-0.2,2-0.3C8.7,3.5,9,3,9.2,2.6c0.2-0.4,0.4-0.9,0.5-1.3c0-0.1,0-0.2,0-0.2c0-0.1,0-0.2-0.1-0.3
		C9.6,0.6,9.5,0.5,9.3,0.3l0.1-0.1c0.5,0.3,1.1,0.5,1.6,0.8c0.5,0.3,0.8,0.5,0.9,0.6C12,1.8,12,1.8,12,1.9c0,0.1-0.1,0.2-0.3,0.4
		c-0.4,0.4-0.7,0.7-1,0.9S10.3,3.5,10,3.7c1.7-0.3,2.9-0.6,3.7-0.8c0.1,0,0.1,0,0.2,0c0.1,0,0.3,0.1,0.4,0.2
		c0.1,0.1,0.3,0.3,0.5,0.7C15.1,4.1,15.2,4.3,15.2,4.5z M10.1,7.8c0-0.2-0.1-0.3-0.4-0.2L8.5,7.8C7.7,7.9,6.8,8,5.8,8.2
		c0,0.4,0,0.8,0,1c1.6-0.4,3.1-0.7,4.4-0.8L10.1,7.8z M5.8,10c0,0.5,0,0.8,0,1.1c1.7-0.3,3.1-0.5,4.4-0.6c0-0.3,0-0.6,0-0.7
		C10,9.7,9.7,9.6,9.5,9.6C8.9,9.7,7.7,9.8,5.8,10z M5.9,12.9c0.6,0,1.3,0,2.3-0.1s1.6-0.1,2.1-0.2v-0.1c0-0.1,0-0.4,0-0.8
		c-0.1,0-0.3-0.1-0.5-0.1c-0.8,0-2.1,0-3.9,0.2L5.9,12.9z M19.2,4.6c-0.2-0.4-0.3-0.6-0.5-0.8l0.1-0.2c0.1,0,0.2,0.1,0.3,0.1
		c0.1,0,0.2,0,0.4,0.1c0.6,0,1.5-0.1,2.6-0.3l0-0.4c0-0.3,0-0.5-0.1-0.7c0-0.2-0.1-0.3-0.2-0.4c-0.2-0.2-0.4-0.4-0.6-0.5
		C21,1.3,20.7,1.2,20.3,1l0-0.1c1,0.1,2.2,0.3,3.4,0.5c0.1,0,0.2,0.1,0.2,0.2c0,0.1,0,0.1,0,0.2c0,0.1-0.1,0.2-0.1,0.2
		c0,0.2-0.1,0.5-0.1,1v0.1c0.9-0.2,1.5-0.3,1.7-0.4c0.1,0,0.2-0.1,0.2-0.1c0.1,0,0.3,0.1,0.4,0.2c0.1,0.1,0.2,0.2,0.3,0.3
		c0.1,0.2,0.2,0.3,0.3,0.5l0,0.1c0,0.1,0,0.2-0.1,0.3c-0.1,0.1-0.2,0.1-0.3,0.1c-0.3-0.1-0.8-0.1-1.4-0.1c-0.5,0-0.9,0-1.2,0l-0.1,1
		c0.4-0.1,0.7-0.1,0.9-0.2C24.6,5,24.7,5,24.8,5C24.9,5,25,5,25,5.1s0.1,0.1,0.1,0.1c0.1,0.1,0.2,0.2,0.2,0.3
		c0.1,0.2,0.2,0.3,0.2,0.5l0,0.1c0,0.1,0,0.2-0.1,0.3c-0.1,0.1-0.1,0.1-0.2,0.1c-0.5-0.1-0.9-0.2-1.3-0.2c-0.4,0-0.8,0-1.2,0.1
		c-0.5,0.1-0.9,0.2-1.3,0.3c-0.4,0.1-0.7,0.2-0.8,0.3c-0.2,0-0.3,0.1-0.3,0.1c-0.1,0-0.2,0-0.2-0.1c0-0.1-0.1-0.2-0.1-0.2
		S20,6.6,19.9,6.5c-0.1-0.1-0.1-0.3-0.2-0.4c-0.1-0.1-0.2-0.2-0.3-0.3l0.1-0.1c0.2,0.1,0.4,0.1,0.6,0.1c0.6,0,1.2-0.1,1.9-0.2
		c0-0.5,0-0.8,0-1.1c-0.4,0.1-0.9,0.2-1.3,0.3C20.4,4.9,20.1,5,20,5.1c-0.1,0-0.2,0.1-0.3,0.1s-0.2,0-0.3-0.1L19.2,4.6z M34.7,13.4
		l0,0.2c-0.2,0-0.5,0-0.7,0.1c-0.3,0.1-0.5,0.1-0.6,0.2c-0.6,0.2-1.1,0.4-1.5,0.6c-0.1,0.1-0.3,0.1-0.4,0.1c-0.1,0-0.2-0.1-0.3-0.2
		c-0.5-0.6-0.9-1.3-1.3-2c-0.4-0.7-0.7-1.4-1-2.2c-0.4,1-0.9,1.8-1.5,2.5c-0.6,0.7-1.5,1.3-2.7,1.8l-0.2-0.4
		c1.1-0.9,1.9-1.8,2.4-2.8c0.5-1,0.8-2.1,0.9-3.4c0-0.1,0-0.1,0-0.3c0-0.2,0-0.4-0.1-0.6c-0.1-0.3-0.1-0.5-0.2-0.6
		c-0.5,0.6-1.1,1.1-1.7,1.5l-0.3-0.2c0.7-1,1.2-2,1.6-3.1c0.4-1,0.6-2,0.6-2.8c0-0.3-0.3-0.6-0.9-0.9l0-0.2c0.5,0,1.1,0.1,1.7,0.3
		c0.7,0.2,1.1,0.3,1.2,0.4c0.1,0,0.1,0.1,0.1,0.2c0,0.1,0,0.1-0.1,0.2c0,0.1-0.1,0.1-0.1,0.2c-0.2,0.9-0.6,1.8-1.1,2.7
		c0.7-0.2,1.3-0.3,2-0.5C31,4.3,31.2,4.2,31.4,4c0.1-0.1,0.2-0.1,0.3-0.2c0.1,0,0.2-0.1,0.2-0.1c0,0,0.1,0,0.2,0.1
		c0.7,0.5,1.3,1,1.6,1.4c0.1,0.1,0.1,0.2,0.1,0.3c0,0.2-0.1,0.3-0.3,0.4c-0.8,0.4-1.8,0.9-3,1.5l-0.3-0.3c0.6-0.8,0.9-1.4,1-1.7
		c0-0.1,0-0.1,0-0.2c0,0-0.1,0-0.1,0c-0.4,0.1-1,0.2-1.6,0.4c-0.7,0.2-1.2,0.3-1.5,0.4c-0.1,0.2-0.2,0.3-0.2,0.2
		c0.7,0.2,1.4,0.4,2.1,0.6C29.9,7,30,7.1,30,7.2c0,0.1,0,0.1-0.1,0.2c-0.1,0.2-0.2,0.3-0.3,0.5c-0.1,0.2-0.1,0.3-0.2,0.5L29.4,9
		l0.2,0.3c0.6,0.7,0.9,1.2,1.1,1.5c0.5,0.5,1,1,1.5,1.4c0.5,0.4,1,0.7,1.3,0.9L34.7,13.4z M24.5,6.7c0.1,0,0.2,0.1,0.3,0.2
		c0.1,0.2,0.3,0.4,0.4,0.8c0,0,0,0.1,0,0.1c0,0.1,0,0.2-0.1,0.3c-0.1,0.1-0.1,0.1-0.2,0.1c-0.3-0.1-0.6-0.1-1-0.1
		c-0.3,0-0.8,0-1.3,0.1c-0.6,0.1-1.3,0.3-2.2,0.6c0,0-0.1,0-0.2,0c-0.1,0-0.2-0.1-0.3-0.2c-0.1-0.1-0.2-0.3-0.3-0.4
		c-0.2-0.3-0.3-0.5-0.5-0.7l0.1-0.1l0.7,0.3c0.4,0,1.1-0.1,2.1-0.3c1-0.2,1.7-0.4,2.1-0.5L24.5,6.7z M24.7,11.7c0,0-0.1-0.2-0.3-0.4
		c-0.2-0.2-0.4-0.4-0.7-0.6l0,1v0.8c0,0.4,0,0.8-0.1,1c-0.1,0.3-0.2,0.6-0.4,0.8c-0.2,0.3-0.4,0.4-0.6,0.4c-0.1,0-0.3,0-0.4-0.1
		c-0.2-0.1-0.3-0.2-0.4-0.4c0-0.1-0.1-0.2-0.2-0.4c-0.1-0.2-0.2-0.3-0.3-0.5c-0.3-0.5-0.6-0.7-0.9-0.9c-0.1,0.3-0.2,0.6-0.3,0.6
		c-0.1,0.2-0.3,0.3-0.4,0.4c-0.2,0.1-0.4,0.2-0.5,0.3c-0.2,0-0.3,0.1-0.4,0c-0.1,0-0.2-0.1-0.2-0.2c-0.1-0.1-0.1-0.3-0.1-0.5
		c0-0.2,0.1-0.4,0.1-0.4c0-0.1,0.1-0.2,0.2-0.3c0.1-0.1,0.2-0.2,0.4-0.4c0,0,0.1-0.2,0.3-0.3c0.2-0.2,0.3-0.3,0.3-0.4
		c0.1-0.2,0.1-0.4,0.1-0.7l0.1-0.1c0.3,0.3,0.5,0.6,0.6,0.9c0,0.1,0,0.2,0,0.2c0,0,0,0.1,0,0.3l-0.1,0.3c0.4,0,0.9,0.1,1.2,0.1h0.1
		c0.1,0,0.2,0,0.2-0.1c0,0,0-0.1,0-0.2l0-2.2c-0.9,0.2-1.9,0.4-3,0.8c0,0-0.1,0-0.2,0c-0.2,0-0.3-0.1-0.3-0.2
		c-0.1-0.3-0.2-0.5-0.3-0.6c-0.1-0.2-0.2-0.4-0.4-0.5l0.1-0.2c0.2,0.1,0.4,0.2,0.7,0.2L19,9.6c1.7-0.3,3.1-0.5,4.3-0.7
		c1.2-0.2,1.9-0.4,2.3-0.5c0,0,0.1,0,0.2,0c0.1,0,0.2,0,0.2,0.1s0.1,0.1,0.1,0.1c0.1,0.1,0.2,0.3,0.4,0.6s0.2,0.4,0.2,0.6
		c0,0.2-0.1,0.3-0.2,0.4c-0.1,0.1-0.3,0.2-0.4,0.1c-0.3-0.1-0.6-0.2-1.1-0.3c-0.4-0.1-0.9-0.1-1.5-0.1c0,0.2,0,0.5,0,0.6
		c0.3,0,0.5,0,0.6,0c0.3,0,0.5,0,0.8,0.1s0.5,0.2,0.7,0.4c0.2,0.5,0.3,0.9,0.3,1.4c0,0.1,0,0.2-0.1,0.3c-0.1,0.1-0.2,0.1-0.3,0.1
		c-0.1,0-0.2,0-0.3-0.1C25.1,12.3,24.9,11.9,24.7,11.7z M51.2,4.5c0,0.1-0.1,0.3-0.2,0.4c-0.1,0.1-0.3,0.1-0.4,0.1
		c-0.3-0.1-0.8-0.1-1.5-0.1c-1.4,0-3,0.1-4.8,0.4c0.2,0.1,0.3,0.2,0.5,0.2c0,0,0.1,0.1,0.1,0.1c0,0.1-0.1,0.2-0.2,0.3
		c-0.3,0.3-0.6,0.6-1,0.9c1.3-0.2,2.1-0.4,2.4-0.6c0,0,0.1-0.1,0.2-0.1C46.2,6,46.3,6,46.4,6s0.1,0,0.2,0c0.2,0,0.6,0.1,1.1,0.3
		c0.5,0.2,0.8,0.4,1.1,0.6c0.1,0,0.1,0.1,0.1,0.2c0,0.1-0.1,0.2-0.2,0.2c-0.1,0.1-0.2,0.1-0.2,0.2s-0.1,0.3-0.1,0.7
		c0,0.4-0.1,1.4-0.1,3v1.4c0,0.4-0.1,1-0.2,1.6c0,0.2-0.2,0.5-0.4,0.7s-0.5,0.4-0.8,0.4c-0.2,0-0.4-0.1-0.6-0.4
		c-0.1-0.1-0.2-0.3-0.2-0.3c-0.1-0.2-0.3-0.4-0.4-0.6c-0.4,0-0.8,0-1,0L44,14c-1.1,0-1.8,0.1-2,0.1l0,1c0,0.1,0,0.2-0.1,0.2
		s-0.1,0.1-0.2,0.1c-0.1,0-0.2,0-0.5-0.1c-0.3-0.1-0.5-0.2-0.7-0.3c-0.2-0.1-0.3-0.2-0.4-0.3c-0.1-0.1-0.1-0.2-0.1-0.3l0-2.2
		L39,12.1l-0.1-0.4c0.3-0.1,0.7-0.2,1.2-0.3c0-0.3,0-0.7,0-1.2v-0.1l-0.9,0.1L39,10c0.3-0.1,0.5-0.1,0.6-0.2
		c0.2-0.1,0.4-0.1,0.5-0.1c0-0.4,0-0.9-0.1-1.5c0-0.3-0.1-0.5-0.3-0.7c-0.2-0.2-0.5-0.4-1-0.6l0.1-0.2c0.3,0,0.7,0.1,1.3,0.2
		C40.6,7,41,7.1,41.3,7.1L42,7c0.4-0.6,0.6-1.1,0.7-1.4l0.1-0.2c-1,0.2-2,0.4-3,0.5c-1,0.2-1.6,0.3-2,0.4c-0.2,0-0.3,0.1-0.3,0.1
		c-0.1,0-0.2-0.1-0.2-0.2C37.2,6,37,5.8,36.8,5.5c-0.2-0.3-0.4-0.6-0.6-0.8l0.1-0.1c0.1,0.1,0.3,0.1,0.5,0.2
		c0.2,0.1,0.4,0.1,0.6,0.1c1,0,2.4-0.2,4.4-0.5c-0.1,0-0.1-0.1-0.2-0.2c-0.2-0.4-0.4-0.7-0.7-1.1c-0.5-0.5-1.1-1-1.8-1.5
		c0,0,0,0,0-0.1c0,0,0-0.1,0.1-0.2c1,0.2,1.8,0.3,2.3,0.4s0.9,0.4,1.3,0.8c0,0.6,0,1.2-0.2,1.5c0,0.1-0.1,0.2-0.1,0.2
		c0.6-0.1,1.2-0.2,2-0.3c0.4-0.5,0.7-1,0.9-1.4c0.2-0.4,0.4-0.9,0.5-1.3c0-0.1,0-0.2,0-0.2c0-0.1,0-0.2-0.1-0.3
		c-0.1-0.1-0.2-0.3-0.4-0.5l0.1-0.1c0.5,0.3,1.1,0.5,1.6,0.8c0.5,0.3,0.8,0.5,0.9,0.6C48,1.8,48,1.8,48,1.9c0,0.1-0.1,0.2-0.3,0.4
		c-0.4,0.4-0.7,0.7-1,0.9S46.3,3.5,46,3.7c1.7-0.3,2.9-0.6,3.7-0.8c0.1,0,0.1,0,0.2,0c0.1,0,0.3,0.1,0.4,0.2
		c0.1,0.1,0.3,0.3,0.5,0.7C51.1,4.1,51.2,4.3,51.2,4.5z M46.1,7.8c0-0.2-0.1-0.3-0.4-0.2l-1.3,0.2c-0.8,0.1-1.7,0.2-2.7,0.4
		c0,0.4,0,0.8,0,1c1.6-0.4,3.1-0.7,4.4-0.8L46.1,7.8z M41.8,10c0,0.5,0,0.8,0,1.1c1.7-0.3,3.1-0.5,4.4-0.6c0-0.3,0-0.6,0-0.7
		c-0.3-0.1-0.5-0.1-0.8-0.1C44.9,9.7,43.7,9.8,41.8,10z M41.9,12.9c0.6,0,1.3,0,2.3-0.1c0.9-0.1,1.6-0.1,2.1-0.2v-0.1
		c0-0.1,0-0.4,0-0.8c-0.1,0-0.3-0.1-0.5-0.1c-0.8,0-2.1,0-3.9,0.2L41.9,12.9z M69.7,4.1c0,0,0.1,0.1,0.1,0.1c0,0.1,0,0.2-0.1,0.2
		c-0.2,0.2-0.3,0.5-0.3,0.9c-0.1,0.5-0.2,1.2-0.2,2S69,8.7,68.9,9l-0.2,2.2c-0.1,0.7-0.1,1.3-0.2,1.6s-0.1,0.6-0.2,0.8
		c-0.4,1-1,1.5-1.6,1.5c-0.2,0-0.4-0.1-0.5-0.2c-0.1-0.1-0.3-0.3-0.5-0.5c-0.1-0.1-0.1-0.2-0.3-0.3c0,0-0.2-0.2-0.3-0.4
		c-0.2-0.2-0.4-0.4-0.6-0.6c-0.3-0.2-0.6-0.4-1-0.6l0-0.2c0.5,0.1,0.8,0.1,0.8,0.1c0.8,0.1,1.5,0.2,1.9,0.3h0c0.1,0,0.1,0,0.2-0.1
		c0,0,0-0.1,0.1-0.2c0.2-0.7,0.3-1.8,0.4-3.3s0.2-2.8,0.3-4.2c-1.2,0.1-2.3,0.4-3.4,0.8c-0.1,0-0.1,0-0.2,0c-0.1,0-0.2-0.1-0.3-0.2
		l-0.1-0.1c-0.6,0.6-1.4,1.3-2.5,1.9v1c0,0.8,0,1.3-0.1,1.6c0.2,0,0.3,0.1,0.4,0.1c0.1,0,0.2,0,0.2-0.1c0.4-0.4,0.8-0.9,1-1.4
		c0.3-0.5,0.5-1,0.5-1.3C63,7,63,6.8,63,6.7c0-0.2-0.1-0.4-0.3-0.6L62.8,6c0.8,0.2,1.5,0.5,2.1,0.8c0.1,0,0.1,0.1,0.1,0.2
		c0,0.1,0,0.1-0.1,0.3c-0.9,1.2-1.5,2.1-2.1,2.6c0.9-0.1,1.6-0.2,2.1-0.3c-0.2-0.4-0.5-0.7-0.7-1l0.1-0.2c0.6,0.1,1.1,0.3,1.4,0.4
		c0.3,0.1,0.6,0.4,0.9,0.8c0.1,0.3,0.1,0.5,0.1,0.7c0,0.2-0.1,0.4-0.2,0.6c-0.1,0.1-0.1,0.3-0.3,0.3c-0.1,0.1-0.2,0.1-0.3,0.1
		c-0.2,0-0.3-0.1-0.4-0.3c0-0.1-0.1-0.2-0.1-0.4s-0.1-0.3-0.1-0.4c-0.7,0.3-1.1,0.4-1.1,0.4c-0.2,0.1-0.5,0.2-0.8,0.3
		c-0.3,0.1-0.6,0.2-1,0.4c-0.1,0-0.3,0.1-0.6,0.4c0,0,0,0-0.1,0c-0.1,0-0.2-0.1-0.3-0.3c0-0.1-0.1-0.3-0.2-0.6
		c-0.1-0.3-0.2-0.6-0.4-0.8c-0.1,0.2-0.2,0.4-0.5,0.6c-0.2,0.2-0.4,0.3-0.6,0.3c0,0-0.1-0.1-0.2-0.2c-0.1-0.1-0.1-0.2-0.2-0.3
		c-0.1-0.2-0.1-0.5-0.3-0.7c-0.1-0.3-0.2-0.4-0.2-0.5l0.1-0.3c0.1,0,0.3,0,0.4-0.1c0.1,0,0.2-0.1,0.2-0.3c0-1.3,0-3,0-5l-2.8,0.7
		l0,6.7c0,0.1,0,0.1-0.1,0.2c0,0-0.1,0.1-0.1,0.1c-0.1,0-0.2-0.1-0.4-0.1c-0.2-0.1-0.4-0.2-0.5-0.3c-0.2-0.1-0.3-0.2-0.3-0.3
		c0-0.1-0.1-0.2,0-0.4c0.1-1,0.1-2,0.1-2.8V6.8c0-1.2,0-2-0.1-2.5c0-0.3-0.1-0.5-0.2-0.7c-0.2-0.2-0.4-0.4-0.8-0.6l0-0.1
		c0.1,0,0.4,0.1,1,0.1c0.6,0.1,1,0.2,1.2,0.3l0.1,0.1c0.8-0.2,1.4-0.4,1.9-0.5c0.5-0.2,0.8-0.3,0.9-0.4c0.1-0.1,0.2-0.2,0.3-0.2
		c0.1-0.1,0.2-0.1,0.3,0l0.7,0.2c0.1,0,0.4,0.1,0.8,0.2c0,0,0.1,0,0.1,0.1c0,0,0,0.1-0.1,0.2c0,0-0.1,0.1-0.2,0.2s-0.2,0.4-0.2,0.7
		c0,0.2-0.1,1.1-0.1,2.8c0.5-0.7,0.9-1.4,1.2-2c0.3-0.6,0.5-1.4,0.7-2.3c0.1-0.4,0.1-0.6,0.1-0.8c0-0.1,0-0.2-0.1-0.3
		c0-0.1-0.1-0.2-0.3-0.3L62.7,1c0.6,0.1,1,0.3,1.4,0.4c0.4,0.2,0.8,0.4,1.1,0.6c0.1,0,0.1,0.1,0.1,0.1c0,0,0,0.1-0.1,0.2
		c-0.1,0.1-0.2,0.2-0.4,0.5s-0.3,0.5-0.4,0.7l-0.3,0.6l0.5-0.1c0,0,0.3-0.1,0.6-0.1c0.7-0.2,1.2-0.4,1.4-0.6
		c0.2-0.2,0.3-0.2,0.5-0.2c0.2,0,0.6,0.1,1.1,0.3S69.3,3.9,69.7,4.1z M60.1,11.8c0.2,0.2,0.3,0.4,0.4,0.8c0.1,0.3,0.1,0.6,0.1,0.8
		c0,0.2-0.2,0.3-0.3,0.4c-0.2,0.1-0.3,0.2-0.5,0.2c-0.1,0-0.2,0-0.2-0.1c-0.1-0.1-0.2-0.3-0.3-0.4c-0.1-0.2-0.2-0.3-0.3-0.4
		c-0.1-0.1-0.1-0.2-0.2-0.3c-0.1-0.2-0.2-0.4-0.3-0.6c-0.1-0.2-0.3-0.3-0.4-0.5L58,11.9c-0.6,1.4-1.8,2.4-3.6,3.2l-0.1-0.3
		c1.4-1.1,2.2-2.1,2.6-3.2c0.2-0.7,0.3-1.3,0.4-2C57.3,8.8,57.3,8,57.3,7V6.3c0-0.5,0-0.8-0.1-0.9c0-0.1-0.1-0.2-0.2-0.3
		s-0.2-0.2-0.3-0.3l0.1-0.1l0.6,0.1c0.7,0.1,1.2,0.3,1.5,0.4c0,0,0.1,0,0.1,0.1c0,0,0,0.1,0,0.1c0,0.1,0,0.1-0.1,0.2
		c0,0.2-0.1,0.8-0.1,1.9c0,0.8-0.1,1.5-0.1,2c-0.1,0.5-0.2,1.1-0.3,1.6c0.4,0.1,0.7,0.2,1,0.3C59.6,11.5,59.9,11.6,60.1,11.8z"/>
</g>
</svg>
