<svg xmlns="http://www.w3.org/2000/svg" xmlns:xlink="http://www.w3.org/1999/xlink" fill="none" version="1.1" width="118" height="16" viewBox="0 0 118 16"><g><g><path d="M34.104,2.392Q34.072,2.312,34.152,2.12Q34.232,1.928,34.24,1.824Q34.248,1.72,34.28,1.544L34.392,0.839999L34.456,0.775999L35.816,1.592L35.976,1.656L35.976,1.72Q35.928,1.896,35.84,2.096Q35.752,2.296,35.64,2.52Q35.416,2.984,35.304,3.336Q35.288,3.48,35.208,3.704Q35.144,3.928,35.064,4.16Q34.984,4.392,34.903999999999996,4.648L34.903999999999996,4.712Q35.464,4.664,36.04,4.616Q36.616,4.568,37.208,4.504Q37.8,4.44,38.36,4.416Q38.92,4.392,39.464,4.392Q39.704,4.392,39.912,4.792L40.072,5.128Q40.104,5.224,40.128,5.296Q40.152,5.368,40.184,5.4L40.088,5.464Q38.872,5.464,37.72,5.48Q36.568,5.496,35.352000000000004,5.592Q35.272,5.592,35.135999999999996,5.6Q35,5.608,34.872,5.624L34.568,5.656L34.504,5.72L33.944,7.208L33.944,7.336Q34.168,7.336,34.408,7.312Q34.647999999999996,7.288,34.888,7.256Q35.816,7.112,36.68,7.064Q37.096000000000004,7.032,37.528,6.968Q37.688,6.904,37.784,6.808Q37.896,6.712,38.088,6.712L38.152,6.712Q38.184,6.76,38.32,6.856Q38.456,6.952,38.616,7.048Q38.775999999999996,7.16,38.888,7.256Q39,7.352,39.048,7.4Q39.096000000000004,7.4,39.16,7.472Q39.224000000000004,7.544,39.224000000000004,7.592Q39.224000000000004,7.688,39.152,7.76Q39.08,7.832,38.968,7.912Q38.856,7.992,38.752,8.072Q38.647999999999996,8.152,38.6,8.216L38.472,8.424L38.232,8.776Q38.168,8.872,38.104,8.96Q38.04,9.048,37.992000000000004,9.128Q37.864000000000004,9.304,37.864000000000004,9.336L37.656,9.64L37.336,10.072Q37.16,10.312,37,10.512Q36.84,10.712,36.775999999999996,10.776L36.775999999999996,10.84Q36.775999999999996,10.888,37.032,11.048L37.624,11.48Q37.8,11.608,37.984,11.728Q38.168,11.848,38.344,11.976L38.952,12.392Q38.984,12.408,39.024,12.44Q39.064,12.472,39.144,12.504L39.432,12.68Q39.592,12.776,39.736000000000004,12.864Q39.88,12.952,39.96,12.968Q40.056,13,40.288,13.072Q40.519999999999996,13.144,40.792,13.272Q41.064,13.4,41.304,13.504Q41.544,13.608,41.672,13.656L41.672,14.152L41.496,14.328L38.952,14.328L38.775999999999996,14.28Q38.024,13.736,37.384,13.032Q37.064,12.712,36.728,12.392Q36.391999999999996,12.072,36.04,11.768L35.976,11.768Q35.944,11.768,35.903999999999996,11.776Q35.864000000000004,11.784,35.816,11.832L35.512,12.088L35.304,12.248Q35.208,12.328,35.168,12.36Q35.128,12.392,35,12.472Q34.728,12.648,34.519999999999996,12.808L34.392,12.904Q34.36,12.936,34.288,12.96Q34.216,12.984,34.104,13.016Q33.992,13.064,33.888,13.12Q33.784,13.176,33.672,13.24Q33.448,13.368,33.24,13.472Q33.032,13.576,32.968,13.592L32.184,13.88L31.8,14.024Q31.752,14.056,31.728,14.056Q31.704,14.056,31.672,14.072Q31.656,14.088,31.624,14.088L31.272,14.088L30.872,13.656Q30.904,13.576,31.08,13.496Q31.16,13.464,31.224,13.448Q31.288,13.432,31.32,13.4Q31.432000000000002,13.336,31.656,13.208Q31.88,13.08,32.104,12.984L32.519999999999996,12.776L32.744,12.648Q33.256,12.328,33.816,11.896Q34.376,11.464,34.84,11.08L34.968,10.968L34.968,10.904L34.888,10.808L34.792,10.712Q34.744,10.664,34.624,10.56Q34.504,10.456,34.376,10.344Q34.2,10.232,34.12,10.136Q34.04,10.104,34.008,10.072Q33.976,10.04,33.944,10.024Q33.912,10.008,33.808,9.936Q33.704,9.864,33.576,9.768Q33.512,9.736,33.448,9.696Q33.384,9.656,33.336,9.624Q33.272,9.592,33.248,9.568Q33.224000000000004,9.544,33.208,9.528L33.144,9.464Q33.304,9.256,33.544,9.128Q33.736,9.016,33.944,8.84L34.056,8.84Q34.184,8.84,34.384,9Q34.584,9.16,34.824,9.352Q34.952,9.464,35.056,9.56Q35.16,9.656,35.288,9.752Q35.512,9.96,35.704,10.024Q35.832,9.88,36.007999999999996,9.68Q36.184,9.48,36.263999999999996,9.336Q36.312,9.272,36.368,9.192Q36.424,9.112,36.488,8.984L37.064,8.024L37.064,7.896Q36.696,7.896,36.336,7.952Q35.976,8.008,35.608000000000004,8.088Q35.24,8.168,34.88,8.224Q34.519999999999996,8.28,34.168,8.28L34.008,8.28Q33.96,8.136,33.896,8Q33.832,7.864,33.704,7.768Q33.064,9.368,32.112,10.72Q31.16,12.072,29.864,13.08L29.512,13.32Q29.4,13.4,29.288,13.464Q29.176000000000002,13.528,29.112000000000002,13.528Q29.032,13.528,28.896,13.384Q28.76,13.24,28.76,13.144L28.76,13.08Q30.024,11.88,31,10.328Q31.976,8.776,32.696,7.08L32.808,6.776L32.936,6.392Q32.968,6.312,32.992,6.232Q33.016,6.152,33.048,6.072L33.08,5.896L33.08,5.72Q32.664,5.72,32.152,5.768Q31.64,5.816,31.208,5.96Q31.16,5.992,31.096,6.04Q31.032,6.088,30.984,6.168Q30.84,6.344,30.759999999999998,6.344Q30.68,6.344,30.56,6.224Q30.44,6.104,30.312,5.944L30.072,5.624Q29.976,5.48,29.896,5.4L30.024,5.272L30.248,5.08Q30.52,4.76,30.688,4.344Q30.856,3.928,30.984,3.464Q31.032,3.24,31.08,3.016Q31.128,2.792,31.16,2.568Q31.208,2.344,31.264,2.136Q31.32,1.928,31.384,1.72L32.744,2.52Q32.808,2.584,32.808,2.648L32.808,2.712Q32.584,2.984,32.44,3.28Q32.296,3.576,32.12,3.896Q32.056,4.072,31.88,4.344Q31.72,4.616,31.72,4.84L32.28,4.84Q32.408,4.84,32.592,4.832Q32.775999999999996,4.824,32.952,4.808L33.384,4.776L33.496,4.648L34.104,2.392ZM36.664,1.896L37.064,1.528L37.128,1.528Q37.112,1.528,37.352000000000004,1.608Q37.544,1.688,37.808,1.792Q38.072,1.896,38.344,2.024L38.775999999999996,2.216Q38.792,2.232,38.808,2.232Q38.808,2.232,38.903999999999996,2.264Q39.016,2.312,39.135999999999996,2.376Q39.256,2.44,39.384,2.52Q39.496,2.6,39.56,2.648Q39.576,2.68,39.624,2.728Q39.672,2.776,39.736000000000004,2.776L39.784,2.84Q39.656,3.112,39.472,3.456Q39.288,3.8,39.16,4.024Q39.128,4.072,39.104,4.08Q39.08,4.088,38.984,4.088Q38.84,4.088,38.664,3.912Q38.584,3.832,38.512,3.76Q38.44,3.688,38.36,3.656L38.216,3.512Q38.168,3.448,38.104,3.392Q38.04,3.336,37.976,3.272Q37.896,3.208,37.84,3.144Q37.784,3.08,37.704,3.016L37.528,2.84L37.4,2.712Q37.368,2.648,37.272,2.568Q37.176,2.488,37.048,2.36Q36.92,2.264,36.816,2.168Q36.712,2.072,36.664,2.024L36.664,1.896ZM51.239999999999995,1.896Q51.768,1.896,52.296,1.864Q52.824,1.832,53.352000000000004,1.768Q53.896,1.704,54.432,1.68Q54.968,1.656,55.495999999999995,1.656Q55.544,1.656,55.664,1.664Q55.784,1.672,55.912,1.704Q56.04,1.736,56.135999999999996,1.784Q56.232,1.832,56.232,1.896L56.232,2.024Q56.232,2.072,56.184,2.264Q56.120000000000005,2.44,56.120000000000005,2.52L56.120000000000005,2.584L56.088,3.464Q56.072,3.752,56.072,4.016Q56.072,4.28,56.072,4.344L56.072,5.336L56.04,7.272Q56.024,7.896,56.016,8.448Q56.007999999999996,9,56.007999999999996,9.208L55.832,9.208Q55.751999999999995,9.208,55.592,9.2Q55.432,9.192,55.256,9.16L54.952,9.128Q54.808,9.112,54.808,9.08L54.808,8.088Q54.808,7.496,54.816,6.92Q54.824,6.344,54.84,5.784Q54.856,5.224,54.864000000000004,4.656Q54.872,4.088,54.872,3.528L54.872,2.776L54.696,2.712L53.672,2.712L53.224000000000004,2.744Q53.08,2.76,52.944,2.768Q52.808,2.776,52.760000000000005,2.776Q52.391999999999996,2.792,52.135999999999996,2.824Q51.879999999999995,2.856,51.688,2.888Q51.480000000000004,2.904,51.448,2.968Q51.432,3.752,51.424,4.528Q51.416,5.304,51.416,6.088Q51.416,6.872,51.384,7.648Q51.352000000000004,8.424,51.288,9.208Q51.32,9.304,51.239999999999995,9.32Q51.16,9.336,51.111999999999995,9.336Q50.952,9.336,50.784,9.328Q50.616,9.32,50.456,9.256Q50.088,9.128,50.088,8.776Q50.088,8.264,50.104,7.744Q50.120000000000005,7.224,50.152,6.712Q50.2,5.688,50.2,4.648L50.2,2.904Q50.168,2.616,50.16,2.368Q50.152,2.12,50.152,1.832Q50.28,1.832,50.416,1.84Q50.552,1.848,50.696,1.864Q50.84,1.88,50.976,1.888Q51.111999999999995,1.896,51.239999999999995,1.896ZM44.632000000000005,2.776Q44.888000000000005,2.632,45.208,2.632Q45.367999999999995,2.648,45.512,2.648Q45.656,2.648,45.784,2.648L47.224000000000004,2.52Q47.592,2.488,47.952,2.472Q48.312,2.456,48.68,2.456L49.416,2.456Q49.592,2.552,49.64,2.792Q49.688,3.032,49.688,3.208Q49.688,3.304,49.704,3.352Q49.72,3.464,49.64,3.464L48.952,3.464Q48.824,3.464,48.68,3.472Q48.536,3.48,48.376000000000005,3.496L47.992000000000004,3.528L47.928,3.592L47.928,6.152L48.056,6.28L49.239999999999995,6.28L49.304,6.344L49.352000000000004,6.616L49.416,6.84Q49.432,6.904,49.448,6.952Q49.464,7,49.480000000000004,7.032L49.480000000000004,7.208L48.232,7.208Q48.2,7.208,48.168,7.216Q48.135999999999996,7.224,48.072,7.24Q47.912,7.272,47.928,7.272Q47.928,7.416,47.92,7.752Q47.912,8.088,47.912,8.456Q47.896,8.84,47.888000000000005,9.176Q47.879999999999995,9.512,47.879999999999995,9.656L47.879999999999995,10.024L47.928,10.088L49.480000000000004,9.72Q49.512,9.848,49.552,10.024Q49.592,10.2,49.64,10.344L49.512,10.456L47.928,11.16Q47.416,11.384,46.968,11.592Q46.519999999999996,11.8,46.344,11.896L46.152,12.008L45.832,12.168Q45.751999999999995,12.216,45.672,12.264Q45.592,12.312,45.512,12.344Q45.432,12.392,45.391999999999996,12.416Q45.352000000000004,12.44,45.32,12.456L45.256,12.456Q45.176,12.392,45.056,12.224Q44.936,12.056,44.808,11.848Q44.536,11.448,44.536,11.144L44.584,11.08L46.088,10.68Q46.248000000000005,10.648,46.4,10.6Q46.552,10.552,46.68,10.456L46.712,9.4Q46.728,9.064,46.736000000000004,8.76Q46.744,8.456,46.744,8.344L46.744,7.4Q46.36,7.4,46.032,7.448Q45.704,7.496,45.32,7.592L45.256,7.528Q45.224000000000004,7.432,45.192,7.328Q45.16,7.224,45.128,7.112Q45.096000000000004,7,45.048,6.888Q45,6.776,44.92,6.648L44.92,6.52L45.08,6.488Q45.16,6.472,45.216,6.464Q45.272,6.456,45.32,6.456L45.367999999999995,6.456Q45.464,6.456,45.512,6.44Q45.56,6.44,45.623999999999995,6.44Q45.688,6.44,45.751999999999995,6.424L46.120000000000005,6.392L46.263999999999996,6.392Q46.36,6.392,46.472,6.376Q46.584,6.36,46.664,6.344Q46.744,6.312,46.744,6.28L46.744,3.592Q46.536,3.592,46.352000000000004,3.608Q46.168,3.624,46.007999999999996,3.656Q45.832,3.688,45.64,3.704Q45.448,3.72,45.256,3.72L45.096000000000004,3.72Q45.048,3.592,45,3.48Q44.952,3.368,44.872,3.24Q44.792,3.112,44.736000000000004,3Q44.68,2.888,44.632000000000005,2.776ZM48.232,13.528Q48.263999999999996,13.528,48.36,13.456Q48.456,13.384,48.504000000000005,13.336Q49.176,12.824,49.808,12.256Q50.44,11.688,50.952,10.968Q51.512,10.248,51.816,9.384Q52.120000000000005,8.52,52.28,7.56Q52.44,6.6,52.464,5.672Q52.488,4.744,52.488,3.832L52.647999999999996,3.832L53.672,4.216L53.784,4.344Q53.751999999999995,4.568,53.736000000000004,4.816Q53.72,5.064,53.704,5.32Q53.672,5.576,53.664,5.832Q53.656,6.088,53.623999999999995,6.344L53.623999999999995,6.392Q53.608000000000004,6.44,53.592,6.528Q53.576,6.616,53.56,6.744Q53.528,7.016,53.480000000000004,7.296Q53.432,7.576,53.384,7.848Q53.352000000000004,7.976,53.352000000000004,8.072Q53.352000000000004,8.168,53.336,8.216Q53.336,8.296,53.272,8.424Q53.208,8.552,53.208,8.648L53.208,8.84L53.512,8.888Q53.912,8.904,54.152,9.08Q54.248000000000005,9.176,54.248000000000005,9.336Q54.248000000000005,9.64,54.232,9.944Q54.216,10.248,54.184,10.552Q54.135999999999996,11.176,54.135999999999996,11.832L54.135999999999996,12.456Q54.216,12.6,54.36,12.632Q54.408,12.632,54.616,12.648Q54.824,12.664,55.08,12.68Q55.336,12.696,55.56,12.712Q55.784,12.728,55.832,12.728Q56.007999999999996,12.744,56.28,12.648Q56.232,12.648,56.36,12.616L56.391999999999996,12.584Q56.424,12.52,56.472,12.416Q56.519999999999996,12.312,56.552,12.184Q56.584,11.928,56.656,11.672Q56.728,11.416,56.824,11.224Q56.888000000000005,11.032,57.08,11.032Q57.16,11.032,57.256,11.144Q57.288,11.368,57.328,11.584Q57.367999999999995,11.8,57.416,12.024Q57.528,12.424,57.528,12.904Q57.528,12.952,57.519999999999996,13.072Q57.512,13.192,57.480000000000004,13.352Q57.448,13.512,57.391999999999996,13.64Q57.336,13.768,57.256,13.768L55.032,13.768Q54.903999999999996,13.736,54.751999999999995,13.72Q54.6,13.704,54.44,13.688Q54.104,13.656,53.792,13.552Q53.480000000000004,13.448,53.239999999999995,13.256Q53,13.064,52.936,12.776L52.936,12.152Q52.936,11.816,52.952,11.496Q52.968,11.176,53,10.872Q53.048,10.28,53.048,9.656L53.048,9.272Q52.872,9.656,52.760000000000005,9.96Q52.632000000000005,10.328,52.432,10.744Q52.232,11.16,51.912,11.592Q51.608000000000004,12.008,51.263999999999996,12.392Q50.92,12.776,50.504000000000005,13.096L49.688,13.768Q49.56,13.864,49.44,13.944Q49.32,14.024,49.192,14.024Q49.096000000000004,14.024,48.952,13.952Q48.808,13.88,48.647999999999996,13.8Q48.504000000000005,13.736,48.376000000000005,13.64Q48.232,13.576,48.232,13.528ZM63.192,1.832Q63.208,1.8,63.224,1.736Q63.24,1.672,63.24,1.592Q63.272,1.432,63.296,1.264Q63.32,1.096,63.368,0.903999L63.48,0.903999L64.26400000000001,1.272L64.55199999999999,1.4L64.72800000000001,1.528Q64.712,1.56,64.696,1.592Q64.68,1.624,64.68,1.672L64.50399999999999,2.12L64.44,2.28Q64.392,2.472,64.328,2.776Q64.26400000000001,3.08,64.184,3.4Q64.088,3.736,64.03999999999999,3.96L63.992,4.216L63.992,4.392L64.26400000000001,4.392Q64.328,4.392,64.36,4.376Q64.50399999999999,4.376,64.55199999999999,4.36Q64.696,4.36,64.744,4.344L64.84,4.344Q64.952,4.344,65.056,4.264Q65.16,4.184,65.24000000000001,4.088Q65.288,4.04,65.32,3.992Q65.352,3.944,65.384,3.912Q65.464,3.832,65.47999999999999,3.832Q65.608,3.832,65.696,3.84Q65.78399999999999,3.848,65.864,3.896Q65.944,3.928,66,3.936Q66.056,3.944,66.12,3.96Q66.232,3.992,66.312,4.016Q66.392,4.04,66.44,4.12Q66.488,4.2,66.488,4.344Q66.488,4.52,66.456,4.712Q66.424,4.904,66.376,5.08Q66.344,5.176,66.32,5.336Q66.29599999999999,5.496,66.28,5.656L66.232,5.944Q66.21600000000001,6.024,66.208,6.064Q66.2,6.104,66.2,6.088Q65.99199999999999,7.128,65.632,8.016Q65.27199999999999,8.904,64.84,9.896L64.84,9.96Q64.84,10.04,64.928,10.088Q65.01599999999999,10.136,65.064,10.152L65.4,10.376L65.912,10.68L66.424,11L66.75999999999999,11.208L66.824,11.272L66.824,11.336Q66.568,11.576,66.392,11.88Q66.21600000000001,12.184,66.03999999999999,12.456L65.976,12.52L65.928,12.52Q65.912,12.504,65.88,12.488Q65.848,12.472,65.816,12.44Q65.73599999999999,12.392,65.664,12.336Q65.592,12.28,65.512,12.232Q65.47999999999999,12.216,65.416,12.152L64.824,11.592Q64.712,11.512,64.616,11.432Q64.52000000000001,11.352,64.44,11.272Q64.26400000000001,11.144,64.21600000000001,11.144L64.168,11.144L64.104,11.208L63.992,11.368Q63.912,11.512,63.8,11.68Q63.688,11.848,63.592,11.992L63.48,12.152Q63.4,12.232,63.24,12.416Q63.08,12.6,62.888,12.792L62.28,13.4Q62.248,13.448,61.96,13.656L61.544,13.96Q61.464,14.008,61.408,14.016Q61.352,14.024,61.32,14.024L61.208,14.024Q61.176,14.008,61.144,13.992Q61.112,13.976,61.08,13.944L60.712,13.672L60.584,13.592L60.472,13.464Q60.664,13.368,60.888,13.192Q60.984,13.112,61.08,13.04Q61.176,12.968,61.256,12.904Q61.816,12.344,62.288,11.768Q62.76,11.192,63.192,10.52L63.24,10.392Q63.24,10.36,62.952,10.12L62.392,9.672Q62.216,9.544,62.08,9.432Q61.944,9.32,61.816,9.208Q61.592,8.984,61.608,8.904L62.168,6.28Q62.216,6.008,62.208,5.952Q62.2,5.896,62.12,5.832Q61.672,5.832,61.56,5.896Q61.416,5.96,61.36,5.944Q61.304,5.928,61.256,6.056Q61.192,6.216,60.984,6.344Q60.952,6.344,60.856,6.152Q60.776,5.96,60.68,5.72Q60.584,5.48,60.504,5.256Q60.408,5.048,60.408,4.968L60.472,4.904Q60.984,4.808,61.496,4.736Q62.008,4.664,62.568,4.712Q62.584,4.696,62.616,4.608Q62.648,4.52,62.672,4.424Q62.696,4.328,62.72,4.232Q62.744,4.136,62.744,4.088Q62.76,3.976,62.824,3.656Q62.888,3.336,62.968,2.984L63.096,2.328L63.192,1.896L63.192,1.832ZM66.6,2.28Q66.84,2.248,67.08,2.24Q67.32,2.232,67.56,2.216Q67.78399999999999,2.2,68.024,2.192Q68.26400000000001,2.184,68.488,2.152Q69.416,2.104,70.344,1.96Q70.80799999999999,1.896,71.28,1.864Q71.75200000000001,1.832,72.21600000000001,1.832Q72.26400000000001,1.832,72.392,1.96Q72.52000000000001,2.104,72.64,2.288Q72.75999999999999,2.472,72.856,2.632Q72.968,2.792,72.968,2.84Q72.968,2.872,72.856,2.936L72.648,3.096Q72.52000000000001,3.176,72.392,3.264Q72.26400000000001,3.352,72.21600000000001,3.4L71.88,3.736Q71.608,3.992,71.32,4.272Q71.032,4.552,70.75999999999999,4.792L70.408,5.144L70.29599999999999,5.272Q70.28,5.304,70.184,5.4Q70.376,5.544,70.416,5.784Q70.456,6.024,70.456,6.296Q70.456,6.568,70.464,6.8Q70.47200000000001,7.032,70.584,7.144L70.968,7.144Q71.19200000000001,7.144,71.432,7.136Q71.672,7.128,71.912,7.112Q72.152,7.096,72.4,7.088Q72.648,7.08,72.904,7.08L73.352,7.08Q73.44800000000001,7.08,73.488,7.24Q73.52799999999999,7.4,73.56,7.592L73.592,7.96L73.592,8.152L73.52799999999999,8.28L73.416,8.28Q73.22399999999999,8.28,73.03999999999999,8.272Q72.856,8.264,72.68,8.248Q72.50399999999999,8.232,72.336,8.224Q72.168,8.216,72.00800000000001,8.216L71.432,8.216Q71.352,8.216,71.208,8.224Q71.064,8.232,70.936,8.248L70.632,8.28L70.584,8.344L70.584,8.968L70.584,9.128L70.55199999999999,9.432Q70.536,9.512,70.536,9.584Q70.536,9.656,70.536,9.736Q70.52000000000001,9.816,70.52000000000001,9.848Q70.52000000000001,9.88,70.52000000000001,9.896Q70.52000000000001,10.024,70.512,10.36Q70.50399999999999,10.696,70.47200000000001,11.128Q70.44,11.56,70.408,12.04Q70.376,12.52,70.312,12.904Q70.28,13.08,70.24799999999999,13.248Q70.21600000000001,13.416,70.184,13.56Q70.12,13.848,70.00800000000001,13.896L69.672,13.896Q69.112,13.896,68.6,13.744Q68.088,13.592,67.624,13.4L67.56,13.4L67.432,13.32L67.032,13.096Q66.856,13.016,66.80799999999999,12.936Q66.75999999999999,12.888,66.75999999999999,12.84Q66.75999999999999,12.776,66.8,12.648Q66.84,12.52,66.904,12.392L67.01599999999999,12.168Q67.096,12.088,67.112,12.088L67.176,12.088L67.336,12.152L67.624,12.232L68.424,12.44Q68.52000000000001,12.472,68.592,12.488Q68.664,12.504,68.696,12.52L68.75999999999999,12.52Q68.856,12.52,68.952,12.184Q69.032,11.848,69.088,11.416Q69.144,10.984,69.176,10.568Q69.19200000000001,10.36,69.2,10.232Q69.208,10.104,69.208,10.024Q69.208,9.944,69.22399999999999,9.896Q69.22399999999999,9.832,69.22399999999999,9.776Q69.22399999999999,9.72,69.24000000000001,9.64L69.27199999999999,9.4L69.27199999999999,9.272L69.27199999999999,8.392Q68.488,8.392,67.8,8.512Q67.112,8.632,66.376,8.776Q66.29599999999999,8.632,66.24000000000001,8.496Q66.184,8.36,66.104,8.232Q66.024,8.104,65.968,7.976Q65.912,7.848,65.864,7.72L67.52799999999999,7.512Q67.944,7.448,68.368,7.424Q68.792,7.4,69.208,7.4Q69.208,7.272,69.208,7.12Q69.208,6.968,69.22399999999999,6.792Q69.22399999999999,6.44,69.112,6.152L69.01599999999999,5.992Q68.968,5.896,68.888,5.768Q68.80799999999999,5.64,68.712,5.528Q68.616,5.416,68.52000000000001,5.336Q68.616,5.336,68.75999999999999,5.272Q68.904,5.208,69,5.208Q69.064,5.192,69.4,4.872Q69.70400000000001,4.552,70.048,4.176Q70.392,3.8,70.664,3.432Q70.92,3.08,70.92,2.968L70.92,2.904Q70.456,2.952,69.976,2.992Q69.49600000000001,3.032,69.01599999999999,3.064Q68.536,3.096,68.056,3.168Q67.576,3.24,67.112,3.336Q67.08,3.336,66.98400000000001,3.176Q66.904,3.032,66.824,2.856Q66.744,2.68,66.68,2.52Q66.6,2.312,66.6,2.344L66.6,2.28ZM62.68,8.52Q62.68,8.552,62.856,8.68Q63.032,8.808,63.232,8.944Q63.432,9.08,63.608,9.176Q63.768,9.272,63.816,9.272L63.88,9.208Q64.136,8.648,64.344,8.144Q64.55199999999999,7.64,64.68,7.08Q64.696,7,64.72800000000001,6.888Q64.75999999999999,6.776,64.792,6.648L64.92,6.104Q64.98400000000001,5.848,65.01599999999999,5.624L65.064,5.4L65.064,5.272L64.168,5.272Q63.944,5.272,63.84,5.304Q63.736,5.336,63.656,5.528L62.68,8.456L62.68,8.52ZM78.488,4.52L78.77600000000001,4.52Q78.856,4.52,78.936,4.512Q79.01599999999999,4.504,79.096,4.488L79.288,4.456L79.288,0.712Q79.384,0.712,79.6,0.735999Q79.816,0.759999,80.03999999999999,0.823999Q80.26400000000001,0.888,80.424,0.976Q80.584,1.064,80.584,1.208Q80.584,1.352,80.576,1.472Q80.568,1.592,80.536,1.768L80.536,4.344L81.544,4.344Q81.592,4.344,81.656,4.456Q81.70400000000001,4.584,81.768,4.728Q81.832,4.872,81.864,5.016Q81.88,5.096,81.888,5.136Q81.896,5.176,81.896,5.208L81.896,5.272Q81.912,5.272,81.78399999999999,5.304L81.672,5.336L80.648,5.336Q80.6,5.352,80.568,5.384Q80.536,5.416,80.52000000000001,5.424Q80.50399999999999,5.432,80.488,5.448L80.47200000000001,5.464L80.47200000000001,8.088L81.848,7.592L81.848,8.392Q81.848,8.552,81.73599999999999,8.568Q81.70400000000001,8.584,81.656,8.6Q81.608,8.616,81.544,8.648Q81.27199999999999,8.824,80.888,9Q80.77600000000001,9.048,80.672,9.096Q80.568,9.144,80.47200000000001,9.208L80.408,9.336Q80.408,10.536,80.4,11.76Q80.392,12.984,80.36,14.088L80.24799999999999,14.088Q80.104,14.088,79.70400000000001,14.008Q79.624,13.992,79.544,13.976Q79.464,13.96,79.384,13.928Q79.24000000000001,13.88,79.22399999999999,13.832L79.22399999999999,12.904Q79.22399999999999,12.536,79.232,12.192Q79.24000000000001,11.848,79.256,11.496Q79.27199999999999,11.144,79.28,10.8Q79.288,10.456,79.288,10.088L79.16,10.088Q79.096,10.088,79.032,10.152Q78.968,10.216,78.888,10.216Q78.80799999999999,10.264,78.68,10.352Q78.55199999999999,10.44,78.376,10.52L78.088,10.68Q77.944,10.76,77.912,10.776L77.52799999999999,11.048Q77.44800000000001,11.096,77.4,11.144Q77.352,11.192,77.288,11.224L77.128,11.336Q77.048,11.176,76.968,11.016Q76.888,10.856,76.84,10.68Q76.75999999999999,10.504,76.672,10.336Q76.584,10.168,76.50399999999999,10.024Q76.68,9.736,77.144,9.56Q77.608,9.384,78.088,9.224Q78.55199999999999,9.08,78.92,8.888Q79.288,8.696,79.288,8.392Q79.288,8.296,79.288,7.936Q79.288,7.576,79.304,7.144L79.336,5.896L79.336,5.72Q79.336,5.672,79.328,5.592Q79.32,5.512,79.288,5.464L78.648,5.464Q78.616,5.464,78.55199999999999,5.472Q78.488,5.48,78.408,5.496L78.26400000000001,5.528L77.576,8.024L77.52799999999999,8.152L77.4,8.152Q77.24000000000001,8.152,76.888,8.072Q76.712,8.04,76.616,7.992Q76.50399999999999,7.944,76.50399999999999,7.896L76.50399999999999,7.832L76.568,7.72Q76.568,7.688,76.576,7.648Q76.584,7.608,76.616,7.528Q76.664,7.384,76.664,7.336L76.75999999999999,6.92Q76.84,6.632,76.92,6.304Q77,5.976,77.08,5.688L77.19200000000001,5.272L77.19200000000001,5.208Q77.19200000000001,5.16,77.208,4.976Q77.22399999999999,4.792,77.27199999999999,4.584Q77.304,4.376,77.328,4.192Q77.352,4.008,77.352,3.96Q77.352,3.928,77.36,3.848Q77.368,3.768,77.368,3.624Q77.4,3.352,77.44,3.04Q77.47999999999999,2.728,77.52799999999999,2.472Q77.52799999999999,2.216,77.576,2.216L77.64,2.216L78.824,2.648Q78.872,2.648,78.88,2.72Q78.888,2.792,78.888,2.84L78.888,2.904L78.488,4.456L78.488,4.52ZM81.16,6.52Q81.16,6.52,81.22399999999999,6.44Q81.304,6.392,81.4,6.312Q81.49600000000001,6.232,81.592,6.136Q81.624,6.104,81.72,5.96Q82.392,4.808,82.856,3.688Q83.32,2.568,83.656,1.272Q83.656,1.24,83.664,1.208Q83.672,1.176,83.688,1.112Q83.72,0.952,83.72,0.967999L83.832,0.967999L85.032,1.656L84.952,1.768Q84.92,1.8,84.904,1.848Q84.888,1.896,84.856,1.928Q84.824,1.976,84.8,2.024Q84.77600000000001,2.072,84.744,2.104L84.68,2.216Q84.632,2.312,84.584,2.432Q84.536,2.552,84.456,2.696Q84.392,2.856,84.328,3Q84.26400000000001,3.144,84.2,3.288Q84.12,3.432,84.072,3.552Q84.024,3.672,83.976,3.784Q83.88,4.008,83.88,4.024L83.88,4.088Q84.824,4.088,85.72,3.992Q86.632,3.896,87.576,3.896L88.6,3.896Q88.936,3.896,88.936,4.216Q88.936,4.392,88.888,4.584Q88.824,4.728,88.824,4.968Q88.75999999999999,5.704,88.712,6.408Q88.664,7.112,88.616,7.832Q88.584,8.552,88.50399999999999,9.24Q88.424,9.928,88.312,10.648L88.312,10.712Q88.28,10.808,88.24799999999999,11.048Q88.21600000000001,11.288,88.184,11.56L88.088,12.056L88.03999999999999,12.392Q88.00800000000001,12.536,87.952,12.776Q87.896,13.016,87.816,13.288Q87.72,13.576,87.592,13.792Q87.464,14.008,87.288,14.024Q87.208,14.024,86.98400000000001,13.952Q86.75999999999999,13.88,86.664,13.832L86.408,13.736Q86.312,13.704,86.208,13.656Q86.104,13.608,85.976,13.576Q85.75200000000001,13.496,85.52000000000001,13.408Q85.288,13.32,85.19200000000001,13.272Q84.936,13.176,84.896,12.968Q84.856,12.76,84.856,12.52Q84.856,12.152,85.128,12.152Q85.304,12.152,85.456,12.2Q85.608,12.248,85.78399999999999,12.328Q85.96000000000001,12.408,86.112,12.464Q86.26400000000001,12.52,86.44,12.52L86.488,12.52Q86.584,12.376,86.656,12.192Q86.72800000000001,12.008,86.792,11.816Q86.84,11.624,86.888,11.448Q86.936,11.272,86.952,11.144L86.952,11.08Q86.98400000000001,10.872,87.03999999999999,10.64Q87.096,10.408,87.144,10.136Q87.27199999999999,9.624,87.288,9.208Q87.416,8.2,87.52000000000001,7.2Q87.624,6.2,87.624,5.144Q87.624,5.096,87.616,5.024Q87.608,4.952,87.576,4.904L87.464,4.904Q87.384,4.904,87.336,4.888Q87.24000000000001,4.872,87.24000000000001,4.968Q87.24000000000001,5.048,87.22399999999999,5.08Q87.144,5.256,87.128,5.416L87.128,5.528Q86.80799999999999,6.584,86.47200000000001,7.608Q86.136,8.632,85.688,9.64Q85.24000000000001,10.648,84.688,11.536Q84.136,12.424,83.368,13.144L83.27199999999999,13.24L83.128,13.4Q83.032,13.448,82.968,13.56L82.856,13.656Q82.77600000000001,13.736,82.77600000000001,13.752Q82.77600000000001,13.768,82.68,13.768Q82.6,13.768,82.456,13.68Q82.312,13.592,82.184,13.48Q82.104,13.416,82.048,13.368Q81.99199999999999,13.32,81.944,13.272Q81.848,13.208,81.848,13.144Q81.848,13.048,81.944,13Q81.99199999999999,13,82.032,12.976Q82.072,12.952,82.152,12.888L82.29599999999999,12.744L82.44,12.616L82.52000000000001,12.52Q82.712,12.392,82.856,12.152L83.144,11.768Q84.056,10.6,84.70400000000001,9.128Q85.352,7.656,85.688,6.152Q85.78399999999999,5.864,85.856,5.552Q85.928,5.24,85.928,4.968L85.368,4.968Q85.19200000000001,4.968,85.19200000000001,5.032Q85.176,5.096,85.144,5.232Q85.112,5.368,85.048,5.56Q85.01599999999999,5.656,84.99199999999999,5.752Q84.968,5.848,84.936,5.944Q84.904,6.04,84.888,6.12Q84.872,6.2,84.84,6.28L84.792,6.456Q84.376,7.752,83.70400000000001,8.912Q83.032,10.072,82.12,11.032Q82.072,11.08,82.01599999999999,11.136Q81.96000000000001,11.192,81.88,11.256Q81.864,11.288,81.72,11.4L81.608,11.4Q81.576,11.384,81.512,11.32Q81.44800000000001,11.256,81.368,11.176L81.208,11.048Q81.16,11.032,81.096,10.968L80.98400000000001,10.904L80.92,10.84Q81.88,9.928,82.56,8.768Q83.24000000000001,7.608,83.656,6.344L83.768,5.992Q83.8,5.8,83.856,5.592Q83.912,5.384,83.99199999999999,5.144L83.928,5.08L83.368,5.144L83.304,5.192Q83.27199999999999,5.288,83.27199999999999,5.272Q83.24000000000001,5.304,83.176,5.432Q83.112,5.56,83.032,5.704L82.888,5.992L82.824,6.12L82.80799999999999,6.152Q82.77600000000001,6.216,82.73599999999999,6.28Q82.696,6.344,82.664,6.424Q82.584,6.584,82.488,6.728Q82.392,6.872,82.26400000000001,6.968Q82.152,7.08,81.96000000000001,7.08Q81.73599999999999,7.08,81.512,6.896Q81.288,6.712,81.16,6.52Z" fill="#3D3D3D" fill-opacity="1"/></g><g><line x1="0" y1="7.5" x2="18" y2="7.5" fill-opacity="0" stroke-opacity="1" stroke="#D8D8D8" fill="none" stroke-width="1"/></g><g><line x1="100" y1="7.5" x2="118" y2="7.5" fill-opacity="0" stroke-opacity="1" stroke="#D8D8D8" fill="none" stroke-width="1"/></g></g></svg>