<svg xmlns="http://www.w3.org/2000/svg" xmlns:xlink="http://www.w3.org/1999/xlink" fill="none" version="1.1" width="16" height="16" viewBox="0 0 16 16"><defs><clipPath id="master_svg0_5125_73769"><rect x="0" y="0" width="16" height="16" rx="0"/></clipPath></defs><g clip-path="url(#master_svg0_5125_73769)"><g><path d="M7.999345625,1.125Q7.463105625,1.125,7.027465625,1.437702L7.027445625,1.437717L2.138803625,4.94653Q1.166067625,5.6447,1.166015625,6.84207L1.166015625,12.5002Q1.166015625,13.4667,1.849441625,14.1501Q2.532866625,14.8336,3.499345625,14.8336L6.499345625,14.8336L6.499345625,11.6669Q6.499345625,11.04564,6.938715625,10.60627Q7.378085625,10.1669,7.999345625,10.1669Q8.620615625,10.1669,9.059985625,10.60627Q9.499345625,11.04564,9.499345625,11.6669L9.499345625,14.8336L12.499315625,14.8336Q13.465815625,14.8336,14.149215625,14.1501Q14.832715625,13.4667,14.832715625,12.5002L14.832715625,6.8419Q14.832715625,5.64493,13.859915625,4.946540000000001L8.971255625000001,1.437717Q8.535615625,1.125,7.999345625,1.125ZM2.721895625,5.75894L7.610565625,2.250102L7.610585625,2.2500869999999997Q7.999345625,1.971022,8.388115625000001,2.2500869999999997L13.276815625,5.75894Q13.832715625,6.15802,13.832715625,6.8419L13.832715625,12.5002Q13.832715625,13.0525,13.442115625,13.443Q13.051615625,13.8336,12.499315625,13.8336L10.499345625,13.8336L10.499345625,11.6669Q10.499345625,10.63142,9.767095625,9.89916Q9.034835625,9.1669,7.999345625,9.1669Q6.963865625,9.1669,6.231605625,9.89916Q5.499345625,10.63142,5.499345625,11.6669L5.499345625,13.8336L3.499345625,13.8336Q2.9470856249999997,13.8336,2.556548625,13.443Q2.166015625,13.0525,2.166015625,12.5002L2.166015625,6.84207Q2.1660456249999998,6.15789,2.721895625,5.75894Z" fill-rule="evenodd" fill="#000000" fill-opacity="1"/></g></g></svg>