<svg xmlns="http://www.w3.org/2000/svg" xmlns:xlink="http://www.w3.org/1999/xlink" fill="none" version="1.1" width="10" height="10" viewBox="0 0 10 10"><defs><clipPath id="master_svg0_4493_55496"><rect x="0" y="0" width="10" height="10" rx="0"/></clipPath></defs><g clip-path="url(#master_svg0_4493_55496)"><g style="opacity:0.6000000238418579;"><path d="M10,5Q10,5.12274,9.99398,5.24534Q9.98795,5.36793,9.97592,5.49009Q9.96389,5.61224,9.94588,5.73365Q9.92787,5.85507,9.90392,5.97545Q9.87998,6.09584,9.85015,6.2149Q9.82033,6.33396,9.7847,6.45142Q9.74907,6.56888,9.70772,6.68445Q9.66637,6.80002,9.6194,6.91342Q9.57242,7.02682,9.51995,7.13777Q9.46747,7.24873,9.40961,7.35698Q9.35174,7.46523,9.28864,7.57051Q9.22554,7.67579,9.15735,7.77785Q9.08915,7.87991,9.01604,7.9785Q8.94292,8.07708,8.86505,8.17197Q8.78718,8.26685,8.70475,8.35779Q8.62232,8.44874,8.53553,8.53553Q8.44874,8.62232,8.35779,8.70475Q8.26685,8.78718,8.17197,8.86505Q8.07708,8.94292,7.9785,9.01604Q7.87991,9.08915,7.77785,9.15735Q7.67579,9.22554,7.57051,9.28864Q7.46523,9.35174,7.35698,9.40961Q7.24873,9.46747,7.13777,9.51995Q7.02682,9.57242,6.91342,9.6194Q6.80002,9.66637,6.68445,9.70772Q6.56888,9.74907,6.45142,9.7847Q6.33396,9.82033,6.2149,9.85015Q6.09584,9.87998,5.97545,9.90392Q5.85507,9.92787,5.73365,9.94588Q5.61224,9.96389,5.49009,9.97592Q5.36793,9.98795,5.24534,9.99398Q5.12274,10,5,10Q4.87726,10,4.75466,9.99398Q4.63207,9.98795,4.50991,9.97592Q4.38776,9.96389,4.26635,9.94588Q4.14493,9.92787,4.02455,9.90392Q3.90416,9.87998,3.7851,9.85015Q3.66603,9.82033,3.54858,9.7847Q3.43112,9.74907,3.31555,9.70772Q3.19998,9.66637,3.08658,9.6194Q2.97318,9.57242,2.86222,9.51995Q2.75127,9.46747,2.64302,9.40961Q2.53477,9.35174,2.42949,9.28864Q2.32421,9.22554,2.22215,9.15735Q2.12009,9.08915,2.0215,9.01604Q1.92291,8.94292,1.82803,8.86505Q1.73315,8.78718,1.6422,8.70475Q1.55126,8.62232,1.46447,8.53553Q1.37767,8.44874,1.29524,8.35779Q1.21282,8.26685,1.13495,8.17197Q1.05708,8.07708,0.983962,7.9785Q0.910844,7.87991,0.842652,7.77785Q0.774459,7.67579,0.711357,7.57051Q0.648254,7.46523,0.590394,7.35698Q0.532533,7.24873,0.480053,7.13777Q0.427574,7.02682,0.380602,6.91342Q0.333631,6.80002,0.29228,6.68445Q0.250929,6.56888,0.215298,6.45142Q0.179668,6.33396,0.149844,6.2149Q0.12002,6.09584,0.0960736,5.97545Q0.0721276,5.85507,0.0541174,5.73365Q0.0361073,5.61224,0.0240764,5.49009Q0.0120454,5.36793,0.00602272,5.24534Q0,5.12274,0,5Q0,4.87726,0.00602272,4.75466Q0.0120454,4.63207,0.0240764,4.50991Q0.0361073,4.38776,0.0541174,4.26635Q0.0721276,4.14493,0.0960736,4.02455Q0.12002,3.90416,0.149844,3.7851Q0.179668,3.66603,0.215298,3.54858Q0.250929,3.43112,0.29228,3.31555Q0.333631,3.19998,0.380602,3.08658Q0.427574,2.97318,0.480053,2.86222Q0.532533,2.75127,0.590394,2.64302Q0.648254,2.53477,0.711357,2.42949Q0.774459,2.32421,0.842652,2.22215Q0.910844,2.12009,0.983962,2.0215Q1.05708,1.92291,1.13495,1.82803Q1.21282,1.73315,1.29524,1.6422Q1.37767,1.55126,1.46447,1.46447Q1.55126,1.37767,1.6422,1.29524Q1.73315,1.21282,1.82803,1.13495Q1.92291,1.05708,2.0215,0.983962Q2.12009,0.910844,2.22215,0.842652Q2.32421,0.774459,2.42949,0.711357Q2.53477,0.648254,2.64302,0.590394Q2.75127,0.532533,2.86222,0.480053Q2.97318,0.427574,3.08658,0.380602Q3.19998,0.333631,3.31555,0.29228Q3.43112,0.250929,3.54858,0.215298Q3.66603,0.179668,3.7851,0.149844Q3.90416,0.12002,4.02455,0.0960736Q4.14493,0.0721276,4.26635,0.0541174Q4.38776,0.0361073,4.50991,0.0240764Q4.63207,0.0120454,4.75466,0.00602272Q4.87726,0,5,0Q5.12274,0,5.24534,0.00602272Q5.36793,0.0120454,5.49009,0.0240764Q5.61224,0.0361073,5.73365,0.0541174Q5.85507,0.0721276,5.97545,0.0960736Q6.09584,0.12002,6.2149,0.149844Q6.33396,0.179668,6.45142,0.215298Q6.56888,0.250929,6.68445,0.29228Q6.80002,0.333631,6.91342,0.380602Q7.02682,0.427574,7.13777,0.480053Q7.24873,0.532533,7.35698,0.590394Q7.46523,0.648254,7.57051,0.711357Q7.67579,0.774459,7.77785,0.842652Q7.87991,0.910844,7.9785,0.983962Q8.07708,1.05708,8.17197,1.13495Q8.26685,1.21282,8.35779,1.29524Q8.44874,1.37767,8.53553,1.46447Q8.62232,1.55126,8.70475,1.6422Q8.78718,1.73315,8.86505,1.82803Q8.94292,1.92291,9.01604,2.0215Q9.08915,2.12009,9.15735,2.22215Q9.22554,2.32421,9.28864,2.42949Q9.35174,2.53477,9.40961,2.64302Q9.46747,2.75127,9.51995,2.86222Q9.57242,2.97318,9.6194,3.08658Q9.66637,3.19998,9.70772,3.31555Q9.74907,3.43112,9.7847,3.54858Q9.82033,3.66603,9.85015,3.7851Q9.87998,3.90416,9.90392,4.02455Q9.92787,4.14493,9.94588,4.26635Q9.96389,4.38776,9.97592,4.50991Q9.98795,4.63207,9.99398,4.75466Q10,4.87726,10,5Z" fill="#000000" fill-opacity="1"/></g><g><path d="M2.348333834762573,2.3479168347625734C2.184825434762573,2.5092818347625734,2.183890534762573,2.7728958347625734,2.346249834762573,2.9354168347625733L4.410828834762573,4.9999988347625735L2.3458328347625734,7.064168834762573C2.184169034762573,7.226968834762573,2.1851017347625734,7.490008834762573,2.3479168347625734,7.651668834762574C2.5092818347625734,7.815178834762573,2.7728958347625734,7.816108834762574,2.9354168347625733,7.653748834762573L4.9999988347625735,5.589168834762573L7.064168834762573,7.653748834762573C7.226968834762573,7.815418834762573,7.490008834762573,7.814478834762573,7.651668834762574,7.651668834762574C7.815178834762573,7.490298834762573,7.816108834762574,7.226688834762573,7.653748834762573,7.064168834762573L5.589168834762573,4.9999988347625735L7.653748834762573,2.9358338347625734C7.815418834762573,2.773027834762573,7.814478834762573,2.509988834762573,7.651668834762574,2.348333834762573C7.490298834762573,2.184825434762573,7.226688834762573,2.183890534762573,7.064168834762573,2.346249834762573L4.9999988347625735,4.410828834762573L2.9358338347625734,2.3458328347625734C2.7730268347625735,2.1841688347625734,2.509988834762573,2.1851015347625733,2.348333834762573,2.3479168347625734Z" fill="#FFFFFF" fill-opacity="1"/></g></g></svg>