<svg xmlns="http://www.w3.org/2000/svg" xmlns:xlink="http://www.w3.org/1999/xlink" fill="none" version="1.1" width="24" height="24" viewBox="0 0 24 24"><defs><clipPath id="master_svg0_5339_56624"><rect x="0" y="0" width="24" height="24" rx="0"/></clipPath></defs><g clip-path="url(#master_svg0_5339_56624)"><g><path d="M20.0925,8.085798125L13.8855,8.085798125C14.1803,7.048538125,14.3295,6.126798125,14.3295,5.315298125C14.3295,3.474048125,12.6465,1.710793125,11.0355,1.944793325C9.615,2.151043125,8.937000000000001,3.348798125,8.937000000000001,4.887048125L8.937000000000001,6.276788125C8.937000000000001,8.059538125,7.57275,9.579788125,5.838,9.747038125L3.0787500000000003,9.742548124999999C2.20683,9.742548124999999,1.5,10.449378125,1.5,11.321298125L1.5,20.437528125C1.5,21.309828125,2.2065,22.016328125,3.0787500000000003,22.016328125L18.3645,22.016328125C19.5212,22.016328125,20.5145,21.193728125,20.73,20.057328125L22.458,10.941048125C22.7387,9.458258125,21.6016,8.085788125,20.0925,8.085798125ZM3,20.437528125L3,11.321298125C3,11.277798125,3.03525,11.242548125,3.0787500000000003,11.242548125L4.875,11.242548125L4.875,20.516328125L3.0787500000000003,20.516328125C3.03526,20.516328125,3,20.481028125,3,20.437528125ZM20.9842,10.662038125L19.2562,19.778328125C19.175,20.206428125,18.8005,20.516328125,18.3645,20.516328125L6.375,20.516328125L6.375,11.176548125C8.72827,10.727298125,10.43206,8.671808125,10.437,6.276048125L10.437,4.887048125C10.437,4.006548125,10.71975,3.506298125,11.25075,3.429798125C11.8845,3.337548125,12.8295,4.328298125,12.8295,5.316048125C12.8295,6.190548125,12.6068,7.284798125,12.153,8.590548125C11.9838,9.077948124999999,12.3458,9.586708125000001,12.8617,9.586548125L20.0925,9.586548125C20.661,9.586588124999999,21.0895,10.103358125,20.9842,10.662038125Z" fill="#3D3D3D" fill-opacity="1"/></g></g></svg>