<svg xmlns="http://www.w3.org/2000/svg" xmlns:xlink="http://www.w3.org/1999/xlink" fill="none" version="1.1" width="12" height="12" viewBox="0 0 12 12"><g><g><ellipse cx="6" cy="6" rx="6" ry="6" fill="#FFA187" fill-opacity="1"/></g><g><path d="M6.7620000000000005,5.7L7.74,5.7C7.638,6.311999999999999,7.488,6.846,7.272,7.308C7.026,6.87,6.84,6.378,6.702,5.862L6.7620000000000005,5.7ZM3.558,8.55C3.6959999999999997,8.442,3.9,8.328,4.854,7.998L4.854,9.54L5.568,9.54L5.568,6.516C5.718,6.678,5.916,6.936,6,7.074C6.1080000000000005,6.948,6.216,6.804,6.306,6.648C6.468,7.122,6.654,7.566,6.882,7.962C6.564,8.382,6.156000000000001,8.718,5.634,8.969999999999999C5.7780000000000005,9.108,6.0120000000000005,9.408000000000001,6.096,9.55837C6.5760000000000005,9.294,6.9719999999999995,8.969999999999999,7.296,8.574C7.596,8.958,7.95,9.276,8.370000000000001,9.516C8.478,9.324,8.7,9.054,8.862,8.922C8.411999999999999,8.7,8.027999999999999,8.370000000000001,7.71,7.968C8.064,7.344,8.304,6.593999999999999,8.46,5.7L8.814,5.7L8.814,5.016L6.978,5.016C7.068,4.69125,7.134,4.3605,7.194,4.0177499999999995L6.45,3.897469C6.311999999999999,4.86572,6.029999999999999,5.784,5.568,6.372L5.568,3.987656L4.854,3.987656L4.854,7.302L4.218,7.494L4.218,4.54697L3.51,4.54697L3.51,7.458C3.51,7.704,3.396,7.824,3.288,7.89C3.396,8.046,3.516,8.370000000000001,3.558,8.55Z" fill="#FFFFFF" fill-opacity="1"/></g></g></svg>