<svg xmlns="http://www.w3.org/2000/svg" xmlns:xlink="http://www.w3.org/1999/xlink" fill="none" version="1.1" width="332" height="54" viewBox="0 0 332 54"><g><g><path d="M88.28999999999999,10.394Q88.28999999999999,10.282,88.304,10.282Q88.304,10.296,88.346,10.184Q88.416,9.96,88.549,9.603Q88.682,9.246,88.822,8.91Q88.92,8.574,89.032,8.322Q89.116,8.07,89.116,8.042L90.418,3.506L90.46000000000001,3.394L90.502,3.394L91.496,3.884L91.538,3.94Q91.468,4.038,91.398,4.22L90.614,6.46L90.614,6.572Q91.202,6.572,91.748,6.537Q92.294,6.502,92.882,6.46Q93.008,6.46,93.155,6.446Q93.30199999999999,6.432,93.456,6.404Q93.61,6.376,93.75,6.362Q93.89,6.348,94.01599999999999,6.348Q94.1,6.348,94.191,6.411Q94.282,6.474,94.366,6.558Q94.436,6.656,94.485,6.747Q94.53399999999999,6.838,94.53399999999999,6.894L94.47800000000001,6.95Q94.268,6.978,94.05799999999999,6.985Q93.848,6.992,93.61,7.006Q93.372,7.02,93.155,7.027Q92.938,7.034,92.72800000000001,7.062L92.72800000000001,7.118Q92.77,7.146,92.84,7.181Q92.91,7.216,93.02199999999999,7.272L93.288,7.44L93.344,7.496L93.344,7.552Q93.344,7.58,93.274,7.72Q93.19,7.846,93.19,7.888Q92.882,8.952,92.56700000000001,10.03Q92.252,11.108,91.748,12.088L91.748,12.144Q91.748,12.172,91.832,12.298Q91.888,12.438,92.014,12.62L92.238,12.984L92.42,13.292Q92.63,13.628,92.882,13.985Q93.134,14.342,93.414,14.65Q93.694,14.944,94.044,15.161Q94.394,15.378,94.8,15.42L94.8,15.63Q94.8,15.742,94.814,15.812Q94.814,15.924,94.744,15.966Q94.53399999999999,15.994,94.31,16.001Q94.086,16.008,93.834,15.994Q93.582,15.994,93.351,16.015Q93.12,16.036,92.882,16.064L92.78399999999999,15.966Q92.77,15.952,92.742,15.917Q92.714,15.882,92.672,15.812L92.49,15.49L92.098,14.888Q92.056,14.79,91.93,14.538Q91.804,14.286,91.65,14.006L91.23,13.138Q90.95,13.39,90.74,13.684Q90.628,13.838,90.509,13.985Q90.39,14.132,90.25,14.286Q89.886,14.608,89.571,14.874Q89.256,15.14,88.92,15.392Q88.584,15.644,88.227,15.889Q87.87,16.134,87.464,16.4L87.422,16.4Q87.254,16.4,87.19800000000001,16.267Q87.142,16.134,87.114,16.022Q87.352,15.896,87.562,15.756Q87.77199999999999,15.616,87.926,15.42Q87.884,15.42,87.828,15.364Q87.77199999999999,15.308,87.71600000000001,15.308L87.59,15.224Q87.47800000000001,15.154,87.366,15.084Q87.254,15.014,87.142,14.958L87.002,14.888L86.498,14.622L86.176,14.44L86.064,14.44Q85.238,15.154,84.33500000000001,15.686Q83.432,16.218,82.41,16.512Q82.326,16.47,82.312,16.337Q82.298,16.204,82.298,16.12Q82.298,16.05,82.326,16.05L82.46600000000001,16.022Q83.054,15.728,83.565,15.399Q84.076,15.07,84.58,14.664L84.776,14.496Q84.888,14.398,85.007,14.293Q85.126,14.188,85.252,14.062L85.252,14.006L83.908,13.292L83.79599999999999,13.25L83.642,13.194Q83.446,13.124,83.446,13.026L83.446,12.97Q83.446,12.942,83.488,12.83Q83.544,12.732,83.544,12.69Q83.572,12.592,83.642,12.48Q83.712,12.326,83.782,12.172Q83.852,12.018,83.922,11.864Q83.95,11.794,83.971,11.738Q83.992,11.682,84.006,11.654L82.872,11.654Q82.83,11.654,82.80199999999999,11.591Q82.774,11.528,82.746,11.444Q82.70400000000001,11.374,82.69,11.29Q82.676,11.206,82.676,11.164L82.816,11.108L83.32,11.08Q83.474,11.066,83.607,11.059Q83.74,11.052,83.81,11.052L84.174,11.052Q84.174,11.038,84.188,11.038Q84.23,11.038,84.258,11.024Q84.27199999999999,11.01,84.286,11.01Q84.3,11.01,84.328,10.996Q84.412,10.898,84.517,10.702Q84.622,10.506,84.706,10.282Q84.78999999999999,10.058,84.874,9.855Q84.958,9.652,85.042,9.526Q85.042,9.512,85.098,9.456Q85.098,9.456,85.14,9.414L85.252,9.47L85.30799999999999,9.526L85.35,9.526L85.35,7.986L85.30799999999999,7.986Q84.622,8.7,83.929,9.309Q83.236,9.918,82.41,10.45L82.354,10.45Q82.28399999999999,10.45,82.221,10.359Q82.158,10.268,82.158,10.24L82.158,10.184L82.452,9.876L82.886,9.414L83.6,8.644Q83.684,8.518,83.852,8.315Q84.02,8.112,84.188,7.902Q84.27199999999999,7.804,84.342,7.713Q84.412,7.622,84.482,7.538L84.636,7.328L84.678,7.23L84.27199999999999,7.23Q84.104,7.23,83.936,7.237Q83.768,7.244,83.614,7.258Q83.446,7.272,83.292,7.279Q83.138,7.286,82.98400000000001,7.286L82.718,7.286Q82.62,7.202,82.55,7.048Q82.52199999999999,6.978,82.487,6.915Q82.452,6.852,82.41,6.782Q82.662,6.754,82.914,6.726Q83.166,6.698,83.446,6.684Q83.712,6.67,83.971,6.663Q84.23,6.656,84.468,6.628Q84.58,6.628,84.72,6.621Q84.86,6.614,84.986,6.6L85.30799999999999,6.572L85.35,6.516L85.35,3.674L85.406,3.45L85.504,3.45Q85.54599999999999,3.45,85.602,3.478Q85.686,3.506,85.714,3.506L85.91,3.576L86.148,3.674L86.44200000000001,3.786L86.498,3.828L86.386,4.22L86.386,6.516L86.694,6.516Q86.694,6.46,86.666,6.376Q86.638,6.292,86.638,6.236Q86.638,6.166,86.652,6.145Q86.666,6.124,86.736,6.082L87.828,4.164L87.884,4.164Q87.95400000000001,4.22,88.01,4.262Q88.066,4.304,88.136,4.346L88.346,4.486L88.5,4.598Q88.612,4.682,88.696,4.745Q88.78,4.808,88.85,4.934L88.80799999999999,4.99Q88.76599999999999,5.032,88.626,5.088Q88.486,5.158,88.444,5.2Q88.178,5.48,87.821,5.851Q87.464,6.222,87.114,6.46L87.52,6.46Q87.646,6.46,87.786,6.453Q87.926,6.446,88.066,6.432Q88.206,6.418,88.35300000000001,6.411Q88.5,6.404,88.654,6.404L88.85,6.404Q88.934,6.446,89.025,6.635Q89.116,6.824,89.116,6.95L89.074,7.006Q88.738,6.978,88.416,6.985Q88.094,6.992,87.786,7.02Q87.464,7.048,87.142,7.069Q86.82,7.09,86.498,7.118L86.44200000000001,7.118L86.386,7.174L86.44200000000001,7.23Q86.988,7.468,87.541,7.755Q88.094,8.042,88.598,8.378Q88.668,8.42,88.696,8.462Q88.71000000000001,8.49,88.71000000000001,8.532Q88.71000000000001,8.602,88.64,8.77Q88.57,8.938,88.486,9.12Q88.43,9.218,88.395,9.295Q88.36,9.372,88.304,9.442Q88.206,9.582,88.136,9.582Q88.08,9.582,87.87,9.316Q87.66,9.05,87.387,8.735Q87.114,8.42,86.834,8.154Q86.568,7.888,86.386,7.888L86.386,8.644Q86.386,8.686,86.379,8.77Q86.372,8.854,86.358,8.966Q86.344,9.078,86.337,9.169Q86.33,9.26,86.33,9.302Q86.232,9.456,86.036,9.582Q85.924,9.638,85.854,9.708Q85.78399999999999,9.778,85.714,9.848Q85.756,9.904,85.868,9.96Q85.994,10.03,86.02199999999999,10.072L86.064,10.128L86.064,10.184Q85.91,10.296,85.77,10.492Q85.63,10.688,85.56,10.884L85.98,10.884Q86.33,10.884,86.666,10.856Q87.002,10.828,87.31,10.674L87.366,10.674Q87.632,10.786,87.898,10.947Q88.164,11.108,88.388,11.276Q88.15,11.5,87.961,11.794Q87.77199999999999,12.088,87.618,12.41Q87.45,12.732,87.282,13.047Q87.114,13.362,86.904,13.628L86.904,13.684Q86.96000000000001,13.712,87.03,13.74Q87.1,13.768,87.212,13.796L87.688,13.978L88.15,14.16Q88.262,14.202,88.332,14.23Q88.402,14.258,88.444,14.286L88.556,14.328Q88.556,14.384,88.5,14.44Q88.444,14.496,88.444,14.552L88.374,14.678Q88.332,14.776,88.269,14.881Q88.206,14.986,88.15,15.056L88.094,15.196L88.094,15.252Q88.178,15.252,88.374,15.098L88.598,14.888L88.724,14.762Q88.76599999999999,14.72,88.80799999999999,14.678Q88.85,14.636,88.878,14.58L89.116,14.328Q89.172,14.272,89.291,14.125Q89.41,13.978,89.536,13.824L89.76,13.53Q89.83,13.404,89.886,13.348L90.124,12.984Q90.27799999999999,12.774,90.404,12.571Q90.53,12.368,90.628,12.214Q90.684,12.144,90.69800000000001,12.095Q90.712,12.046,90.712,12.032L90.712,11.934L89.69,9.078Q89.648,9.008,89.662,8.994Q89.662,8.98,89.578,8.98Q89.55,8.98,89.46600000000001,9.092Q89.368,9.218,89.27,9.4Q89.172,9.582,89.06,9.792Q88.934,10.016,88.82900000000001,10.198Q88.724,10.38,88.654,10.492Q88.57,10.618,88.556,10.618Q88.47200000000001,10.618,88.381,10.548Q88.28999999999999,10.478,88.28999999999999,10.394ZM89.886,8.322Q89.97,8.364,90.012,8.441Q90.054,8.518,90.096,8.588L90.27799999999999,9.008Q90.348,9.162,90.418,9.316Q90.488,9.47,90.55799999999999,9.624Q90.628,9.792,90.69800000000001,9.946Q90.768,10.1,90.838,10.254Q90.908,10.408,90.95,10.506Q90.992,10.604,91.02,10.674Q91.076,10.73,91.132,10.856Q91.202,11.024,91.23,11.052L91.73400000000001,9.428Q91.86,8.994,91.958,8.581Q92.056,8.168,92.098,7.776Q92.098,7.734,92.105,7.643Q92.112,7.552,92.14,7.44L92.168,7.244L92.21000000000001,7.118L91.636,7.118L91.132,7.146Q90.964,7.16,90.81,7.167Q90.656,7.174,90.614,7.174Q90.418,7.174,90.313,7.286Q90.208,7.398,90.138,7.566L90.012,7.93Q89.97,8.126,89.886,8.322ZM85.042,11.654L84.412,12.69L84.412,12.746L84.468,12.802L84.69200000000001,12.886L85.07,13.012Q85.26599999999999,13.096,85.42699999999999,13.159Q85.588,13.222,85.658,13.236Q85.686,13.25,85.749,13.271Q85.812,13.292,85.868,13.292L85.924,13.292L85.98,13.236L86.96000000000001,11.542L86.96000000000001,11.43Q86.61,11.43,86.281,11.437Q85.952,11.444,85.602,11.486Q85.532,11.486,85.462,11.493Q85.392,11.5,85.322,11.514L85.14,11.542L85.042,11.654ZM83.138,4.332Q83.138,4.248,83.208,4.171Q83.27799999999999,4.094,83.334,4.052Q83.768,4.416,84.15299999999999,4.822Q84.538,5.228,84.93,5.634L84.93,5.69Q84.93,5.774,84.839,5.914Q84.748,6.054,84.636,6.18Q84.496,6.32,84.37,6.418Q84.244,6.516,84.174,6.516L84.118,6.46L83.194,4.486Q83.194,4.472,83.166,4.388L83.138,4.332ZM114.68,8.7Q115.744,8.616,116.745,8.567Q117.74600000000001,8.518,118.81,8.49Q119.44,8.448,120.049,8.406Q120.658,8.364,121.288,8.154L121.386,8.154L121.554,8.322Q121.61,8.378,121.76400000000001,8.476L122.05799999999999,8.7L122.576,9.078L122.632,9.19Q122.562,9.232,122.45,9.253Q122.338,9.274,122.19800000000001,9.302Q122.05799999999999,9.33,121.918,9.351Q121.77799999999999,9.372,121.708,9.414Q121.148,9.652,120.672,9.988Q120.196,10.324,119.69200000000001,10.73Q119.566,10.814,119.293,11.038Q119.02000000000001,11.262,118.712,11.542L118.124,12.074L117.732,12.424Q117.578,12.592,117.326,12.83Q117.04599999999999,13.068,116.78,13.334Q116.51400000000001,13.6,116.28999999999999,13.852Q116.066,14.146,116.024,14.328Q115.99600000000001,14.454,116.157,14.559Q116.318,14.664,116.51400000000001,14.734Q116.71000000000001,14.804,116.899,14.846Q117.088,14.888,117.158,14.888L120.196,14.888L121.30199999999999,14.86Q121.666,14.846,121.981,14.839Q122.29599999999999,14.832,122.366,14.832Q122.49199999999999,14.832,122.618,14.832Q122.744,14.832,122.856,14.846Q123.094,14.874,123.262,14.818Q123.43,14.762,123.51400000000001,14.594Q123.598,14.426,123.556,14.062L123.612,13.712Q123.654,13.46,123.689,13.18Q123.72399999999999,12.9,123.76599999999999,12.648Q123.794,12.41,123.815,12.305Q123.836,12.2,123.864,12.102Q123.878,12.06,123.892,12.018Q123.906,11.976,123.906,11.948Q123.934,11.878,123.962,11.878L124.34,11.878L124.34,12.732Q124.326,13.166,124.354,13.586Q124.382,14.006,124.46600000000001,14.412Q124.50800000000001,14.608,124.571,14.804Q124.634,15,124.74600000000001,15.196L124.844,15.364Q124.858,15.504,124.697,15.602Q124.536,15.7,124.312,15.756Q124.074,15.812,123.87100000000001,15.833Q123.668,15.854,123.612,15.854Q123.57,15.854,123.479,15.861Q123.388,15.868,123.27600000000001,15.882L122.94,15.91L116.85,15.91Q116.5,15.854,116.164,15.791Q115.828,15.728,115.548,15.574Q115.268,15.42,115.107,15.161Q114.946,14.902,114.946,14.44Q114.946,14.188,115.093,13.915Q115.24000000000001,13.642,115.436,13.376Q115.632,13.124,115.856,12.9Q116.08,12.676,116.23400000000001,12.536L120,9.134L120.056,9.078L119.538,9.078Q118.964,9.078,118.418,9.106Q117.872,9.134,117.326,9.19Q116.78,9.246,116.23400000000001,9.274Q115.688,9.302,115.142,9.302L114.89,9.302Q114.848,9.218,114.76400000000001,9.029Q114.68,8.84,114.68,8.756L114.68,8.7ZM120.54599999999999,4.654Q120.56,4.374,120.56700000000001,4.129Q120.574,3.884,120.574,3.786L120.574,3.618Q120.644,3.618,120.819,3.639Q120.994,3.66,121.19,3.702Q121.386,3.758,121.519,3.828Q121.652,3.898,121.652,3.996Q121.652,4.178,121.638,4.36Q121.624,4.542,121.596,4.738Q121.554,5.116,121.554,5.48Q123.19200000000001,5.48,124.74600000000001,5.312Q124.75999999999999,5.326,124.774,5.354Q124.788,5.382,124.816,5.41Q124.844,5.48,124.9,5.571Q124.956,5.662,124.99799999999999,5.76L125.054,5.914L125.054,5.97Q124.186,6.054,123.332,6.054Q122.45,6.054,121.596,6.138Q121.596,6.194,121.589,6.348Q121.582,6.502,121.582,6.67L121.554,7.23L121.554,7.608L121.49799999999999,7.72L121.288,7.776Q121.25999999999999,7.776,121.162,7.832Q121.064,7.888,121.036,7.888Q120.896,7.944,120.868,7.972Q120.854,7.986,120.714,7.986Q120.672,8,120.62299999999999,7.993Q120.574,7.986,120.574,7.93L120.574,6.18L119.944,6.18Q119.398,6.194,118.936,6.222Q118.544,6.25,118.208,6.278Q117.872,6.306,117.844,6.348Q117.844,6.432,117.837,6.635Q117.83,6.838,117.816,7.062Q117.80199999999999,7.286,117.795,7.489Q117.788,7.692,117.788,7.776L117.788,7.832L117.00399999999999,8.098L116.794,8.098L116.794,6.348Q116.43,6.348,116.07300000000001,6.362Q115.71600000000001,6.376,115.366,6.404Q115.01599999999999,6.432,114.666,6.446Q114.316,6.46,113.96600000000001,6.46L113.7,6.46L113.644,6.404L113.54599999999999,5.914Q113.54599999999999,5.872,113.74199999999999,5.844Q113.938,5.816,114.19,5.809Q114.44200000000001,5.802,114.708,5.802L115.1,5.802Q115.142,5.802,115.261,5.795Q115.38,5.788,115.53399999999999,5.774L115.982,5.746L116.444,5.746Q116.47200000000001,5.746,116.52799999999999,5.739Q116.584,5.732,116.654,5.718Q116.682,5.704,116.717,5.704Q116.75200000000001,5.704,116.794,5.69L116.794,3.674L117.886,3.996L117.886,4.276L117.844,4.486Q117.844,4.612,117.837,4.801Q117.83,4.99,117.816,5.158L117.788,5.578L117.844,5.634L118.082,5.634Q118.712,5.634,119.328,5.592L120.518,5.536L120.54599999999999,4.654ZM149.89,10.394Q149.89,10.282,149.904,10.282Q149.904,10.296,149.946,10.184Q150.01600000000002,9.96,150.149,9.603Q150.28199999999998,9.246,150.422,8.91Q150.51999999999998,8.574,150.632,8.322Q150.716,8.07,150.716,8.042L152.018,3.506L152.06,3.394L152.102,3.394L153.096,3.884L153.138,3.94Q153.06799999999998,4.038,152.998,4.22L152.214,6.46L152.214,6.572Q152.80200000000002,6.572,153.348,6.537Q153.894,6.502,154.482,6.46Q154.608,6.46,154.755,6.446Q154.902,6.432,155.05599999999998,6.404Q155.20999999999998,6.376,155.35,6.362Q155.49,6.348,155.61599999999999,6.348Q155.7,6.348,155.791,6.411Q155.882,6.474,155.966,6.558Q156.036,6.656,156.08499999999998,6.747Q156.13400000000001,6.838,156.13400000000001,6.894L156.078,6.95Q155.868,6.978,155.65800000000002,6.985Q155.44799999999998,6.992,155.20999999999998,7.006Q154.97199999999998,7.02,154.755,7.027Q154.538,7.034,154.328,7.062L154.328,7.118Q154.37,7.146,154.44,7.181Q154.51,7.216,154.622,7.272L154.888,7.44L154.94400000000002,7.496L154.94400000000002,7.552Q154.94400000000002,7.58,154.874,7.72Q154.79000000000002,7.846,154.79000000000002,7.888Q154.482,8.952,154.167,10.03Q153.852,11.108,153.348,12.088L153.348,12.144Q153.348,12.172,153.43200000000002,12.298Q153.488,12.438,153.614,12.62L153.838,12.984L154.01999999999998,13.292Q154.23000000000002,13.628,154.482,13.985Q154.73399999999998,14.342,155.014,14.65Q155.29399999999998,14.944,155.644,15.161Q155.994,15.378,156.4,15.42L156.4,15.63Q156.4,15.742,156.414,15.812Q156.414,15.924,156.344,15.966Q156.13400000000001,15.994,155.91,16.001Q155.686,16.008,155.434,15.994Q155.18200000000002,15.994,154.951,16.015Q154.72,16.036,154.482,16.064L154.38400000000001,15.966Q154.37,15.952,154.34199999999998,15.917Q154.314,15.882,154.272,15.812L154.09,15.49L153.69799999999998,14.888Q153.656,14.79,153.53,14.538Q153.404,14.286,153.25,14.006L152.82999999999998,13.138Q152.55,13.39,152.34,13.684Q152.228,13.838,152.10899999999998,13.985Q151.99,14.132,151.85,14.286Q151.486,14.608,151.171,14.874Q150.856,15.14,150.51999999999998,15.392Q150.184,15.644,149.827,15.889Q149.47,16.134,149.064,16.4L149.022,16.4Q148.85399999999998,16.4,148.798,16.267Q148.74200000000002,16.134,148.714,16.022Q148.952,15.896,149.162,15.756Q149.372,15.616,149.526,15.42Q149.48399999999998,15.42,149.428,15.364Q149.372,15.308,149.316,15.308L149.19,15.224Q149.078,15.154,148.966,15.084Q148.85399999999998,15.014,148.74200000000002,14.958L148.602,14.888L148.098,14.622L147.776,14.44L147.664,14.44Q146.838,15.154,145.935,15.686Q145.03199999999998,16.218,144.01,16.512Q143.926,16.47,143.912,16.337Q143.898,16.204,143.898,16.12Q143.898,16.05,143.926,16.05L144.066,16.022Q144.654,15.728,145.16500000000002,15.399Q145.676,15.07,146.18,14.664L146.376,14.496Q146.488,14.398,146.607,14.293Q146.726,14.188,146.852,14.062L146.852,14.006L145.50799999999998,13.292L145.39600000000002,13.25L145.24200000000002,13.194Q145.046,13.124,145.046,13.026L145.046,12.97Q145.046,12.942,145.088,12.83Q145.144,12.732,145.144,12.69Q145.172,12.592,145.24200000000002,12.48Q145.312,12.326,145.382,12.172Q145.452,12.018,145.522,11.864Q145.55,11.794,145.571,11.738Q145.59199999999998,11.682,145.606,11.654L144.47199999999998,11.654Q144.43,11.654,144.402,11.591Q144.374,11.528,144.346,11.444Q144.304,11.374,144.29000000000002,11.29Q144.276,11.206,144.276,11.164L144.416,11.108L144.92000000000002,11.08Q145.074,11.066,145.207,11.059Q145.34,11.052,145.41,11.052L145.774,11.052Q145.774,11.038,145.788,11.038Q145.82999999999998,11.038,145.858,11.024Q145.872,11.01,145.886,11.01Q145.9,11.01,145.928,10.996Q146.012,10.898,146.11700000000002,10.702Q146.22199999999998,10.506,146.30599999999998,10.282Q146.39,10.058,146.474,9.855Q146.558,9.652,146.642,9.526Q146.642,9.512,146.69799999999998,9.456Q146.69799999999998,9.456,146.74,9.414L146.852,9.47L146.90800000000002,9.526L146.95,9.526L146.95,7.986L146.90800000000002,7.986Q146.22199999999998,8.7,145.529,9.309Q144.836,9.918,144.01,10.45L143.954,10.45Q143.88400000000001,10.45,143.821,10.359Q143.75799999999998,10.268,143.75799999999998,10.24L143.75799999999998,10.184L144.05200000000002,9.876L144.486,9.414L145.2,8.644Q145.284,8.518,145.452,8.315Q145.62,8.112,145.788,7.902Q145.872,7.804,145.942,7.713Q146.012,7.622,146.082,7.538L146.236,7.328L146.27800000000002,7.23L145.872,7.23Q145.704,7.23,145.536,7.237Q145.368,7.244,145.214,7.258Q145.046,7.272,144.892,7.279Q144.738,7.286,144.584,7.286L144.31799999999998,7.286Q144.22,7.202,144.15,7.048Q144.122,6.978,144.087,6.915Q144.05200000000002,6.852,144.01,6.782Q144.262,6.754,144.514,6.726Q144.76600000000002,6.698,145.046,6.684Q145.312,6.67,145.571,6.663Q145.82999999999998,6.656,146.06799999999998,6.628Q146.18,6.628,146.32,6.621Q146.45999999999998,6.614,146.586,6.6L146.90800000000002,6.572L146.95,6.516L146.95,3.674L147.006,3.45L147.10399999999998,3.45Q147.14600000000002,3.45,147.202,3.478Q147.286,3.506,147.314,3.506L147.51,3.576L147.748,3.674L148.042,3.786L148.098,3.828L147.986,4.22L147.986,6.516L148.29399999999998,6.516Q148.29399999999998,6.46,148.26600000000002,6.376Q148.238,6.292,148.238,6.236Q148.238,6.166,148.252,6.145Q148.26600000000002,6.124,148.336,6.082L149.428,4.164L149.48399999999998,4.164Q149.554,4.22,149.61,4.262Q149.666,4.304,149.736,4.346L149.946,4.486L150.1,4.598Q150.212,4.682,150.296,4.745Q150.38,4.808,150.45,4.934L150.40800000000002,4.99Q150.36599999999999,5.032,150.226,5.088Q150.086,5.158,150.04399999999998,5.2Q149.77800000000002,5.48,149.421,5.851Q149.064,6.222,148.714,6.46L149.12,6.46Q149.24599999999998,6.46,149.386,6.453Q149.526,6.446,149.666,6.432Q149.80599999999998,6.418,149.953,6.411Q150.1,6.404,150.25400000000002,6.404L150.45,6.404Q150.534,6.446,150.625,6.635Q150.716,6.824,150.716,6.95L150.674,7.006Q150.338,6.978,150.01600000000002,6.985Q149.69400000000002,6.992,149.386,7.02Q149.064,7.048,148.74200000000002,7.069Q148.42000000000002,7.09,148.098,7.118L148.042,7.118L147.986,7.174L148.042,7.23Q148.588,7.468,149.14100000000002,7.755Q149.69400000000002,8.042,150.19799999999998,8.378Q150.268,8.42,150.296,8.462Q150.31,8.49,150.31,8.532Q150.31,8.602,150.24,8.77Q150.17000000000002,8.938,150.086,9.12Q150.03,9.218,149.995,9.295Q149.95999999999998,9.372,149.904,9.442Q149.80599999999998,9.582,149.736,9.582Q149.68,9.582,149.47,9.316Q149.26,9.05,148.987,8.735Q148.714,8.42,148.434,8.154Q148.168,7.888,147.986,7.888L147.986,8.644Q147.986,8.686,147.97899999999998,8.77Q147.97199999999998,8.854,147.958,8.966Q147.94400000000002,9.078,147.937,9.169Q147.93,9.26,147.93,9.302Q147.832,9.456,147.636,9.582Q147.524,9.638,147.454,9.708Q147.38400000000001,9.778,147.314,9.848Q147.356,9.904,147.46800000000002,9.96Q147.594,10.03,147.622,10.072L147.664,10.128L147.664,10.184Q147.51,10.296,147.37,10.492Q147.23000000000002,10.688,147.16,10.884L147.57999999999998,10.884Q147.93,10.884,148.26600000000002,10.856Q148.602,10.828,148.91,10.674L148.966,10.674Q149.232,10.786,149.498,10.947Q149.764,11.108,149.988,11.276Q149.75,11.5,149.561,11.794Q149.372,12.088,149.21800000000002,12.41Q149.05,12.732,148.882,13.047Q148.714,13.362,148.50400000000002,13.628L148.50400000000002,13.684Q148.56,13.712,148.63,13.74Q148.7,13.768,148.812,13.796L149.288,13.978L149.75,14.16Q149.862,14.202,149.93200000000002,14.23Q150.002,14.258,150.04399999999998,14.286L150.156,14.328Q150.156,14.384,150.1,14.44Q150.04399999999998,14.496,150.04399999999998,14.552L149.974,14.678Q149.93200000000002,14.776,149.869,14.881Q149.80599999999998,14.986,149.75,15.056L149.69400000000002,15.196L149.69400000000002,15.252Q149.77800000000002,15.252,149.974,15.098L150.19799999999998,14.888L150.324,14.762Q150.36599999999999,14.72,150.40800000000002,14.678Q150.45,14.636,150.478,14.58L150.716,14.328Q150.772,14.272,150.89100000000002,14.125Q151.01,13.978,151.136,13.824L151.36,13.53Q151.43,13.404,151.486,13.348L151.724,12.984Q151.878,12.774,152.00400000000002,12.571Q152.13,12.368,152.228,12.214Q152.284,12.144,152.298,12.095Q152.312,12.046,152.312,12.032L152.312,11.934L151.29000000000002,9.078Q151.248,9.008,151.262,8.994Q151.262,8.98,151.178,8.98Q151.15,8.98,151.066,9.092Q150.96800000000002,9.218,150.87,9.4Q150.772,9.582,150.66,9.792Q150.534,10.016,150.429,10.198Q150.324,10.38,150.25400000000002,10.492Q150.17000000000002,10.618,150.156,10.618Q150.072,10.618,149.981,10.548Q149.89,10.478,149.89,10.394ZM151.486,8.322Q151.57,8.364,151.612,8.441Q151.654,8.518,151.696,8.588L151.878,9.008Q151.94799999999998,9.162,152.018,9.316Q152.088,9.47,152.15800000000002,9.624Q152.228,9.792,152.298,9.946Q152.368,10.1,152.438,10.254Q152.50799999999998,10.408,152.55,10.506Q152.59199999999998,10.604,152.62,10.674Q152.676,10.73,152.732,10.856Q152.80200000000002,11.024,152.82999999999998,11.052L153.334,9.428Q153.45999999999998,8.994,153.558,8.581Q153.656,8.168,153.69799999999998,7.776Q153.69799999999998,7.734,153.70499999999998,7.643Q153.712,7.552,153.74,7.44L153.768,7.244L153.81,7.118L153.236,7.118L152.732,7.146Q152.564,7.16,152.41,7.167Q152.256,7.174,152.214,7.174Q152.018,7.174,151.913,7.286Q151.808,7.398,151.738,7.566L151.612,7.93Q151.57,8.126,151.486,8.322ZM146.642,11.654L146.012,12.69L146.012,12.746L146.06799999999998,12.802L146.292,12.886L146.67000000000002,13.012Q146.86599999999999,13.096,147.027,13.159Q147.188,13.222,147.25799999999998,13.236Q147.286,13.25,147.349,13.271Q147.412,13.292,147.46800000000002,13.292L147.524,13.292L147.57999999999998,13.236L148.56,11.542L148.56,11.43Q148.20999999999998,11.43,147.881,11.437Q147.55200000000002,11.444,147.202,11.486Q147.132,11.486,147.062,11.493Q146.99200000000002,11.5,146.922,11.514L146.74,11.542L146.642,11.654ZM144.738,4.332Q144.738,4.248,144.808,4.171Q144.878,4.094,144.934,4.052Q145.368,4.416,145.753,4.822Q146.138,5.228,146.53,5.634L146.53,5.69Q146.53,5.774,146.439,5.914Q146.348,6.054,146.236,6.18Q146.096,6.32,145.97,6.418Q145.844,6.516,145.774,6.516L145.71800000000002,6.46L144.79399999999998,4.486Q144.79399999999998,4.472,144.76600000000002,4.388L144.738,4.332ZM175.006,9.82Q175.09,9.722,175.25799999999998,9.47Q175.426,9.218,175.622,8.938Q175.81799999999998,8.658,175.97199999999998,8.42Q176.126,8.182,176.196,8.07Q176.28,7.972,176.406,7.748Q176.53199999999998,7.524,176.65800000000002,7.286Q176.812,7.048,176.89600000000002,6.852L177.022,6.6L178.36599999999999,3.422L179.598,4.08L179.598,4.136L179.44400000000002,4.248Q179.416,4.262,179.39499999999998,4.29Q179.374,4.318,179.31799999999998,4.374Q179.22,4.472,179.178,4.528Q179.136,4.584,179.066,4.738L178.73000000000002,5.382Q178.702,5.466,178.674,5.522Q178.64600000000002,5.578,178.618,5.606Q178.60399999999998,5.634,178.60399999999998,5.648Q178.60399999999998,5.662,178.59,5.676L178.562,5.774L178.562,5.83Q180.046,5.704,181.53,5.662Q182.286,5.648,183.035,5.62Q183.784,5.592,184.54000000000002,5.55Q184.69400000000002,5.55,184.89,5.438Q185.04399999999998,5.34,185.114,5.34L186.36,6.208L186.402,6.264L186.36,6.32Q186.276,6.348,186.213,6.376Q186.15,6.404,186.094,6.418Q185.982,6.446,185.88400000000001,6.488Q185.786,6.53,185.702,6.6Q185.618,6.656,185.478,6.81Q185.464,6.824,185.45,6.852Q185.436,6.88,185.40800000000002,6.908L185.296,7.048Q185.268,7.09,185.24,7.132Q185.212,7.174,185.184,7.202L185.114,7.3Q184.848,7.636,184.575,7.986Q184.30200000000002,8.336,183.98000000000002,8.616L183.924,8.616Q183.85399999999998,8.616,183.791,8.574Q183.728,8.532,183.728,8.448Q183.728,8.378,183.735,8.35Q183.74200000000002,8.322,183.784,8.238L183.938,7.846Q183.994,7.706,184.05,7.552Q184.106,7.398,184.176,7.244Q184.288,6.922,184.4,6.649Q184.512,6.376,184.54000000000002,6.264Q184.54000000000002,6.18,184.49099999999999,6.166Q184.442,6.152,184.4,6.152Q183.26600000000002,6.152,182.132,6.236Q181.54399999999998,6.292,180.98399999999998,6.32Q180.424,6.348,179.864,6.376Q179.668,6.376,179.47199999999998,6.376Q179.276,6.376,179.066,6.362Q178.66,6.348,178.25400000000002,6.432Q178.212,6.432,178.1,6.544Q177.54000000000002,7.524,176.84699999999998,8.392Q176.154,9.26,175.37,10.1L175.314,10.1Q175.23000000000002,10.1,175.118,10.03Q175.006,9.96,175.006,9.876L175.006,9.82ZM180.368,14.748Q180.48000000000002,14.748,180.48000000000002,14.692L180.48000000000002,7.09Q180.59199999999998,7.09,180.80200000000002,7.139Q181.012,7.188,181.208,7.258L181.558,7.384Q181.712,7.454,181.712,7.468L181.712,7.524Q181.712,7.566,181.67000000000002,7.664Q181.614,7.762,181.614,7.79L181.614,14.958Q181.614,15.28,181.453,15.539Q181.292,15.798,181.096,16.036L180.788,16.372L180.578,16.316L180.50799999999998,16.232Q180.438,16.162,180.375,16.092Q180.312,16.022,180.24200000000002,15.952L180.15800000000002,15.882Q180.088,15.798,179.76600000000002,15.637Q179.44400000000002,15.476,179.07999999999998,15.308L178.156,14.902Q178.156,14.804,178.212,14.678Q178.25400000000002,14.552,178.25400000000002,14.468L178.31,14.468Q178.828,14.468,179.346,14.608Q179.85,14.748,180.368,14.748ZM178.31,8.994L179.346,9.82L179.346,9.876L179.248,9.974L179.122,10.128L178.96800000000002,10.296L178.88400000000001,10.422L178.73000000000002,10.632L178.464,10.996Q178.394,11.108,178.317,11.213Q178.24,11.318,178.156,11.43L177.834,11.85Q177.764,11.962,177.701,12.046Q177.638,12.13,177.582,12.2L177.428,12.396Q176.924,13.068,176.287,13.719Q175.65,14.37,175.062,14.958L175.006,14.958Q174.936,14.958,174.85899999999998,14.888Q174.78199999999998,14.818,174.74,14.748L174.74,14.692Q176.812,12.13,178.212,9.106L178.31,8.994ZM182.748,9.498L182.804,9.442Q182.832,9.4,182.916,9.33Q182.97199999999998,9.302,183,9.274Q183.02800000000002,9.246,183.05599999999998,9.218Q183.56,9.75,184.05,10.282Q184.54000000000002,10.814,185.002,11.402Q185.072,11.472,185.219,11.64Q185.36599999999999,11.808,185.548,12.018Q185.73000000000002,12.228,185.91899999999998,12.473Q186.108,12.718,186.262,12.928Q186.346,13.04,186.409,13.131Q186.47199999999998,13.222,186.52800000000002,13.306Q186.626,13.46,186.626,13.544Q186.626,13.67,186.47199999999998,13.803Q186.31799999999998,13.936,186.122,14.09Q186.01,14.16,185.912,14.251Q185.814,14.342,185.744,14.412L185.576,14.58L185.226,13.81L183.322,10.478L183.26600000000002,10.422L183.20999999999998,10.31Q183.196,10.282,183.175,10.247Q183.154,10.212,183.126,10.156Q183.05599999999998,10.044,182.986,9.925Q182.916,9.806,182.846,9.694Q182.804,9.638,182.78300000000002,9.603Q182.762,9.568,182.748,9.54L182.748,9.498ZM215.004,7.664Q215.032,7.3,215.039,6.929Q215.046,6.558,215.046,6.18Q215.172,6.18,215.256,6.187Q215.34,6.194,215.466,6.236L215.662,6.306Q215.774,6.348,215.886,6.39Q215.998,6.432,216.138,6.46L216.18,6.516Q216.18,6.544,216.173,6.572Q216.166,6.6,216.138,6.656Q216.082,6.754,216.082,6.782Q216.082,6.81,216.054,6.894L216.026,6.95L216.026,7.608Q216.348,7.608,216.628,7.552Q216.894,7.496,217.216,7.496Q217.328,7.58,217.454,7.762Q217.58,7.944,217.58,8.098L217.524,8.154L217.048,8.182Q216.894,8.196,216.747,8.203Q216.6,8.21,216.544,8.21L216.39,8.21Q216.348,8.21,216.299,8.217Q216.25,8.224,216.18,8.238L216.026,8.266L216.026,12.802Q216.334,12.76,216.698,12.725Q217.062,12.69,217.426,12.69L217.58,12.69Q217.58,12.746,217.636,12.802Q217.692,12.886,217.755,12.984Q217.818,13.082,217.846,13.166Q217.888,13.278,217.888,13.348Q216.978,13.348,216.089,13.376Q215.2,13.404,214.304,13.46Q213.394,13.516,212.505,13.544Q211.616,13.572,210.72,13.572L210.342,13.572Q210.272,13.53,210.237,13.341Q210.202,13.152,210.202,13.082Q210.202,13.04,210.216,13.005Q210.23,12.97,210.314,12.97L210.776,12.97Q210.888,12.97,211.056,12.963Q211.224,12.956,211.378,12.942L211.742,12.914L211.798,12.746L211.798,8.49L211.742,8.434L211.504,8.462Q211.406,8.476,211.336,8.483Q211.266,8.49,211.238,8.49L210.86,8.49L210.72,8.532Q210.678,8.518,210.657,8.448Q210.636,8.378,210.622,8.28Q210.608,8.224,210.608,8.112L210.608,7.93Q210.846,7.818,211.182,7.846Q211.35,7.86,211.504,7.86Q211.658,7.86,211.798,7.832L211.798,6.404Q211.952,6.404,212.092,6.453Q212.232,6.502,212.358,6.572Q212.484,6.642,212.61,6.691Q212.736,6.74,212.89,6.74L212.89,6.894L212.834,7.062L212.834,7.776L213.366,7.776Q213.646,7.79,213.94,7.783Q214.234,7.776,214.514,7.748Q214.766,7.734,215.004,7.664ZM207.304,3.618Q207.332,3.59,207.36,3.562Q207.388,3.534,207.416,3.478Q207.444,3.422,207.472,3.394Q207.5,3.366,207.528,3.338L207.556,3.338Q207.598,3.338,207.64,3.345Q207.682,3.352,207.724,3.394L208.746,4.486L208.83,4.584Q208.9,4.654,208.942,4.738Q209.012,4.836,209.075,4.913Q209.138,4.99,209.18,5.032Q209.18,5.172,209.264,5.2L209.264,5.256L209.208,5.312Q209.194,5.34,209.04,5.452L208.858,5.578L208.704,5.718Q208.662,5.788,208.606,5.802L208.606,5.914Q208.802,5.914,208.984,5.907Q209.166,5.9,209.362,5.886Q209.544,5.872,209.726,5.865Q209.908,5.858,210.104,5.858L210.454,5.858Q210.566,5.9,210.692,6.068Q210.79,6.236,210.86,6.236Q210.902,6.152,210.993,5.963Q211.084,5.774,211.21,5.55Q211.322,5.34,211.413,5.151Q211.504,4.962,211.532,4.878L211.63,4.654Q211.658,4.57,211.7,4.479Q211.742,4.388,211.77,4.276L211.924,3.884L211.994,3.674L212.05,3.562L212.106,3.506L213.142,4.052L213.184,4.108Q212.918,4.346,212.673,4.696Q212.428,5.046,212.316,5.368L212.428,5.368Q212.988,5.368,213.548,5.333Q214.108,5.298,214.696,5.228Q215.284,5.158,215.851,5.123Q216.418,5.088,217.006,5.088Q217.16,5.088,217.293,5.284Q217.426,5.48,217.426,5.634L217.426,5.69Q216.992,5.816,216.446,5.788Q216.18,5.774,215.935,5.774Q215.69,5.774,215.466,5.802Q215.018,5.83,214.57,5.844Q214.122,5.858,213.674,5.872Q213.226,5.886,212.792,5.921Q212.358,5.956,211.91,6.026L211.798,6.138L211.266,6.866L210.72,7.608L210.51,7.832L210.356,7.972Q210.328,8.028,210.258,8.098L210.146,8.154Q209.964,8.154,209.88,7.986Q210.146,7.734,210.328,7.328Q210.398,7.132,210.482,6.957Q210.566,6.782,210.664,6.628L210.72,6.516L210.664,6.46L210.048,6.46Q209.936,6.46,209.663,6.467Q209.39,6.474,209.089,6.488Q208.788,6.502,208.515,6.523Q208.242,6.544,208.13,6.572L208.13,6.838Q208.116,6.936,208.116,7.027Q208.116,7.118,208.116,7.216Q208.102,7.328,208.102,7.419Q208.102,7.51,208.102,7.608Q208.088,7.706,208.088,7.776Q208.088,7.846,208.088,7.888L208.088,8.49Q208.242,8.49,208.382,8.483Q208.522,8.476,208.676,8.462Q208.816,8.448,208.949,8.441Q209.082,8.434,209.208,8.434L209.32,8.434L210.314,8.7L210.342,8.756Q210.216,8.938,210.167,9.169Q210.118,9.4,210.104,9.638L210.104,10.562L210.062,11.766Q210.048,12.494,209.971,13.222Q209.894,13.95,209.74,14.622Q209.586,15.252,209.264,15.63L209.152,15.784Q209.082,15.854,209.012,15.854L208.956,15.854Q208.942,15.84,208.802,15.714Q208.676,15.616,208.662,15.574Q208.55,15.49,208.312,15.364Q208.074,15.238,207.836,15.112Q207.71,15.042,207.605,15Q207.5,14.958,207.402,14.902Q207.206,14.79,207.206,14.776L207.206,14.328Q207.206,14.286,207.234,14.258L207.262,14.23L208.606,14.552L208.746,14.552Q208.746,14.44,208.767,14.349Q208.788,14.258,208.816,14.16L208.858,14.006Q209.054,12.858,209.117,11.654Q209.18,10.45,209.18,9.302L209.18,9.134L209.124,9.078L208.914,9.078Q208.676,9.078,208.501,9.085Q208.326,9.092,208.088,9.134L208.032,9.19L208.032,9.246Q208.004,9.834,207.948,10.366Q207.892,10.898,207.78,11.486Q207.5,12.844,207.024,14.048Q206.548,15.252,205.708,16.344L205.666,16.4L205.358,16.232L205.358,16.176Q205.862,15.168,206.205,14.069Q206.548,12.97,206.744,11.822L206.744,11.766Q206.744,11.71,206.779,11.493Q206.814,11.276,206.842,11.024L206.926,10.562Q206.94,10.45,206.947,10.38Q206.954,10.31,206.954,10.282Q207.066,9.358,207.08,8.455Q207.094,7.552,207.094,6.628L205.764,6.628L205.708,6.572L205.61,6.32Q205.582,6.25,205.554,6.138L205.61,6.082L205.918,6.054Q206.058,6.04,206.191,6.033Q206.324,6.026,206.436,6.026L206.772,6.026Q207.052,6.026,207.381,6.005Q207.71,5.984,207.99,5.956Q208.256,5.942,208.284,5.858Q208.2,5.564,208.081,5.284Q207.962,5.004,207.836,4.738L207.304,3.674L207.304,3.618ZM214.43,14.006Q214.43,13.88,214.5,13.81Q214.57,13.74,214.64,13.74Q214.766,13.74,214.892,13.796Q215.046,13.852,215.144,13.894Q215.242,13.936,215.368,14.006L215.62,14.132L215.858,14.258L215.97,14.328Q216.138,14.44,216.411,14.608Q216.684,14.776,216.922,14.93Q217.076,15.014,217.223,15.105Q217.37,15.196,217.524,15.308L217.524,15.518L217.454,15.672L217.286,16.134Q217.258,16.19,217.244,16.225Q217.23,16.26,217.216,16.288Q217.216,16.33,217.181,16.421Q217.146,16.512,217.104,16.512L217.062,16.512Q216.908,16.428,216.768,16.295Q216.628,16.162,216.488,16.008L216.222,15.714Q216.152,15.644,216.096,15.588Q216.04,15.532,215.97,15.476Q215.942,15.462,215.816,15.336Q215.746,15.266,215.676,15.196Q215.606,15.126,215.536,15.056L215.102,14.664L215.004,14.552Q214.948,14.524,214.878,14.454Q214.808,14.384,214.717,14.307Q214.626,14.23,214.542,14.16Q214.458,14.076,214.43,14.062L214.43,14.006ZM209.74,16.232Q210.566,15.7,211.287,15.049Q212.008,14.398,212.68,13.684L212.722,13.684L213.506,14.496L213.45,14.552Q213.422,14.552,213.296,14.636Q213.17,14.72,213.142,14.72L212.876,14.902Q212.764,14.972,212.645,15.042Q212.526,15.112,212.4,15.196L211.924,15.504L211.644,15.686Q211.588,15.714,211.511,15.763Q211.434,15.812,211.294,15.882L210.776,16.176Q210.622,16.246,210.496,16.323Q210.37,16.4,210.244,16.47L209.88,16.666Q209.81,16.638,209.775,16.505Q209.74,16.372,209.74,16.288L209.74,16.232ZM212.834,12.914Q213.296,12.914,213.765,12.907Q214.234,12.9,214.696,12.858Q214.724,12.858,214.766,12.851Q214.808,12.844,214.878,12.83L215.004,12.802L215.004,11.71L214.948,11.654L214.64,11.654Q214.528,11.654,214.241,11.654Q213.954,11.654,213.632,11.682L213.086,11.724Q212.834,11.738,212.834,11.766L212.834,12.914ZM212.834,9.47Q213.114,9.47,213.38,9.456Q213.646,9.442,213.912,9.414Q214.192,9.386,214.458,9.372Q214.724,9.358,215.004,9.358L215.004,8.322Q214.486,8.322,213.989,8.329Q213.492,8.336,212.988,8.378Q212.946,8.378,212.89,8.406L212.834,8.434L212.834,9.47ZM212.834,11.108Q213.114,11.108,213.38,11.094Q213.646,11.08,213.884,11.052Q214.388,11.01,214.948,11.052L215.004,10.996L215.004,9.96L214.22,9.96L213.786,9.988Q213.632,10.002,213.506,10.009Q213.38,10.016,213.352,10.016L213.296,10.016Q213.226,10.016,213.149,10.023Q213.072,10.03,213.002,10.044L212.834,10.072L212.834,11.108ZM236.564,5.186Q237.362,5.116,238.118,5.081Q238.874,5.046,239.644,5.018Q241.156,4.99,242.549,4.906Q243.942,4.822,245.216,4.724Q246.448,4.64,247.75,4.64L248.072,4.64Q248.114,4.654,248.149,4.731Q248.184,4.808,248.219,4.906Q248.254,5.004,248.275,5.109Q248.296,5.214,248.296,5.27L248.296,5.326Q247.246,5.396,246.175,5.466Q245.104,5.536,244.04,5.578L243.704,5.578Q243.466,5.578,243.228,5.585Q242.99,5.592,242.822,5.62Q242.654,5.648,242.654,5.69L242.654,7.72L242.71,7.776Q242.906,7.902,243.123,8.035Q243.34,8.168,243.564,8.266L247.148,10.562L247.19,10.618L247.19,10.674Q246.812,11.248,246.574,11.822L246.476,11.822Q246.42,11.794,246.308,11.682Q246.196,11.57,246.168,11.542Q246.154,11.542,246.035,11.437Q245.916,11.332,245.734,11.164Q245.552,10.996,245.314,10.779Q245.076,10.562,244.838,10.352L243.55,9.204L242.71,8.546L242.654,16.232Q242.654,16.26,242.5,16.33Q242.346,16.386,242.15,16.442Q241.954,16.498,241.786,16.526Q241.59,16.568,241.576,16.568L241.576,5.746Q239.14,5.746,236.704,5.914L236.676,5.858Q236.648,5.76,236.627,5.578Q236.606,5.396,236.606,5.312L236.564,5.242L236.564,5.186ZM71.65799,37.73L71.96599,37.394L73.88399,39.032L74.13598999999999,39.312L74.13598999999999,39.368Q74.13598999999999,39.452,74.06599,39.571Q73.99599,39.69,73.88399,39.816Q73.77199,39.942,73.66699,40.04Q73.56199,40.138,73.50599,40.18L74.02399,40.18Q74.55599,40.18,75.09499,40.152Q75.63399,40.124,76.18,40.068Q76.726,40.012,77.272,39.991Q77.818,39.97,78.364,39.97L78.574,39.97Q78.644,40.054,78.784,40.229Q78.924,40.404,78.924,40.572L78.868,40.628L78.84,40.628Q78.014,40.67,77.188,40.67Q76.768,40.67,76.355,40.698Q75.94199,40.726,75.53599,40.782L75.57799,40.838Q75.59199,40.852,75.61299,40.88Q75.63399,40.908,75.70399,40.936L76.222,41.244L76.348,41.328L76.404,41.384Q76.292,41.468,76.208,41.587Q76.124,41.706,76.054,41.832Q75.61999,42.896,75.10899,43.96Q74.59799,45.024,73.88399,45.99Q74.23399,46.354,74.52799,46.634Q74.83599,46.928,75.26299,47.32Q75.68999,47.712,76.138,48.076Q76.6,48.44,77.076,48.713Q77.55199999999999,48.986,78.084,49.182Q78.574,49.364,79.19,49.476L79.19,50.022L79.092,50.064L78.49,50.092Q78.252,50.106,78,50.113Q77.748,50.12,77.594,50.12L76.46000000000001,50.12L73.26799,46.858L73.21199,46.858Q73.01599,47.04,72.86899,47.187Q72.72199,47.334,72.56799,47.46Q72.49799,47.53,72.43499,47.586Q72.37199,47.642,72.32999,47.684L72.27399,47.74Q71.18199,48.636,69.99899,49.28Q68.81599,49.924,67.52799,50.456Q67.40199,50.498,67.42999,50.498Q67.44399,50.512,67.31799,50.512Q67.20599,50.512,67.16399,50.379Q67.12199,50.246,67.12199,50.12L67.12199,50.064Q67.87799,49.7,68.60599,49.28Q69.33399,48.86,70.00599,48.328Q70.32799,48.09,70.67799,47.803Q71.02799,47.516,71.37799,47.208Q71.72799,46.914,72.03599,46.585Q72.34399,46.256,72.58199,45.934Q71.75599,44.884,71.06999,43.778Q70.38399,42.672,69.75399,41.496Q69.75399,41.412,69.80999,41.356Q69.87999,41.314,69.94999,41.258Q70.01999,41.202,70.08999,41.146Q70.15999,41.076,70.15999,41.006Q69.85199,41.006,69.54399,41.02Q69.23599,41.034,68.92799,41.062Q68.61999,41.09,68.31199,41.104Q68.00399,41.118,67.68199,41.118Q67.62599,41.118,67.59799,41.048Q67.58399,41.006,67.52799,40.95L67.49999,40.852L67.44399,40.698Q67.44399,40.67,67.42999,40.628Q67.41599,40.586,67.40199,40.558L67.37399,40.46Q68.35399,40.502,69.36199,40.418Q70.35599,40.334,71.34999,40.292L71.74199,40.292Q72.00799,40.306,72.27399,40.299Q72.53999,40.292,72.77799,40.264Q73.01599,40.236,73.09999,40.18L73.04399,40.082L71.65799,37.73ZM70.25799,41.006Q70.25799,41.048,70.32099,41.146Q70.38399,41.244,70.42599,41.286Q71.05599,42.308,71.69299,43.288Q72.32999,44.268,73.15599,45.108L73.26799,44.996Q73.26799,44.968,73.36599,44.828L73.75799,44.114Q73.86999,43.918,73.91899,43.827Q73.96799,43.736,74.03799000000001,43.582L74.31799,42.994L74.40199,42.812Q74.47199,42.63,74.58399,42.329Q74.69599,42.028,74.79399000000001,41.734Q74.84999,41.594,74.88499,41.475Q74.91999,41.356,74.94799,41.244L75.01799,41.006L75.01799,40.782Q74.40199,40.782,73.80699,40.81Q73.21199,40.838,72.60999,40.894Q72.02199,40.95,71.43399,40.978Q70.84599,41.006,70.25799,41.006ZM104.11,44.352L104.11,43.862Q104.11,43.75,104.11,43.561Q104.11,43.372,104.124,43.134L104.124,42.056Q104.124,41.748,104.124,41.433Q104.124,41.118,104.138,40.782Q104.152,40.46,104.152,40.145Q104.152,39.83,104.152,39.522L104.152,37.73L104.306,37.73L105.244,38.01L105.286,38.052L105.286,38.108Q105.286,38.192,105.244,38.36L105.202,38.514Q105.188,38.57,105.188,38.612L105.188,43.414Q105.958,42.644,106.65100000000001,41.79Q107.344,40.936,107.97399999999999,39.97L108.01599999999999,39.914L108.49199999999999,40.348Q108.618,40.502,108.77199999999999,40.628Q108.856,40.74,108.95400000000001,40.796L109.05199999999999,40.908L108.548,41.174Q108.422,41.314,108.114,41.657Q107.806,42,107.44200000000001,42.364Q107.078,42.742,106.763,43.071Q106.44800000000001,43.4,106.322,43.526Q106.294,43.554,106.259,43.589Q106.22399999999999,43.624,106.154,43.68L105.86,43.932Q105.706,44.086,105.566,44.184L105.384,44.352L105.188,44.562L105.188,48.398Q105.188,48.678,105.321,48.818Q105.45400000000001,48.958,105.65,49Q105.846,49.07,106.07,49.042L107.148,49.042L107.624,49.014Q107.77799999999999,49,107.904,49Q108.03,49,108.072,49L108.338,49Q108.52000000000001,49,108.548,48.895Q108.576,48.79,108.59,48.72L108.59,48.482Q108.576,48.44,108.576,48.286Q108.618,47.796,108.695,47.271Q108.77199999999999,46.746,108.842,46.256Q108.884,46.186,108.961,46.172Q109.038,46.158,109.108,46.158Q109.304,46.158,109.388,46.34Q109.47200000000001,46.522,109.5,46.76Q109.52799999999999,47.012,109.5,47.25Q109.48599999999999,47.376,109.479,47.467Q109.47200000000001,47.558,109.47200000000001,47.628Q109.47200000000001,47.908,109.535,48.258Q109.598,48.608,109.668,48.888Q109.696,48.972,109.75200000000001,49.028Q109.878,49.224,109.976,49.434Q110.032,49.532,110.032,49.588Q110.032,49.728,109.80799999999999,49.826Q109.584,49.924,109.304,49.98Q109.024,50.036,108.751,50.057Q108.47800000000001,50.078,108.38,50.078L108.25399999999999,50.078L108.00200000000001,50.106Q107.932,50.12,107.869,50.12Q107.806,50.12,107.73599999999999,50.12Q107.666,50.134,107.64500000000001,50.134Q107.624,50.134,107.61,50.134L105.286,50.134Q105.076,50.12,104.866,50.008Q104.656,49.896,104.50200000000001,49.728Q104.348,49.56,104.25,49.343Q104.152,49.126,104.152,48.888L104.152,45.388L101.464,47.026L101.408,47.026L101.31,46.872Q101.212,46.774,101.212,46.704Q101.226,46.676,101.35900000000001,46.564Q101.49199999999999,46.452,101.681,46.298Q101.87,46.144,102.108,45.955Q102.346,45.766,102.598,45.57Q103.172,45.108,103.9,44.562L104.11,44.352ZM97.55799999999999,45.164L99.672,41.664Q99.952,41.188,100.155,40.677Q100.358,40.166,100.554,39.634Q100.75,39.102,100.939,38.598Q101.128,38.094,101.366,37.618L102.654,38.332Q102.654,38.374,102.598,38.416L102.47200000000001,38.528Q102.444,38.556,102.402,38.577Q102.36,38.598,102.332,38.626Q102.27600000000001,38.654,102.24799999999999,38.71L100.53999999999999,41.888L100.53999999999999,41.944Q100.53999999999999,41.986,100.68,42.021Q100.82,42.056,100.862,42.056L101.00200000000001,42.084Q101.072,42.098,101.1,42.105Q101.128,42.112,101.156,42.112L101.156,42.154Q101.156,42.252,101.114,42.35Q101.086,42.42,101.05799999999999,42.476Q101.03,42.532,101.00200000000001,42.602L101.00200000000001,48.72Q101.00200000000001,48.832,100.995,49.07Q100.988,49.308,100.97399999999999,49.588L100.946,50.456L100.456,50.582Q100.176,50.68,99.924,50.68L99.924,42.924L99.868,42.98Q99.826,43.022,99.679,43.218Q99.532,43.414,99.378,43.638Q99.22399999999999,43.862,99.077,44.058Q98.93,44.254,98.888,44.296Q98.69200000000001,44.59,98.37,44.912Q98.21600000000001,45.066,98.076,45.206Q97.936,45.346,97.81,45.5L97.754,45.5Q97.67,45.5,97.614,45.402Q97.55799999999999,45.304,97.55799999999999,45.22L97.55799999999999,45.164ZM130.07999999999998,42.7Q131.144,42.616,132.14499999999998,42.567Q133.14600000000002,42.518,134.20999999999998,42.49Q134.84,42.448,135.449,42.406Q136.058,42.364,136.688,42.154L136.786,42.154L136.954,42.322Q137.01,42.378,137.164,42.476L137.458,42.7L137.976,43.078L138.03199999999998,43.19Q137.962,43.232,137.85,43.253Q137.738,43.274,137.598,43.302Q137.458,43.33,137.31799999999998,43.351Q137.178,43.372,137.108,43.414Q136.548,43.652,136.072,43.988Q135.596,44.324,135.09199999999998,44.73Q134.966,44.814,134.69299999999998,45.038Q134.42000000000002,45.262,134.112,45.542L133.524,46.074L133.132,46.424Q132.978,46.592,132.726,46.83Q132.446,47.068,132.18,47.334Q131.914,47.6,131.69,47.852Q131.466,48.146,131.424,48.328Q131.39600000000002,48.454,131.55700000000002,48.559Q131.71800000000002,48.664,131.914,48.734Q132.11,48.804,132.299,48.846Q132.488,48.888,132.558,48.888L135.596,48.888L136.702,48.86Q137.066,48.846,137.381,48.839Q137.696,48.832,137.76600000000002,48.832Q137.892,48.832,138.018,48.832Q138.144,48.832,138.256,48.846Q138.494,48.874,138.662,48.818Q138.82999999999998,48.762,138.914,48.594Q138.998,48.426,138.95600000000002,48.062L139.012,47.712Q139.054,47.46,139.089,47.18Q139.124,46.9,139.166,46.648Q139.19400000000002,46.41,139.215,46.305Q139.236,46.2,139.264,46.102Q139.27800000000002,46.06,139.292,46.018Q139.30599999999998,45.976,139.30599999999998,45.948Q139.334,45.878,139.362,45.878L139.74,45.878L139.74,46.732Q139.726,47.166,139.75400000000002,47.586Q139.78199999999998,48.006,139.86599999999999,48.412Q139.90800000000002,48.608,139.971,48.804Q140.034,49,140.14600000000002,49.196L140.244,49.364Q140.25799999999998,49.504,140.09699999999998,49.602Q139.936,49.7,139.712,49.756Q139.474,49.812,139.27100000000002,49.833Q139.06799999999998,49.854,139.012,49.854Q138.97,49.854,138.87900000000002,49.861Q138.788,49.868,138.676,49.882L138.34,49.91L132.25,49.91Q131.9,49.854,131.564,49.791Q131.228,49.728,130.94799999999998,49.574Q130.668,49.42,130.507,49.161Q130.346,48.902,130.346,48.44Q130.346,48.188,130.493,47.915Q130.64,47.642,130.836,47.376Q131.03199999999998,47.124,131.256,46.9Q131.48000000000002,46.676,131.63400000000001,46.536L135.4,43.134L135.45600000000002,43.078L134.938,43.078Q134.364,43.078,133.81799999999998,43.106Q133.272,43.134,132.726,43.19Q132.18,43.246,131.63400000000001,43.274Q131.088,43.302,130.542,43.302L130.29000000000002,43.302Q130.248,43.218,130.164,43.029Q130.07999999999998,42.84,130.07999999999998,42.756L130.07999999999998,42.7ZM135.946,38.654Q135.95999999999998,38.374,135.96699999999998,38.129Q135.974,37.884,135.974,37.786L135.974,37.618Q136.04399999999998,37.618,136.219,37.639Q136.394,37.66,136.59,37.702Q136.786,37.758,136.91899999999998,37.828Q137.05200000000002,37.898,137.05200000000002,37.996Q137.05200000000002,38.178,137.038,38.36Q137.024,38.542,136.99599999999998,38.738Q136.954,39.116,136.954,39.48Q138.59199999999998,39.48,140.14600000000002,39.312Q140.16,39.326,140.174,39.354Q140.188,39.382,140.216,39.41Q140.244,39.48,140.3,39.571Q140.356,39.662,140.398,39.76L140.454,39.914L140.454,39.97Q139.586,40.054,138.732,40.054Q137.85,40.054,136.99599999999998,40.138Q136.99599999999998,40.194,136.989,40.348Q136.982,40.502,136.982,40.67L136.954,41.23L136.954,41.608L136.898,41.72L136.688,41.776Q136.66,41.776,136.562,41.832Q136.464,41.888,136.436,41.888Q136.296,41.944,136.268,41.972Q136.25400000000002,41.986,136.114,41.986Q136.072,42,136.023,41.993Q135.974,41.986,135.974,41.93L135.974,40.18L135.344,40.18Q134.798,40.194,134.336,40.222Q133.94400000000002,40.25,133.608,40.278Q133.272,40.306,133.244,40.348Q133.244,40.432,133.237,40.635Q133.23000000000002,40.838,133.216,41.062Q133.202,41.286,133.195,41.489Q133.188,41.692,133.188,41.776L133.188,41.832L132.404,42.098L132.19400000000002,42.098L132.19400000000002,40.348Q131.82999999999998,40.348,131.473,40.362Q131.11599999999999,40.376,130.76600000000002,40.404Q130.416,40.432,130.066,40.446Q129.716,40.46,129.36599999999999,40.46L129.1,40.46L129.04399999999998,40.404L128.946,39.914Q128.946,39.872,129.142,39.844Q129.338,39.816,129.59,39.809Q129.84199999999998,39.802,130.108,39.802L130.5,39.802Q130.542,39.802,130.661,39.795Q130.78,39.788,130.934,39.774L131.382,39.746L131.844,39.746Q131.872,39.746,131.928,39.739Q131.98399999999998,39.732,132.054,39.718Q132.082,39.704,132.11700000000002,39.704Q132.152,39.704,132.19400000000002,39.69L132.19400000000002,37.674L133.286,37.996L133.286,38.276L133.244,38.486Q133.244,38.612,133.237,38.801Q133.23000000000002,38.99,133.216,39.158L133.188,39.578L133.244,39.634L133.482,39.634Q134.112,39.634,134.728,39.592L135.918,39.536L135.946,38.654ZM164.87,37.884L164.926,37.45L166.06,37.786L165.962,38.22L165.962,41.062Q166.522,41.062,167.075,41.034Q167.628,41.006,168.202,40.95Q168.776,40.894,169.329,40.866Q169.882,40.838,170.442,40.838L170.666,40.838Q170.77800000000002,40.922,170.869,41.104Q170.95999999999998,41.286,170.95999999999998,41.44L170.95999999999998,41.496Q170.414,41.524,169.875,41.531Q169.336,41.538,168.804,41.552Q168.25799999999998,41.566,167.719,41.594Q167.18,41.622,166.63400000000001,41.664Q166.59199999999998,41.664,166.522,41.671Q166.452,41.678,166.382,41.692L166.228,41.72L166.228,41.776Q166.228,41.818,166.34,41.972Q166.41,42.07,166.473,42.175Q166.536,42.28,166.62,42.392Q166.774,42.63,166.95600000000002,42.868Q167.138,43.106,167.25,43.246Q167.348,43.372,167.537,43.617Q167.726,43.862,167.964,44.156Q168.076,44.31,168.209,44.471Q168.34199999999998,44.632,168.46800000000002,44.8Q168.72,45.136,168.97199999999998,45.43Q169.084,45.584,169.196,45.717Q169.308,45.85,169.392,45.962Q169.574,46.214,169.672,46.312Q170.13400000000001,46.802,170.582,47.187Q171.03,47.572,171.688,47.74L171.688,47.95Q171.688,47.992,171.68099999999998,48.09Q171.674,48.188,171.632,48.23Q171.394,48.258,171.149,48.279Q170.904,48.3,170.666,48.3Q170.148,48.328,169.672,48.384L169.518,48.23L165.962,42.49L165.962,49.966Q165.962,50.092,165.822,50.176Q165.68200000000002,50.26,165.486,50.33Q165.29000000000002,50.4,165.108,50.428Q164.926,50.456,164.87,50.456L164.87,42.868L164.828,42.812L164.772,42.868Q164.25400000000002,43.75,163.687,44.569Q163.12,45.388,162.49,46.172Q161.832,46.956,161.118,47.642Q160.404,48.328,159.564,48.888L159.466,48.93L159.41,48.93L159.15800000000002,48.664Q159.886,47.95,160.59300000000002,47.159Q161.3,46.368,161.94400000000002,45.514Q162.574,44.66,163.127,43.736Q163.68,42.812,164.114,41.832L163.582,41.832Q162.798,41.832,162.042,41.874Q161.65,41.902,161.265,41.916Q160.88,41.93,160.488,41.93L160.236,41.93Q160.138,41.832,160.138,41.776Q160.138,41.776,160.11,41.692L160.054,41.552L159.998,41.412Q159.97,41.328,159.97,41.328Q160.6,41.3,161.209,41.279Q161.81799999999998,41.258,162.44799999999998,41.258Q163.064,41.272,163.666,41.23Q164.268,41.188,164.87,41.118L164.87,37.884ZM167.04000000000002,38.43Q167.04000000000002,38.402,167.124,38.283Q167.208,38.164,167.25,38.164Q167.334,38.164,167.51600000000002,38.248Q167.69799999999998,38.332,167.936,38.486Q168.174,38.64,168.426,38.815Q168.678,38.99,168.888,39.158L169.238,39.452Q169.364,39.578,169.364,39.634L169.364,39.69L169.28,39.83Q169.252,39.886,169.224,39.935Q169.196,39.984,169.168,40.04Q169.084,40.166,169.02800000000002,40.264Q168.97199999999998,40.362,168.958,40.404Q168.94400000000002,40.432,168.888,40.488L168.81799999999998,40.586L168.748,40.684L168.692,40.684Q168.636,40.544,168.566,40.432Q168.49599999999998,40.32,168.38400000000001,40.236L167.04000000000002,38.43ZM194.242,38.248Q194.732,38.248,195.201,38.227Q195.67,38.206,196.16,38.178Q196.65,38.15,197.133,38.129Q197.616,38.108,198.106,38.08L198.162,38.08Q198.19,38.052,198.225,38.024Q198.26,37.996,198.288,37.94Q198.344,37.856,198.47,37.856L198.512,37.856L199.66,38.402L199.702,38.458L199.702,38.514L199.436,38.948L199.436,42.672L199.338,42.728Q199.142,42.854,198.918,42.952Q198.694,43.05,198.47,43.05Q198.428,43.064,198.365,43.057Q198.302,43.05,198.302,42.994L198.302,42.238L196.86,42.238L196.272,42.266Q196.076,42.28,195.894,42.287Q195.712,42.294,195.684,42.294L195.25,42.294Q194.984,42.294,194.725,42.308Q194.466,42.322,194.284,42.336Q194.074,42.364,194.074,42.392L194.074,42.938Q194.074,42.98,193.934,43.036Q193.78,43.092,193.591,43.148Q193.402,43.204,193.20600000000002,43.232Q193.038,43.274,192.94,43.274L192.94,37.968L193.05200000000002,37.968Q193.07999999999998,37.982,193.122,37.996Q193.164,38.01,193.23399999999998,38.038L193.514,38.122Q193.668,38.178,193.787,38.213Q193.906,38.248,193.976,38.248L194.242,38.248ZM196.818,44.31L196.86,43.876L196.916,43.876Q197.196,43.876,197.56,44.002Q197.854,44.142,198.26,44.142Q198.316,44.142,198.414,44.142Q198.512,44.142,198.666,44.156Q198.946,44.17,199.261,44.156Q199.576,44.142,199.856,44.1Q200.122,44.058,200.22,43.932Q200.234,43.932,200.311,43.96Q200.388,43.988,200.458,44.016L200.584,44.072L200.682,44.1L200.738,44.1L201.466,44.366L201.466,44.422Q201.438,44.45,201.41,44.52Q201.382,44.59,201.354,44.66Q201.326,44.744,201.298,44.821Q201.27,44.898,201.256,44.912L201.256,49.602Q201.256,49.644,201.13,49.7Q200.878,49.812,200.57,49.882Q200.402,49.924,200.332,49.924L200.22,49.924L200.164,49.77L200.164,48.692L198.974,48.692Q198.862,48.692,198.687,48.699Q198.512,48.706,198.344,48.72L197.952,48.748L197.896,48.79L197.896,49.826L197.84,49.882L197.574,49.966L197.168,50.092Q197.14,50.092,197.028,50.12Q196.958,50.134,196.923,50.141Q196.888,50.148,196.86,50.148L196.818,49.77L196.818,44.31ZM191.078,49.658Q191.078,49.546,191.078,49.385Q191.078,49.224,191.09199999999998,49L191.09199999999998,48.02Q191.09199999999998,47.74,191.09199999999998,47.453Q191.09199999999998,47.166,191.106,46.858Q191.12,46.55,191.12,46.256Q191.12,45.962,191.12,45.682Q191.12,45.402,191.12,45.15Q191.12,44.898,191.13400000000001,44.674L191.13400000000001,44.044L191.24599999999998,44.044L192.17000000000002,44.31L192.268,44.31L192.87,44.282Q193.066,44.268,193.24099999999999,44.261Q193.416,44.254,193.458,44.254Q193.57,44.254,193.675,44.254Q193.78,44.254,193.85,44.268Q193.99,44.282,194.284,44.198L194.438,44.1L194.536,44.142L195.096,44.282Q195.376,44.352,195.628,44.478L195.628,44.534Q195.628,44.702,195.53,44.8Q195.432,44.898,195.432,45.08L195.432,49.546L195.376,49.602Q195.138,49.742,194.9,49.812L194.704,49.882Q194.634,49.882,194.592,49.896Q194.508,49.924,194.494,49.924L194.382,49.924Q194.382,49.868,194.368,49.798Q194.354,49.742,194.347,49.714Q194.34,49.686,194.34,49.658L194.34,48.748L194.284,48.692L194.074,48.692Q193.85,48.692,193.63299999999998,48.699Q193.416,48.706,193.22,48.72Q193.024,48.734,192.8,48.741Q192.576,48.748,192.324,48.748L192.268,48.748L192.212,48.79L192.212,49.77Q191.862,49.924,191.596,50.008Q191.442,50.078,191.344,50.092Q191.32999999999998,50.092,191.21800000000002,50.12Q191.162,50.134,191.13400000000001,50.141Q191.106,50.148,191.078,50.148L191.078,49.658ZM194.074,41.748Q194.13,41.748,194.256,41.741Q194.382,41.734,194.536,41.72L194.998,41.692Q195.376,41.664,195.74,41.657Q196.104,41.65,196.454,41.636Q196.804,41.622,197.168,41.615Q197.532,41.608,197.896,41.58L198.218,41.58Q198.246,41.58,198.274,41.552L198.302,41.524L198.302,38.682L198.218,38.682L197.756,38.71Q197.602,38.724,197.455,38.731Q197.308,38.738,197.28,38.738L196.916,38.738L196.398,38.766Q196.23,38.78,196.076,38.787Q195.922,38.794,195.894,38.794L195.292,38.794L195.04,38.822Q194.97,38.836,194.907,38.836Q194.844,38.836,194.774,38.836Q194.704,38.85,194.648,38.85L194.186,38.85Q194.13,38.85,194.102,38.878L194.074,38.892L194.074,41.748ZM197.896,48.09L198.68,48.09L199.142,48.062Q199.296,48.048,199.429,48.041Q199.562,48.034,199.604,48.034L199.954,48.034L200.08,48.006L200.164,47.978L200.164,44.744L200.122,44.688L199.898,44.688Q199.394,44.688,198.897,44.723Q198.4,44.758,197.896,44.8L197.896,48.09ZM192.212,48.09L192.268,48.146Q192.51999999999998,48.118,192.779,48.111Q193.038,48.104,193.31799999999998,48.09Q193.584,48.076,193.84300000000002,48.069Q194.102,48.062,194.34,48.034L194.34,44.856L193.20600000000002,44.856L192.772,44.884Q192.618,44.898,192.49200000000002,44.905Q192.36599999999999,44.912,192.324,44.912L192.268,44.912L192.212,44.968L192.212,48.09ZM226.246,37.758L226.288,37.702L226.344,37.702Q226.54,37.786,226.834,37.919Q227.128,38.052,227.352,38.136L227.352,38.192Q227.198,38.402,227.142,38.528Q227.086,38.654,227.002,38.906L226.932,39.186Q226.89,39.354,226.834,39.529Q226.778,39.704,226.722,39.942L226.666,40.11Q227.212,40.11,227.793,40.082Q228.374,40.054,228.92,39.998Q229.466,39.942,230.012,39.914Q230.558,39.886,231.118,39.886L231.286,39.886L231.328,39.998Q231.356,40.026,231.468,40.208Q231.524,40.306,231.545,40.355Q231.566,40.404,231.594,40.432Q231.566,40.502,231.272,40.53Q230.95,40.558,230.593,40.579Q230.236,40.6,229.9,40.6L229.466,40.6Q229.438,40.6,229.312,40.607Q229.186,40.614,229.032,40.628L228.598,40.656L227.94,40.656L227.576,40.684Q227.464,40.698,227.352,40.698Q227.24,40.698,227.002,40.698Q226.932,40.698,226.841,40.698Q226.75,40.698,226.68,40.726Q226.61,40.74,226.582,40.81L226.162,42.518Q226.764,42.532,227.324,42.518Q227.814,42.504,228.339,42.49Q228.864,42.476,229.256,42.434Q230.012,42.364,230.768,42.329Q231.524,42.294,232.322,42.294L232.672,42.294L232.812,42.546Q232.924,42.728,232.924,42.84L232.924,42.896Q232.126,42.98,231.335,43.022Q230.544,43.064,229.76,43.078Q228.962,43.092,228.178,43.113Q227.394,43.134,226.582,43.176Q226.512,43.176,226.407,43.183Q226.302,43.19,226.19,43.204Q226.12,43.218,226.071,43.218Q226.022,43.218,225.966,43.218L225.448,44.814L225.448,44.926Q226.47,44.926,227.436,44.884Q228.402,44.842,229.424,44.758L229.48,44.758Q229.536,44.758,229.578,44.716L229.886,44.562Q229.97,44.534,229.998,44.534L230.04,44.59L230.236,44.716L230.782,45.108L230.964,45.248L231.188,45.36L231.216,45.416Q231.188,45.5,231.104,45.528Q231.02,45.556,230.95,45.584Q230.922,45.584,230.782,45.717Q230.642,45.85,230.418,46.06Q230.194,46.27,229.928,46.536Q229.662,46.802,229.382,47.068L227.898,48.524L229.242,49.168L229.536,49.336Q229.564,49.336,229.62,49.392L229.676,49.448L229.676,49.504L229.648,49.644Q229.634,49.672,229.613,49.805Q229.592,49.938,229.564,50.092Q229.536,50.246,229.522,50.379Q229.508,50.512,229.508,50.554Q229.536,50.708,229.368,50.708Q229.242,50.708,229.088,50.61L228.85,50.484L224.58,47.768L224.454,47.712Q224.44,47.698,224.349,47.649Q224.258,47.6,224.153,47.537Q224.048,47.474,223.95,47.418Q223.852,47.362,223.838,47.362Q223.74,47.348,223.74,47.278Q223.838,47.096,223.95,46.984Q223.964,46.942,224.006,46.942L224.062,46.942L224.146,46.97Q224.23,46.998,224.258,46.998L224.468,47.068L224.734,47.152Q224.888,47.222,224.972,47.236Q225.07,47.278,225.098,47.278Q225.154,47.306,225.476,47.439Q225.798,47.572,226.176,47.733Q226.554,47.894,226.876,48.034Q227.198,48.174,227.254,48.202L227.31,48.202L227.408,48.09L229.368,45.472L229.368,45.416Q228.878,45.416,228.395,45.43Q227.912,45.444,227.422,45.472Q226.918,45.5,226.428,45.528Q225.938,45.556,225.448,45.57Q225.322,45.57,225.217,45.647Q225.112,45.724,225.042,45.836L224.888,46.018Q224.846,46.102,224.776,46.074Q224.678,46.06,224.552,45.955Q224.426,45.85,224.3,45.724Q224.23,45.654,224.174,45.591Q224.118,45.528,224.048,45.458L223.852,45.248Q224.132,45.108,224.258,44.842Q224.384,44.576,224.482,44.338Q224.51,44.268,224.559,44.128Q224.608,43.988,224.664,43.827Q224.72,43.666,224.762,43.512Q224.804,43.358,224.818,43.274L224.16,43.274Q223.88,43.274,223.621,43.281Q223.362,43.288,223.082,43.302Q222.816,43.316,222.543,43.323Q222.27,43.33,221.99,43.33L221.416,43.33Q221.388,43.246,221.332,43.106Q221.276,42.966,221.276,42.84L221.276,42.784Q221.542,42.7,221.696,42.714Q221.766,42.728,221.878,42.728Q221.99,42.728,222.144,42.728Q222.704,42.686,223.229,42.658Q223.754,42.63,224.314,42.63L224.538,42.63Q224.594,42.644,224.692,42.644Q224.846,42.644,225.042,42.574Q225.07,42.546,225.112,42.406Q225.154,42.266,225.196,42.084Q225.238,41.902,225.28,41.713Q225.322,41.524,225.35,41.398L225.504,40.824L225.504,40.768Q225.154,40.768,224.811,40.782Q224.468,40.796,224.118,40.824Q223.768,40.852,223.432,40.866Q223.096,40.88,222.774,40.88L222.354,40.88Q222.284,40.866,222.27,40.789Q222.256,40.712,222.228,40.614Q222.214,40.558,222.207,40.516Q222.2,40.474,222.2,40.418L222.2,40.278Q222.76,40.278,223.285,40.243Q223.81,40.208,224.37,40.166L224.65,40.166Q224.846,40.18,225.07,40.173Q225.294,40.166,225.462,40.138Q225.672,40.11,225.686,40.082L225.98,38.906L226.246,37.758ZM255.002,46.536Q255.688,46.536,256.36,46.515Q257.03200000000004,46.494,257.704,46.466Q258.376,46.438,259.041,46.417Q259.706,46.396,260.378,46.368Q260.462,46.368,260.581,46.354Q260.7,46.34,260.826,46.312Q261.05,46.256,261.302,46.256Q261.344,46.256,261.505,46.291Q261.666,46.326,261.834,46.382Q261.918,46.41,261.995,46.445Q262.072,46.48,262.142,46.508Q262.28200000000004,46.564,262.28200000000004,46.634L262.28200000000004,46.69Q262.28200000000004,46.732,262.198,46.858Q262.086,46.998,262.086,47.026L262.086,50.12Q262.086,50.148,261.96000000000004,50.19Q261.834,50.232,261.666,50.281Q261.498,50.33,261.344,50.358Q261.148,50.4,261.092,50.4L261.092,49.518L260.994,49.476L260.43399999999997,49.476Q259.10400000000004,49.476,257.767,49.49Q256.43,49.504,255.1,49.574Q255.1,49.574,255.016,49.602L254.96,49.63L254.96,50.232L254.904,50.288Q254.582,50.4,254.386,50.456Q254.316,50.47,254.267,50.484Q254.218,50.498,254.176,50.512L254.078,50.512Q254.036,50.526,253.973,50.519Q253.91,50.512,253.91,50.456L253.91,46.424L253.966,46.312L254.092,46.34Q254.162,46.354,254.211,46.361Q254.26,46.368,254.288,46.368L254.386,46.396Q254.414,46.41,254.456,46.424Q254.498,46.438,254.554,46.452L254.708,46.508L254.806,46.536L255.002,46.536ZM259.384,37.45Q259.44,37.45,259.608,37.478Q259.776,37.506,259.972,37.576Q260.154,37.646,260.294,37.723Q260.43399999999997,37.8,260.43399999999997,37.884Q260.43399999999997,37.968,260.427,38.045Q260.41999999999996,38.122,260.406,38.192Q260.392,38.262,260.385,38.353Q260.378,38.444,260.378,38.542L260.378,38.878Q261.764,38.71,263.248,38.71L263.57,38.71Q263.61199999999997,38.878,263.682,39.032Q263.752,39.186,263.822,39.312Q263.038,39.27,262.254,39.305Q261.47,39.34,260.68600000000004,39.424Q260.658,39.424,260.602,39.431Q260.546,39.438,260.476,39.452L260.378,39.48L260.378,40.516L260.26599999999996,40.516Q260.154,40.558,259.895,40.649Q259.63599999999997,40.74,259.44,40.74L259.384,40.684L259.384,39.536Q258.754,39.536,258.18,39.543Q257.606,39.55,257.01800000000003,39.578Q256.976,39.578,256.91999999999996,39.585Q256.86400000000003,39.592,256.794,39.606L256.654,39.634L256.654,40.782Q256.416,40.782,256.178,40.859Q255.94,40.936,255.786,41.062Q255.814,41.104,255.912,41.111Q256.01,41.118,256.038,41.118Q256.54200000000003,41.118,257.053,41.097Q257.56399999999996,41.076,258.082,41.02Q259.118,40.936,260.11199999999997,40.894Q260.252,40.88,260.406,40.88Q260.56,40.88,260.756,40.88Q261.12,40.894,261.505,40.88Q261.89,40.866,262.24,40.796Q262.59000000000003,40.726,262.786,40.572L263.76599999999996,41.286L263.822,41.328L263.76599999999996,41.384Q263.738,41.426,263.619,41.489Q263.5,41.552,263.472,41.552L262.688,42.378L262.59000000000003,42.504Q262.548,42.56,262.506,42.616Q262.464,42.672,262.408,42.728L262.226,42.952L262.11400000000003,43.078L262.086,43.134Q261.96000000000004,43.134,261.834,43.008Q261.70799999999997,42.882,261.70799999999997,42.756L261.82,42.644Q261.82,42.602,261.904,42.448L262.03,42.21L262.1,42.028Q262.142,41.916,262.19100000000003,41.804Q262.24,41.692,262.28200000000004,41.552L262.28200000000004,41.44Q260.168,41.44,258.075,41.552Q255.982,41.664,253.868,41.832L253.672,41.832L253.644,41.86Q253.616,41.888,253.616,41.93Q253.532,42.154,253.462,42.371Q253.392,42.588,253.322,42.798Q253.252,43.008,253.175,43.218Q253.098,43.428,252.986,43.638Q252.958,43.61,252.916,43.568Q252.874,43.526,252.818,43.47L252.608,43.26Q252.496,43.148,252.384,43.05Q252.272,42.952,252.216,42.868L252.174,42.756Q252.384,42.504,252.566,42.238Q252.748,41.972,252.93,41.685Q253.112,41.398,253.315,41.104Q253.518,40.81,253.77,40.516Q253.896,40.558,253.994,40.614Q254.078,40.656,254.141,40.712Q254.204,40.768,254.19,40.824Q254.176,40.88,254.134,40.943Q254.092,41.006,254.05,41.076Q253.994,41.146,253.924,41.23Q254.12,41.202,254.323,41.195Q254.526,41.188,254.736,41.174Q254.932,41.16,255.128,41.153Q255.324,41.146,255.52,41.118L255.576,41.062L255.52,40.95L255.52,39.69Q254.694,39.69,253.896,39.704Q253.098,39.718,252.272,39.802Q252.16,39.76,252.118,39.599Q252.076,39.438,252.076,39.312L252.076,39.256L252.174,39.228Q252.23,39.2,252.272,39.2L252.944,39.2Q253.504,39.2,254.106,39.186Q254.708,39.172,255.268,39.088Q255.324,39.088,255.401,39.067Q255.478,39.046,255.52,39.032L255.52,37.562L255.576,37.506L255.632,37.506Q255.66,37.52,255.695,37.534Q255.73,37.548,255.8,37.562Q255.87,37.59,255.919,37.604Q255.968,37.618,256.038,37.632Q256.094,37.66,256.13599999999997,37.674Q256.178,37.688,256.23400000000004,37.702Q256.332,37.73,256.374,37.744Q256.416,37.758,256.472,37.786Q256.61199999999997,37.842,256.61199999999997,37.884L256.61199999999997,37.94L256.55600000000004,38.108L256.55600000000004,39.032Q256.85,39.032,257.31899999999996,39.018Q257.788,39.004,258.236,38.99Q258.68399999999997,38.976,259.01300000000003,38.955Q259.342,38.934,259.356,38.906L259.384,37.45ZM255.884,42.812Q256.38800000000003,42.812,256.913,42.777Q257.438,42.742,257.942,42.7Q258.082,42.686,258.22900000000004,42.686Q258.376,42.686,258.53,42.686Q258.824,42.686,259.132,42.672Q259.44,42.658,259.73400000000004,42.616Q260.014,42.602,260.26599999999996,42.49L260.378,42.49Q260.448,42.49,260.476,42.504Q260.56,42.532,260.574,42.532Q260.602,42.546,260.637,42.56Q260.672,42.574,260.728,42.588L261.204,42.756L261.358,42.812L261.358,42.924Q261.358,42.966,261.267,43.085Q261.176,43.204,261.148,43.246L261.148,45.598L261.06399999999996,45.626Q260.952,45.654,260.938,45.654Q260.84000000000003,45.682,260.749,45.703Q260.658,45.724,260.56,45.752Q260.35,45.822,260.168,45.822L260.168,45.276Q259.902,45.276,259.629,45.276Q259.356,45.276,259.062,45.262Q258.474,45.262,257.90700000000004,45.276Q257.34000000000003,45.29,256.752,45.318Q256.472,45.332,256.199,45.36Q255.926,45.388,255.674,45.43Q255.674,45.598,255.653,45.717Q255.632,45.836,255.478,45.878Q255.394,45.92,255.261,45.969Q255.128,46.018,255.002,46.06Q254.848,46.13,254.694,46.144L254.638,46.088L254.638,45.22Q254.638,44.506,254.645,43.876Q254.652,43.246,254.694,42.532L255.296,42.714Q255.576,42.812,255.884,42.812ZM254.96,48.986Q255.73,48.986,256.47900000000004,48.972Q257.228,48.958,257.998,48.93Q259.524,48.888,261.036,48.888L261.036,46.97Q261.036,46.928,260.98,46.921Q260.924,46.914,260.89599999999996,46.914Q260.182,46.914,259.475,46.949Q258.76800000000003,46.984,258.054,47.026Q257.66200000000003,47.054,257.277,47.054Q256.892,47.054,256.5,47.04Q256.122,47.026,255.737,47.047Q255.352,47.068,254.96,47.138L254.96,48.986ZM255.618,43.47L255.618,44.73L255.674,44.828L255.828,44.828Q256.332,44.828,256.829,44.814Q257.326,44.8,257.81600000000003,44.772Q258.30600000000004,44.744,258.803,44.723Q259.3,44.702,259.804,44.674L260.11199999999997,44.674L260.168,44.618L260.168,43.246L260.11199999999997,43.19L259.86,43.19Q257.998,43.19,256.13599999999997,43.358Q256.06600000000003,43.358,255.989,43.365Q255.912,43.372,255.842,43.386L255.674,43.414L255.618,43.47Z" fill="#947F46" fill-opacity="1"/></g><g><line x1="0" y1="22.5" x2="29" y2="22.5" fill-opacity="0" stroke-opacity="1" stroke="#947F46" fill="none" stroke-width="1"/></g><g><line x1="303" y1="22.5" x2="332" y2="22.5" fill-opacity="0" stroke-opacity="1" stroke="#947F46" fill="none" stroke-width="1"/></g><g><ellipse cx="35.5" cy="22.5" rx="2.5" ry="2.5" fill="#947F46" fill-opacity="1"/></g><g><ellipse cx="294.5" cy="22.5" rx="2.5" ry="2.5" fill="#947F46" fill-opacity="1"/></g></g></svg>