<svg xmlns="http://www.w3.org/2000/svg" xmlns:xlink="http://www.w3.org/1999/xlink" fill="none" version="1.1" width="78" height="20" viewBox="0 0 78 20"><g><path d="M5.61,9.088Q5.34,9.178,5.196,9.178Q4.98,9.178,4.89,8.962Q4.368,8.062,3.558,7.216L3.648,7.036Q3.864,7.144,4.98,7.396Q5.538,7.378,6.762,7.216Q7.986,7.054,9.372,6.82Q9.21,6.82,9.12,6.748Q8.922,6.622,8.733,6.307Q8.544,5.992,8.292,5.434Q8.04,4.876,7.626,4.489Q7.212,4.102,6.456,3.814L6.51,3.598L7.23,3.598Q8.562,3.598,9.048,3.688Q9.534,3.778,9.894,4.192Q10.326,4.696,10.326,5.452Q10.326,5.74,10.272,5.992Q10.2,6.28,10.038,6.478Q9.876,6.676,9.66,6.766Q11.694,6.388,12.972,6.028Q13.134,5.974,13.26,5.974Q13.512,5.974,13.746,6.208Q13.926,6.406,14.214,6.883Q14.502,7.36,14.61,7.666Q14.646,7.738,14.592,7.9Q14.538,8.062,14.43,8.17Q14.322,8.278,14.178,8.26Q13.494,8.098,12.288,8.098Q10.596,8.098,9.048,8.35Q8.112,8.494,7.023,8.737Q5.934,8.98,5.61,9.088ZM16.626,14.974Q16.698,15.172,16.698,15.37Q16.698,15.712,16.482,15.937Q16.266,16.162,15.996,16.162Q15.924,16.162,15.816,16.126Q14.97,15.838,14.007,15.676Q13.044,15.514,11.676,15.514Q10.416,15.514,9.372,15.622Q7.572,15.766,5.79,16.126Q4.008,16.486,3.594,16.648Q3.324,16.738,3.18,16.738Q2.946,16.738,2.82,16.54Q2.19,15.496,1.074,14.596L1.29,14.308Q2.118,14.722,2.838,14.722Q4.512,14.722,8.328,14.344Q9.192,13.264,9.66,12.319Q10.128,11.374,10.416,10.384Q10.506,10.168,10.506,9.97Q10.506,9.376,9.696,8.818L9.876,8.566Q10.758,8.818,11.82,9.331Q12.882,9.844,13.026,10.06Q13.134,10.222,13.134,10.402Q13.134,10.654,13.008,10.816Q12.162,12.04,11.568,12.769Q10.974,13.498,10.2,14.128Q12.99,13.786,15.078,13.408Q15.33,13.372,15.384,13.372Q15.582,13.372,15.699,13.435Q15.816,13.498,15.906,13.642Q16.32,14.236,16.626,14.974ZM4.35,9.826Q4.35,9.754,4.458,9.628Q5.718,9.916,6.492,10.357Q7.266,10.798,7.77,11.608Q7.536,12.688,7.104,13.354Q6.888,13.696,6.528,13.696Q6.33,13.696,6.177,13.588Q6.024,13.48,5.988,13.3Q5.898,12.778,5.592,11.878Q5.286,10.96,4.368,9.862L4.35,9.826ZM36.498,5.308Q36.552,5.326,36.597,5.398Q36.642,5.47,36.642,5.542Q36.642,5.632,36.552,5.686Q36.21,5.902,36.156,6.334Q36.156,6.424,36.048,7.828Q35.94,9.232,35.76,10.636Q35.706,11.086,35.553,11.572Q35.4,12.058,35.274,12.328Q35.148,12.652,34.761,12.994Q34.374,13.336,33.87,13.282Q33.744,13.264,33.672,13.111Q33.6,12.958,33.492,12.616Q33.402,12.238,33.276,12.022Q33.042,11.518,32.088,10.87L32.16,10.582L33.456,10.906Q33.528,10.906,33.609,10.852Q33.69,10.798,33.708,10.654Q33.942,8.512,34.068,6.658L31.944,7.108L31.944,7.162Q31.89,7.828,31.89,11.14L31.89,12.13Q31.89,15.82,31.998,17.296L31.998,17.35Q31.998,17.458,31.953,17.539Q31.908,17.62,31.8,17.602Q31.602,17.548,31.152,17.413Q30.702,17.278,30.414,17.152Q30.018,16.954,29.928,16.819Q29.838,16.684,29.856,16.567Q29.874,16.45,29.874,16.396Q29.946,15.514,30.009,13.75Q30.072,11.986,30.072,10.996Q30.054,10.564,30.054,9.376Q30.018,7,29.964,6.658Q29.892,6.37,29.721,6.154Q29.55,5.938,29.172,5.686L29.172,5.704Q29.064,6.082,28.92,6.631Q28.776,7.18,28.686,7.522L28.398,8.656Q28.47,8.692,28.578,8.8Q28.686,8.926,28.83,9.169Q28.974,9.412,29.046,9.61Q29.118,9.88,28.893,10.042Q28.668,10.204,28.488,10.186Q28.362,10.168,28.011,10.096Q27.66,10.024,27.156,10.024Q26.67,10.024,26.328,10.06Q25.248,10.168,24.978,10.204L24.582,10.24L24.582,13.084L24.996,12.868Q25.716,12.454,26.634,11.86Q26.202,11.23,25.572,10.51L25.734,10.348Q25.896,10.42,26.22,10.528Q27.57,11.032,28.137,11.329Q28.704,11.626,28.884,12.058Q29.046,12.364,29.046,12.76Q29.046,13.192,28.812,13.624Q28.668,13.858,28.461,13.993Q28.254,14.128,28.038,14.128Q27.768,14.128,27.642,13.948Q27.228,13.498,27.03,12.724L26.994,12.616L23.916,15.496Q23.664,15.856,23.556,15.982Q23.448,16.144,23.304,16.144Q23.142,16.144,23.034,15.946L22.8,15.568Q21.936,14.056,21.684,13.93L21.756,13.804Q21.882,13.84,22.098,13.84Q22.368,13.84,22.548,13.678Q22.872,13.444,22.872,13.174Q22.944,12.22,22.944,9.988Q22.944,8.71,22.926,8.116Q21.9,8.278,21.036,8.458L20.946,8.188Q21.972,7.72,22.908,7.396Q22.908,6.964,22.872,6.352L22.854,5.974Q22.854,5.488,22.791,5.164Q22.728,4.84,22.512,4.588Q22.314,4.354,22.008,4.264Q21.702,4.174,21.648,4.156L21.702,3.886Q22.278,3.994,23.412,4.12Q23.988,4.174,24.654,4.282Q24.87,4.336,24.87,4.498Q26.184,4.192,26.958,3.832Q27.174,3.562,27.255,3.49Q27.336,3.418,27.516,3.436Q28.074,3.544,28.731,3.76Q29.388,3.976,29.676,4.21Q29.73,4.264,29.73,4.39Q29.73,4.588,29.64,4.714Q29.406,5.002,29.298,5.326Q30.882,5.542,31.728,5.722Q32.43,5.578,32.97,5.407Q33.51,5.236,33.618,5.11Q33.69,5.038,33.807,4.885Q33.924,4.732,34.05,4.732Q34.284,4.732,35.256,4.966Q36.228,5.2,36.498,5.308ZM24.69,5.632Q24.654,6.01,24.618,6.892Q24.978,6.802,25.338,6.73Q25.788,6.64,26.175,6.595Q26.562,6.55,27.066,6.514L27.21,5.434L27.228,5.308Q27.228,5.038,26.958,5.11Q25.698,5.38,24.69,5.632ZM24.582,9.106Q26.094,8.962,26.724,8.89L26.724,8.854Q26.76,8.71,26.904,7.72L26.742,7.702Q26.274,7.648,24.6,7.864L24.582,9.106ZM48.27,5.596L48.072,5.848Q47.352,7.396,46.452,8.62Q47.208,8.53,48.351,8.305Q49.494,8.08,49.872,7.936Q49.926,7.918,49.998,7.918Q50.16,7.918,50.322,8.116Q50.466,8.296,50.718,8.926L50.736,8.998Q50.736,9.142,50.61,9.268Q50.484,9.394,50.358,9.358Q49.944,9.232,49.476,9.232Q49.044,9.232,48.072,9.376Q46.902,9.538,46.542,9.682Q46.362,9.754,46.308,9.754Q46.218,9.754,46.146,9.61Q46.128,9.556,45.93,9.268L45.21,10.024Q46.074,10.222,46.29,10.33Q46.416,10.384,46.47,10.492Q49.8,10.042,50.052,9.844Q50.322,9.502,50.61,9.592Q50.934,9.664,51.663,9.997Q52.392,10.33,52.5,10.384Q52.59,10.42,52.59,10.51Q52.59,10.582,52.563,10.645Q52.536,10.708,52.482,10.744Q52.32,10.888,51.996,11.446Q51.924,11.554,51.825,11.725Q51.726,11.896,51.582,12.148Q51.708,12.418,51.762,12.832L51.762,12.904Q51.762,13.012,51.681,13.084Q51.6,13.156,51.492,13.156Q50.448,13.156,50.088,13.174Q51.474,13.606,51.762,13.84Q51.798,13.912,51.798,13.966Q51.798,14.146,51.618,14.326Q51.06,14.884,50.538,15.226Q52.734,14.938,53.526,14.794Q53.598,14.776,53.724,14.776Q54.03,14.776,54.156,14.974Q54.246,15.082,54.372,15.37Q54.498,15.658,54.552,15.766L54.714,16.144Q54.786,16.306,54.687,16.477Q54.588,16.648,54.417,16.756Q54.246,16.864,54.138,16.828Q53.616,16.63,53.085,16.549Q52.554,16.468,51.69,16.468Q50.394,16.468,47.658,16.702Q46.128,16.828,45.057,16.981Q43.986,17.134,43.608,17.242Q43.446,17.296,43.338,17.296Q43.158,17.296,43.032,17.116Q42.942,16.99,42.897,16.891Q42.852,16.792,42.816,16.738Q42.69,16.504,42.537,16.27Q42.384,16.036,42.168,15.82L42.258,15.604Q42.636,15.748,43.23,15.856Q44.058,15.856,46.2,15.694Q46.128,15.622,46.011,15.397Q45.894,15.172,45.84,15.046Q45.642,14.668,45.489,14.488Q45.336,14.308,44.94,14.128L44.958,13.984Q46.038,14.02,46.407,14.074Q46.776,14.128,47.01,14.362Q47.298,14.704,47.298,15.046Q47.298,15.19,47.28,15.262Q47.226,15.478,46.956,15.622L47.568,15.568L48.828,15.442Q49.386,14.776,49.746,14.038Q49.782,13.93,49.782,13.858Q49.782,13.498,49.44,13.192Q47.496,13.282,46.704,13.408Q46.722,13.624,46.722,13.858Q46.722,13.966,46.668,14.029Q46.614,14.092,46.542,14.074Q46.452,14.074,46.173,13.975Q45.894,13.876,45.678,13.732Q45.444,13.57,45.381,13.435Q45.318,13.3,45.3,13.084L45.228,12.184Q45.192,11.392,45.102,11.086Q45.03,10.798,44.724,10.456Q43.266,11.662,41.214,12.472L40.998,12.13Q42.852,10.834,44.382,8.782L44.292,8.8Q44.094,8.8,44.004,8.62Q43.914,8.476,43.572,8.098L43.32,7.828Q42.996,7.504,42.708,7.27Q42.42,7.036,41.79,6.712Q41.7,6.694,41.772,6.514L42.51,6.568Q43.41,6.64,43.86,6.739Q44.31,6.838,44.76,7.162Q44.886,7.792,44.832,8.134Q45.696,6.838,46.236,5.578L46.236,5.542Q46.236,5.506,46.191,5.488Q46.146,5.47,46.092,5.488Q45.318,5.866,43.842,6.352L43.734,6.37Q43.644,6.37,43.59,6.289Q43.536,6.208,43.5,6.172L43.266,5.866Q42.906,5.362,42.888,5.344Q42.834,5.272,42.771,5.2Q42.708,5.128,42.654,5.056L42.69,4.966Q42.744,4.984,42.933,5.047Q43.122,5.11,43.302,5.128Q44.148,5.002,45.084,4.678Q46.02,4.354,46.362,4.066Q46.488,3.94,46.551,3.778Q46.614,3.616,46.65,3.58Q46.722,3.436,46.884,3.472Q47.028,3.526,47.649,3.931Q48.27,4.336,48.738,4.678Q48.792,4.732,48.792,4.822Q48.792,4.876,48.756,4.984Q48.9,4.93,49.044,4.93Q49.44,4.93,49.872,5.218Q50.808,4.552,51.24,3.922Q51.33,3.778,51.33,3.67Q51.33,3.472,51.06,3.184L51.168,3.058Q51.708,3.31,52.068,3.58Q52.428,3.85,52.86,4.246L52.896,4.336Q52.896,4.426,52.806,4.525Q52.716,4.624,52.626,4.678Q51.564,5.398,50.412,5.74L50.52,5.866Q50.916,6.388,51.654,7.072Q52.86,6.154,53.328,5.47Q53.418,5.344,53.418,5.272Q53.418,5.146,53.202,4.894L53.31,4.768Q53.868,5.038,54.228,5.308Q54.588,5.578,54.984,5.956L55.02,6.046Q55.02,6.136,54.93,6.235Q54.84,6.334,54.75,6.388Q53.526,7.18,52.212,7.54Q54.066,8.98,55.866,9.25L57.252,9.412L57.324,9.7Q56.568,9.808,56.01,10.132Q55.452,10.456,55.11,10.78Q54.768,11.104,54.66,11.194Q54.372,11.464,54.156,11.464Q54.03,11.464,53.796,11.32Q52.68,10.6,51.474,9.142Q50.268,7.684,49.602,6.514Q49.278,5.956,49.008,5.794Q48.774,5.632,48.612,5.632Q48.486,5.632,48.36,5.704L48.27,5.596ZM49.782,12.076Q49.944,11.518,50.052,10.906L46.56,11.338Q46.614,12.166,46.632,12.454Q47.028,12.382,48.612,12.202L49.782,12.076ZM76.458,14.452L76.458,14.776Q75.144,14.992,74.82,15.136Q74.478,15.298,74.091,15.586Q73.704,15.874,73.542,16.09Q73.326,16.36,73.128,16.36Q73.02,16.36,72.876,16.27Q71.706,15.244,70.941,14.299Q70.176,13.354,69.474,12.238Q69.474,12.742,69.51,13.75Q69.546,14.398,69.546,14.74L69.546,15.298Q69.546,15.676,69.501,15.901Q69.456,16.126,69.294,16.378Q69.078,16.756,68.637,17.17Q68.196,17.584,67.854,17.584Q67.692,17.584,67.494,17.413Q67.296,17.242,67.152,16.972Q66.846,16.468,66.387,16.045Q65.928,15.622,65.424,15.478L65.46,15.208Q65.802,15.244,66.45,15.28Q66.828,15.28,67.026,15.298L67.062,15.298Q67.332,15.298,67.332,14.992Q67.422,13.642,67.422,12.526Q67.422,11.446,67.314,10.69Q67.206,9.934,66.378,9.628Q64.128,10.024,62.778,10.438Q62.616,10.492,62.49,10.492Q62.22,10.492,62.112,10.294Q61.86,9.844,61.635,9.547Q61.41,9.25,61.032,8.926L61.122,8.764Q61.572,8.908,62.238,8.89Q62.796,8.872,64.659,8.71Q66.522,8.548,68.286,8.314L69.006,8.206Q69.078,7.972,69.294,7.144Q68.952,7.162,67.908,7.27Q67.314,7.324,66.531,7.459Q65.748,7.594,65.316,7.702Q65.19,7.756,65.082,7.756Q64.938,7.756,64.794,7.504Q64.398,6.766,63.912,6.28L64.056,6.136Q64.488,6.334,64.956,6.37Q65.964,6.316,67.314,6.136Q68.664,5.956,69.6,5.722L69.726,5.038L69.744,4.93Q69.744,4.696,69.456,4.768Q68.268,4.912,67.008,5.119Q65.748,5.326,64.938,5.524L64.848,5.542Q64.686,5.542,64.596,5.398L64.344,4.984Q64.272,4.876,64.182,4.741Q64.092,4.606,63.984,4.444L63.606,3.922L63.732,3.796Q63.786,3.814,64.236,4.012Q64.686,4.21,64.974,4.156Q66.72,3.94,67.908,3.751Q69.096,3.562,69.582,3.346Q69.654,3.274,69.78,3.121Q69.906,2.968,69.996,2.932Q70.086,2.896,70.23,2.914Q70.86,3.04,71.688,3.301Q72.516,3.562,72.858,3.814Q72.948,3.904,72.948,4.048Q72.948,4.246,72.822,4.408Q72.516,4.696,72.084,5.398Q71.85,5.794,71.688,6.271Q71.526,6.748,71.292,7.54L71.184,7.882Q72.534,7.648,73.992,7.27Q74.208,7.234,74.262,7.234Q74.496,7.234,74.622,7.414Q75.324,8.242,75.468,8.674Q75.504,8.818,75.504,8.872Q75.504,9.088,75.351,9.241Q75.198,9.394,74.982,9.394Q74.874,9.394,74.766,9.34Q74.136,9.052,72.426,9.052Q70.572,9.052,68.448,9.322L67.314,9.484Q68.196,9.574,68.754,9.655Q69.312,9.736,69.744,9.88Q69.852,9.898,69.852,10.024Q69.852,10.132,69.726,10.294Q69.708,10.312,69.645,10.366Q69.582,10.42,69.546,10.555Q69.51,10.69,69.492,10.942L69.492,11.068L70.014,11.518Q70.86,11.032,71.292,10.744Q71.724,10.456,71.976,10.096Q72.066,9.952,72.066,9.844Q72.066,9.664,71.796,9.358L71.994,9.25Q72.678,9.592,73.281,10.006Q73.884,10.42,73.992,10.582Q74.028,10.654,74.028,10.708Q74.028,10.834,73.929,10.951Q73.83,11.068,73.758,11.104Q73.164,11.374,72.417,11.572Q71.67,11.77,70.572,12.004Q71.346,12.634,72.228,13.111Q73.11,13.588,74.568,14.128L76.458,14.452ZM65.766,12.436Q65.694,12.652,65.541,12.787Q65.388,12.922,65.226,12.922Q65.046,12.922,64.902,12.76L64.686,12.4Q64.308,11.77,64.002,11.356Q63.696,10.942,63.354,10.762L63.39,10.546Q64.038,10.546,64.65,10.708Q65.262,10.87,65.73,11.176Q65.838,11.536,65.838,11.932Q65.838,12.238,65.766,12.436ZM67.098,12.418Q65.442,14.128,63.516,15.856Q63.372,15.964,63.246,16.099Q63.12,16.234,63.012,16.342Q62.904,16.45,62.76,16.45Q62.562,16.45,62.454,16.252Q62.22,15.82,61.842,15.253Q61.464,14.686,61.266,14.542L61.374,14.416Q61.698,14.506,61.878,14.506Q62.13,14.506,62.508,14.434Q63.372,14.182,65.28,13.21Q65.856,12.94,66.504,12.562L66.99,12.292L67.098,12.418Z" fill="#FFFFFF" fill-opacity="1"/></g></svg>