<svg xmlns="http://www.w3.org/2000/svg" xmlns:xlink="http://www.w3.org/1999/xlink" fill="none" version="1.1" width="24" height="24" viewBox="0 0 24 24"><defs><clipPath id="master_svg0_5339_56626"><rect x="0" y="0" width="24" height="24" rx="0"/></clipPath></defs><g clip-path="url(#master_svg0_5339_56626)"><g><path d="M3.69301,17.6085C3.43501,17.1705,3.26601,16.8768,3.18201,16.72C2.40378,15.2686,1.99765772,13.6469,2.0000101924,12C2.0000101924,6.47725,6.47726,2,12,2C17.5228,2,22,6.47725,22,12C22,17.5228,17.5228,22,12,22C10.19106,22.0027,8.41556,21.5125,6.86426,20.582C6.70798,20.4894,6.55131,20.3975,6.39426,20.3062L3.94726,20.9737C3.38726,21.1262,2.8737589999999997,20.6125,3.02651,20.0527L3.69301,17.6085ZM5.22351,17.6973L4.8190100000000005,19.181L6.30276,18.7765C6.49669,18.7235,6.70375,18.7507,6.87751,18.8518C7.13087,18.9987,7.38363,19.1467,7.63576,19.2958C8.95401,20.0864,10.46284,20.5027,12,20.5C16.694499999999998,20.5,20.5,16.694499999999998,20.5,12C20.5,7.3055,16.694499999999998,3.5,12,3.5C7.30551,3.5,3.50001,7.3055,3.50001,12C3.50001,13.42,3.84801,14.788,4.50376,16.011C4.5907599999999995,16.173000000000002,4.806760000000001,16.546,5.14526,17.118000000000002C5.24861,17.2926,5.27684,17.5015,5.22351,17.6973ZM8.64526,16.0385C8.3208,15.7753,8.27394,15.2977,8.54106,14.9765C8.80819,14.6553,9.28631,14.6142,9.60426,14.8853C10.27668,15.4456,11.12471,15.7517,12,15.75C12.888,15.75,13.7268,15.4412,14.395,14.8855C14.7135,14.6207,15.1864,14.6642,15.4513,14.9827C15.7161,15.3013,15.6725,15.7742,15.354,16.039C14.4124,16.8231,13.2253,17.2516,12,17.25C10.77436,17.2517,9.58704,16.8229,8.64526,16.0385Z" fill="#000000" fill-opacity="1"/></g></g></svg>