<svg xmlns="http://www.w3.org/2000/svg" xmlns:xlink="http://www.w3.org/1999/xlink" fill="none" version="1.1" width="16" height="16" viewBox="0 0 16 16"><defs><clipPath id="master_svg0_5125_53773"><rect x="0" y="0" width="16" height="16" rx="0"/></clipPath></defs><g clip-path="url(#master_svg0_5125_53773)"><g><path d="M12.564363203125,11.35921546875C12.348623203125001,11.35921546875,12.173733203125,11.18433546875,12.173733203125,10.96858546875C12.173733203125,9.86344546875,11.274643203125,8.96435546875,10.169503203125,8.96435546875C9.064363203125,8.96435546875,8.165283203125,9.86344546875,8.165283203125,10.96858546875C8.165283203125,11.18433546875,7.990392203125,11.35921546875,7.774658203125,11.35921546875C7.558924203125,11.35921546875,7.384033203125,11.18433546875,7.384033203125,10.96858546875C7.384033203125,9.43266546875,8.633593203125,8.18310546875,10.169513203125,8.18310546875C11.705443203125,8.18310546875,12.954983203125,9.43266546875,12.954983203125,10.96858546875C12.954983203125,11.18433546875,12.780093203125,11.35921546875,12.564363203125,11.35921546875Z" fill="#020202" fill-opacity="1"/><path d="M12.146733203124999,11.38623546875Q12.319713203125,11.55921546875,12.564363203125,11.55921546875Q12.809003203125,11.55921546875,12.981993203125,11.38623546875Q13.154983203125,11.21324546875,13.154983203125,10.96858546875Q13.154983203125,9.733805468749999,12.279643203125,8.85845646875Q11.404303203125,7.98310546875,10.169513203125,7.98310546875Q8.934733203124999,7.98310546875,8.059383203125,8.85845546875Q7.184033203125,9.733805468749999,7.184033203125,10.96858546875Q7.184033203125,11.21324546875,7.357025803125,11.38623546875Q7.530013203125,11.55921546875,7.774658203125,11.55921546875Q8.019302203125,11.55921546875,8.192290203125,11.38623546875Q8.365283203125,11.21324546875,8.365283203125,10.96858546875Q8.365283203125,10.22257546875,8.894383203125,9.69346546875Q9.423493203125,9.16435546875,10.169503203125,9.16435546875Q10.915513203125,9.16435546875,11.444623203125001,9.69346546875Q11.973733203125,10.22257546875,11.973733203125,10.96858546875Q11.973733203125,11.21324546875,12.146733203124999,11.38623546875ZM12.173733203125,10.96858546875C12.173733203125,11.18433546875,12.348623203125001,11.35921546875,12.564363203125,11.35921546875C12.780093203125,11.35921546875,12.954983203125,11.18433546875,12.954983203125,10.96858546875C12.954983203125,9.43266546875,11.705443203125,8.18310546875,10.169513203125,8.18310546875C8.633593203125,8.18310546875,7.384033203125,9.43266546875,7.384033203125,10.96858546875C7.384033203125,11.18433546875,7.558924203125,11.35921546875,7.774658203125,11.35921546875C7.990392203125,11.35921546875,8.165283203125,11.18433546875,8.165283203125,10.96858546875C8.165283203125,9.86344546875,9.064363203125,8.96435546875,10.169503203125,8.96435546875C11.274643203125,8.96435546875,12.173733203125,9.86344546875,12.173733203125,10.96858546875Z" fill-rule="evenodd" fill="#000000" fill-opacity="1"/></g><g><path d="M14.23499453125,14.5155109375L1.77386353125,14.5155109375C1.3495815312500001,14.5155109375,1.00439453125,14.1703109375,1.00439453125,13.7460109375L1.00439453125,2.2606799375C1.00439453125,1.8363989375,1.3495815312500001,1.4912109375,1.77386353125,1.4912109375L14.23499453125,1.4912109375C14.65929453125,1.4912109375,15.00449453125,1.8363829375,15.00449453125,2.2606799375L15.00449453125,13.7460109375C15.00449453125,14.1703109375,14.65929453125,14.5155109375,14.23499453125,14.5155109375ZM1.78564453125,13.7342109375L14.22319453125,13.7342109375L14.22319453125,2.2724609375L1.78564453125,2.2724609375L1.78564453125,13.7342109375Z" fill="#020202" fill-opacity="1"/><path d="M1.77386353125,14.7155109375L14.23499453125,14.7155109375Q14.63609453125,14.7155109375,14.92029453125,14.4313109375Q15.20449453125,14.1471109375,15.20449453125,13.7460109375L15.20449453125,2.2606799375Q15.20449453125,1.8596159375,14.92029453125,1.5754136375Q14.63609453125,1.2912109375,14.23499453125,1.2912109375L1.77386353125,1.2912109375Q1.37280953125,1.2912109375,1.08860203125,1.5754185375Q0.80439453125,1.8596259375,0.80439453125,2.2606799375L0.80439453125,13.7460109375Q0.80439453125,14.1471109375,1.08860203125,14.4313109375Q1.37280953125,14.7155109375,1.77386353125,14.7155109375ZM1.77386353125,14.5155109375L14.23499453125,14.5155109375C14.65929453125,14.5155109375,15.00449453125,14.1703109375,15.00449453125,13.7460109375L15.00449453125,2.2606799375C15.00449453125,1.8363829375,14.65929453125,1.4912109375,14.23499453125,1.4912109375L1.77386353125,1.4912109375C1.3495815312500001,1.4912109375,1.00439453125,1.8363989375,1.00439453125,2.2606799375L1.00439453125,13.7460109375C1.00439453125,14.1703109375,1.3495815312500001,14.5155109375,1.77386353125,14.5155109375ZM14.22319453125,13.7342109375L1.78564453125,13.7342109375L1.78564453125,13.5342109375L1.78564453125,2.4724609375L1.78564453125,2.2724609375L14.22319453125,2.2724609375L14.22319453125,13.7342109375ZM1.98564453125,2.4724609375L1.98564453125,13.5342109375L14.02319453125,13.5342109375L14.02319453125,2.4724609375L1.98564453125,2.4724609375Z" fill-rule="evenodd" fill="#000000" fill-opacity="1"/></g><g><path d="M6.39636328125,5.1083984375L3.21703528125,5.1083984375C3.12333198125,5.1083984375,3.04736328125,5.0324304375,3.04736328125,4.9387264375L3.04736328125,4.4968204375C3.04736328125,4.4031171375,3.12333198125,4.3271484375,3.21703528125,4.3271484375L6.39636328125,4.3271484375C6.49006328125,4.3271484375,6.56603328125,4.4031171375,6.56603328125,4.4968204375L6.56603328125,4.9387264375C6.566023281250001,5.0324304375,6.49006328125,5.1083984375,6.39636328125,5.1083984375ZM6.40139328125,8.3799284375L3.22208228125,8.3799284375C3.12837888125,8.3799284375,3.05241012125,8.3039584375,3.05241012125,8.2102584375L3.05241012125,7.7683484375C3.05241012125,7.6746484375,3.12837888125,7.5986784375,3.22208228125,7.5986784375L6.40139328125,7.5986784375C6.49509328125,7.5986784375,6.57106328125,7.6746484375,6.57106328125,7.7683484375L6.57106328125,8.2102584375C6.57106328125,8.3039584375,6.49509328125,8.3799284375,6.40139328125,8.3799284375ZM3.05744148125,11.5130584375L3.05742578125,11.0711484375C3.05742578125,10.9774484375,3.13337878125,10.9014784375,3.22709728125,10.9014784375L5.28683328125,10.901448437500001C5.38053328125,10.901448437500001,5.45650328125,10.977418437499999,5.45650328125,11.071118437500001L5.45652328125,11.513028437500001C5.45652328125,11.6067284375,5.38056328125,11.682698437500001,5.28684328125,11.682698437500001L3.22711328125,11.6827284375C3.13340998125,11.6827284375,3.05745678125,11.6067584375,3.05744148125,11.5130584375ZM10.22127328125,8.5638084375C9.15031328125,8.5638084375,8.279033281250001,7.6925284375,8.279033281250001,6.621568437500001C8.279033281250001,5.5506184375,9.15031328125,4.6793364375,10.22127328125,4.6793364375C11.29222328125,4.6793364375,12.16350328125,5.5506184375,12.16350328125,6.621568437500001C12.16350328125,7.6925284375,11.29222328125,8.5638084375,10.22127328125,8.5638084375ZM10.22127328125,5.4605884375C9.58109328125,5.4605884375,9.060283281250001,5.9813984375,9.060283281250001,6.621568437500001C9.060283281250001,7.2617384375,9.58110328125,7.7825584375000005,10.22127328125,7.7825584375000005C10.86144328125,7.7825584375000005,11.38225328125,7.2617384375,11.38225328125,6.621568437500001C11.38225328125,5.9813984375,10.86144328125,5.4605884375,10.22127328125,5.4605884375Z" fill="#020202" fill-opacity="1"/><path d="M3.21703528125,5.3083984375L6.39636328125,5.3083984375Q6.76597328125,5.3083984375,6.7660332812499995,4.9387264375L6.7660332812499995,4.4968204375Q6.7660332812499995,4.3437003375,6.65776328125,4.2354243375Q6.54948328125,4.1271484375,6.39636328125,4.1271484375L3.21703528125,4.1271484375Q3.06391498125,4.1271484375,2.95563908125,4.2354244375Q2.84736328125,4.3437003375,2.84736328125,4.4968204375L2.84736328125,4.9387264375Q2.84736328125,5.0918474375,2.95563908125,5.2001234375Q3.06391498125,5.3083984375,3.21703528125,5.3083984375ZM3.21703528125,5.1083984375L6.39636328125,5.1083984375C6.49006328125,5.1083984375,6.566023281250001,5.0324304375,6.56603328125,4.9387264375L6.56603328125,4.4968204375C6.56603328125,4.4031171375,6.49006328125,4.3271484375,6.39636328125,4.3271484375L3.21703528125,4.3271484375C3.12333198125,4.3271484375,3.04736328125,4.4031171375,3.04736328125,4.4968204375L3.04736328125,4.9387264375C3.04736328125,5.0324304375,3.12333198125,5.1083984375,3.21703528125,5.1083984375ZM8.70712328125,8.1357184375Q9.335213281249999,8.7638084375,10.22127328125,8.7638084375Q11.10732328125,8.7638084375,11.73541328125,8.1357184375Q12.36350328125,7.5076284375,12.36350328125,6.621568437500001Q12.36350328125,5.7355084375,11.73541328125,5.1074244375Q11.10733328125,4.4793364375,10.22127328125,4.4793364375Q9.335213281249999,4.4793364375,8.70712328125,5.1074244375Q8.07903328125,5.7355084375,8.07903328125,6.621568437500001Q8.07903328125,7.5076284375,8.70712328125,8.1357184375ZM8.279033281250001,6.621568437500001C8.279033281250001,7.6925284375,9.15031328125,8.5638084375,10.22127328125,8.5638084375C11.29222328125,8.5638084375,12.16350328125,7.6925284375,12.16350328125,6.621568437500001C12.16350328125,5.5506184375,11.29222328125,4.6793364375,10.22127328125,4.6793364375C9.15031328125,4.6793364375,8.279033281250001,5.5506184375,8.279033281250001,6.621568437500001ZM9.060283281250001,6.621568437500001C9.060283281250001,5.9813984375,9.58109328125,5.4605884375,10.22127328125,5.4605884375C10.86144328125,5.4605884375,11.38225328125,5.9813984375,11.38225328125,6.621568437500001C11.38225328125,7.2617384375,10.86144328125,7.7825584375000005,10.22127328125,7.7825584375000005C9.58110328125,7.7825584375000005,9.060283281250001,7.2617384375,9.060283281250001,6.621568437500001ZM9.542133281249999,5.9424384375Q9.823983281250001,5.6605884374999995,10.22127328125,5.6605884374999995Q10.61855328125,5.6605884374999995,10.90040328125,5.9424384375Q11.18225328125,6.2242884375,11.18225328125,6.621568437500001Q11.18225328125,7.0188584375000005,10.90040328125,7.3007084375Q10.61855328125,7.5825584374999995,10.22127328125,7.5825584374999995Q9.823983281250001,7.5825584374999995,9.542133281249999,7.3007084375Q9.26028328125,7.0188584375000005,9.26028328125,6.621568437500001Q9.26028328125,6.2242884375,9.542133281249999,5.9424384375ZM3.22208228125,8.5799284375L6.40139328125,8.5799284375Q6.77106328125,8.5799284375,6.77106328125,8.2102584375L6.77106328125,7.7683484375Q6.77106328125,7.6152284375,6.66279328125,7.5069584375Q6.55451328125,7.3986784375,6.40139328125,7.3986784375L3.22208228125,7.3986784375Q2.85241028125,7.3986784375,2.85241028125,7.7683484375L2.85241028125,8.2102584375Q2.85241028125,8.5799284375,3.22208228125,8.5799284375ZM3.22208228125,8.3799284375L6.40139328125,8.3799284375C6.49509328125,8.3799284375,6.57106328125,8.3039584375,6.57106328125,8.2102584375L6.57106328125,7.7683484375C6.57106328125,7.6746484375,6.49509328125,7.5986784375,6.40139328125,7.5986784375L3.22208228125,7.5986784375C3.12837888125,7.5986784375,3.05241012125,7.6746484375,3.05241012125,7.7683484375L3.05241012125,8.2102584375C3.05241012125,8.3039584375,3.12837888125,8.3799284375,3.22208228125,8.3799284375ZM2.85742528125,11.0711584375L2.85744128125,11.5130584375L2.85744128125,11.5130884375Q2.85750128125,11.882728437499999,3.22711628125,11.882728437499999L5.28684328125,11.8826984375Q5.43998328125,11.8826984375,5.54825328125,11.7744184375Q5.65652328125,11.666138437499999,5.65652328125,11.513018437500001L5.65650328125,11.071118437500001Q5.65650328125,10.7014484375,5.28683328125,10.7014484375L3.22709728125,10.7014784375Q2.85742528125,10.7014784375,2.85742528125,11.0711584375ZM3.05742578125,11.0711484375L3.05744148125,11.5130584375C3.05745678125,11.6067584375,3.13340998125,11.6827284375,3.22711328125,11.6827284375L5.28684328125,11.682698437500001C5.38056328125,11.682698437500001,5.45652328125,11.6067284375,5.45652328125,11.513028437500001L5.45650328125,11.071118437500001C5.45650328125,10.977418437499999,5.38053328125,10.901448437500001,5.28683328125,10.901448437500001L3.22709728125,10.9014784375C3.13337878125,10.9014784375,3.05742578125,10.9774484375,3.05742578125,11.0711484375Z" fill-rule="evenodd" fill="#000000" fill-opacity="1"/></g></g></svg>