<svg xmlns="http://www.w3.org/2000/svg" xmlns:xlink="http://www.w3.org/1999/xlink" fill="none" version="1.1" width="33" height="23" viewBox="0 0 33 23"><g><g><path d="M19,13.5Q19,13.61047,18.99458,13.7208Q18.98916,13.831140000000001,18.97833,13.94108Q18.9675,14.05101,18.95129,14.16029Q18.93508,14.26956,18.91353,14.37791Q18.89198,14.48625,18.86514,14.59341Q18.8383,14.700569999999999,18.80623,14.806280000000001Q18.774160000000002,14.91199,18.73695,15.016Q18.699730000000002,15.12001,18.65746,15.22207Q18.615180000000002,15.32413,18.56795,15.424Q18.52072,15.523859999999999,18.46864,15.621279999999999Q18.41657,15.71871,18.35978,15.81346Q18.30299,15.90821,18.24161,16.00006Q18.180239999999998,16.091920000000002,18.11443,16.18065Q18.04863,16.269379999999998,17.97855,16.354770000000002Q17.90847,16.44016,17.83428,16.52201Q17.760089999999998,16.60387,17.68198,16.68198Q17.60387,16.760089999999998,17.52201,16.83428Q17.44016,16.90847,17.354770000000002,16.97855Q17.269379999999998,17.04863,17.18065,17.11443Q17.091920000000002,17.180239999999998,17.00006,17.24161Q16.90821,17.30299,16.81346,17.35978Q16.71871,17.41657,16.62128,17.46865Q16.52386,17.52072,16.424,17.56795Q16.32413,17.615180000000002,16.222070000000002,17.65746Q16.12001,17.699730000000002,16.016,17.73695Q15.91199,17.774160000000002,15.806280000000001,17.80623Q15.700569999999999,17.8383,15.59341,17.86514Q15.48625,17.89198,15.37791,17.91353Q15.26956,17.93508,15.16029,17.95129Q15.05101,17.9675,14.94108,17.97833Q14.831140000000001,17.98916,14.7208,17.99458Q14.61047,18,14.5,18Q14.38953,18,14.2792,17.99458Q14.168859999999999,17.98916,14.05892,17.97833Q13.94899,17.9675,13.83971,17.95129Q13.73044,17.93508,13.62209,17.91353Q13.51375,17.89198,13.40659,17.86514Q13.299430000000001,17.8383,13.193719999999999,17.80623Q13.08801,17.774160000000002,12.984,17.73695Q12.87998,17.699730000000002,12.77792,17.65746Q12.67586,17.615180000000002,12.576,17.56795Q12.476140000000001,17.52072,12.37871,17.46864Q12.28129,17.41657,12.18654,17.35978Q12.09179,17.30299,11.999929999999999,17.24161Q11.90808,17.180239999999998,11.81935,17.11443Q11.73062,17.04863,11.64523,16.97855Q11.55984,16.90847,11.47798,16.83428Q11.39613,16.760089999999998,11.31802,16.68198Q11.23991,16.60387,11.16572,16.52201Q11.09153,16.44016,11.02145,16.354770000000002Q10.951372,16.269379999999998,10.885566,16.18065Q10.81976,16.091920000000002,10.758387,16.00006Q10.697013,15.90821,10.640221,15.81346Q10.583429,15.71871,10.531354,15.621279999999999Q10.47928,15.523859999999999,10.432048,15.424Q10.384817,15.32413,10.342542,15.22207Q10.300267,15.12001,10.263052,15.016Q10.225836,14.91199,10.193768,14.806280000000001Q10.161701,14.700569999999999,10.134859,14.59341Q10.108018,14.48625,10.0864662,14.37791Q10.0649148,14.26956,10.0487057,14.16029Q10.0324966,14.05101,10.0216687,13.94108Q10.0108409,13.831140000000001,10.00542045,13.7208Q10,13.61047,10,13.5Q10,13.38953,10.00542045,13.2792Q10.0108409,13.168859999999999,10.0216687,13.05892Q10.0324966,12.94899,10.0487057,12.83971Q10.0649148,12.73044,10.0864662,12.62209Q10.108018,12.51375,10.134859,12.40659Q10.161701,12.299430000000001,10.193768,12.193719999999999Q10.225836,12.08801,10.263052,11.984Q10.300267,11.87998,10.342542,11.77792Q10.384817,11.67586,10.432048,11.576Q10.47928,11.476140000000001,10.531354,11.37871Q10.583429,11.28129,10.640221,11.18654Q10.697013,11.09179,10.758387,10.999929999999999Q10.81976,10.90808,10.885566,10.81935Q10.951372,10.73062,11.02145,10.64523Q11.09153,10.55984,11.16572,10.47798Q11.23991,10.39613,11.31802,10.31802Q11.39613,10.23991,11.47798,10.16572Q11.55984,10.09153,11.64523,10.02145Q11.73062,9.951372,11.81935,9.885566Q11.90808,9.81976,11.999929999999999,9.758387Q12.09179,9.697013,12.18654,9.640221Q12.28129,9.583429,12.37871,9.531354Q12.476140000000001,9.47928,12.576,9.432048Q12.67586,9.384817,12.77792,9.342542Q12.87998,9.300267,12.984,9.263052Q13.08801,9.225836,13.193719999999999,9.193768Q13.299430000000001,9.161701,13.40659,9.134859Q13.51375,9.108018,13.62209,9.0864662Q13.73044,9.0649148,13.83971,9.0487057Q13.94899,9.0324966,14.05892,9.0216687Q14.168859999999999,9.0108409,14.2792,9.00542045Q14.38953,9,14.5,9Q14.61047,9,14.7208,9.00542045Q14.831140000000001,9.0108409,14.94108,9.0216687Q15.05101,9.0324966,15.16029,9.0487057Q15.26956,9.0649148,15.37791,9.0864662Q15.48625,9.108018,15.59341,9.134859Q15.700569999999999,9.161701,15.806280000000001,9.193768Q15.91199,9.225836,16.016,9.263052Q16.12001,9.300267,16.222070000000002,9.342542Q16.32413,9.384817,16.424,9.432048Q16.52386,9.47928,16.62128,9.531354Q16.71871,9.583429,16.81346,9.640221Q16.90821,9.697013,17.00006,9.758387Q17.091920000000002,9.81976,17.18065,9.885566Q17.269379999999998,9.951372,17.354770000000002,10.02145Q17.44016,10.09153,17.52201,10.16572Q17.60387,10.23991,17.68198,10.31802Q17.760089999999998,10.39613,17.83428,10.47798Q17.90847,10.55984,17.97855,10.64523Q18.04863,10.73062,18.11443,10.81935Q18.180239999999998,10.90808,18.24161,10.999929999999999Q18.30299,11.09179,18.35978,11.18654Q18.41657,11.28129,18.46865,11.37871Q18.52072,11.476140000000001,18.56795,11.576Q18.615180000000002,11.67586,18.65746,11.77792Q18.699730000000002,11.87998,18.73695,11.984Q18.774160000000002,12.08801,18.80623,12.193719999999999Q18.8383,12.299430000000001,18.86514,12.40659Q18.89198,12.51375,18.91353,12.62209Q18.93508,12.73044,18.95129,12.83971Q18.9675,12.94899,18.97833,13.05892Q18.98916,13.168859999999999,18.99458,13.2792Q19,13.38953,19,13.5Z" fill="#B6B6B6" fill-opacity="1"/></g><g><path d="M32,4L29,4L29,1C29,0.450001,28.55,0,28,0C27.45,0,27,0.450001,27,1L27,4L24,4C23.449999,4,23,4.45,23,5C23,5.55,23.449999,6,24,6L27,6L27,9C27,9.55,27.45,10,28,10C28.55,10,29,9.55,29,9L29,6L32,6C32.55,6,33,5.55,33,5C33,4.45,32.55,4,32,4Z" fill="#B6B6B6" fill-opacity="1"/></g><g><path d="M24.95,8.96659L24.95,7.46301L23.45,7.46301C22.05,7.46301,20.95,6.36038,20.95,4.95704C20.95,4.706440000000001,21,4.45585,21.05,4.25537L12.5,4.25537C12.6,4.10501,12.65,3.95465,12.65,3.80429L12.65,2.9021470000000003C12.65,2.400954,12.25,2,11.75,2L4.5,2C4,2,3.6,2.400954,3.6,2.9021470000000003L3.6,3.80429C3.6,3.95465,3.65,4.10501,3.75,4.25537L0.899999,4.25537C0.399999,4.25537,0,4.65632,0,5.15752L0,22.0979C0,22.599,0.399999,23,0.899999,23L28.1,23C28.6,23,29,22.599,29,22.0979L29,11.77327C28.7,11.87351,28.35,11.97374,28,11.97374C26.3,11.97375,24.95,10.62052,24.95,8.96659ZM14.45,21.1456C10.45,21.1456,7.2,17.8878,7.2,13.8282C7.2,9.76849,10.45,6.51074,14.45,6.51074C18.45,6.51074,21.7,9.76849,21.7,13.8282C21.7,17.8878,18.45,21.1456,14.45,21.1456Z" fill="#B6B6B6" fill-opacity="1"/></g></g></svg>