<svg xmlns="http://www.w3.org/2000/svg" xmlns:xlink="http://www.w3.org/1999/xlink" fill="none" version="1.1" width="16" height="16" viewBox="0 0 16 16"><defs><clipPath id="master_svg0_4695_80279"><rect x="0" y="0" width="16" height="16" rx="0"/></clipPath></defs><g clip-path="url(#master_svg0_4695_80279)"><g><path d="M8.000048828125,1C5.100048828125,1,2.800048828125,3.3,2.800048828125,6.2C2.800048828125,7.2,3.100048828125,8,3.500048828125,8.8Q3.500048828125,8.9,7.500048828125,14.8C7.600048828125,14.9,7.800048828125,15,8.000048828125,15C8.200048828125,15,8.400048828125,14.9,8.500048828125,14.8L12.500048828125,8.9C13.000048828125,8.1,13.300048828125,7.2,13.300048828125,6.2C13.300048828125,3.3,10.900048828125,1,8.000048828125,1ZM11.500048828125,8.4C11.500048828125,8.5,11.500048828125,8.5,11.500048828125,8.4L9.800048828125,11L8.000048828125,13.6L6.200048828125,11L4.500048828125,8.5C4.100048828125,7.8,3.800048828125,7,3.800048828125,6.2C3.800048828125,3.9,5.700048828125,2,8.000048828125,2C10.300048828125,2,12.200048828125,3.8,12.200048828125,6.1C12.200048828125,7,11.900048828125,7.8,11.500048828125,8.4ZM8.000048828125,4.1C6.800048828125,4.1,5.900048828125,5,5.900048828125,6.2C5.900048828125,7.4,6.800048828125,8.2,8.000048828125,8.2C9.200048828125,8.2,10.100048828125,7.3,10.100048828125,6.1C10.100048828125,4.9,9.200048828125,4.1,8.000048828125,4.1ZM8.000048828125,7.2C7.400048828125,7.2,6.900048828125,6.7,6.900048828125,6.2C6.900048828125,5.7,7.400048828125,5.2,8.000048828125,5.2C8.600048828125,5.2,9.100048828125,5.7,9.100048828125,6.2C9.100048828125,6.7,8.600048828125,7.2,8.000048828125,7.2Z" fill="#020202" fill-opacity="1"/></g></g></svg>