<svg xmlns="http://www.w3.org/2000/svg" xmlns:xlink="http://www.w3.org/1999/xlink" fill="none" version="1.1" width="11.598562240600586" height="11.13315200805664" viewBox="0 0 11.598562240600586 11.13315200805664"><g><path d="M2.83928,11.1317C2.63095,11.1317,2.42261,11.0667,2.24595,10.9367C1.93261,10.7083,1.77928,10.33,1.84595,9.94833L2.31761,7.2C2.32095,7.18167,2.31261,7.16833,2.30595,7.16167L0.305948,5.21167C0.0292812,4.94167,-0.069052,4.545,0.0492813,4.17833C0.169281,3.81,0.480948,3.54667,0.864281,3.49L3.62595,3.08833C3.63928,3.08667,3.65261,3.07667,3.65928,3.06333L4.89428,0.563333C5.06428,0.216667,5.41095,0,5.79761,0L5.79928,0C6.18595,0,6.53261,0.215,6.70428,0.563333L7.93928,3.065C7.94595,3.07833,7.95761,3.08667,7.97261,3.08833L10.7343,3.49C11.1176,3.54667,11.4309,3.81,11.5493,4.17833C11.6676,4.54667,11.5693,4.94333,11.2926,5.21333L9.29761,7.16C9.28595,7.17167,9.28095,7.18667,9.28428,7.20333L9.75595,9.95167C9.82095,10.335,9.66595,10.7133,9.35261,10.94C9.03928,11.1667,8.63261,11.1967,8.29095,11.015L5.82261,9.71667C5.81095,9.71,5.79428,9.71,5.78095,9.71667L3.30928,11.015C3.16095,11.0933,2.99928,11.1317,2.83928,11.1317Z" fill="#E84113" fill-opacity="1"/></g></svg>