<svg xmlns="http://www.w3.org/2000/svg" xmlns:xlink="http://www.w3.org/1999/xlink" fill="none" version="1.1" width="108" height="16" viewBox="0 0 108 16"><g><g><path d="M27.264,5.592Q27.951999999999998,5.64,28.656,5.544Q29.344,5.448,30.048000000000002,5.4L30.112000000000002,5.4L30.16,5.272Q30.336,4.12,30.4,3.024Q30.464,1.928,30.496000000000002,0.775999L31.808,1.208Q31.856,1.208,31.864,1.28Q31.872,1.352,31.872,1.4Q31.872,1.864,31.816000000000003,2.336Q31.759999999999998,2.808,31.68,3.272Q31.6,3.736,31.536,4.208Q31.472,4.68,31.472,5.144L31.472,5.208Q32.336,5.08,33.263999999999996,5.024Q34.192,4.968,35.056,4.968L35.391999999999996,4.968L35.44,5.032Q35.472,5.176,35.536,5.336Q35.568,5.464,35.608000000000004,5.608Q35.647999999999996,5.752,35.68,5.832L35.68,6.024L34.464,6.056Q34.064,6.072,33.712,6.08Q33.36,6.088,33.232,6.088Q32.72,6.216,32.608000000000004,6.416Q32.496,6.616,32.496,7.032Q32.448,7.448,32.464,7.672Q32.480000000000004,7.896,32.464,8.024Q32.368,8.984,32.432,9.896Q32.496,10.808,32.496,11.768Q32.496,12.264,32.704,12.376Q32.832,12.44,32.976,12.448Q33.12,12.456,33.344,12.456L33.856,12.456L34.192,12.456Q34.592,12.488,34.96,12.408Q35.135999999999996,12.376,35.224000000000004,12.304Q35.312,12.232,35.36,11.96Q35.408,11.688,35.456,11.408Q35.504,11.128,35.568,10.888Q35.584,10.648,35.68,10.648L35.744,10.648Q36.16,11.064,36.312,11.584Q36.464,12.104,36.464,12.776L36.464,13.272Q36.368,13.464,36.144,13.536Q35.92,13.608,35.647999999999996,13.608Q35.376,13.64,35.135999999999996,13.608Q35.007999999999996,13.592,34.896,13.592Q34.784,13.592,34.704,13.592L34.08,13.592Q34,13.592,33.808,13.576Q33.616,13.56,33.408,13.528L33.024,13.48Q32.912,13.464,32.856,13.464Q32.8,13.464,32.768,13.464Q32.016,13.336,31.728,13.096Q31.552,12.968,31.48,12.728Q31.408,12.488,31.36,12.088L31.36,10.968Q31.36,10.504,31.375999999999998,10.024Q31.392,9.544,31.424,9.08Q31.472,8.152,31.472,7.208Q31.472,6.936,31.464,6.744Q31.456,6.552,31.424,6.28L31.36,6.28Q31.311999999999998,6.28,31.247999999999998,6.288Q31.183999999999997,6.296,31.183999999999997,6.344Q31.183999999999997,6.44,31.168,6.472Q31.136,6.568,31.119999999999997,6.672Q31.104,6.776,31.088,6.856Q31.072,6.904,31.072,6.968Q30.880000000000003,7.88,30.656,8.736Q30.432000000000002,9.592,30.112000000000002,10.408Q29.792,11.224,29.344,11.968Q28.896,12.712,28.288,13.272Q28.16,13.32,28,13.528Q27.904,13.64,27.816,13.712Q27.728,13.784,27.664,13.832L27.6,13.832L26.928,13.464L26.928,13.4Q26.928,13.24,26.992,13.176Q27.024,13.144,27.072,13.104Q27.12,13.064,27.152,13.016Q27.216,12.984,27.336,12.832Q27.456,12.68,27.584,12.52Q27.631999999999998,12.44,27.688,12.368Q27.744,12.296,27.792,12.232Q27.887999999999998,12.12,27.887999999999998,12.088Q28.4,11.272,28.784,10.408Q29.168,9.544,29.488,8.584L29.488,8.52L29.759999999999998,7.464L29.759999999999998,7.4L29.792,7.256L29.84,6.984L29.904,6.728Q29.92,6.648,29.928,6.608Q29.936,6.568,29.936,6.584L29.936,6.456L28.928,6.632Q28.656,6.696,28.384,6.736Q28.112000000000002,6.776,27.887999999999998,6.776Q27.808,6.776,27.808,6.744L27.792,6.712Q27.776,6.68,27.759999999999998,6.656Q27.744,6.632,27.728,6.584Q27.695999999999998,6.536,27.616,6.392Q27.536,6.248,27.44,6.072L27.216,5.656L27.264,5.592ZM27.376,0.839999L27.424,0.839999Q27.456,0.872,27.512,0.903999Q27.567999999999998,0.936,27.631999999999998,0.999999L27.92,1.24Q28.08,1.384,28.2,1.496Q28.32,1.608,28.4,1.656Q28.464,1.72,28.464,1.768Q28.464,1.816,28.456,1.864Q28.448,1.912,28.4,1.96L26.368000000000002,5.448Q26.496000000000002,5.544,26.624,5.824Q26.752,6.104,26.72,6.376Q26.688,6.568,26.688,6.768Q26.688,6.968,26.672,7.16Q26.656,7.256,26.656,7.312Q26.656,7.368,26.656,7.4Q26.624,8.232,26.648,9.048Q26.672,9.864,26.688,10.68L26.688,13.896Q26.688,13.992,26.656,14.008Q26.624,14.024,26.592,14.024L26.528,14.024Q26.48,14.008,26.408,13.992Q26.336,13.976,26.256,13.96Q26.08,13.928,25.92,13.904Q25.759999999999998,13.88,25.552,13.832L25.504,13.768L25.504,13.336Q25.504,12.52,25.504,11.728Q25.504,10.936,25.52,10.072Q25.536,9.24,25.544,8.408Q25.552,7.576,25.552,6.712L25.504,6.712L25.296,6.936L24.992,7.272Q24.816,7.448,24.672,7.608Q24.528,7.768,24.48,7.832Q24.352,7.976,24.312,8Q24.272,8.024,24.144,8.024Q23.951999999999998,8.024,23.68,7.848Q23.552,7.768,23.448,7.688Q23.344,7.608,23.344,7.528L23.344,7.464L24.032,6.712Q24.592,5.992,25.032,5.328Q25.472,4.664,25.856,3.944Q26.256,3.224,26.6,2.496Q26.944,1.768,27.312,0.903999L27.376,0.839999ZM32.544,2.776Q32.544,2.584,32.64,2.408Q32.736000000000004,2.232,32.832,2.088L33.12,1.768L33.184,1.768Q33.232,1.8,33.328,1.872Q33.424,1.944,33.568,2.024L34.784,2.776L35.152,3.032L35.263999999999996,3.08Q35.232,3.224,35.16,3.368Q35.088,3.512,35.007999999999996,3.64Q34.928,3.784,34.848,3.928Q34.768,4.072,34.704,4.216L34.592,4.216L32.768,3.032Q32.688,3.064,32.616,2.944Q32.544,2.824,32.544,2.776ZM42.592,2.088Q43.056,2.12,43.519999999999996,2.104Q43.984,2.088,44.448,2.024L46.288,1.832Q46.512,1.8,46.744,1.792Q46.976,1.784,47.2,1.768L48.111999999999995,1.72L48.144,1.72Q48.192,1.72,48.288,1.624Q48.4,1.528,48.448,1.528L48.72,1.528L48.879999999999995,1.608Q49.007999999999996,1.656,49.120000000000005,1.712Q49.232,1.768,49.36,1.816Q49.424,1.864,49.519999999999996,1.896Q49.552,1.896,49.616,1.96L49.696,2.024Q49.696,2.104,49.632000000000005,2.168Q49.6,2.216,49.576,2.264Q49.552,2.312,49.519999999999996,2.376L49.391999999999996,2.616Q49.312,2.744,49.296,2.84Q49.296,2.856,49.296,2.896Q49.296,2.936,49.28,3.016Q49.263999999999996,3.096,49.256,3.176Q49.248000000000005,3.256,49.248000000000005,3.336L49.184,3.688Q49.152,3.768,49.144,3.84Q49.135999999999996,3.912,49.120000000000005,3.96L49.120000000000005,4.024L48.832,5.528Q48.8,5.624,48.848,5.696Q48.896,5.768,48.96,5.848Q49.120000000000005,6.008,49.120000000000005,6.152Q49.120000000000005,6.248,49.08,6.32Q49.04,6.392,48.944,6.392L46.448,6.392Q46.32,6.392,46.184,6.4Q46.048,6.408,45.903999999999996,6.424Q45.632000000000005,6.472,45.328,6.512Q45.024,6.552,44.751999999999995,6.584Q44.480000000000004,6.616,44.239999999999995,6.584Q44.239999999999995,6.824,44.208,6.896Q44.176,6.968,43.952,6.968Q43.728,6.968,43.512,6.96Q43.296,6.952,43.04,6.904Q43.056,6.568,43.024,6.224Q42.992000000000004,5.88,42.928,5.528Q42.864000000000004,5.192,42.824,4.856Q42.784,4.52,42.816,4.216L42.528,2.152L42.592,2.088ZM44,3.336Q44,3.896,44.08,4.464Q44.16,5.032,44.239999999999995,5.592L44.688,5.592Q44.832,5.592,45.248000000000005,5.584Q45.664,5.576,46.111999999999995,5.544Q46.336,5.528,46.544,5.52Q46.751999999999995,5.512,46.96,5.48Q47.152,5.464,47.248000000000005,5.456Q47.344,5.448,47.391999999999996,5.416Q47.44,5.384,47.456,5.296Q47.472,5.208,47.504000000000005,5.016Q47.584,4.648,47.647999999999996,4.2Q47.712,3.752,47.775999999999996,3.336Q47.808,3.128,47.808,2.992Q47.808,2.856,47.808,2.776L46.8,2.776L46.656,2.776L46.4,2.808Q46.32,2.824,46.256,2.824Q46.192,2.824,46.144,2.824Q46.064,2.84,46.04,2.84Q46.016,2.84,46,2.84L45.584,2.84Q45.312,2.84,44.992000000000004,2.864Q44.672,2.888,44.4,2.936Q44.111999999999995,2.984,44,3.08L44,3.336ZM47.519999999999996,8.216Q47.84,8.216,48.135999999999996,8.192Q48.432,8.168,48.736000000000004,8.136Q49.024,8.104,49.32,8.08Q49.616,8.056,49.92,8.024L49.968,8.024L50.208,7.864Q50.352000000000004,7.768,50.432,7.768L50.495999999999995,7.768Q50.448,7.768,50.576,7.8L50.896,7.976Q50.96,8.024,51.007999999999996,8.024Q51.056,8.072,51.328,8.152Q51.568,8.232,51.632000000000005,8.28L51.632000000000005,8.344Q51.6,8.408,51.568,8.456Q51.536,8.504,51.504000000000005,8.536L51.376000000000005,8.792L51.328,9.032Q51.2,9.704,51.16,10.44Q51.120000000000005,11.176,51.120000000000005,11.896Q51.120000000000005,12.072,51.168,12.192Q51.216,12.312,51.296,12.44Q51.36,12.568,51.408,12.68Q51.456,12.792,51.456,12.904L51.391999999999996,12.968Q51.007999999999996,12.968,50.623999999999995,12.968Q50.239999999999995,12.968,49.84,12.952Q49.04,12.92,48.272,13L48.128,13L47.968,13Q47.952,13.016,47.808,13.016L47.808,13.592L47.696,13.656L47.647999999999996,13.656L47.519999999999996,13.592L47.408,13.576Q47.312,13.56,47.184,13.536Q47.056,13.512,46.928,13.48Q46.879999999999995,13.464,46.736000000000004,13.464L46.688,13.464L46.56,13.4L46.528,12.024Q46.528,11.56,46.519999999999996,11.16Q46.512,10.76,46.512,10.584L46.512,10.344Q46.480000000000004,10.072,46.456,9.776Q46.432,9.48,46.4,9.176Q46.367999999999995,8.872,46.352000000000004,8.584Q46.336,8.296,46.336,8.024Q46.623999999999995,8.024,46.944,8.12Q47.232,8.216,47.519999999999996,8.216ZM41.68,8.52Q41.984,8.52,42.36,8.504Q42.736000000000004,8.488,43.135999999999996,8.44Q43.519999999999996,8.392,43.879999999999995,8.312Q44.239999999999995,8.232,44.512,8.088Q44.592,8.088,44.792,8.152Q44.992000000000004,8.216,45.2,8.296Q45.408,8.392,45.56,8.504Q45.712,8.616,45.712,8.712Q45.712,8.824,45.568,8.936Q45.488,9.016,45.448,9.08Q45.408,9.144,45.376000000000005,9.208Q45.28,9.512,45.224000000000004,9.888Q45.168,10.264,45.135999999999996,10.648Q45.104,11.032,45.096000000000004,11.408Q45.088,11.784,45.088,12.088Q45.088,12.2,45.096000000000004,12.304Q45.104,12.408,45.135999999999996,12.52Q45.2,12.696,45.2,12.968L45.2,13L44.928,13.016Q44.592,13.016,44.256,13.016Q43.92,13.016,43.552,13Q43.184,13,42.832,13.032Q42.480000000000004,13.064,42.128,13.144L42.128,13.768L42.064,13.896Q41.856,13.896,41.456,13.816Q41.296,13.784,41.152,13.76Q41.007999999999996,13.736,40.879999999999995,13.704Q40.864000000000004,13.08,40.848,12.432Q40.832,11.784,40.775999999999996,11.136Q40.72,10.488,40.608000000000004,9.832Q40.495999999999995,9.176,40.304,8.52L40.304,8.456L40.367999999999995,8.392Q40.4,8.392,40.448,8.392Q40.495999999999995,8.392,40.576,8.408Q40.72,8.44,40.888000000000005,8.464Q41.056,8.488,41.2,8.504Q41.263999999999996,8.52,41.32,8.52Q41.376000000000005,8.52,41.408,8.52L41.68,8.52ZM47.760000000000005,10.344Q47.760000000000005,10.712,47.768,11.192Q47.775999999999996,11.672,47.808,12.088L47.936,12.088Q48.4,12.088,48.872,12.048Q49.344,12.008,49.808,11.96Q49.888000000000005,11.192,49.96,10.472Q50.032,9.752,50.032,9.032Q49.472,9.032,48.896,9.056Q48.32,9.08,47.760000000000005,9.208L47.760000000000005,10.344ZM41.903999999999996,9.528L41.903999999999996,9.592L41.936,9.928L41.968,10.152L41.968,10.28L41.968,10.696Q41.968,10.984,41.984,11.28Q42,11.576,42.048,11.848Q42.048,12.088,42.128,12.216L42.480000000000004,12.216Q42.623999999999995,12.216,42.775999999999996,12.208Q42.928,12.2,43.104,12.184Q43.28,12.168,43.448,12.16Q43.616,12.152,43.792,12.152Q43.84,12.104,43.888000000000005,11.888Q43.936,11.672,43.968,11.416Q43.984,11.16,43.992000000000004,10.92Q44,10.68,44,10.584Q44,10.52,44.016,10.352Q44.032,10.184,44.064,9.992L44.111999999999995,9.64Q44.128,9.56,44.128,9.496Q44.128,9.432,44.128,9.4L44.064,9.336L43.728,9.336Q43.312,9.336,42.848,9.376Q42.384,9.416,41.968,9.464L41.903999999999996,9.528ZM57.984,3.272Q57.984,3,57.976,2.712Q57.968,2.424,57.952,2.152Q57.936,1.88,57.928,1.608Q57.92,1.336,57.92,1.08L57.92,0.712Q57.952,0.712,57.976,0.719999Q58,0.728,58.064,0.743999Q58.144,0.775999,58.192,0.792Q58.24,0.808,58.4,0.855999L58.736,0.983999Q58.912,1.064,59.08,1.128Q59.248,1.192,59.328,1.208Q59.424,1.256,59.424,1.24Q59.44,1.24,59.44,1.336Q59.44,1.64,59.424,1.944Q59.408,2.248,59.36,2.552Q59.264,3.16,59.264,3.768Q59.264,3.912,59.288,4Q59.312,4.088,59.44,4.088Q59.616,4.088,59.784,4.048Q59.952,4.008,60.128,3.96Q60.256,4.104,60.392,4.32Q60.528,4.536,60.528,4.776Q60.528,4.824,60.512,4.904Q60.496,4.984,60.416,5.032L60.304,4.968L60.128,4.968L59.984,4.968L59.744,5Q59.664,5.016,59.6,5.016Q59.536,5.016,59.472,5.016Q59.424,5.032,59.328,5.032L59.264,5.032Q59.12,5.752,59.136,6.36Q59.152,6.712,59.16,7.048Q59.168,7.384,59.168,7.72L59.392,7.72Q59.424,7.72,59.448,7.712Q59.472,7.704,59.536,7.688L59.76,7.64Q59.888,7.608,59.984,7.584Q60.08,7.56,60.128,7.528Q60.208,7.576,60.224,7.72Q60.24,7.864,60.24,7.96L60.24,8.088Q60.176,8.152,60.144,8.168L59.984,8.296Q59.792,8.488,59.68,8.52L59.584,8.584L59.216,8.776L59.104,8.84L59.056,8.904Q59.088,9.864,59.056,10.808Q59.024,11.752,58.944,12.712Q58.944,12.92,58.848,13.368Q58.8,13.608,58.72,13.784Q58.64,13.96,58.544,13.96Q58.416,13.96,58.176,13.92Q57.936,13.88,57.808,13.832Q57.712,13.816,57.504,13.744Q57.296,13.672,57.072,13.576L56.64,13.432Q56.432,13.368,56.312,13.304Q56.192,13.24,56.112,13.08Q56.048,12.968,56.048,12.712Q56.048,12.536,56.096,12.456Q56.48,12.504,56.72,12.512Q56.96,12.52,57.296,12.52L57.504,12.52Q57.6,12.472,57.64,12.288Q57.68,12.104,57.712,11.88Q57.744,11.656,57.744,11.472Q57.744,11.288,57.744,11.208L57.776,10.712Q57.792,10.552,57.8,10.408Q57.808,10.264,57.808,10.216L57.808,9.768Q57.584,9.768,57.392,9.872Q57.2,9.976,57.024,10.104Q56.832,10.248,56.64,10.352Q56.448,10.456,56.256,10.456L56.224,10.392Q56.144,10.28,56.056,10.16Q55.968,10.04,55.888,9.88L55.584,9.4L55.584,9.336Q55.584,9.144,55.632,9.144L57.92,8.28L57.92,5.144Q57.6,5.144,57.136,5.272Q56.672,5.4,56.32,5.4L56.256,5.4Q56.224,5.272,56.176,5.16Q56.128,5.048,56.048,4.92Q55.968,4.808,55.912,4.696Q55.856,4.584,55.808,4.456Q55.856,4.456,55.928,4.448Q56,4.44,56.128,4.424Q56.24,4.408,56.32,4.4Q56.4,4.392,56.432,4.392Q56.496,4.392,56.736,4.384Q56.976,4.376,57.248,4.344L57.728,4.296Q57.952,4.264,57.984,4.216L57.984,3.272ZM62.512,0.775999Q62.592,0.855999,62.672,0.855999Q62.72,0.872,62.752,0.903999Q62.784,0.936,62.92,1.024Q63.056,1.112,63.2,1.24Q63.344,1.368,63.472,1.472Q63.6,1.576,63.648,1.592L63.76,1.656L63.76,1.72Q63.76,1.784,63.648,1.896Q63.536,2.056,63.536,2.088L63.328,2.472Q63.248,2.6,63.176,2.744Q63.104,2.888,63.024,3.048Q62.944,3.208,62.872,3.36Q62.8,3.512,62.72,3.64L62.512,4.024L63.2,4.024Q63.76,4.024,64.312,3.992Q64.864,3.96,65.424,3.896Q65.968,3.832,66.52000000000001,3.8Q67.072,3.768,67.632,3.768L67.792,3.768Q67.92,4.008,68,4.248Q68.08,4.488,68.08,4.776L66.384,4.776L66.27199999999999,4.776L66.048,4.808Q65.98400000000001,4.824,65.928,4.824Q65.872,4.824,65.824,4.824Q65.77600000000001,4.84,65.696,4.84L65.648,4.84L65.696,4.968L65.696,6.648Q65.872,6.648,66.048,6.64Q66.22399999999999,6.632,66.416,6.616Q66.592,6.6,66.768,6.592Q66.944,6.584,67.12,6.584L67.408,6.584Q67.488,6.728,67.592,6.968Q67.696,7.208,67.696,7.4L67.696,7.464Q67.29599999999999,7.512,66.768,7.52Q66.24000000000001,7.528,65.824,7.528Q65.744,7.496,65.70400000000001,7.552Q65.664,7.608,65.664,7.688Q65.632,7.832,65.648,7.896L65.648,9.08L65.696,9.208L65.872,9.208Q66.064,9.208,66.24799999999999,9.192Q66.432,9.176,66.624,9.144Q66.944,9.08,67.344,9.08Q67.44,9.08,67.536,9.184Q67.632,9.288,67.712,9.432Q67.792,9.592,67.824,9.752Q67.856,9.912,67.856,10.024L67.744,10.088L65.98400000000001,10.088Q65.904,10.088,65.77600000000001,10.112Q65.648,10.136,65.648,10.28L65.648,11.96Q65.648,12.024,65.75999999999999,12.024Q66.27199999999999,12.024,66.896,12.008Q67.52000000000001,11.992,68.08,11.896Q68.128,11.944,68.144,11.992Q68.16,12.04,68.208,12.088Q68.22399999999999,12.184,68.304,12.328Q68.352,12.488,68.408,12.648Q68.464,12.808,68.544,12.968L68.416,13.016L64.72,13Q64.49600000000001,13,64.256,13.016Q64.01599999999999,13.032,63.76,13.064Q63.504,13.096,63.264,13.12Q63.024,13.144,62.8,13.144L62.752,13.144L62.4,12.456Q62.368,12.68,62.344,12.888Q62.32,13.096,62.32,13.272Q62.32,13.448,62.312,13.672Q62.304,13.896,62.304,14.152L62.176,14.152Q61.936,14.152,61.616,14.072Q61.488,14.04,61.352,14.016Q61.216,13.992,61.088,13.96L61.088,13.336Q61.088,12.616,61.104,11.92Q61.12,11.224,61.152,10.488Q61.2,9.048,61.2,7.592L61.2,6.456L61.152,6.344Q60.752,6.872,60.368,7.208Q60.16,7.208,59.936,7.032Q59.824,6.952,59.752,6.872Q59.68,6.792,59.68,6.712L59.68,6.648Q60.176,5.928,60.56,5.248Q60.944,4.568,61.264,3.848Q61.584,3.128,61.872,2.416Q62.16,1.704,62.464,0.839999L62.512,0.775999ZM64,2.28Q64.01599999999999,2.28,64.01599999999999,2.264Q64.01599999999999,2.248,64.032,2.216Q64.064,2.088,64.064,2.088Q64.064,2.072,64.112,1.984Q64.16,1.896,64.208,1.8Q64.27199999999999,1.592,64.336,1.528L64.384,1.528Q64.512,1.528,64.512,1.592L66.72,2.152L66.78399999999999,2.216Q66.78399999999999,2.248,66.72,2.36Q66.672,2.424,66.624,2.488Q66.576,2.552,66.512,2.616Q66.464,2.696,66.408,2.76Q66.352,2.824,66.304,2.888Q66.208,3.016,66.208,3.032Q66.112,3.128,66.096,3.272Q66.064,3.432,66.00800000000001,3.512Q65.952,3.592,65.824,3.592Q65.648,3.592,65.416,3.464Q65.184,3.336,64.928,3.144Q64.8,3.064,64.688,2.968Q64.576,2.872,64.464,2.792Q64.336,2.712,64.24000000000001,2.64Q64.144,2.568,64.064,2.52Q64.064,2.52,64.032,2.392Q64,2.264,64,2.28ZM62.304,4.776Q62.384,5.336,62.424,5.808Q62.464,6.28,62.464,6.84L63.088,6.84L63.552,6.808Q63.696,6.792,63.824,6.784Q63.952,6.776,64,6.776Q64.336,6.776,64.392,6.68Q64.44800000000001,6.584,64.44800000000001,6.216Q64.44800000000001,6.04,64.44800000000001,5.88Q64.44800000000001,5.72,64.464,5.544Q64.464,5.256,64.336,4.904Q64.144,4.936,63.944,4.96Q63.744,4.984,63.52,5.016Q63.296,5.048,63.088,5.064Q62.88,5.08,62.688,5.08L62.576,5.08Q62.544,4.968,62.528,4.88Q62.512,4.792,62.496,4.712Q62.48,4.536,62.336,4.392Q62.256,4.392,62.288,4.488Q62.304,4.536,62.304,4.648L62.304,4.776ZM62.464,7.272Q62.496,8.504,62.464,9.704Q62.432,10.312,62.416,10.928Q62.4,11.544,62.4,12.152L64.44800000000001,12.152L64.44800000000001,10.216Q64.096,10.216,63.824,10.28Q63.552,10.344,63.2,10.344Q63.12,10.344,63.04,10.24Q62.96,10.136,62.88,10.008Q62.8,9.88,62.744,9.744Q62.688,9.608,62.688,9.528L62.688,9.464L63.232,9.432Q63.408,9.416,63.544,9.408Q63.68,9.4,63.76,9.4L63.936,9.4Q64.01599999999999,9.4,64.096,9.392Q64.176,9.384,64.256,9.368L64.44800000000001,9.336L64.44800000000001,7.656Q64.064,7.656,63.664,7.704Q63.456,7.736,63.248,7.752Q63.04,7.768,62.864,7.768Q62.784,7.768,62.752,7.696Q62.72,7.624,62.688,7.528Q62.656,7.448,62.616,7.352Q62.576,7.256,62.512,7.208L62.464,7.272ZM80.032,0.775999Q80.032,0.648,80.096,0.648L80.16,0.679999Q80.256,0.712,80.256,0.712L80.47999999999999,0.823999L81.136,1.16Q81.21600000000001,1.208,81.256,1.232Q81.29599999999999,1.256,81.328,1.272L81.392,1.336Q81.392,1.464,81.344,1.56Q81.29599999999999,1.656,81.232,1.736Q81.168,1.832,81.112,1.936Q81.056,2.04,81.056,2.152L83.55199999999999,2.152Q83.6,2.152,83.648,2.296Q83.68,2.44,83.712,2.624Q83.744,2.808,83.75999999999999,2.968Q83.77600000000001,3.048,83.77600000000001,3.088Q83.77600000000001,3.128,83.77600000000001,3.144L80.768,3.144L80.672,3.208Q80.592,3.384,80.49600000000001,3.6Q80.4,3.816,80.27199999999999,4.008Q80.144,4.2,79.976,4.328Q79.80799999999999,4.456,79.632,4.456Q79.584,4.456,79.44,4.416Q79.29599999999999,4.376,79.29599999999999,4.344L79.29599999999999,4.28L79.36,4.088L79.456,3.704Q79.52000000000001,3.464,79.52000000000001,3.336L79.52000000000001,3.272L79.47200000000001,3.208L79.232,3.208Q78.624,3.208,78.01599999999999,3.248Q77.408,3.288,76.8,3.336L76.672,3.4L76.73599999999999,3.592Q76.73599999999999,3.624,76.744,3.672Q76.75200000000001,3.72,76.768,3.8L76.8,4.024Q76.816,4.072,77.00800000000001,4.152Q77.232,4.248,77.44,4.376Q77.648,4.504,77.824,4.696Q78,4.904,77.98400000000001,5.144L78.384,5.144Q79.50399999999999,5.144,80.608,5.048Q81.168,5.016,81.73599999999999,4.992Q82.304,4.968,82.88,4.968L83.44,4.968L83.50399999999999,5.032L83.616,6.024L83.55199999999999,6.024Q83.28,6.024,83,6.016Q82.72,6.008,82.44800000000001,5.992Q82.176,5.976,81.912,5.968Q81.648,5.96,81.392,5.96Q80.368,5.96,79.368,5.984Q78.368,6.008,77.36,6.152Q77.328,6.152,77.256,6.224Q77.184,6.296,77.184,6.344L77.03999999999999,6.552L76.8,6.92L76.544,7.304Q76.432,7.448,76.4,7.528Q76.368,7.56,76.336,7.616Q76.304,7.672,76.24000000000001,7.752Q76.19200000000001,7.832,76.128,7.912Q76.064,7.992,76.01599999999999,8.072Q75.888,8.248,75.768,8.392Q75.648,8.536,75.6,8.584Q75.6,9.992,75.584,11.392Q75.568,12.792,75.488,14.152L75.424,14.152Q75.344,14.152,75.2,14.136Q75.056,14.12,74.896,14.088Q74.72,14.056,74.56,14.016Q74.4,13.976,74.288,13.896L74.288,13.704Q74.288,13.24,74.29599999999999,12.768Q74.304,12.296,74.32,11.832Q74.336,11.368,74.344,10.88Q74.352,10.392,74.352,9.896L74.288,9.896Q73.824,10.264,73.32,10.64Q72.816,11.016,72.304,11.336L72.19200000000001,11.336Q72.01599999999999,11.336,71.912,11.248Q71.80799999999999,11.16,71.68,11.032L71.68,10.968Q71.68,10.84,71.712,10.808L71.856,10.712L72.19200000000001,10.408L72.99199999999999,9.688Q73.152,9.576,73.152,9.528Q73.50399999999999,9.176,73.856,8.8Q74.208,8.424,74.544,8.008Q74.88,7.592,75.184,7.168Q75.488,6.744,75.712,6.28L75.488,6.28Q74.848,6.28,74.22399999999999,6.376L72.99199999999999,6.584L72.928,6.584Q72.88,6.584,72.816,6.44Q72.72,6.296,72.608,6.112Q72.49600000000001,5.928,72.352,5.656L72.416,5.592L72.608,5.56Q72.688,5.544,72.768,5.536Q72.848,5.528,72.928,5.528Q73.184,5.496,73.432,5.488Q73.68,5.48,73.936,5.464Q74.176,5.448,74.424,5.44Q74.672,5.432,74.912,5.4L75.44,5.368Q75.616,5.352,75.75200000000001,5.344Q75.888,5.336,75.936,5.336Q76.288,5.336,76.384,5.12Q76.47999999999999,4.904,76.56,4.52L76.56,4.456Q76.56,4.28,76.368,4.28L76.048,4.28Q75.968,4.28,75.88,4.272Q75.792,4.264,75.712,4.248L75.488,4.216L75.488,3.464Q75.152,3.464,74.84,3.48Q74.52799999999999,3.496,74.256,3.528Q73.98400000000001,3.56,73.672,3.592Q73.36,3.624,73.03999999999999,3.656L72.864,3.656Q72.672,3.656,72.608,3.496Q72.576,3.416,72.536,3.352Q72.49600000000001,3.288,72.416,3.208Q72.368,3.16,72.28,3.016Q72.19200000000001,2.872,72.19200000000001,2.776L72.24000000000001,2.712L73.696,2.584Q74.064,2.552,74.424,2.536Q74.78399999999999,2.52,75.152,2.52Q75.152,2.28,75.072,2.072Q74.99199999999999,1.864,74.912,1.656Q74.8,1.464,74.72,1.28Q74.64,1.096,74.64,0.903999L75.03999999999999,0.903999Q75.24799999999999,0.903999,75.456,0.919999Q75.664,0.936,75.872,0.967999Q76.128,1.032,76.22399999999999,1.08Q76.22399999999999,1.112,76.232,1.152Q76.24000000000001,1.192,76.256,1.272L76.32,1.576L76.368,1.896Q76.384,1.976,76.392,2.016Q76.4,2.056,76.4,2.088L76.4,2.152L76.464,2.344L77.184,2.344Q77.50399999999999,2.344,77.80799999999999,2.336Q78.112,2.328,78.432,2.312Q78.75200000000001,2.296,79.064,2.288Q79.376,2.28,79.696,2.28L79.744,2.152L80.032,0.775999ZM76.976,7.08Q77.55199999999999,6.968,78.19200000000001,6.984Q78.8,7.016,79.44800000000001,6.968Q80.096,6.92,80.816,6.808Q81.50399999999999,6.712,82.19200000000001,6.712Q82.256,6.712,82.416,6.832Q82.576,6.952,82.75200000000001,7.128Q82.832,7.208,82.896,7.288Q82.96000000000001,7.368,83.03999999999999,7.448Q83.152,7.624,83.152,7.656Q83.152,7.736,83.032,7.784Q82.912,7.832,82.88,7.832L80.19200000000001,9.4L80.19200000000001,9.464Q80.384,9.608,80.49600000000001,9.64Q80.592,9.656,80.70400000000001,9.896L81.12,9.896Q81.72800000000001,9.896,82.432,9.8Q82.75200000000001,9.768,83.08,9.744Q83.408,9.72,83.72800000000001,9.72Q83.824,9.72,83.88,9.864Q83.936,10.008,83.98400000000001,10.2Q84.01599999999999,10.392,84.03999999999999,10.56Q84.064,10.728,84.064,10.776L81.792,10.776L81.648,10.776L81.408,10.808Q81.328,10.824,81.26400000000001,10.824Q81.2,10.824,81.152,10.824Q81.072,10.84,81.03999999999999,10.84Q81.00800000000001,10.84,80.99199999999999,10.84L80.944,10.84L80.88,10.904Q80.896,11.256,80.912,11.664Q80.928,12.072,80.864,12.488Q80.816,12.904,80.664,13.24Q80.512,13.576,80.19200000000001,13.832Q80.096,13.96,79.904,14.072L79.696,14.216L79.568,14.216Q79.50399999999999,14.184,79.4,14.152Q79.29599999999999,14.12,79.152,14.056L78.52799999999999,13.832Q78.352,13.768,78.2,13.72Q78.048,13.672,77.904,13.608L77.47200000000001,13.464Q77.392,13.464,77.24799999999999,13.4Q77.056,13.352,77.072,13.208L77.184,12.712L77.312,12.584Q78.048,12.776,78.944,12.776L79.232,12.776Q79.408,12.728,79.49600000000001,12.544Q79.584,12.36,79.632,12.12Q79.68,11.88,79.688,11.648Q79.696,11.416,79.696,11.272L79.696,10.904L79.632,10.84Q79.456,10.872,79.288,10.88Q79.12,10.888,78.928,10.904Q78.56,10.92,78.19200000000001,10.968Q77.824,11.016,77.456,11.08Q77.28,11.112,77.08,11.128Q76.88,11.144,76.672,11.144L76.464,11.144L76.368,11Q76.336,10.968,76.312,10.92Q76.288,10.872,76.256,10.808L76.128,10.6Q76.064,10.52,76.048,10.456L76,10.28Q76.78399999999999,10.232,77.536,10.176Q78.288,10.12,79.072,10.024Q79.104,10.024,79.152,10.016Q79.2,10.008,79.28,9.992L79.408,9.96L79.408,9.896Q79.376,9.832,79.312,9.768Q79.26400000000001,9.704,79.21600000000001,9.64Q79.168,9.576,79.12,9.528Q78.944,9.288,78.77600000000001,9.136Q78.608,8.984,78.384,8.84Q78.464,8.744,78.616,8.6Q78.768,8.456,78.896,8.456Q79.136,8.456,79.29599999999999,8.616Q79.456,8.776,79.696,8.776Q79.77600000000001,8.776,79.968,8.632Q80.16,8.488,80.384,8.312Q80.608,8.136,80.78399999999999,7.96Q80.96000000000001,7.784,80.99199999999999,7.72L80.368,7.72Q79.632,7.72,78.96000000000001,7.832Q78.288,7.944,77.6,8.088L77.536,8.088Q77.50399999999999,8.088,77.424,7.96Q77.24799999999999,7.704,77.088,7.336Q77.056,7.256,77.024,7.192Q76.99199999999999,7.128,76.976,7.08Z" fill="#3D3D3D" fill-opacity="1"/></g><g><line x1="0" y1="7.5" x2="18" y2="7.5" fill-opacity="0" stroke-opacity="1" stroke="#D8D8D8" fill="none" stroke-width="1"/></g><g><line x1="90" y1="7.5" x2="108" y2="7.5" fill-opacity="0" stroke-opacity="1" stroke="#D8D8D8" fill="none" stroke-width="1"/></g></g></svg>