<svg xmlns="http://www.w3.org/2000/svg" xmlns:xlink="http://www.w3.org/1999/xlink" fill="none" version="1.1" width="16" height="16" viewBox="0 0 16 16"><defs><clipPath id="master_svg0_3814_78711"><rect x="0" y="0" width="16" height="16" rx="0"/></clipPath></defs><g clip-path="url(#master_svg0_3814_78711)"><g><path d="M13.3330078125,12.00119609375C12.0747078125,13.68059609375,10.0981978125,14.66839609375,7.9996778125,14.66679609375C4.3176778124999995,14.66679609375,1.3330078125,11.68219609375,1.3330078125,8.00016609375C1.3330078125,4.3181660937499995,4.3176778124999995,1.33349609375,7.9996778125,1.33349609375C11.6817078125,1.33349609375,14.6663078125,4.3181660937499995,14.6663078125,8.00016609375C14.6663078125,8.184256093750001,14.5171078125,8.33349609375,14.3330078125,8.33349609375C14.1489078125,8.33349609375,13.9997078125,8.184256093750001,13.9997078125,8.00016609375C13.9997078125,4.68649609375,11.3133378125,2.00016309375,7.9996778125,2.00016309375C4.6860078125,2.00016309375,1.9996748125,4.68649609375,1.9996748125,8.00016609375C1.9996748125,11.31382609375,4.6860078125,14.00019609375,7.9996778125,14.00019609375C10.0043078125,14.00169609375,11.8770078125,13.00099609375,12.9897078125,11.33349609375L11.6653078125,11.33349609375C11.4813078125,11.33369609375,11.3322678125,11.18417609375,11.3330078125,11.00016609375C11.3330078125,10.81616609375,11.4840078125,10.66682609375,11.6653078125,10.66682609375L13.6673078125,10.66682609375C13.7590078125,10.66682609375,13.8420078125,10.70349609375,13.9020078125,10.76349609375L13.9023078125,10.76516609375C13.9623078125,10.82582609375,13.9997078125,10.90849609375,13.9997078125,10.99916609375L13.9997078125,13.00119609375C13.9997078125,13.18449609375,13.8517078125,13.33349609375,13.6663078125,13.33349609375C13.4823078125,13.33349609375,13.3330078125,13.18249609375,13.3330078125,13.00119609375L13.3330078125,12.00119609375ZM8.7243378125,6.66682609375L9.9976778125,6.66682609375C10.1826778125,6.66682609375,10.3330078125,6.81482609375,10.3330078125,7.00016609375C10.3330078125,7.18416609375,10.1830078125,7.33349609375,9.9973378125,7.33349609375L8.3330078125,7.33349609375L8.3330078125,8.66682609375L9.9973378125,8.66682609375C10.1826778125,8.66682609375,10.3330078125,8.81482609375,10.3330078125,9.00016609375C10.3330078125,9.184166093750001,10.1830078125,9.33349609375,9.9973378125,9.33349609375L8.3330078125,9.33349609375L8.3330078125,11.33116609375C8.3330078125,11.51649609375,8.1850078125,11.66679609375,7.9996778125,11.66679609375C7.8156778125,11.66679609375,7.6663378125,11.51719609375,7.6663378125,11.33116609375L7.6663378125,9.33349609375L6.0020078125,9.33349609375C5.8170778125,9.33460609375,5.6665178125,9.185096093750001,5.6663378125,9.00016609375C5.6663378125,8.816166093749999,5.8163378125,8.66682609375,6.0020078125,8.66682609375L7.6663378125,8.66682609375L7.6663378125,7.33349609375L6.0020078125,7.33349609375C5.8170778125,7.33460609375,5.6665178125,7.18509609375,5.6663378125,7.00016609375C5.6663378125,6.81616609375,5.8163378125,6.66682609375,6.0020078125,6.66682609375L7.2750078125,6.66682609375L5.7466778125,4.88349609375C5.6353078125,4.74308609375,5.6548978125,4.53975609375,5.7910178125,4.42318609375C5.9271378125,4.30661609375,6.1310578125,4.31852609375,6.2526778125,4.45016609375L7.9996778125,6.48749609375L9.7463378125,4.44949609375C9.8661478125,4.30941609375,10.0768578125,4.29305609375,10.2168378125,4.412966093750001C10.3568278125,4.53287609375,10.3730278125,4.74359609375,10.2530078125,4.88349609375L8.7240078125,6.66682609375L8.7243378125,6.66682609375Z" fill="#3D3D3D" fill-opacity="1"/></g></g></svg>