<svg xmlns="http://www.w3.org/2000/svg" xmlns:xlink="http://www.w3.org/1999/xlink" fill="none" version="1.1" width="20" height="20" viewBox="0 0 20 20"><defs><clipPath id="master_svg0_5982_56893"><rect x="0" y="0" width="20" height="20" rx="0"/></clipPath></defs><g clip-path="url(#master_svg0_5982_56893)"><g><path d="M9.83331298828125,3.3330078125L14.58331298828125,8.0830078125L8.16664298828125,14.4997078125L3.41664658828125,14.4997078125L3.41664658828125,9.7496778125L9.83331298828125,3.3330078125ZM4.99998298828125,10.3330078125L4.99998298828125,12.8330078125L7.49998298828125,12.8330078125L12.08331298828125,8.0830078125L9.83331298828125,5.7496778125L4.99998298828125,10.3330078125ZM3.33331298828125,15.3330078125L5.83331298828125,15.3330078125L5.83331298828125,16.9997078125L3.33331328630425,16.9997078125L3.33331298828125,15.3330078125ZM6.66664298828125,15.3330078125L10.83331298828125,15.3330078125L10.83331298828125,16.9997078125L6.66664298828125,16.9997078125L6.66664298828125,15.3330078125ZM11.66664298828125,15.3330078125L16.66661298828125,15.3330078125L16.66661298828125,16.9997078125L11.66664298828125,16.9997078125L11.66664298828125,15.3330078125Z" fill="#444444" fill-opacity="1"/></g></g></svg>