<svg xmlns="http://www.w3.org/2000/svg" xmlns:xlink="http://www.w3.org/1999/xlink" fill="none" version="1.1" width="16" height="16" viewBox="0 0 16 16"><defs><clipPath id="master_svg0_3814_49734"><rect x="0" y="0" width="16" height="16" rx="0"/></clipPath></defs><g clip-path="url(#master_svg0_3814_49734)"><g><path d="M8.837890625,7.8531255L7.111330625,7.8531255C7.051950625,7.8531255,7.005080625,7.7734375,7.026950625,7.7203125C7.117580625,7.4937505,7.311330625,6.9968753,7.306640625,6.9765625C7.292580625,6.98124981,7.267580625,6.9906249,7.231640625,7.0140624C7.119140625,7.0890625,6.973830625,7.1734375,6.805080625,7.2703125L6.751950625,7.3015625C6.514452625,7.4390625,6.244140625,7.5953125,6.005078625,7.7656245C5.742578625,7.9515625,5.619140625,8.0734425,5.619140625,8.2046825C5.620703225,8.2937525,5.684765825,8.4203125,5.816015625,8.5093725C6.169140625,8.7500025,7.144140625,9.2625025,7.342580625,9.3656225L7.345700625,9.3656225C7.353520625,9.3546825,7.125390625,8.8421825,7.020700625,8.6078125C6.995700625,8.5531225,7.048830625,8.4671825,7.111330625,8.4671825L8.842580625,8.4656225C9.148830625,8.5046825,9.726950625,8.7687525,9.726950625,9.3671825C9.726950625,9.8875025,9.259760625,10.2906225,8.830080625,10.2937525L6.767580625,10.2937525C6.583202625,10.2937525,6.439452625,10.4171925,6.439452625,10.6000025C6.439452625,10.7812525,6.589452625,10.9062525,6.773830625,10.9062525L8.837890625,10.9062525C8.912890625,10.9062525,9.575390625,10.8937525,10.014450625,10.4562525C10.278510625,10.1937525,10.409760625,9.8296825,10.401950625,9.3750025L10.401950625,9.3609325C10.401950625,9.3562525,10.419140625,8.6921825,9.975390625,8.2421825C9.703510625,7.9671865,9.326950625,7.8531245,8.837890625,7.8531255Z" fill="#3D3D3D" fill-opacity="1"/></g><g><path d="M2.15625,7.02958984375L2.15625,5.59989984375L13.87505,5.59989984375L13.87505,12.32021984375C13.87505,12.55458984375,13.69995,13.01398984375,13.16405,13.01398984375L2.83437,13.01398984375C2.59531,13.01398984375,2.15625,12.59368984375,2.15625,12.35927984375L2.15625,7.02958984375ZM1.53281248,9.22646984375L1.53281248,12.55148984375C1.53281248,13.13588984375,2.015625,13.60768984375,2.6125,13.60768984375L13.41875,13.60768984375C14.01565,13.60768984375,14.49845,13.13428984375,14.49845,12.55148984375L14.49215,5.46396984375C14.49215,5.07020984375,14.37965,4.68583984375,14.16875,4.35302984375L13.24375,2.89208984375C13.04685,2.57958984375,12.69845,2.39208984375,12.32495,2.39208984375L3.70937,2.39208984375C3.33437,2.39208984375,2.9890600000000003,2.58115284375,2.79062,2.89208984375L1.859375,4.3514698437499995C1.64375,4.687399843750001,1.53125,5.07489984375,1.53125,5.471779843749999L1.53125,7.03114984375L1.53281248,9.22646984375ZM3.18125,3.45458984375C3.42187,3.02333984375,3.68594,3.00302784375,3.83594,3.00302784375L12.32965,3.00302784375C12.47965,3.00302784375,12.66245,3.14365284375,12.74065,3.26708984375L13.84685,4.9889698437500005L2.192186,4.98583984375L3.18125,3.45458984375Z" fill="#3D3D3D" fill-opacity="1"/></g></g></svg>