<svg xmlns="http://www.w3.org/2000/svg" xmlns:xlink="http://www.w3.org/1999/xlink" fill="none" version="1.1" width="16" height="16" viewBox="0 0 16 16"><defs><clipPath id="master_svg0_2940_60992"><rect x="0" y="0" width="16" height="16" rx="0"/></clipPath></defs><g clip-path="url(#master_svg0_2940_60992)"><g transform="matrix(-1,0,0,1,22.0009765625,0)"><path d="M16.19377828125,2.53050725C16.44501828125,2.27583165,16.85248828125,2.26485375,17.11706828125,2.50563225C17.38165828125,2.74641125,17.409038281249998,3.15310325,17.17910828125,3.42717125L17.140448281250002,3.46984125L12.60977828125,8.036171249999999L17.13644828125,12.52683125C17.38191828125,12.77033125,17.40044828125,13.16113125,17.17910828125,13.42683125L17.140448281250002,13.46983125C16.89681828125,13.71523125,16.50602828125,13.73363125,16.24044828125,13.51213125L16.19744828125,13.47353125L11.19744528125,8.51351125C10.95206878125,8.269881250000001,10.93368718125,7.87909125,11.15511228125,7.61351125L11.19377828125,7.57051125L16.19377828125,2.53050725Z" fill="#000000" fill-opacity="1"/></g></g></svg>