<svg xmlns="http://www.w3.org/2000/svg" xmlns:xlink="http://www.w3.org/1999/xlink" fill="none" version="1.1" width="16" height="16" viewBox="0 0 16 16"><defs><clipPath id="master_svg0_3626_51344"><rect x="0" y="0" width="16" height="16" rx="0"/></clipPath></defs><g style="opacity:0.5;" clip-path="url(#master_svg0_3626_51344)"><g><path d="M7.33317390625,12.000078046875C4.73317390625,12.000078046875,2.66650390625,9.933418046875001,2.66650390625,7.333418046875C2.66650390625,4.733418046875,4.73317390625,2.666748046875,7.33317390625,2.666748046875C9.933173906250001,2.666748046875,11.99983390625,4.733418046875,11.99983390625,7.333418046875C11.99983390625,9.933418046875001,9.933173906250001,12.000078046875,7.33317390625,12.000078046875ZM7.33317390625,10.666748046875C9.19983390625,10.666748046875,10.66650390625,9.200078046875,10.66650390625,7.333418046875C10.66650390625,5.466748046875,9.19983390625,4.000078046875,7.33317390625,4.000078046875C5.46650390625,4.000078046875,3.99983390625,5.466748046875,3.99983390625,7.333418046875C3.99983390625,9.200078046875,5.46650390625,10.666748046875,7.33317390625,10.666748046875ZM11.26650390625,10.666748046875L13.13320390625,12.533418046875L12.19983390625,13.466748046875L10.33317390625,11.600078046875L11.26650390625,10.666748046875Z" fill="#444444" fill-opacity="1"/></g></g></svg>