<svg xmlns="http://www.w3.org/2000/svg" xmlns:xlink="http://www.w3.org/1999/xlink" fill="none" version="1.1" width="22" height="22" viewBox="0 0 22 22"><defs><clipPath id="master_svg0_3626_83326"><rect x="0" y="0" width="22" height="22" rx="0"/></clipPath></defs><g clip-path="url(#master_svg0_3626_83326)"><rect x="0" y="0" width="22" height="22" rx="0" fill="#FFFFFF" fill-opacity="1"/><g><path d="M20.0001,6.40601L5.44742,6.40601L4.71335,4L1,4L1,5.45455L3.60075,5.45455L4.3529,7.91596L6.51688,15.188L17.3868,15.188L19.931,6.638L20.0001,6.40601ZM6.18523,8.927959999999999L5.92079,8.039290000000001L5.94373,8.032720000000001L5.88095,7.82696L18.046,7.82696L17.7184,8.927959999999999L6.18523,8.927959999999999ZM16.278399999999998,13.76701L17.2856,10.3825L6.61807,10.3825L7.62521,13.76701L16.278399999999998,13.76701ZM10.63926,18.1616Q10.63926,18.9239,10.08152,19.4633Q9.52645,20,8.744530000000001,20Q7.9626,20,7.40747,19.4633Q6.84965,18.9239,6.84965,18.1616Q6.84965,17.3993,7.40747,16.8599Q7.9626,16.3232,8.744530000000001,16.3232Q9.52645,16.3232,10.08152,16.8599Q10.63926,17.3993,10.63926,18.1616ZM16.6292,18.1616Q16.6292,18.9239,16.0714,19.4633Q15.5163,20,14.7343,20Q13.9524,20,13.3973,19.4633Q12.8396,18.9239,12.8396,18.1616Q12.8396,17.3993,13.3973,16.8599Q13.9524,16.3232,14.7343,16.3232Q15.5163,16.3232,16.0714,16.8599Q16.6292,17.3993,16.6292,18.1616ZM9.14788,18.1616Q9.14788,18.005200000000002,9.0316,17.8928Q8.91265,17.7777,8.744530000000001,17.7777Q8.34103,17.7777,8.34103,18.1616Q8.34103,18.3179,8.457370000000001,18.4304Q8.57638,18.5455,8.744530000000001,18.5455Q8.91265,18.5455,9.0316,18.4304Q9.14788,18.3179,9.14788,18.1616ZM15.1378,18.1616Q15.1378,17.7777,14.7343,17.7777Q14.331,17.7777,14.331,18.1616Q14.331,18.3179,14.4473,18.4304Q14.5662,18.5455,14.7343,18.5455Q15.1378,18.5455,15.1378,18.1616Z" fill-rule="evenodd" fill="#000000" fill-opacity="1"/></g></g></svg>