<svg xmlns="http://www.w3.org/2000/svg" xmlns:xlink="http://www.w3.org/1999/xlink" fill="none" version="1.1" width="295" height="20" viewBox="0 0 295 20"><g><path d="M19.72,13.76L19.7,13.96Q18.82,14.04,18.36,14.3Q17.1,15,16.72,15.36Q16.5,15.58,16.32,15.58Q16.2,15.58,16,15.46Q14.82,14.64,13.51,13.33Q12.2,12.02,11.44,10.7Q10.32,10.78,9.76,10.84Q8.82,10.92,7.62,11.12L8.04,11.38L8.08,11.3Q8.4,11.32,9.34,11.45Q10.28,11.58,10.62,11.68Q10.74,11.7,10.74,11.86Q10.74,11.96,10.67,12.19Q10.6,12.42,10.6,12.52L10.58,12.8L11.94,12.48Q12,12.46,12.1,12.46Q12.24,12.46,12.33,12.54Q12.42,12.62,12.5,12.72Q12.68,12.92,12.96,13.64Q13.02,13.8,12.88,14.03Q12.74,14.26,12.52,14.26Q12.48,14.26,12.36,14.22Q11.86,13.96,10.54,14.04Q10.54,14.84,10.56,15.34Q12.84,15.02,13.78,14.76Q13.9,14.72,14.12,14.72Q14.5,14.72,14.64,14.92Q15.36,15.78,15.46,16.1Q15.5,16.2,15.5,16.38Q15.5,16.66,15.33,16.84Q15.16,17.02,14.92,17.02Q14.8,17.02,14.66,16.96Q13.92,16.56,12.48,16.56Q11.22,16.56,9.6,16.78Q6.88,17.14,5.04,17.62Q4.86,17.68,4.74,17.68Q4.56,17.68,4.48,17.48Q4.26,17.12,3.82,16.55Q3.38,15.98,3.16,15.78L3.32,15.56Q3.68,15.72,4.34,15.86Q4.88,15.88,6.12,15.79Q7.36,15.7,8.78,15.56L8.78,14.3L7.86,14.56Q7.08,14.8,7,14.82Q6.96,14.84,6.86,14.84Q6.54,14.84,6.38,14.48Q6.24,14.12,5.92,13.7Q3.84,15.12,1.28,16L1.04,15.68Q2.64,14.7,3.87,13.6Q5.1,12.5,5.94,11.44L5.96,11.42Q4.5,11.7,3.46,11.94Q3.24,12,3.08,12Q2.74,12,2.62,11.78Q2.32,11.22,2.04,10.89Q1.76,10.56,1.3,10.2L1.4,10Q2.1,10.2,2.82,10.22Q3.48,10.22,6.34,10L6.36,7.98Q6.36,6.96,6.32,5.56L4.94,5.86Q4.82,5.88,4.71,5.92Q4.6,5.96,4.5,5.96Q4.4,5.96,4.34,5.86Q3.96,5,3.3,4.32L3.4,4.16Q3.7,4.28,4.4,4.42Q5.66,4.36,6.26,4.32L6.24,4.18Q5.96,3.12,4.76,2.26L4.8,2.08Q5.76,2.2,6.78,2.47Q7.8,2.74,8.48,3.02Q8.58,3.06,8.58,3.2Q8.58,3.32,8.48,3.48Q8.46,3.5,8.4,3.56Q8.34,3.62,8.31,3.77Q8.28,3.92,8.26,4.14Q10.32,3.9,11.22,3.74L11.22,3.48Q11.2,2.82,10.82,2.37Q10.44,1.92,9.8,1.58L9.84,1.4Q12.18,1.7,13.52,2.24Q13.6,2.24,13.6,2.4Q13.6,2.56,13.5,2.72Q13.48,2.74,13.42,2.8Q13.36,2.86,13.32,3Q13.28,3.14,13.26,3.36Q14.04,3.2,14.44,3.04Q14.76,2.96,14.84,2.96Q15.08,2.96,15.26,3.18Q15.74,3.8,16.04,4.5Q16.1,4.68,15.93,4.87Q15.76,5.06,15.48,5.06L15.24,5.02Q14.76,4.86,14.31,4.79Q13.86,4.72,13.2,4.74Q13.12,6.82,13.12,8.34L13.12,9.28Q15.22,8.96,16.2,8.74Q16.32,8.7,16.52,8.7Q16.8,8.7,17,8.9Q17.14,9.04,17.36,9.45Q17.58,9.86,17.7,10.18Q17.74,10.3,17.74,10.38Q17.74,10.66,17.54,10.87Q17.34,11.08,17.14,11Q16.3,10.62,13.88,10.62Q13.08,10.62,12.66,10.64Q13.54,11.28,15.18,12.16Q16.16,12.68,17.92,13.24L18.42,13.4L19.72,13.76ZM8.2,5.22L8.18,6.08Q8.84,6.04,9.24,5.98L9.9,5.92Q10.12,5.9,10.59,5.85Q11.06,5.8,11.26,5.74Q11.26,5.14,11.24,4.86L9.1,5.1L8.2,5.22ZM8.14,7.14Q8.12,7.4,8.12,7.98L9.24,7.86Q9.4,7.84,10.14,7.78Q10.88,7.72,11.24,7.62L11.24,6.88Q10.72,6.84,10.38,6.84Q9.8,6.84,9.3,6.9Q8.88,6.96,8.14,7.14ZM9.4,9.74Q9.68,9.72,9.97,9.68Q10.26,9.64,10.54,9.62L11.22,9.54L11.22,8.76Q10.78,8.72,10.46,8.72Q9.84,8.72,9.3,8.78Q8.86,8.84,8.12,9.02L8.12,9.86L9.4,9.74ZM8.1,11.72Q8.08,11.74,7.72,12.14Q7.58,12.34,7.36,12.56Q7.06,12.86,6.4,13.38Q6.56,13.42,6.62,13.42Q7.18,13.42,8.76,13.14Q8.76,12.42,8.72,12.26Q8.7,11.98,8.61,11.82Q8.52,11.66,8.2,11.5L8.22,11.56Q8.22,11.64,8.1,11.72ZM37.86,3.18Q37.98,3.2,37.98,3.34Q37.98,3.48,37.8,3.54Q37.58,3.6,37.44,3.91Q37.3,4.22,37.22,4.84Q37.14,5.32,37.14,6.44Q37.14,7.18,37.18,8.37Q37.22,9.56,37.24,10.14Q37.36,12.82,37.36,13.96Q37.36,15.2,37.26,15.8Q37.24,15.94,36.94,16.34Q36.64,16.74,36.21,17.08Q35.78,17.42,35.32,17.44Q35.16,17.44,35.04,17.35Q34.92,17.26,34.79,17.08Q34.66,16.9,34.52,16.76Q34.5,16.74,34.28,16.49Q34.06,16.24,33.6,15.88Q32.44,15.62,30.8,15.62Q29.88,15.62,28.16,15.74Q26.4,15.88,25.24,16.1Q25.28,16.72,25.28,16.7L25.28,16.76Q25.28,16.88,25.24,16.97Q25.2,17.06,25.12,17.06Q25.04,17.06,24.46,16.87Q23.88,16.68,23.52,16.5Q23.14,16.32,23.01,16.17Q22.88,16.02,22.88,15.84Q22.88,14.8,23.08,11.28Q23.12,10.6,23.17,9.66Q23.22,8.72,23.26,7.56Q23.28,7.18,23.28,6.56Q23.28,5.5,23.16,4.82Q23.1,4.4,22.54,3.93Q21.98,3.46,21.24,3.14L21.3,3.02Q22.2,3.08,23.35,3.27Q24.5,3.46,24.94,3.64Q25.18,3.72,25.24,3.94L27.14,3.66Q30.02,3.26,31.72,2.97Q33.42,2.68,33.66,2.5Q34.08,2.04,34.6,2.04Q34.66,2.04,34.86,2.08Q35.34,2.18,36.04,2.46Q36.74,2.74,36.84,2.78Q37.48,3.06,37.86,3.18ZM34.56,13.6Q34.66,12.38,34.66,10.5Q34.66,7.3,34.38,3.94L25.34,5.22L25.3,5.76Q25.2,7.1,25.18,7.76Q25.14,9.12,25.14,10.48Q25.14,13,25.2,14.86Q26.72,14.72,27.48,14.66Q32.38,14.24,33.08,14.06Q33.28,14.02,33.34,14.02Q33.58,14.02,33.7,14.14Q33.8,14.26,33.92,14.52L34.14,14.52Q34.34,14.52,34.43,14.29Q34.52,14.06,34.56,13.6ZM33.62,7Q33.84,7.3,34.12,8.1Q34.2,8.32,34.05,8.51Q33.9,8.7,33.68,8.66Q33.32,8.6,32.76,8.6Q31.64,8.6,30.42,8.76Q30.26,9.56,30.02,10.08Q31.38,10.14,32.02,10.27Q32.66,10.4,33.06,10.76Q33.52,11.16,33.52,11.88Q33.52,11.96,33.46,12.44Q33.42,12.82,33.18,13.06Q32.94,13.3,32.66,13.3Q32.38,13.3,32.14,13.01Q31.9,12.72,31.54,12.08Q31.28,11.64,30.89,11.26Q30.5,10.88,29.82,10.54Q29.26,11.62,28.25,12.48Q27.24,13.34,25.68,14.1L25.32,13.78Q26.64,12.82,27.35,11.72Q28.06,10.62,28.38,9.12Q27,9.42,26.66,9.54Q26.52,9.6,26.4,9.6Q26.18,9.6,26.06,9.32Q25.84,8.82,25.67,8.51Q25.5,8.2,25.2,7.84L25.22,7.7Q26.02,7.98,26.24,8.04Q26.76,8.04,28.58,7.76L28.64,7.06Q28.66,6.7,28.54,6.14Q28.4,5.48,28.06,5.26L28.14,5.08Q28.74,5.2,29.04,5.24Q29.9,5.4,30.78,5.62Q30.86,5.64,30.92,5.71Q30.98,5.78,30.98,5.88Q30.98,5.94,30.94,6.06Q30.66,6.56,30.62,7.26L30.62,7.38Q32.36,7.02,33,6.72Q33.12,6.68,33.18,6.68Q33.36,6.68,33.48,6.83Q33.6,6.98,33.62,7ZM43.26,5.86Q42.92,5.3,42.61,4.95Q42.3,4.6,41.8,4.24L41.88,4.02Q41.96,4.04,42.42,4.16Q42.88,4.28,43.48,4.3Q43.98,4.26,45.89,4.04Q47.8,3.82,49.12,3.62Q48.9,3.24,48.76,3.02Q48.62,2.8,48.38,2.56Q48,2.18,47.41,1.83Q46.82,1.48,46.14,1.24L46.14,1.08Q47.66,1.06,48.79,1.22Q49.92,1.38,50.66,1.94Q50.82,2.68,50.82,3.06Q50.82,3.26,50.8,3.36Q53.62,2.96,54.98,2.6Q55.2,2.54,55.34,2.54Q55.64,2.54,55.8,2.74Q55.98,2.96,56.24,3.37Q56.5,3.78,56.6,4.08Q56.66,4.26,56.66,4.4Q56.66,4.78,56.38,5.03Q56.1,5.28,55.88,5.18Q55.18,4.9,54.6,4.77Q54.02,4.64,53.08,4.64Q51.82,4.64,49.9,4.86Q48.3,5.04,46.72,5.37Q45.14,5.7,44.14,6Q43.82,6.08,43.7,6.08Q43.38,6.08,43.26,5.86ZM54.26,5.92Q54.16,5.98,54.08,6.13Q54,6.28,53.98,6.32Q53.94,6.4,53.74,6.72Q53.56,7,53.24,7.56Q53.54,7.92,53.66,8.18L53.66,8.24Q53.66,8.36,53.54,8.44Q53.42,8.52,53.24,8.54Q52.62,8.52,50.77,8.69Q48.92,8.86,47.7,9.04Q47.72,9.2,47.72,9.48Q47.72,9.76,47.38,9.68L46.86,9.56Q46.42,9.48,46.3,9.42Q46.16,9.38,46.06,9.32Q45.96,9.26,45.96,9.2Q45.96,8.26,45.88,7.64Q45.8,7.02,45.7,6.8Q45.48,6.32,45.37,6.18Q45.26,6.04,45.04,5.98L45.06,5.8Q45.94,5.76,46.76,5.92Q47,5.96,47.12,6Q47.24,6.04,47.34,6.18L47.96,6.06Q49.08,5.88,50.26,5.65Q51.44,5.42,51.58,5.3Q51.8,5.12,51.9,5.06Q52,5,52.16,5Q52.54,5,53.2,5.17Q53.86,5.34,54.26,5.52Q54.36,5.58,54.36,5.68Q54.36,5.82,54.26,5.92ZM47.62,7.14Q47.68,7.56,47.68,8.12L51.3,7.6Q51.42,7.14,51.48,6.85Q51.54,6.56,51.56,6.46Q49.1,6.82,47.62,7.14ZM57.98,10.1Q58.04,10.16,58.04,10.2Q58.04,10.3,57.84,10.5Q57.82,10.52,57.71,10.58Q57.6,10.64,57.48,10.8Q57.36,10.96,57.24,11.22Q57.16,11.4,57.1,11.82Q57.04,12.24,56.98,12.74Q56.76,14.92,56.32,16.36Q56.18,16.8,55.79,17.19Q55.4,17.58,54.98,17.79Q54.56,18,54.32,17.9Q54,17.8,53.8,17.59Q53.6,17.38,53.45,17.15Q53.3,16.92,53.22,16.8Q52.72,16.1,52.43,15.83Q52.14,15.56,51.5,15.18L51.58,14.94Q50.86,14.92,49.69,14.95Q48.52,14.98,47.86,15.06L47.84,15.8Q47.84,15.88,47.78,15.93Q47.72,15.98,47.64,15.96Q47.54,15.96,47.22,15.85Q46.9,15.74,46.72,15.62Q46.54,15.5,46.48,15.38Q46.42,15.26,46.42,15.12Q46.42,13.36,46.4,12.72Q46.34,12.32,46.21,12.13Q46.08,11.94,45.64,11.68L45.66,11.62Q45.6,11.64,44.98,11.82Q45.08,14.3,45.14,15.64L45.2,17.22Q45.2,17.32,45.12,17.38Q45.04,17.44,44.94,17.42Q44.82,17.42,44.43,17.31Q44.04,17.2,43.74,17.08Q43.16,16.8,43.16,16.44Q43.16,13.88,43.1,12.8Q43.04,11.72,42.88,10.96Q42.84,10.52,42.65,10.31Q42.46,10.1,41.76,9.82L41.76,9.62Q42.28,9.66,43.16,9.81Q44.04,9.96,44.6,10.08Q44.86,10.16,44.92,10.44Q47.16,10.14,50.72,9.58Q54.28,9.02,54.44,8.86Q54.64,8.68,54.76,8.61Q54.88,8.54,55.02,8.6Q55.58,8.78,56.55,9.24Q57.52,9.7,57.98,10.1ZM54.14,15.06Q54.42,14.14,54.53,12.86Q54.64,11.58,54.62,10.36L53.88,10.44Q51.26,10.74,49.32,10.99Q47.38,11.24,45.92,11.56Q47.4,11.88,47.72,12.04L47.76,12.06Q50.16,11.64,50.42,11.46Q50.6,11.22,50.86,11.22Q51,11.22,51.77,11.45Q52.54,11.68,52.88,11.82Q52.96,11.88,52.96,11.96Q52.96,12.1,52.86,12.2Q52.78,12.26,52.66,12.48Q52.54,12.7,52.44,12.88Q52.12,13.4,51.9,13.8Q52.14,14.18,52.22,14.62L52.22,14.66Q52.22,14.8,52.12,14.88Q52.02,14.96,51.86,14.96Q51.72,14.96,51.62,14.94Q52.08,15.04,52.8,15.14Q53.52,15.24,53.68,15.26L53.82,15.28Q54.04,15.28,54.14,15.06ZM47.92,12.96L47.9,14.06Q49.46,13.9,49.18,13.92L50.2,13.82L50.54,12.52L47.92,12.96ZM79.7,14.34L79.68,14.56Q79.28,14.56,78.87,14.63Q78.46,14.7,78.24,14.82Q77.82,15.02,77.32,15.3Q76.82,15.58,76.62,15.76Q76.44,15.92,76.26,15.92Q76.1,15.92,75.94,15.8Q74.88,15.06,74.14,14.05Q73.4,13.04,72.78,11.68L72.82,14.82Q72.82,15.38,72.76,15.68Q72.7,15.98,72.54,16.4Q72.38,16.86,72.03,17.3Q71.68,17.74,71.28,17.74Q71.08,17.74,70.85,17.55Q70.62,17.36,70.5,17.06Q70.18,16.38,69.78,15.95Q69.38,15.52,68.78,15.22L68.9,14.9Q69.46,15.04,70.4,15.1L70.44,15.1Q70.74,15.1,70.74,14.7Q70.78,13.66,70.78,12.92L70.78,12.18Q69.46,14.28,66.14,15.8L65.88,15.5Q67.08,14.52,68.1,13.26Q69.12,12,69.76,10.72Q67.74,11.18,67.38,11.3Q67.1,11.38,67,11.38Q66.76,11.38,66.58,11.12Q66.14,10.38,65.68,9.92L65.68,10.68L65.64,16.82Q65.64,16.94,65.52,17.01Q65.4,17.08,65.28,17.08Q65.16,17.08,64.8,16.95Q64.44,16.82,64.06,16.64Q63.68,16.5,63.58,16.34Q63.48,16.18,63.5,15.94Q63.68,14.32,63.79,12.75Q63.9,11.18,63.92,10.54Q63.94,10.16,63.94,9.56Q63.94,9.06,63.92,8.88Q62.78,10.02,61.04,11.14L60.7,10.78Q63.5,7.8,64.66,4.04Q64.8,3.54,64.8,3.4Q64.8,3.18,64.64,2.9Q64.38,2.44,64.06,2.12L64.14,2.02Q65.6,2.28,67.44,3.4Q67.56,3.48,67.56,3.58Q67.56,3.7,67.42,3.8Q67.24,3.98,67,4.52Q66.82,4.9,66.64,5.22Q66.22,5.92,65.77,6.6Q65.32,7.28,64.86,7.84Q65.02,7.9,65.15,7.95Q65.28,8,65.38,8.04Q65.6,8.14,65.7,8.25Q65.8,8.36,65.8,8.54Q65.8,8.68,65.78,8.76Q65.72,9.04,65.7,9.5Q66.06,9.62,66.82,9.82Q68.4,9.64,70.7,9.24L70.68,8.96Q70.64,8.42,70.51,8.14Q70.38,7.86,70.12,7.72L70.1,7.72L70.14,8.6L70.14,8.62Q70.14,8.82,69.9,8.82Q69.84,8.8,69.46,8.71Q69.08,8.62,68.76,8.48Q68.46,8.32,68.35,8.19Q68.24,8.06,68.24,7.9L68.24,6.52Q68.24,4.74,68.1,4.02Q68.02,3.66,67.8,3.44Q67.58,3.22,67.2,3.04L67.36,2.82Q68.88,2.98,69.5,3.18Q69.78,3.24,69.84,3.52Q70.96,3.3,71.95,3.06Q72.94,2.82,73.14,2.7Q73.36,2.4,73.7,2.4Q73.82,2.4,73.88,2.42Q74,2.46,74.86,2.68Q75.72,2.9,76.14,3.08Q76.26,3.12,76.26,3.26Q76.26,3.32,76.22,3.4Q76.18,3.48,76.12,3.5Q75.98,3.58,75.88,3.75Q75.78,3.92,75.58,4.36L75.34,4.84Q74.88,5.68,74.84,5.78L74.9,5.84Q75.06,6.08,75.28,6.78Q75.3,6.82,75.3,6.9Q75.3,7.02,75.21,7.09Q75.12,7.16,75,7.16Q74.6,7.16,73.3,7.28Q72,7.4,71.02,7.54Q71.9,7.68,73.06,8.06Q73.16,8.1,73.16,8.22Q73.16,8.36,73.04,8.52Q73.02,8.54,72.92,8.62Q72.82,8.7,72.78,8.88L74.06,8.68Q74.88,8.56,75.59,8.44Q76.3,8.32,76.5,8.22Q76.68,8.12,76.88,8.12Q77.12,8.12,77.3,8.3Q77.48,8.46,77.71,8.78Q77.94,9.1,78.08,9.42Q78.12,9.5,78.12,9.64Q78.12,9.86,77.94,9.98Q77.76,10.1,77.58,10.06Q77.2,9.98,76.32,9.98Q75,9.98,72.98,10.16Q74.14,11.42,75.22,12.28Q75.98,12.92,76.7,13.27Q77.42,13.62,78.32,13.96L79.7,14.34ZM72.6,6.16Q72.88,5.12,73.04,3.98Q72.54,4.08,71.58,4.24Q70.42,4.42,69.9,4.52Q69.96,5.48,69.98,5.82Q69.98,6.1,70.02,6.62L72.6,6.16ZM98.36,13.24Q98.4,13.4,98.4,13.46Q98.4,13.72,98.21,13.91Q98.02,14.1,97.8,14.04Q97.36,13.9,96.05,13.8Q94.74,13.7,93.14,13.7Q91.24,13.7,89.62,13.84Q88.12,13.96,86.76,14.18Q87.4,14.44,87.95,14.78Q88.5,15.12,88.56,15.26Q88.58,15.3,88.58,15.36Q88.58,15.46,88.51,15.58Q88.44,15.7,88.38,15.74Q87.2,16.56,85.87,17.08Q84.54,17.6,82.82,17.86L82.62,17.46Q85.22,16.08,86.34,14.76Q86.38,14.68,86.38,14.64Q86.38,14.52,86.2,14.28Q84.78,14.54,82.96,15.1Q82.66,15.2,82.54,15.2Q82.34,15.2,82.22,15Q81.66,14.14,80.66,13.38L80.74,13.22Q81.06,13.28,82.26,13.38Q83.04,13.34,85.8,13.08L85.84,11.82Q84.46,11.82,83.58,11.9L83.54,11.64Q84.42,11.44,85.84,11.26L85.84,10.12Q84.64,10.14,83.82,10.22L83.76,9.96Q84.9,9.74,85.84,9.62Q85.84,8.8,85.82,8.48Q84.98,8.52,84.68,8.56L84.62,8.32Q85.08,8.2,85.8,8.08L85.76,7.72Q85.66,7,85.35,6.53Q85.04,6.06,84.48,5.8L84.52,5.7Q85.94,5.82,87.66,6.2L87.74,6.22L88.4,6.14Q88.48,5.72,88.6,4.92Q87.3,5.14,86.34,5.32Q85.38,5.5,85,5.58Q84.68,5.66,84.6,5.66Q84.44,5.66,84.32,5.52Q83.86,4.8,83.1,4.18L83.26,3.94L83.9,4.1L84.44,4.22Q85.66,4.16,88.72,3.72Q88.76,2.86,88.74,2.56Q88.74,2.28,88.48,2.03Q88.22,1.78,87.64,1.52L87.72,1.28Q88.52,1.4,89.63,1.66Q90.74,1.92,91.02,2.12Q91.08,2.18,91.08,2.26Q91.08,2.34,91.01,2.5Q90.94,2.66,90.9,2.8L90.76,3.4Q92.94,3.04,94.1,2.68Q94.26,2.64,94.3,2.64Q94.44,2.64,94.53,2.71Q94.62,2.78,94.69,2.86Q94.76,2.94,94.78,2.96Q95.36,3.58,95.5,3.92L95.54,4.08Q95.54,4.36,95.3,4.59Q95.06,4.82,94.84,4.74Q94.12,4.52,92.54,4.52Q91.34,4.52,90.54,4.62Q90.42,5.2,90.36,5.84Q91.24,5.66,91.42,5.5Q91.6,5.3,91.7,5.23Q91.8,5.16,91.96,5.16Q92.04,5.16,92.24,5.2Q93.22,5.44,94.36,5.98Q94.48,6.04,94.48,6.22Q94.48,6.4,94.36,6.56Q94.16,6.8,94.07,7.04Q93.98,7.28,93.96,7.78L93.94,11.5L93.94,12.24Q96.5,11.96,96.82,11.86L97.06,11.82Q97.24,11.82,97.35,11.88Q97.46,11.94,97.54,12.01Q97.62,12.08,97.64,12.1Q97.82,12.24,98.03,12.57Q98.24,12.9,98.36,13.24ZM87.64,7.82Q89.84,7.54,91.7,7.44L91.66,6.7Q89.7,6.8,87.7,7.16L87.64,7.82ZM87.6,9.4Q89.8,9.16,91.74,9.12L91.74,8.58Q90.92,8.44,88.42,8.44L87.6,8.44L87.6,9.4ZM87.6,11.08Q90.1,10.84,91.72,10.78L91.72,10.26Q90.48,10.08,87.6,10.08L87.6,11.08ZM91.62,12.48L91.66,11.92Q90.22,11.82,87.6,11.82Q87.62,12.2,87.62,12.9L89.32,12.72L91.62,12.48ZM90.56,14.08Q92.16,14.22,93.16,14.51Q94.16,14.8,94.98,15.44Q95.24,15.94,95.24,16.48Q95.24,16.68,95.14,17.28Q95.06,17.6,94.73,17.79Q94.4,17.98,94.06,17.98Q93.68,17.98,93.58,17.74Q93.5,17.56,93.36,17.29Q93.22,17.02,93.14,16.88Q93.08,16.76,92.97,16.59Q92.86,16.42,92.74,16.16Q92.56,15.8,91.93,15.24Q91.3,14.68,90.46,14.32L90.56,14.08ZM109.06,9.78Q109.16,9.6,109.34,9.5L109.72,9.24Q110.8,8.54,111.2,8.22Q111.6,7.9,111.8,7.48Q112.06,6.98,112.06,6.32Q112.06,4.76,110.32,4.76Q109.32,4.76,108.9,5.36Q108.48,5.96,108.48,7.2Q108.48,7.64,108.5,7.88L108.06,8.06Q107.38,7.26,106.6,6.48Q106.5,6.38,106.5,6.22Q106.5,5.82,107.06,5.25Q107.62,4.68,108.58,4.27Q109.54,3.86,110.68,3.86Q112.3,3.86,113.31,4.3Q114.32,4.74,114.32,5.94Q114.32,6.98,113.44,7.76Q113.38,7.82,113.13,8.04Q112.88,8.26,112.66,8.42Q112.44,8.58,112.2,8.7Q112.1,8.74,112.1,8.8Q112.1,8.88,112.26,8.9Q113.3,9.04,113.92,9.76Q114.3,10.2,114.48,10.67Q114.66,11.14,114.66,11.88Q114.66,12.78,114.27,13.58Q113.88,14.38,113.16,14.96Q112.44,15.54,111.52,15.86Q110.6,16.18,109.58,16.18Q108.68,16.18,107.96,15.95Q107.24,15.72,106.8,15.3Q106.8,13.46,106.54,12.68L107.12,12.48Q107.3,13.1,107.72,13.76Q108.14,14.42,108.69,14.87Q109.24,15.32,109.78,15.32Q112.16,15.32,112.16,12.34Q112.16,10.98,111.92,10.42Q111.66,9.8,110.98,9.8Q110.48,9.8,110.02,10.2L109.66,10.56L109.06,9.78ZM127.94,10.12Q127.94,11.4,127.52,12.48Q127.1,13.56,126.36,14.26Q125.54,15.04,124.86,15.32Q122.88,16.16,120.74,16.06Q118.98,15.98,118.26,15.98Q117.42,15.98,116.06,16.06L116.06,15.24Q116.44,15.16,116.63,15.04Q116.82,14.92,116.92,14.68Q117.04,14.38,117.04,13.82L117.04,6.18Q117.04,5.42,116.79,5.12Q116.54,4.82,115.86,4.74L115.86,3.92Q116.02,3.94,116.36,3.94Q116.68,3.94,117.84,3.86Q117.96,3.84,118.23,3.85Q118.5,3.86,118.92,3.84L120.02,3.82Q121.44,3.8,122.49,3.96Q123.54,4.12,124.42,4.5Q125.22,4.82,125.89,5.39Q126.56,5.96,127,6.7Q127.94,8.26,127.94,10.12ZM125.08,10.08Q125.08,8.22,124.37,6.93Q123.66,5.64,122.42,5.14Q121.92,4.94,121.37,4.88Q120.82,4.82,119.78,4.82Q119.7,4.82,119.64,4.87Q119.58,4.92,119.58,5L119.58,13.32Q119.58,14.14,119.66,14.44Q119.74,14.74,120.08,14.9Q120.42,15.08,121.14,15.08Q123.16,15.08,124.12,13.67Q125.08,12.26,125.08,10.08ZM134.5,5.4Q134.12,4.76,133.77,4.35Q133.42,3.94,132.92,3.56L133.06,3.34Q134.1,3.6,134.84,3.62Q136.64,3.5,138.34,3.18Q140.04,2.86,142.06,2.28Q142.3,2.22,142.46,2.22Q142.78,2.22,142.94,2.44Q143.1,2.62,143.35,3.02Q143.6,3.42,143.72,3.76Q143.84,4.08,143.84,4.34Q143.84,4.64,143.69,4.78Q143.54,4.92,143.34,4.84Q142.46,4.62,141.5,4.62Q140.88,4.62,139.88,4.74Q137.32,4.98,135.48,5.58Q135.26,5.64,135.06,5.64Q134.66,5.64,134.5,5.4ZM146.8,8.34Q146.84,8.54,146.84,8.66Q146.84,9.06,146.64,9.34Q146.44,9.62,146.22,9.5Q145.14,8.88,142.24,8.88Q140.42,8.88,138.5,9.12L138.26,9.14Q138.6,9.26,138.92,9.39Q139.24,9.52,139.48,9.7Q139.6,9.78,139.6,9.9Q139.6,10.04,139.39,10.28Q139.18,10.52,139.08,10.64Q138.06,11.78,135.7,13.52Q138.3,13.22,141.42,12.64Q140.72,11.62,139.8,10.86L139.92,10.58Q141.74,11,142.91,11.62Q144.08,12.24,144.74,13.26Q145.16,13.9,145.16,14.74Q145.16,15.28,145,15.7Q144.86,16.06,144.5,16.25Q144.14,16.44,143.76,16.44Q143.34,16.44,143.14,16.24Q142.96,16.06,142.78,15.66Q142.6,15.26,142.38,14.52Q142.28,14.16,142.08,13.76Q141.42,13.96,140.46,14.26Q139.5,14.56,138.96,14.74Q136.74,15.46,134.92,16.02Q134.7,16.1,134.42,16.35Q134.14,16.6,134.04,16.66Q133.88,16.76,133.68,16.61Q133.48,16.46,133.34,16.1Q132.44,14.18,131.9,13.42L132.08,13.22Q132.2,13.26,132.45,13.33Q132.7,13.4,132.98,13.42Q133.14,13.38,133.38,13.34Q133.62,13.3,133.68,13.24Q134.42,12.54,135.19,11.56Q135.96,10.58,136.32,9.88Q136.4,9.66,136.44,9.44Q135.16,9.66,134.07,9.94Q132.98,10.22,132.36,10.46Q132.18,10.54,131.96,10.54Q131.6,10.54,131.48,10.26Q131.12,9.5,130.83,9.04Q130.54,8.58,130.06,8.1L130.18,7.82Q130.7,8,131.12,8.11Q131.54,8.22,132.14,8.22Q134.24,8.22,138.2,7.66L139.12,7.54Q141.56,7.2,142.88,6.97Q144.2,6.74,145.08,6.4Q145.26,6.32,145.44,6.32Q145.78,6.32,145.92,6.6Q146.16,6.96,146.43,7.47Q146.7,7.98,146.8,8.34ZM167.74,15.54L167.74,15.78Q167.12,15.78,166.34,16Q165.94,16.12,165.2,16.52Q164.46,16.92,164.14,17.14Q163.88,17.34,163.7,17.34Q163.56,17.34,163.34,17.2Q161.66,16.08,159.8,13.82Q158.88,14.88,158.34,15.44Q157.94,15.84,157.44,16.44L156.62,17.38Q156.48,17.52,156.39,17.67Q156.3,17.82,156.16,17.96Q156.06,18.12,155.9,18.12Q155.72,18.12,155.62,17.92Q155.3,17.34,154.88,16.66Q154.46,15.98,154.26,15.84L154.36,15.72Q154.68,15.8,154.9,15.8Q155.22,15.8,155.4,15.68Q155.7,15.44,155.74,15.12Q155.84,12.92,155.86,12.1L155.38,12.24Q155.14,12.28,155.06,12.28Q154.82,12.28,154.74,12.14L154.4,11.6Q152.9,15.32,149.9,17.4L149.46,16.98Q151.44,14.58,152.5,11.76Q153.56,8.94,153.56,6.58Q153.56,5.76,153.48,5.28Q153.42,4.94,152.81,4.48Q152.2,4.02,151.64,3.68L151.72,3.42Q152.32,3.58,154.48,4.28Q155.18,4.52,155.84,4.74Q156.08,4.8,156.08,5.08Q156.08,5.2,156.02,5.32L155.9,5.62L156.34,5.56Q158.54,5.34,160.58,5.06Q160.74,4.68,160.8,4.38Q160.94,3.96,160.98,3.86Q161.02,3.74,161.02,3.68Q161.02,3.48,160.82,3.52Q159.08,3.76,155.54,4.4L155.44,4.4Q155.3,4.4,155.18,4.34L154.84,4.02Q154.64,3.8,154.26,3.46L153.68,3.02L153.82,2.74Q154.78,3.02,155.1,3Q156.54,2.88,158.58,2.57Q160.62,2.26,161.06,2.04Q161.12,1.98,161.23,1.84Q161.34,1.7,161.42,1.67Q161.5,1.64,161.64,1.66Q162.22,1.76,163.21,2.06Q164.2,2.36,164.5,2.6Q164.56,2.66,164.56,2.8Q164.56,2.98,164.48,3.1Q164.36,3.22,164.16,3.39Q163.96,3.56,163.74,3.82Q163.52,4.08,162.94,4.86Q163.38,5.14,163.62,5.58Q163.68,5.72,163.59,5.9Q163.5,6.08,163.33,6.2Q163.16,6.32,163.04,6.3Q162.16,6.14,161.52,6.14Q161.04,6.14,160.1,6.24L159.76,6.28Q161.02,6.52,161.96,6.86Q162.12,6.88,162.12,6.94Q162.12,6.98,162.05,7.11Q161.98,7.24,161.96,7.36L161.92,7.56Q163,7.36,163.4,7.22L163.56,7.18Q163.68,7.18,163.84,7.34Q163.94,7.44,164.14,7.85Q164.34,8.26,164.4,8.48L164.42,8.58Q164.42,8.84,164.06,8.84Q163.94,8.84,163.88,8.82Q163.52,8.7,162.76,8.7Q162.5,8.7,161.82,8.74Q161.78,9.1,161.74,9.94Q164.18,9.58,164.74,9.44Q164.98,9.4,165.04,9.4Q165.26,9.4,165.34,9.54Q165.44,9.64,165.69,10.08Q165.94,10.52,166.08,10.84Q166.12,10.96,166.12,11Q166.12,11.2,165.97,11.34Q165.82,11.48,165.68,11.44Q164.88,11.16,162.98,11.1Q163.46,11.42,163.83,11.72Q164.2,12.02,164.26,12.14Q164.3,12.22,164.3,12.28Q164.3,12.42,164.2,12.55Q164.1,12.68,164,12.72Q163.04,13.2,162.06,13.56Q163.3,14.26,164.4,14.69Q165.5,15.12,166.22,15.28L167.74,15.54ZM159.04,6.38Q156.8,6.68,155.66,6.84Q155.64,6.88,155.64,6.94Q155.48,7.86,155.36,8.36L155.64,8.42Q156.4,8.38,156.66,8.34Q156.62,8,156.62,8Q156.58,7.74,156.34,7.53Q156.1,7.32,155.66,7.08L155.72,6.92Q156.24,6.94,157.08,7.1Q157.92,7.26,158.48,7.44Q158.62,7.46,158.62,7.54Q158.62,7.58,158.57,7.69Q158.52,7.8,158.5,7.92L158.48,8.12L160.02,7.9Q160.02,7.44,160,7.38Q159.96,7.1,159.72,6.86Q159.48,6.62,159.04,6.38ZM160.02,8.9L159.48,8.96Q158.96,9.02,158.44,9.14L158.44,10.38Q159.48,10.26,160.02,10.18L160.02,8.9ZM154.78,10.8Q155.18,10.78,156.8,10.6L156.74,9.52L155.92,9.74L155.82,9.74Q155.5,9.74,155.4,9.54L155.18,9.18Q154.98,9.98,154.7,10.8L154.78,10.8ZM162.38,11.68Q162.46,11.52,162.46,11.44Q162.46,11.3,162.32,11.1Q161.3,11.1,160.28,11.22Q159.92,11.26,159.2,11.38Q160.54,12.54,161.24,13.04Q161.96,12.32,162.38,11.68ZM157.82,14.64Q158.74,14.06,159.52,13.5Q158.8,12.64,158.08,11.58Q157.72,11.66,157.56,11.68L157.56,12.84L157.56,14.8L157.82,14.64ZM186.4,7.4Q186.4,7.72,186.22,7.9Q186.04,8.08,185.82,8.08Q185.78,8.08,185.66,8.04Q185.12,7.84,183.6,7.84Q181.76,7.84,180.5,8.02Q181.26,8.24,182.68,8.84Q182.78,8.9,182.78,9.04Q182.78,9.2,182.62,9.42Q182.5,9.56,182.44,9.82Q182.38,10.08,182.38,10.76Q182.38,12.16,182.48,14.62Q182.5,15.48,182.15,16.01Q181.8,16.54,180.96,16.78Q180.28,17,179.19,17.14Q178.1,17.28,176,17.42L175.86,16.84Q177.28,16.4,177.92,16.03Q178.56,15.66,179.02,15.14Q179.36,14.74,179.51,14.28Q179.66,13.82,179.7,13.22Q179.76,12.46,179.79,11.51Q179.82,10.56,179.82,9.8Q179.72,9.12,179.62,8.79Q179.52,8.46,179.32,8.24Q178,8.54,177.45,8.79Q176.9,9.04,176.84,9.06Q176.58,9.16,176.46,9.16Q176.3,9.16,176.18,8.98Q175.9,8.48,175.36,7.74Q175.02,9.9,174.45,11.53Q173.88,13.16,172.8,14.58Q171.72,16,169.92,17.14L169.48,16.72Q171.54,14.38,172.42,12.01Q173.3,9.64,173.32,7.12Q173.32,6.58,173.18,5.94Q173.14,5.78,173.14,5.72Q172.8,5.72,172.68,5.5Q172.36,4.92,172.06,4.54Q171.76,4.16,171.28,3.8L171.34,3.58Q171.4,3.6,171.84,3.72Q172.28,3.84,172.88,3.86Q173.86,3.76,175.75,3.5Q177.64,3.24,178.68,3.06Q178.9,3.02,180.46,2.78Q182.1,2.52,182.9,2.37Q183.7,2.22,184.34,2Q184.56,1.94,184.7,1.94Q184.94,1.94,185.12,2.12Q185.26,2.3,185.52,2.75Q185.78,3.2,185.92,3.54Q185.96,3.66,185.96,3.74Q185.96,4.08,185.7,4.38Q185.44,4.68,185.22,4.6Q184.58,4.34,183.97,4.22Q183.36,4.1,182.54,4.1Q181.28,4.1,178.98,4.42Q177.1,4.7,175.16,5.16L175.64,5.28Q175.9,5.34,175.9,5.64Q175.9,5.74,175.84,5.86Q175.56,6.44,175.46,7.08Q175.7,7.14,175.9,7.18Q176.1,7.22,176.24,7.26Q177.86,7.16,180.67,6.69Q183.48,6.22,184.94,5.64Q185.06,5.6,185.12,5.6Q185.36,5.6,185.54,5.77Q185.72,5.94,185.76,5.96Q185.98,6.18,186.19,6.63Q186.4,7.08,186.4,7.4ZM212.5,14.62Q212.56,14.82,212.56,15.02Q212.56,15.62,212.06,16.1Q211.56,16.58,210.58,16.82Q209.54,17.08,207.88,17.25Q206.22,17.42,204.58,17.42Q202.78,17.42,201.6,17.22Q200.48,17.02,199.82,16.42Q199.16,15.82,199.16,15.02Q199.16,14.38,199.64,13.51Q200.12,12.64,200.78,11.86Q201.62,10.92,203.52,9.44Q202.66,9.58,201.55,9.9Q200.44,10.22,199.5,10.6Q199.36,10.66,199.26,10.66Q199.16,10.66,199.05,10.58Q198.94,10.5,198.82,10.36L197.48,8.34L197.64,8.14Q198.46,8.6,199.06,8.54Q200.16,8.48,201.78,8.23Q203.4,7.98,204.26,7.7Q204.48,7.6,204.63,7.36Q204.78,7.12,204.84,7.1L204.88,7.1Q205,7.1,205.16,7.18L204.98,7.06Q205.28,6.16,205.48,5.36Q204.68,5.38,203.76,5.5Q203.22,5.56,202.4,5.72L202.44,7.24Q202.44,7.52,202.29,7.62Q202.14,7.72,202,7.72Q201.78,7.72,201.27,7.63Q200.76,7.54,200.62,7.46Q200.48,7.38,200.42,7.3Q200.36,7.22,200.36,7.08L200.36,6.14Q199.12,6.44,198.38,6.72Q198.08,6.82,197.96,6.82Q197.76,6.82,197.64,6.64Q197.32,6.14,196.97,5.77Q196.62,5.4,196.1,5.02L196.18,4.82Q196.7,4.92,197.66,4.98Q198.12,4.96,200.3,4.7Q200.26,3.98,200.26,4.02Q200.24,3.7,200,3.56Q199.84,3.46,199.45,3.22Q199.06,2.98,198.26,2.68L198.3,2.46L198.74,2.52Q200.9,2.76,202.14,3Q202.5,3.08,202.42,3.88Q202.4,4.02,202.4,4.42L203.54,4.26Q203.96,4.18,204.84,4.08L205.74,3.96Q205.82,3.24,205.82,2.86Q205.82,2.52,205.6,2.22Q205.38,1.92,204.84,1.6L204.9,1.52Q206.1,1.7,207.02,1.95Q207.94,2.2,208.22,2.38Q208.32,2.46,208.32,2.54Q208.32,2.62,208.25,2.75Q208.18,2.88,208.16,2.94Q208.08,3.2,207.88,3.68Q208.04,3.66,208.5,3.6Q209.62,3.44,209.84,3.38L210.08,3.34Q210.32,3.34,210.47,3.46Q210.62,3.58,210.66,3.6Q210.84,3.72,211.04,4.05Q211.24,4.38,211.36,4.72Q211.4,4.8,211.4,4.98Q211.4,5.24,211.22,5.42Q211.04,5.6,210.84,5.54Q210.48,5.42,209.41,5.36Q208.34,5.3,207.04,5.32Q206.34,6.36,205.26,7.24Q205.64,7.44,206.22,7.86Q206.8,8.28,207.28,8.66Q207.36,8.72,207.36,8.82Q207.36,8.92,207.28,9.04Q207.2,9.16,207.1,9.22Q206.98,9.28,206.24,9.76Q205.44,10.26,204.48,10.98Q203.52,11.7,203,12.2Q201.48,13.72,201.48,14.24Q201.48,14.86,203.14,15.1Q203.38,15.14,203.92,15.14Q205.12,15.14,206.61,14.87Q208.1,14.6,208.92,14.24Q209.48,14,209.71,13.66Q209.94,13.32,209.98,12.78L210.06,10.14L210.32,10.06Q210.36,10.18,210.71,11.49Q211.06,12.8,211.4,13.4Q211.54,13.66,212,14.04Q212.46,14.42,212.5,14.62ZM216.2,7.4Q216.02,7.06,215.82,6.75Q215.62,6.44,215.42,6.26L215.48,6.14Q215.6,6.18,215.91,6.27Q216.22,6.36,216.7,6.4Q217.24,6.34,219.1,6.06L220.06,5.92Q220.02,4.54,219.98,4L219.96,3.46Q219.94,2.52,218.86,1.9L218.92,1.78Q219.7,1.9,220.62,2.07Q221.54,2.24,221.86,2.36Q221.98,2.42,221.98,2.56Q221.98,2.64,221.94,2.81Q221.9,2.98,221.88,3.1Q221.88,3.16,221.87,3.3Q221.86,3.44,221.86,3.72L221.88,4.86Q222.74,4.06,223.06,3.06Q223.1,2.94,223.1,2.88Q223.1,2.62,222.52,2.12L222.58,2.06Q223.36,2.34,224.08,2.67Q224.8,3,224.96,3.14Q225.06,3.22,225.06,3.36Q225.06,3.46,224.99,3.55Q224.92,3.64,224.86,3.68Q223.58,4.82,221.88,5.3L221.88,5.64Q223.9,5.28,224.22,5.2L224.46,5.16Q224.66,5.16,224.79,5.25Q224.92,5.34,224.94,5.36Q225.1,5.48,225.29,5.77Q225.48,6.06,225.56,6.34Q225.6,6.46,225.6,6.54Q225.6,6.8,225.41,6.99Q225.22,7.18,225.04,7.1Q224.26,6.78,223.14,6.78Q222.72,6.78,221.88,6.86L221.88,7.18Q222.1,7.16,222.48,7.16Q223.06,7.16,223.46,7.27Q223.86,7.38,224.22,7.62Q224.52,7.82,224.64,8.17Q224.76,8.52,224.7,8.82Q224.68,9.16,224.35,9.37Q224.02,9.58,223.8,9.46Q223.54,9.32,223.12,8.68Q222.86,8.26,222.61,7.99Q222.36,7.72,221.88,7.5Q221.88,9.34,221.86,9.56Q221.84,9.7,221.73,9.81Q221.62,9.92,221.5,9.9Q220.98,9.84,220.18,9.4Q220.1,9.34,220.04,9.28Q219.98,9.22,219.98,9.12L220,8.7Q220.04,8.38,220.04,8.24Q219.32,9.12,218.23,9.81Q217.14,10.5,215.8,10.94L215.66,10.62Q216.96,9.7,217.69,9.02Q218.42,8.34,219.18,7.26Q218.42,7.4,218,7.54Q217.58,7.68,217.1,7.9Q216.86,8.02,216.72,8.02Q216.58,8.02,216.46,7.86L216.2,7.4ZM233.68,14.78L233.72,15.08Q233.18,15.1,232.42,15.38Q231.88,15.6,231.36,15.91Q230.84,16.22,230.6,16.46Q230.34,16.78,230.08,16.78Q229.9,16.78,229.74,16.62Q228.36,15.28,227.48,13.9Q226.28,14.98,224.3,15.84Q224.28,15.86,224.28,15.9Q224.1,16.44,223.84,16.96Q223.68,17.26,223.52,17.26Q223.4,17.26,223.28,17.12Q222.54,16.32,221.38,15.56Q219.26,17,216.14,17.46L215.94,16.96Q218.38,16.14,220.1,14.82Q219.86,14.72,219.6,14.64Q219.4,14.58,219.26,14.58Q219.1,14.58,218.96,14.65Q218.82,14.72,218.6,14.88Q218.46,14.98,218.4,14.98Q218.32,14.98,218.22,14.88Q218.06,14.72,217.97,14.6Q217.88,14.48,217.76,14.2Q217.74,14.16,217.74,14.06Q217.74,13.84,217.86,13.72Q218.18,13.46,218.52,12.94L216.78,13.4Q216.74,13.42,216.66,13.42Q216.44,13.42,216.38,13.22Q216.32,12.88,216.01,12.22Q215.7,11.56,215.42,11.24L215.48,11.12Q215.86,11.38,216.11,11.45Q216.36,11.52,216.9,11.58Q217.04,11.6,217.42,11.6Q218.24,11.6,219.3,11.48Q219.46,11.12,219.6,10.72Q219.62,10.66,219.62,10.54Q219.62,10.28,219.41,10.03Q219.2,9.78,218.84,9.62L218.92,9.56Q219.58,9.6,221.62,10.22Q221.72,10.26,221.72,10.32Q221.72,10.42,221.6,10.5Q221.42,10.66,221.18,11.18Q223.72,10.74,224.7,10.5L224.76,11.04Q224,11.36,222.78,11.72Q223.72,12.04,224.2,12.3Q224.28,12.36,224.28,12.44Q224.28,12.58,224.12,12.7Q223.96,12.86,223.8,13.12L223.54,13.5Q223.16,14.02,222.72,14.46Q223.54,14.8,224.04,15.22Q225.78,14.02,226.74,12.54Q226.34,11.72,225.76,10.2L225.48,9.5L224.84,10.1L224.42,9.82Q225.22,8.64,225.79,7.02Q226.36,5.4,226.5,3.84Q226.54,3.48,226.54,3.36Q226.54,3.02,226.36,2.86Q226.12,2.64,225.8,2.45Q225.48,2.26,225.12,2.08L225.18,2.02Q225.9,2.08,227.06,2.31Q228.22,2.54,228.76,2.78Q228.88,2.84,228.88,2.94Q228.88,2.98,228.8,3.14Q228.7,3.3,228.55,3.83Q228.4,4.36,228.36,4.52Q228.12,5.24,227.68,6.24Q228.46,6.1,229.39,5.84Q230.32,5.58,230.82,5.38Q230.98,5.32,231.1,5.32Q231.38,5.32,231.54,5.6Q231.78,6.1,232.14,7.1Q232.2,7.2,232.05,7.4Q231.9,7.6,231.68,7.6Q231.54,7.6,231.48,7.56Q231.08,7.38,230.76,7.3Q230.44,7.22,230.02,7.22Q229.82,7.22,229.1,7.3L228.86,7.34L230.24,7.86Q230.42,7.92,230.42,8.12Q230.42,8.2,230.36,8.3Q230.12,8.64,230.03,9.02Q229.94,9.4,229.92,9.48Q229.48,11.24,228.74,12.42Q229.94,13.44,232.14,14.34L233.68,14.78ZM217.82,4.88Q217.64,4.48,217.23,4.06Q216.82,3.64,216.26,3.38L216.3,3.2Q217.52,3.28,218.13,3.46Q218.74,3.64,219.1,4Q219.46,4.36,219.46,4.76Q219.46,4.98,219.36,5.22Q219.26,5.46,219.05,5.61Q218.84,5.76,218.6,5.76Q218.42,5.76,218.32,5.68Q218.18,5.58,218.07,5.41Q217.96,5.24,217.82,4.88ZM226,8.9Q226.1,9.06,226.56,9.79Q227.02,10.52,227.48,11.1Q227.84,10.14,228.04,8.94Q228.08,8.7,228.08,8.62Q228.08,8.46,228.06,8.31Q228.04,8.16,228.02,8.04Q228,7.78,227.92,7.52Q227.42,7.62,227.02,7.74L226.84,7.78Q226.32,8.54,226,8.9ZM220.62,12.36Q220.28,13.02,219.88,13.58Q220.66,13.76,221.16,13.9Q221.66,13.4,221.86,12.94Q222.1,12.42,222.1,12.14Q222.1,12.06,222.06,11.94Q221.74,12.04,221.5,12.11Q221.26,12.18,221.1,12.22Q220.58,12.38,220.62,12.36ZM251.78,8.74Q251.82,8.84,251.74,9Q251.66,9.16,251.52,9.26Q251.38,9.36,251.24,9.32Q250.68,9.14,249.5,9.14Q248.38,9.14,246.26,9.34L245.5,9.4Q244.32,9.5,241.78,9.92L242.08,10.1Q242.14,10.12,242.14,10.22Q242.14,10.38,241.98,10.64Q241.88,10.86,241.8,11.46L241.64,12.3Q241.44,13.26,240.83,14.37Q240.22,15.48,239.07,16.45Q237.92,17.42,236.26,17.84L236.1,17.64Q237.74,16.34,238.6,14.5Q239.46,12.66,239.62,10.74Q239.64,10.6,239.64,10.3L238.78,10.46Q238.46,10.54,238.38,10.54Q238.12,10.54,237.98,10.32Q237.9,10.18,237.83,10.03Q237.76,9.88,237.68,9.76Q237.56,9.48,237.4,9.21Q237.24,8.94,237.06,8.76L237.18,8.58Q237.36,8.68,237.66,8.74Q237.96,8.8,238.14,8.84Q238.96,8.8,242.3,8.4Q242.3,8.4,242.29,8.39Q242.28,8.38,242.28,8.38Q241.96,7.52,241.8,7.22Q241.3,6.52,240.38,6.04L240.42,5.88Q241.54,6.04,242.05,6.13Q242.56,6.22,243.05,6.45Q243.54,6.68,243.92,7.12Q243.92,7.78,243.64,8.24L245.14,8.06Q245.62,7.34,245.86,6.77Q246.1,6.2,246.24,5.54L246.24,5.4Q246.24,5.28,246.18,5.18Q246.12,5.08,245.94,4.92Q245.36,4.98,244.68,5.08Q243.42,5.28,241.62,5.59Q239.82,5.9,239.62,5.96Q239.38,6.04,239.16,6.04Q238.94,6.04,238.84,5.86Q238.08,4.84,237.58,4.4L237.68,4.24Q237.78,4.28,238.26,4.36L238.68,4.42Q239.22,4.4,240.96,4.18Q242.7,3.96,244.54,3.68Q244.4,3.54,243.96,2.98Q243.6,2.52,243.11,2.23Q242.62,1.94,241.76,1.78L241.78,1.6Q241.96,1.58,242.85,1.44Q243.74,1.3,244.22,1.3Q244.84,1.3,245.34,1.62Q245.76,1.9,245.93,2.34Q246.1,2.78,246.08,3.2Q246.08,3.3,246.04,3.46Q248.58,3.04,249.14,2.88Q249.32,2.82,249.46,2.82Q249.66,2.82,249.77,2.89Q249.88,2.96,250.04,3.08Q250.18,3.2,250.38,3.55Q250.58,3.9,250.72,4.24Q250.78,4.42,250.63,4.66Q250.48,4.9,250.24,4.84Q249.82,4.72,248.92,4.72Q247.98,4.72,246.44,4.86Q247.12,5.08,247.7,5.3Q248.28,5.52,248.42,5.62Q248.54,5.7,248.54,5.86Q248.54,6.06,248.38,6.22Q247.5,7.1,246.48,7.88Q249.64,7.46,250.26,7.32Q250.38,7.28,250.56,7.28Q250.76,7.28,250.87,7.35Q250.98,7.42,251.1,7.54Q251.28,7.7,251.47,8.05Q251.66,8.4,251.78,8.74ZM272.6,14.9Q272.6,15.32,272.37,15.64Q272.14,15.96,271.92,15.82Q270.72,15.12,267.64,15.12Q265.96,15.12,264.06,15.3Q261.98,15.5,260.22,15.84Q258.46,16.18,257.54,16.54Q257.28,16.64,257.1,16.64Q256.74,16.64,256.62,16.34Q256.24,15.52,255.94,15.02Q255.64,14.52,255.12,14.02L255.24,13.72Q256.08,14.06,256.88,14.14Q257.16,14.18,257.86,14.18Q259.16,14.18,260.96,14Q261.16,13.04,261.16,10.78Q261.16,10.04,261.12,8.24L261.1,7.24Q261.06,5.38,260.98,4.9Q260.88,4.46,260.53,4.15Q260.18,3.84,259.22,3.36L259.28,3.22Q260.38,3.38,261.68,3.62Q262.98,3.86,263.44,4.02Q263.62,4.08,263.62,4.18Q263.62,4.24,263.55,4.43Q263.48,4.62,263.46,4.8Q263.44,4.94,263.42,5.13Q263.4,5.32,263.38,5.6Q263.26,7.16,263.26,8.4L263.26,10.56Q263.26,12.9,263.3,13.76Q263.44,13.76,263.76,13.72L264.54,13.64L264.52,13.52Q264.52,13.48,264.58,13.18Q264.8,11.94,264.8,8.58Q264.8,7.26,264.78,6.6Q264.78,5.62,264.75,4.94Q264.72,4.26,264.64,3.84Q264.56,3.36,264.32,3.06Q264.08,2.76,263.34,2.3L263.48,2.1Q264.22,2.22,265.37,2.5Q266.52,2.78,267.1,2.98Q267.28,3.04,267.28,3.14Q267.28,3.18,267.21,3.37Q267.14,3.56,267.12,3.76Q267.04,4.64,267.04,4.52Q266.94,5.86,266.94,6.74L266.94,9.28Q268.52,7.44,269,6.18Q269.06,6.04,268.88,5.87Q268.7,5.7,268.16,5.4L268.2,5.34Q268.82,5.32,269.63,5.49Q270.44,5.66,271.1,5.9Q271.76,6.14,271.86,6.24Q271.94,6.34,271.94,6.48Q271.94,6.68,271.84,6.84Q270.94,7.88,269.74,8.82Q268.54,9.76,266.94,10.74Q266.98,12.7,267.02,13.32Q269.66,12.94,270.86,12.52Q271.04,12.44,271.24,12.44Q271.6,12.44,271.78,12.74Q272,13.1,272.3,13.82Q272.6,14.54,272.6,14.9ZM258.14,10.38Q257.76,9.66,257.38,9.24Q257,8.82,256.06,8L256.18,7.8Q259.18,8.48,260.48,10.06Q260.56,10.44,260.56,10.76Q260.56,11.14,260.47,11.39Q260.38,11.64,260.18,12Q260.06,12.24,259.82,12.38Q259.58,12.52,259.34,12.52Q258.94,12.52,258.84,12.22Q258.78,12.04,258.6,11.48Q258.42,10.92,258.14,10.38ZM292.18,3Q292.3,3.02,292.3,3.16Q292.3,3.32,292.12,3.38Q291.64,3.52,291.52,4.7Q291.46,5.24,291.46,6.28Q291.46,7.8,291.56,10.1Q291.58,10.7,291.62,11.96Q291.66,13.22,291.66,14.02Q291.66,15.36,291.54,15.9Q291.52,16.02,291.23,16.43Q290.94,16.84,290.5,17.18Q290.06,17.52,289.6,17.56Q289.44,17.56,289.31,17.46Q289.18,17.36,289.05,17.18Q288.92,17,288.8,16.88Q288.78,16.86,288.56,16.61Q288.34,16.36,287.88,16Q286.7,15.74,284.92,15.74Q283.7,15.74,282.26,15.84Q280.74,15.96,279.32,16.22Q279.36,16.86,279.36,16.82L279.36,16.88Q279.36,17,279.31,17.09Q279.26,17.18,279.18,17.18Q278.98,17.14,278.46,16.97Q277.94,16.8,277.56,16.6Q277.18,16.42,277.06,16.28Q276.94,16.14,276.94,15.96Q276.94,14.86,277.14,11.26Q277.18,10.54,277.23,9.58Q277.28,8.62,277.32,7.46Q277.34,7.04,277.34,6.34Q277.34,5.16,277.22,4.66Q277.14,4.26,276.57,3.78Q276,3.3,275.26,2.96L275.32,2.84Q276.14,2.9,277.33,3.11Q278.52,3.32,279,3.48Q279.26,3.56,279.34,3.8L282.38,3.34Q284.9,2.96,286.31,2.72Q287.72,2.48,287.92,2.34Q288.32,1.86,288.86,1.86Q288.94,1.86,289.14,1.9Q289.58,2,290.24,2.26Q290.9,2.52,291.04,2.58Q291.86,2.9,292.18,3ZM288.96,13.66Q289.04,12.38,289.04,10.64Q289.04,7.34,288.78,3.76L279.42,5.1L279.36,5.78L279.24,7.68Q279.22,8.24,279.22,9.92Q279.22,12.8,279.28,14.94Q280,14.86,281.3,14.76Q283.12,14.6,284.95,14.41Q286.78,14.22,287.24,14.12Q287.44,14.08,287.5,14.08Q287.78,14.08,287.88,14.22L288.1,14.58Q288.28,14.6,288.52,14.6Q288.74,14.6,288.83,14.37Q288.92,14.14,288.96,13.66ZM281.74,7.32Q281.66,7.36,281.56,7.36Q281.38,7.36,281.3,7.14Q280.9,6.38,280.44,5.88L280.52,5.76Q281.12,5.96,281.5,5.98Q282.58,5.96,283.77,5.72Q284.96,5.48,285.74,5.12L285.86,5.08Q285.98,5.08,286.08,5.2Q286.18,5.32,286.2,5.36Q286.52,5.78,286.68,6.3L286.7,6.42Q286.7,6.58,286.6,6.69Q286.5,6.8,286.36,6.76Q286.1,6.7,285.66,6.7Q284.82,6.7,283.42,6.92Q282.1,7.18,281.74,7.32ZM287.96,11.36Q288.04,11.46,288.28,11.66Q288.7,12,288.74,12.22Q288.76,12.28,288.76,12.4Q288.76,12.78,288.44,13.08Q288.12,13.38,287.56,13.5Q286.86,13.64,286.38,13.64Q285.62,13.64,284.96,13.38Q284.46,13.18,284.18,12.69Q283.9,12.2,283.94,11.62L284,10.76Q284.04,9.9,284.08,9.62L284.08,9.52Q284.08,9.28,283.98,9.08L284,9L283.9,9.02Q283.1,9.16,282.24,9.38Q282.82,9.56,283.38,9.88Q283.48,9.92,283.48,10.02Q283.48,10.08,283.4,10.16Q283.3,10.24,283.06,10.76L282.88,11.16Q282.4,12.12,281.75,12.85Q281.1,13.58,279.78,14.14L279.56,13.92Q280.44,12.98,280.91,12.14Q281.38,11.3,281.6,10.38Q281.7,10.02,281.7,9.88Q281.7,9.74,281.62,9.58L281.04,9.76Q280.84,9.82,280.68,9.82Q280.46,9.82,280.34,9.68Q279.74,8.78,279.44,8.52L279.5,8.34Q279.82,8.46,280.48,8.42Q282.2,8.28,284.06,7.97Q285.92,7.66,286.96,7.32Q287.14,7.26,287.26,7.26Q287.5,7.26,287.6,7.42Q287.74,7.56,287.93,7.83Q288.12,8.1,288.22,8.34Q288.26,8.5,288.26,8.56Q288.26,8.78,288.11,8.94Q287.96,9.1,287.8,9.06Q287.26,8.84,286.12,8.84Q285.24,8.84,284.12,8.98Q284.28,9.02,284.68,9.11Q285.08,9.2,285.34,9.32Q285.4,9.34,285.4,9.4Q285.4,9.48,285.36,9.58Q285.32,9.68,285.32,9.74Q285.24,10.56,285.22,10.8Q285.2,10.94,285.18,11.07Q285.16,11.2,285.16,11.34Q285.16,11.58,285.27,11.7Q285.38,11.82,285.68,11.86Q285.92,11.9,286.04,11.9Q286.22,11.9,286.62,11.82Q286.9,11.74,287.02,11.53Q287.14,11.32,287.2,10.96L287.24,9.9L287.44,9.86Q287.52,10.22,287.67,10.69Q287.82,11.16,287.96,11.36Z" fill="#FFECE2" fill-opacity="1"/></g></svg>