<svg xmlns="http://www.w3.org/2000/svg" xmlns:xlink="http://www.w3.org/1999/xlink" fill="none" version="1.1" width="17.853759765625" height="6" viewBox="0 0 17.853759765625 6"><g><path d="M0.093093601171875,1.26456C1.487121201171875,4.03852,4.916851201171875,6,8.926881201171875,6C12.936881201171875,6,16.366681201171875,4.03852,17.760681201171874,1.26456C18.069881201171874,0.649213,17.566081201171876,-4.99953e-15,16.877481201171875,-2.563e-15C16.441081201171876,-1.01906e-15,16.061981201171875,0.269815,15.840181201171875,0.64566Q15.337781201171875,1.49719,14.405081201171875,2.23354Q12.167581201171876,4,8.926881201171875,4Q5.686171201171875,4,3.448651201171875,2.23354Q2.515951201171875,1.49719,2.013531201171875,0.64566C1.791781201171875,0.269815,1.412711201171875,-1.42348e-15,0.976321201171875,-2.31861e-15C0.287646201171875,-3.73122e-15,-0.216140798828125,0.649213,0.093093601171875,1.26456" fill-rule="evenodd" fill="#BCA669" fill-opacity="1"/></g></svg>