<svg xmlns="http://www.w3.org/2000/svg" xmlns:xlink="http://www.w3.org/1999/xlink" fill="none" version="1.1" width="161" height="60" viewBox="0 0 161 60"><g><path d="M3.12276,15.0673C-0.905559,15.0673,-1.17411,22.87,3.12276,22.87L23.5329,22.87C27.0241,22.87,27.0241,30.6726,23.5329,30.6726L16.819,30.6726Q16.819,33.9013,20.0417,33.9013L56.8337,33.9013Q58.6995,33.9013,59.4915,32.9792Q60.1813,32.1758,60.0563,30.6726L37.4978,30.6726C32.9324,30.6726,33.2009,22.87,37.4978,22.87L157.273,22.87C162.376,22.87,162.107,15.0673,157.273,15.0673L94.1628,15.0673C89.5974,15.0673,90.403,7.80269,94.1628,7.80269L124.241,7.80269C129.343,7.80269,127.732,0,124.241,0L86.9118,0L58.1765,0C53.8796,0,53.0739,7.80269,58.1765,7.80269L78.0495,7.80269C83.1521,7.80269,82.8835,15.0673,78.0495,15.0673L3.12276,15.0673ZM16.819,52.1973C11.448,52.1973,11.9851,60,16.819,60L60.0563,60C64.3532,60,64.3532,52.1973,60.0563,52.1973L16.819,52.1973Z" fill="#E7D194" fill-opacity="1"/></g></svg>