<svg xmlns="http://www.w3.org/2000/svg" xmlns:xlink="http://www.w3.org/1999/xlink" fill="none" version="1.1" width="16" height="16" viewBox="0 0 16 16"><defs><clipPath id="master_svg0_3814_49721"><rect x="0" y="0" width="16" height="16" rx="0"/></clipPath></defs><g clip-path="url(#master_svg0_3814_49721)"><g><path d="M1.5,5C1.223858,5,1,4.77614,1,4.5C1,4.22386,1.223858,4,1.5,4L14.5,4C14.7761,4,15,4.22386,15,4.5C15,4.77614,14.7761,5,14.5,5L1.5,5ZM13,5L14,5L14,12C14,13.3807,12.8807,14.5,11.5,14.5L4.5,14.5C3.11929,14.5,2,13.3807,2,12L2,5L3,5L3,6.5L2,6.5L2,5L3,5L3,12C3,12.8284,3.67157,13.5,4.5,13.5L11.5,13.5C12.3284,13.5,13,12.8284,13,12L13,5ZM5,6.75C5,6.47386,5.22386,6.25,5.5,6.25C5.77614,6.25,6,6.47386,6,6.75L6,11.75C6,12.0261,5.77614,12.25,5.5,12.25C5.22386,12.25,5,12.0261,5,11.75L5,6.75ZM10,6.75C10,6.47386,10.22386,6.25,10.5,6.25C10.77614,6.25,11,6.47386,11,6.75L11,11.75C11,12.0261,10.77614,12.25,10.5,12.25C10.22386,12.25,10,12.0261,10,11.75L10,6.75ZM4.5,4L3.5,4L3.5,3C3.5,2.171573,4.17157,1.5,5,1.5L11,1.5C11.8284,1.5,12.5,2.171573,12.5,3L12.5,4L11.5,4L11.5,3.5L12.5,3.5L12.5,4L11.5,4L11.5,3C11.5,2.72386,11.2761,2.5,11,2.5L5,2.5C4.72386,2.5,4.5,2.72386,4.5,3L4.5,4Z" fill="#979797" fill-opacity="1"/></g></g></svg>