<svg xmlns="http://www.w3.org/2000/svg" xmlns:xlink="http://www.w3.org/1999/xlink" fill="none" version="1.1" width="51" height="50" viewBox="0 0 51 50"><defs><clipPath id="master_svg0_3814_74699"><rect x="0" y="0" width="51" height="50" rx="0"/></clipPath></defs><g clip-path="url(#master_svg0_3814_74699)"><g style="opacity:0.4000000059604645;"><ellipse cx="25.5" cy="25" rx="21.5" ry="21" fill="#000000" fill-opacity="1"/></g><g style="opacity:0.8700000047683716;"><path d="M25.50020703125,1.849609375C12.51310703125,1.849609375,1.88720703125,12.269609375,1.88720703125,24.999609375C1.88720703125,37.729609375,12.51310703125,48.149609375,25.50020703125,48.149609375C38.48740703125,48.149609375,49.11320703125,37.732109375,49.11320703125,24.999609375C49.11320703125,12.267109375,38.48480703125,1.849609375,25.50020703125,1.849609375ZM25.50020703125,46.219609375C13.59680703125,46.219609375,3.85580703125,36.669609375,3.85580703125,24.999609375C3.85580703125,13.329609375,13.59680703125,3.7796093749999997,25.50020703125,3.7796093749999997C37.40360703125,3.7796093749999997,47.14460703125,13.329609375,47.14460703125,24.999609375C47.14460703125,36.669609375,37.40360703125,46.219609375,25.50020703125,46.219609375ZM32.90800703125,21.699609375L24.86270703125,16.549609375C22.14700703125,14.799609375,19.83410703125,15.967109375,19.83410703125,19.172109375L19.83410703125,30.822109375C19.83410703125,34.027109375,22.04500703125,35.192109375,24.86270703125,33.444609375L32.90800703125,28.299609375C35.62370703125,26.357109375,35.62370703125,23.444609375,32.90800703125,21.694609375L32.90800703125,21.699609375Z" fill="#FFFFFF" fill-opacity="1"/></g></g></svg>