<svg xmlns="http://www.w3.org/2000/svg" xmlns:xlink="http://www.w3.org/1999/xlink" fill="none" version="1.1" width="125" height="30" viewBox="0 0 125 30"><g><path d="M4.26,4.125Q4.5,3.765,4.875,3.48Q5.25,3.195,5.67,3.195Q5.91,3.195,6.45,3.615Q6.99,4.035,7.56,4.575L8.55,5.595Q8.97,6.105,8.97,6.225Q8.97,6.225,8.82,6.465Q8.67,6.675,8.49,6.915Q8.31,7.155,8.16,7.335Q7.98,7.515,7.89,7.515Q7.8,7.515,7.2,7.005Q6.6,6.495,5.94,5.895Q5.28,5.295,4.77,4.755Q4.26,4.155,4.26,4.125ZM16.74,15.255Q17.07,15.165,17.49,14.925Q17.91,14.685,18.24,14.685Q18.39,14.685,18.435,14.715Q18.48,14.745,18.57,14.895Q18.66,15.075,18.915,15.45Q19.17,15.825,19.44,16.185Q19.56,16.395,19.68,16.545Q19.8,16.695,19.92,16.845Q20.13,17.145,20.25,17.145Q20.31,17.055,20.355,16.92Q20.4,16.785,20.46,16.605Q20.61,16.245,20.685,16.02Q20.76,15.795,20.94,15.195L21.27,13.905Q21.45,13.215,21.615,12.615Q21.78,12.015,21.87,11.745Q21.78,11.445,21.93,10.845Q22.08,10.245,22.08,9.975Q21.93,9.975,21.435,10.02Q20.94,10.065,20.4,10.125Q20.16,10.155,19.92,10.185Q19.68,10.215,19.47,10.275Q19.02,10.365,18.99,10.455Q18.93,10.515,18.87,10.68Q18.81,10.845,18.72,11.085L18.57,11.505L18.45,11.745L17.64,13.365Q17.37,13.905,17.1,14.37Q16.83,14.835,16.74,15.015L16.74,15.255ZM7.77,20.535L10.35,21.345Q10.38,21.255,10.47,21.165Q10.47,21.135,10.5,21.105Q10.53,21.075,10.56,21.015L10.68,20.895Q10.8,20.655,10.965,20.4Q11.13,20.145,11.34,19.815L11.97,18.645L11.97,18.525L11.64,18.435L9.06,18.435L8.97,18.525Q8.85,18.645,8.82,18.705L8.46,19.305Q8.4,19.365,8.385,19.41Q8.37,19.455,8.34,19.485L7.98,19.935L7.74,20.235L7.59,20.415L7.77,20.535ZM9.18,7.875L9.18,1.305L11.4,2.025L11.4,2.355Q11.4,3.075,11.385,3.765Q11.37,4.455,11.37,5.115Q11.34,5.775,11.325,6.465Q11.31,7.155,11.31,7.875Q11.88,7.875,12.435,7.86Q12.99,7.845,13.53,7.815Q14.1,7.785,14.625,7.77Q15.15,7.755,15.66,7.755Q15.84,7.755,15.99,7.965Q16.14,8.175,16.2,8.445Q16.26,8.715,16.29,9Q16.32,9.285,16.32,9.405Q16.35,9.435,16.35,9.585Q16.35,9.735,16.2,9.735L15.57,9.735Q15.21,9.735,14.865,9.72Q14.52,9.705,14.19,9.675Q13.86,9.645,13.5,9.645Q13.14,9.645,12.81,9.645L11.85,9.645Q11.79,9.645,11.685,9.66Q11.58,9.675,11.43,9.705Q11.4,9.735,11.19,9.735L11.19,10.695L11.31,10.815L11.52,10.695L11.73,10.695L15.36,11.865L15.48,11.955Q15.57,12.045,15.57,12.105L15.57,12.195L15.36,12.435L14.61,14.205L11.31,11.865L11.19,11.865Q11.19,11.955,11.175,12.105Q11.16,12.255,11.13,12.495Q11.1,12.735,11.085,12.9Q11.07,13.065,11.07,13.155Q11.07,13.365,11.1,13.455Q11.1,13.875,11.01,14.085Q10.98,14.205,10.77,14.205Q10.29,14.205,10.05,14.085Q9.81,13.965,9.39,13.965L9.18,13.965Q9.33,14.205,9.63,14.4Q9.93,14.595,10.2,14.775Q10.5,14.955,10.695,15.135Q10.89,15.315,10.89,15.495L10.14,16.545L10.14,16.785L12.69,16.665Q12.84,16.665,12.9,16.425Q12.96,16.185,13.14,16.185L13.32,16.185L15.03,17.145L15.15,17.235L15.15,17.355Q14.64,17.805,14.31,18.345Q13.98,18.885,13.65,19.485L13.02,20.685Q12.87,20.985,12.705,21.27Q12.54,21.555,12.36,21.825L12.27,22.065L15.03,22.995L14.31,24.615L14.31,24.975Q14.52,24.975,14.91,24.675Q15.3,24.405,15.78,23.88Q16.26,23.355,16.8,22.695Q17.37,22.065,17.835,21.45Q18.3,20.835,18.63,20.325Q18.81,20.085,18.915,19.905Q19.02,19.725,19.08,19.605L19.08,19.485L18.81,19.035Q18.39,18.375,17.91,17.685L17.61,17.235L17.49,17.145Q17.37,17.055,17.34,16.905Q17.28,16.785,17.205,16.68Q17.13,16.575,17.07,16.425L16.8,15.975L16.65,15.735L16.53,15.615Q16.62,15.795,16.5,15.93Q16.38,16.065,16.2,16.065Q16.05,16.005,15.855,15.915Q15.66,15.825,15.42,15.765Q14.94,15.615,14.7,15.255Q14.79,15.165,14.91,15.015Q15.03,14.865,15.03,14.775Q15.12,14.655,15.285,14.31Q15.45,13.965,15.6,13.545L16.11,12.315Q16.14,12.255,16.17,12.12Q16.2,11.985,16.29,11.745L16.98,9.855L17.16,9.285L17.28,9.045L17.28,8.925L18.99,1.665L21.3,2.835Q21.39,2.925,21.405,2.97Q21.42,3.015,21.42,3.195L21.42,3.315Q21.18,3.825,20.955,4.47Q20.73,5.115,20.49,5.775Q20.4,6.105,20.295,6.42Q20.19,6.735,20.07,7.065L19.74,8.235L20.13,8.235Q21.66,8.235,23.19,8.055Q24.72,7.875,26.22,7.875Q26.31,7.875,26.445,7.89Q26.58,7.905,26.67,7.995Q26.67,8.085,26.685,8.235Q26.7,8.385,26.76,8.625Q26.88,9.015,26.88,9.285L26.88,9.525Q26.85,9.555,26.85,9.705Q26.79,9.855,26.76,9.855L23.76,9.855Q23.85,10.035,24.105,10.125Q24.36,10.215,24.54,10.215Q24.54,10.575,24.465,10.8Q24.39,11.025,24.3,11.265Q24.06,12.225,23.82,13.215Q23.58,14.205,23.34,15.225Q23.07,16.245,22.695,17.19Q22.32,18.135,21.87,19.005L21.87,19.365Q21.93,19.485,22.02,19.575Q22.11,19.665,22.17,19.755Q22.32,19.905,22.41,20.085Q22.5,20.265,22.59,20.415Q23.19,21.105,23.745,21.75Q24.3,22.395,24.93,22.995L25.74,23.685Q25.98,23.895,26.175,24.075Q26.37,24.255,26.43,24.285Q26.49,24.345,26.565,24.39Q26.64,24.435,26.76,24.495L27.75,25.125Q27.9,25.305,28.05,25.335L28.14,25.575L28.05,25.695Q27.39,26.115,26.73,26.37Q26.07,26.625,25.26,26.625Q24.63,26.625,24.195,26.235Q23.76,25.845,23.37,25.335L20.67,21.585L20.58,21.465L20.46,21.465Q19.5,22.815,18.435,23.895Q17.37,24.975,16.11,26.025Q15.93,26.205,15.66,26.355Q15.39,26.505,15.15,26.505L15.03,26.505L13.86,25.215L10.77,23.685L10.68,23.685Q9.15,24.735,7.56,25.47Q5.97,26.205,4.17,26.745L4.08,26.745Q3.84,26.385,3.585,25.965Q3.33,25.545,3.09,25.095Q3.12,25.095,3.3,25.035Q3.54,24.975,3.54,24.975Q4.92,24.555,6.165,24.06Q7.41,23.565,8.67,22.875Q8.25,22.605,7.95,22.425Q7.65,22.245,7.32,22.095L5.88,21.465Q5.76,21.345,5.58,21.315Q5.37,21.285,5.37,21.105L5.37,20.985Q5.43,20.745,5.43,20.775L5.67,20.265Q5.85,20.025,6.015,19.77Q6.18,19.515,6.3,19.275Q6.42,19.065,6.42,18.765Q5.64,18.765,5.19,18.885Q4.68,19.005,3.96,19.005Q3.87,19.005,3.75,18.795Q3.39,18.345,3.21,17.775Q3.09,17.565,3.09,17.355L3.09,17.235Q3.6,17.055,4.125,17.01Q4.65,16.965,5.19,16.935L6.27,16.935Q6.51,16.965,6.765,16.95Q7.02,16.935,7.26,16.905Q7.41,16.905,7.47,16.89Q7.53,16.875,7.68,16.785Q7.83,16.455,7.95,16.155Q8.07,15.855,8.22,15.555Q8.46,14.985,8.655,14.415Q8.85,13.845,8.97,13.245Q9.06,12.675,9.06,11.985L8.97,11.985Q8.7,12.255,8.415,12.495Q8.13,12.735,7.89,12.975Q7.62,13.215,7.47,13.395L7.38,13.485L6.93,13.815Q6.78,13.935,6.615,14.055Q6.45,14.175,6.27,14.295L5.13,15.135L4.98,15.285Q4.92,15.345,4.845,15.375Q4.77,15.405,4.71,15.465Q4.56,15.615,4.44,15.645Q4.29,15.735,4.26,15.735Q4.11,15.735,3.84,15.585Q3.57,15.435,3.33,15.225Q3.18,15.105,3.075,15.015Q2.97,14.925,2.88,14.835Q2.67,14.655,2.67,14.565L2.67,14.445Q3.24,14.175,3.735,13.83Q4.23,13.485,4.71,13.155L6.78,11.535Q7.86,10.695,8.67,9.735L8.01,9.735Q7.05,9.735,6.21,9.915Q5.34,10.095,4.47,10.095L4.17,10.095Q4.11,9.975,3.99,9.72Q3.87,9.465,3.72,9.225Q3.57,8.985,3.435,8.76Q3.3,8.535,3.3,8.445L3.42,8.355Q4.86,8.175,6.27,8.04Q7.68,7.905,9.06,7.995L9.18,7.875ZM11.52,6.105Q12.36,5.355,13.14,4.395Q13.47,3.975,13.86,3.555Q14.25,3.135,14.7,2.715L14.97,2.895L15.36,3.165Q15.57,3.345,15.735,3.48Q15.9,3.615,15.99,3.645Q16.35,4.005,16.47,4.095Q16.53,4.125,16.65,4.245L16.74,4.365L16.74,4.485L16.65,4.605Q15.45,5.025,14.37,5.775Q13.32,6.465,12.18,7.065L12.06,7.065Q11.73,7.065,11.565,6.84Q11.4,6.615,11.4,6.345L11.52,6.105ZM47.67,5.655Q47.85,5.445,47.85,5.175L47.97,4.875Q47.97,4.785,48,4.695Q48.03,4.605,48.06,4.485L48.15,4.095Q48.18,4.035,48.18,3.885L48.18,3.765Q48.21,3.645,48.24,3.495Q48.27,3.345,48.27,3.135Q48.33,2.745,48.42,2.355Q48.51,1.965,48.6,1.545L48.84,1.545L51.27,2.955L50.19,5.295L50.19,5.535L51.21,5.475Q51.63,5.445,52.065,5.43Q52.5,5.415,52.92,5.415L53.94,5.415L55.44,5.415Q55.53,5.475,55.62,5.73Q55.71,5.985,55.77,6.315Q55.83,6.645,55.83,6.96Q55.83,7.275,55.83,7.395Q55.35,7.395,54.885,7.38Q54.42,7.365,53.94,7.335Q53.46,7.305,52.98,7.29Q52.5,7.275,52.02,7.275L50.85,7.275Q50.7,7.275,50.505,7.29Q50.31,7.305,50.07,7.335L49.56,7.395L49.35,7.635L48.51,9.645L48.51,10.095L48.6,10.455L48.51,10.575L48.18,10.575Q47.31,10.575,46.68,10.215L46.68,10.095Q46.68,9.405,46.95,8.805Q47.22,8.235,47.22,7.515Q46.59,7.515,45.945,7.515Q45.3,7.515,44.64,7.485Q43.29,7.485,42,7.755Q42.09,8.355,42.15,9.045Q42.21,9.735,42.21,10.335L42.12,10.455L41.67,10.455Q41.61,10.455,41.295,10.425Q40.98,10.395,40.65,10.335Q40.5,10.305,40.35,10.29Q40.2,10.275,40.05,10.215Q39.78,10.125,39.78,9.975L39.78,7.875Q39.39,7.875,39,7.875Q38.61,7.875,38.22,7.845Q37.53,7.815,36.66,7.995Q36.18,8.085,35.7,8.16Q35.22,8.235,34.77,8.235L34.2,8.235Q34.17,7.875,33.87,7.395Q33.57,6.915,33.57,6.585Q33.57,6.495,33.6,6.42Q33.63,6.345,33.81,6.345Q34.5,6.285,35.19,6.255Q35.88,6.225,36.57,6.195Q37.26,6.165,37.95,6.12Q38.64,6.075,39.33,5.985Q39.45,5.985,39.45,5.775Q39.45,5.475,39.375,5.07Q39.3,4.665,39.18,4.245L38.94,3.405Q38.88,3.195,38.82,3.03Q38.76,2.865,38.7,2.715L38.61,2.475Q38.61,2.445,38.67,2.385Q38.76,2.385,38.79,2.355Q38.94,2.355,39.045,2.37Q39.15,2.385,39.27,2.415Q39.42,2.445,39.525,2.46Q39.63,2.475,39.78,2.475Q39.93,2.535,40.185,2.58Q40.44,2.625,40.68,2.655Q40.83,2.685,40.965,2.7Q41.1,2.715,41.25,2.715L41.37,2.835Q41.37,3.345,41.46,3.825L41.58,4.665Q41.61,4.905,41.64,5.085Q41.67,5.265,41.67,5.415L41.67,5.535L41.79,5.895Q43.23,5.715,44.7,5.715Q45.45,5.745,46.185,5.73Q46.92,5.715,47.67,5.655ZM35.82,12.555Q36.45,12.285,37.38,12.345Q38.22,12.405,39.27,12.315Q40.32,12.225,41.58,12.075Q42.84,11.925,44.1,11.85Q45.36,11.775,46.53,11.715Q47.13,11.685,47.73,11.61Q48.33,11.535,48.93,11.385Q49.14,11.295,49.29,11.145Q49.41,11.025,49.68,11.025Q49.71,11.025,50.07,11.295Q50.49,11.595,50.91,11.94Q51.33,12.285,51.66,12.615Q52.02,12.945,52.02,13.035Q52.02,13.125,51.78,13.2Q51.54,13.275,51.48,13.275L50.46,13.815Q50.1,13.965,49.95,14.085Q49.74,14.205,49.68,14.205L43.92,18.075Q42.87,18.765,41.805,19.71Q40.74,20.655,39.87,21.705Q39.72,21.885,39.525,22.2Q39.33,22.515,39.33,22.875Q39.51,23.145,39.825,23.28Q40.14,23.415,40.47,23.475Q41.07,23.625,41.79,23.685L41.97,23.685L42.33,23.745Q42.51,23.775,42.66,23.79Q42.81,23.805,42.87,23.805L47.76,23.805Q47.94,23.805,48.03,23.775Q48.15,23.775,48.285,23.775Q48.42,23.775,48.57,23.745L49.08,23.685L49.35,23.685L50.16,23.685Q50.64,23.715,51.105,23.685Q51.57,23.655,51.99,23.535Q52.5,23.445,52.77,23.235Q52.89,23.145,53.04,22.905Q53.1,22.665,53.16,22.545Q53.22,22.425,53.31,22.155Q53.37,22.005,53.385,21.87Q53.4,21.735,53.46,21.585Q53.52,21.285,53.58,21.015Q53.64,20.745,53.7,20.655L53.7,20.535Q53.7,20.475,53.715,20.4Q53.73,20.325,53.76,20.175Q53.79,20.055,53.82,19.92Q53.85,19.785,53.88,19.635Q53.91,19.485,53.94,19.365Q53.97,19.245,53.97,19.095Q54,18.945,54.015,18.87Q54.03,18.795,54.03,18.765Q54.03,18.675,54.165,18.66Q54.3,18.645,54.36,18.645Q54.51,18.645,54.66,18.855Q54.81,19.065,54.87,19.245Q54.9,19.425,55.005,19.86Q55.11,20.295,55.2,20.805Q55.26,21.045,55.305,21.285Q55.35,21.525,55.41,21.765L55.53,22.395L55.89,23.535Q56.07,24.045,56.07,24.615Q56.07,24.885,55.875,25.185Q55.68,25.485,55.44,25.575Q53.58,25.995,51.525,26.01Q49.47,26.025,47.67,26.025L46.38,26.025L44.94,25.965Q44.43,25.935,44.01,25.92Q43.59,25.905,43.47,25.905Q42.72,25.875,41.67,25.8Q40.62,25.725,39.57,25.455Q38.55,25.185,37.725,24.69Q36.9,24.195,36.66,23.235L36.66,22.395Q36.72,21.735,36.885,21.315Q37.05,20.895,37.32,20.535L37.77,20.115Q37.89,20.055,38.19,19.785Q38.49,19.515,38.58,19.455Q38.64,19.425,38.715,19.365Q38.79,19.305,38.85,19.245Q39.03,19.155,39.465,18.825Q39.9,18.495,40.32,18.165Q40.74,17.835,41.085,17.55Q41.43,17.265,41.58,17.145L41.67,17.025Q41.79,16.935,42,16.77Q42.21,16.605,42.42,16.425Q42.63,16.275,42.765,16.14Q42.9,16.005,42.96,15.945Q43.05,15.885,43.185,15.765Q43.32,15.645,43.56,15.495Q43.98,15.165,44.49,14.79Q45,14.415,45.48,14.085Q45.72,13.935,45.885,13.8Q46.05,13.665,46.17,13.605L46.17,13.485Q44.61,13.485,43.125,13.635Q41.64,13.785,40.08,13.965Q39.33,14.055,38.61,14.235Q37.89,14.445,37.11,14.445Q37.02,14.445,36.84,14.175Q36.63,13.935,36.42,13.59Q36.21,13.245,36.03,12.945L35.82,12.555ZM64.26,4.125Q64.5,3.765,64.875,3.48Q65.25,3.195,65.67,3.195Q65.91,3.195,66.45,3.615Q66.99,4.035,67.56,4.575L68.55,5.595Q68.97,6.105,68.97,6.225Q68.97,6.225,68.82,6.465Q68.67,6.675,68.49,6.915Q68.31,7.155,68.16,7.335Q67.98,7.515,67.89,7.515Q67.8,7.515,67.2,7.005Q66.6,6.495,65.94,5.895Q65.28,5.295,64.77,4.755Q64.26,4.155,64.26,4.125ZM76.74,15.255Q77.07,15.165,77.49,14.925Q77.91,14.685,78.24,14.685Q78.39,14.685,78.435,14.715Q78.48,14.745,78.57,14.895Q78.66,15.075,78.915,15.45Q79.17,15.825,79.44,16.185Q79.56,16.395,79.68,16.545Q79.8,16.695,79.92,16.845Q80.13,17.145,80.25,17.145Q80.31,17.055,80.355,16.92Q80.4,16.785,80.46,16.605Q80.61,16.245,80.685,16.02Q80.76,15.795,80.94,15.195L81.27,13.905Q81.45,13.215,81.615,12.615Q81.78,12.015,81.87,11.745Q81.78,11.445,81.93,10.845Q82.08,10.245,82.08,9.975Q81.93,9.975,81.435,10.02Q80.94,10.065,80.4,10.125Q80.16,10.155,79.92,10.185Q79.68,10.215,79.47,10.275Q79.02,10.365,78.99,10.455Q78.93,10.515,78.87,10.68Q78.81,10.845,78.72,11.085L78.57,11.505L78.45,11.745L77.64,13.365Q77.37,13.905,77.1,14.37Q76.83,14.835,76.74,15.015L76.74,15.255ZM67.77,20.535L70.35,21.345Q70.38,21.255,70.47,21.165Q70.47,21.135,70.5,21.105Q70.53,21.075,70.56,21.015L70.68,20.895Q70.8,20.655,70.965,20.4Q71.13,20.145,71.34,19.815L71.97,18.645L71.97,18.525L71.64,18.435L69.06,18.435L68.97,18.525Q68.85,18.645,68.82,18.705L68.46,19.305Q68.4,19.365,68.385,19.41Q68.37,19.455,68.34,19.485L67.98,19.935L67.74,20.235L67.59,20.415L67.77,20.535ZM69.18,7.875L69.18,1.305L71.4,2.025L71.4,2.355Q71.4,3.075,71.385,3.765Q71.37,4.455,71.37,5.115Q71.34,5.775,71.325,6.465Q71.31,7.155,71.31,7.875Q71.88,7.875,72.435,7.86Q72.99,7.845,73.53,7.815Q74.1,7.785,74.625,7.77Q75.15,7.755,75.66,7.755Q75.84,7.755,75.99,7.965Q76.14,8.175,76.2,8.445Q76.26,8.715,76.29,9Q76.32,9.285,76.32,9.405Q76.35,9.435,76.35,9.585Q76.35,9.735,76.2,9.735L75.57,9.735Q75.21,9.735,74.865,9.72Q74.52,9.705,74.19,9.675Q73.86,9.645,73.5,9.645Q73.14,9.645,72.81,9.645L71.85,9.645Q71.79,9.645,71.685,9.66Q71.58,9.675,71.43,9.705Q71.4,9.735,71.19,9.735L71.19,10.695L71.31,10.815L71.52,10.695L71.73,10.695L75.36,11.865L75.48,11.955Q75.57,12.045,75.57,12.105L75.57,12.195L75.36,12.435L74.61,14.205L71.31,11.865L71.19,11.865Q71.19,11.955,71.175,12.105Q71.16,12.255,71.13,12.495Q71.1,12.735,71.085,12.9Q71.07,13.065,71.07,13.155Q71.07,13.365,71.1,13.455Q71.1,13.875,71.01,14.085Q70.98,14.205,70.77,14.205Q70.29,14.205,70.05,14.085Q69.81,13.965,69.39,13.965L69.18,13.965Q69.33,14.205,69.63,14.4Q69.93,14.595,70.2,14.775Q70.5,14.955,70.695,15.135Q70.89,15.315,70.89,15.495L70.14,16.545L70.14,16.785L72.69,16.665Q72.84,16.665,72.9,16.425Q72.96,16.185,73.14,16.185L73.32,16.185L75.03,17.145L75.15,17.235L75.15,17.355Q74.64,17.805,74.31,18.345Q73.98,18.885,73.65,19.485L73.02,20.685Q72.87,20.985,72.705,21.27Q72.54,21.555,72.36,21.825L72.27,22.065L75.03,22.995L74.31,24.615L74.31,24.975Q74.52,24.975,74.91,24.675Q75.3,24.405,75.78,23.88Q76.26,23.355,76.8,22.695Q77.37,22.065,77.835,21.45Q78.3,20.835,78.63,20.325Q78.81,20.085,78.915,19.905Q79.02,19.725,79.08,19.605L79.08,19.485L78.81,19.035Q78.39,18.375,77.91,17.685L77.61,17.235L77.49,17.145Q77.37,17.055,77.34,16.905Q77.28,16.785,77.205,16.68Q77.13,16.575,77.07,16.425L76.8,15.975L76.65,15.735L76.53,15.615Q76.62,15.795,76.5,15.93Q76.38,16.065,76.2,16.065Q76.05,16.005,75.855,15.915Q75.66,15.825,75.42,15.765Q74.94,15.615,74.7,15.255Q74.79,15.165,74.91,15.015Q75.03,14.865,75.03,14.775Q75.12,14.655,75.285,14.31Q75.45,13.965,75.6,13.545L76.11,12.315Q76.14,12.255,76.17,12.12Q76.2,11.985,76.29,11.745L76.98,9.855L77.16,9.285L77.28,9.045L77.28,8.925L78.99,1.665L81.3,2.835Q81.39,2.925,81.405,2.97Q81.42,3.015,81.42,3.195L81.42,3.315Q81.18,3.825,80.955,4.47Q80.73,5.115,80.49,5.775Q80.4,6.105,80.295,6.42Q80.19,6.735,80.07,7.065L79.74,8.235L80.13,8.235Q81.66,8.235,83.19,8.055Q84.72,7.875,86.22,7.875Q86.31,7.875,86.445,7.89Q86.58,7.905,86.67,7.995Q86.67,8.085,86.685,8.235Q86.7,8.385,86.76,8.625Q86.88,9.015,86.88,9.285L86.88,9.525Q86.85,9.555,86.85,9.705Q86.79,9.855,86.76,9.855L83.76,9.855Q83.85,10.035,84.105,10.125Q84.36,10.215,84.54,10.215Q84.54,10.575,84.465,10.8Q84.39,11.025,84.3,11.265Q84.06,12.225,83.82,13.215Q83.58,14.205,83.34,15.225Q83.07,16.245,82.695,17.19Q82.32,18.135,81.87,19.005L81.87,19.365Q81.93,19.485,82.02,19.575Q82.11,19.665,82.17,19.755Q82.32,19.905,82.41,20.085Q82.5,20.265,82.59,20.415Q83.19,21.105,83.745,21.75Q84.3,22.395,84.93,22.995L85.74,23.685Q85.98,23.895,86.175,24.075Q86.37,24.255,86.43,24.285Q86.49,24.345,86.565,24.39Q86.64,24.435,86.76,24.495L87.75,25.125Q87.9,25.305,88.05,25.335L88.14,25.575L88.05,25.695Q87.39,26.115,86.73,26.37Q86.07,26.625,85.26,26.625Q84.63,26.625,84.195,26.235Q83.76,25.845,83.37,25.335L80.67,21.585L80.58,21.465L80.46,21.465Q79.5,22.815,78.435,23.895Q77.37,24.975,76.11,26.025Q75.93,26.205,75.66,26.355Q75.39,26.505,75.15,26.505L75.03,26.505L73.86,25.215L70.77,23.685L70.68,23.685Q69.15,24.735,67.56,25.47Q65.97,26.205,64.17,26.745L64.08,26.745Q63.84,26.385,63.585,25.965Q63.33,25.545,63.09,25.095Q63.12,25.095,63.3,25.035Q63.54,24.975,63.54,24.975Q64.92,24.555,66.165,24.06Q67.41,23.565,68.67,22.875Q68.25,22.605,67.95,22.425Q67.65,22.245,67.32,22.095L65.88,21.465Q65.76,21.345,65.58,21.315Q65.37,21.285,65.37,21.105L65.37,20.985Q65.43,20.745,65.43,20.775L65.67,20.265Q65.85,20.025,66.015,19.77Q66.18,19.515,66.3,19.275Q66.42,19.065,66.42,18.765Q65.64,18.765,65.19,18.885Q64.68,19.005,63.96,19.005Q63.87,19.005,63.75,18.795Q63.39,18.345,63.21,17.775Q63.09,17.565,63.09,17.355L63.09,17.235Q63.6,17.055,64.125,17.01Q64.65,16.965,65.19,16.935L66.27,16.935Q66.51,16.965,66.765,16.95Q67.02,16.935,67.26,16.905Q67.41,16.905,67.47,16.89Q67.53,16.875,67.68,16.785Q67.83,16.455,67.95,16.155Q68.07,15.855,68.22,15.555Q68.46,14.985,68.655,14.415Q68.85,13.845,68.97,13.245Q69.06,12.675,69.06,11.985L68.97,11.985Q68.7,12.255,68.415,12.495Q68.13,12.735,67.89,12.975Q67.62,13.215,67.47,13.395L67.38,13.485L66.93,13.815Q66.78,13.935,66.615,14.055Q66.45,14.175,66.27,14.295L65.13,15.135L64.98,15.285Q64.92,15.345,64.845,15.375Q64.77,15.405,64.71,15.465Q64.56,15.615,64.44,15.645Q64.29,15.735,64.26,15.735Q64.11,15.735,63.84,15.585Q63.57,15.435,63.33,15.225Q63.18,15.105,63.075,15.015Q62.97,14.925,62.88,14.835Q62.67,14.655,62.67,14.565L62.67,14.445Q63.24,14.175,63.735,13.83Q64.23,13.485,64.71,13.155L66.78,11.535Q67.86,10.695,68.67,9.735L68.01,9.735Q67.05,9.735,66.21,9.915Q65.34,10.095,64.47,10.095L64.17,10.095Q64.11,9.975,63.99,9.72Q63.87,9.465,63.72,9.225Q63.57,8.985,63.435,8.76Q63.3,8.535,63.3,8.445L63.42,8.355Q64.86,8.175,66.27,8.04Q67.68,7.905,69.06,7.995L69.18,7.875ZM71.52,6.105Q72.36,5.355,73.14,4.395Q73.47,3.975,73.86,3.555Q74.25,3.135,74.7,2.715L74.97,2.895L75.36,3.165Q75.57,3.345,75.735,3.48Q75.9,3.615,75.99,3.645Q76.35,4.005,76.47,4.095Q76.53,4.125,76.65,4.245L76.74,4.365L76.74,4.485L76.65,4.605Q75.45,5.025,74.37,5.775Q73.32,6.465,72.18,7.065L72.06,7.065Q71.73,7.065,71.565,6.84Q71.4,6.615,71.4,6.345L71.52,6.105ZM101.01,2.025Q101.01,1.905,101.19,1.905Q101.34,1.905,101.775,2.145Q102.21,2.385,102.69,2.685L103.5,3.225Q103.86,3.465,103.86,3.525L103.86,3.645Q103.8,3.705,103.755,3.78Q103.71,3.855,103.59,4.005L103.32,4.365Q103.32,4.335,103.17,4.695L102.84,5.355Q102.63,5.745,102.405,6.15Q102.18,6.555,102.06,6.825Q102,6.975,101.955,7.02Q101.91,7.065,101.94,7.035Q101.97,7.005,101.97,7.185Q102.72,7.185,103.47,7.14Q104.22,7.095,104.94,6.975Q106.38,6.795,107.715,6.705Q109.05,6.615,110.22,6.675Q110.79,6.705,111.36,6.66Q111.93,6.615,112.47,6.465Q112.65,6.465,112.98,6.285Q113.25,6.105,113.37,6.105Q113.61,6.105,113.91,6.315Q114.21,6.525,114.51,6.855Q114.66,7.005,114.78,7.17Q114.9,7.335,115.02,7.485L115.38,7.995L115.2,8.205L114.96,8.505L114.69,8.835L114.54,9.045L114.3,9.345L113.97,9.855L113.58,10.395Q113.37,10.605,113.37,10.695Q113.19,10.875,112.92,11.235Q112.62,11.595,112.29,11.97Q111.96,12.345,111.63,12.615Q111.33,12.915,111,12.915Q110.76,12.915,110.415,12.795Q110.07,12.675,110.07,12.315L110.07,12.195L111.63,8.565L110.25,8.565Q107.82,8.565,105.465,8.79Q103.11,9.015,100.77,9.285Q99.72,10.785,98.79,12.345Q97.86,13.905,96.6,15.255Q96.6,15.345,96.435,15.42Q96.27,15.495,96.21,15.495Q95.94,15.495,95.79,15.345Q95.67,15.315,95.67,15.255L95.37,15.075Q95.28,15.015,95.16,14.97Q95.04,14.925,94.92,14.865L94.26,14.565L94.26,14.445L94.92,13.725Q96.06,12.285,96.9,10.95Q97.74,9.615,98.46,8.175Q99.18,6.735,99.795,5.28Q100.41,3.825,101.01,2.025ZM104.07,12.555Q104.01,12.045,103.995,11.445Q103.98,10.845,103.98,10.335L104.4,10.335L106.74,11.025L106.74,12.195Q106.71,12.375,106.71,12.645Q106.71,12.915,106.71,13.245L106.65,14.835Q106.62,15.285,106.62,15.75Q106.62,16.215,106.62,16.695Q106.59,17.685,106.575,18.57Q106.56,19.455,106.56,20.145Q106.53,20.505,106.53,20.775Q106.53,21.045,106.53,21.225Q106.53,22.485,106.5,23.625Q106.47,24.765,106.32,26.025L106.2,26.265L104.4,26.265Q104.25,26.265,103.98,26.19Q103.71,26.115,103.41,26.025Q103.08,25.935,102.78,25.845Q102.48,25.755,102.36,25.695Q102.27,25.755,101.97,25.665Q101.31,25.485,100.59,25.155Q100.26,25.005,100.08,24.96Q99.9,24.915,99.84,24.495Q99.72,24.165,99.72,23.925Q99.72,23.505,99.87,23.43Q100.02,23.355,100.35,23.355Q101.04,23.355,101.73,23.445Q102.09,23.505,102.435,23.535Q102.78,23.565,103.14,23.565L103.65,23.565Q103.92,23.415,103.98,22.845Q104.01,22.755,104.01,22.395Q103.98,22.305,103.98,22.065Q103.98,22.035,103.98,21.975Q103.98,21.915,104.01,21.765Q104.01,21.615,104.01,21.465Q104.01,21.315,104.04,21.165Q104.07,21.015,104.07,20.88Q104.07,20.745,104.07,20.595L104.07,20.295L104.07,12.555ZM99.51,14.205L99.6,14.085Q99.72,14.175,99.87,14.31Q100.02,14.445,100.17,14.595L100.47,14.925Q100.53,15.015,100.59,15.06Q100.65,15.105,100.68,15.135Q100.92,15.315,101.22,15.75Q101.52,16.185,101.52,16.545Q101.31,16.545,101.31,16.665L100.47,18.255Q100.32,18.495,100.17,18.735Q100.02,18.975,99.87,19.185L99.51,19.815Q99.48,19.875,99.42,19.95Q99.36,20.025,99.3,20.175Q99.15,20.445,98.955,20.775Q98.76,21.105,98.55,21.405L98.22,21.825L97.77,22.665Q97.62,22.905,97.425,23.07Q97.23,23.235,97.05,23.235Q96.9,23.235,96.69,22.98Q96.48,22.725,96.42,22.635Q96.36,22.575,96.3,22.515Q96.24,22.455,96.09,22.365L95.58,21.975Q95.43,21.855,95.265,21.735Q95.1,21.615,94.92,21.465L94.92,21.345Q96.39,19.725,97.545,18Q98.7,16.275,99.51,14.205ZM108.57,16.065Q108.57,15.945,108.75,15.78Q108.93,15.615,109.17,15.465Q109.68,15.135,110.07,15.135L110.25,15.135L113.28,17.985Q114.72,19.425,116.34,20.775L116.55,21.105Q116.31,21.165,116.01,21.45Q115.71,21.735,115.47,22.125Q115.2,22.515,114.975,22.905Q114.75,23.295,114.63,23.565L114.54,23.565L114.3,23.445Q112.95,22.005,111.855,20.565Q110.76,19.125,109.62,17.595L109.38,17.325Q108.99,16.965,108.69,16.455Q108.57,16.245,108.57,16.065Z" fill="#000000" fill-opacity="1"/></g></svg>